<?xml version="1.0" encoding="UTF-8"?>
<svg width="453px" height="158px" viewBox="0 0 453 158" version="1.1" xmlns="http://www.w3.org/2000/svg" xmlns:xlink="http://www.w3.org/1999/xlink">
    <!-- Generator: Sketch 48.2 (47327) - http://www.bohemiancoding.com/sketch -->
    <title>love-and-breakup-letter</title>
    <desc>Created with Sketch.</desc>
    <defs></defs>
    <g id="Learndevu" stroke="none" stroke-width="1" fill="none" fill-rule="evenodd" transform="translate(-90.000000, -71.000000)">
        <g id="love-and-breakup-letter" transform="translate(90.000000, 71.000000)">
            <g id="love-letter">
                <g id="Group-12" fill="#555555" fill-rule="nonzero">
                    <g id="if_Letter_1872934">
                        <path d="M101,46.6 L101,3 C101,1.4 99.6,0 97.9,0 L18.1,0 C16.4,0 15,1.4 15,3 L15,46.6 L0,61.6 L0,122 C0,123.7 1.3,125 3,125 L113,125 C114.7,125 116,123.7 116,122 L116,61.6 L101,46.6 Z M101,49.4 L113.3,61.8 L101,68.5 L101,49.4 Z M17,3 C17,2.5 17.5,2 18.1,2 L97.9,2 C98.5,2 99,2.5 99,3 L99,69.6 L70.4,85.1 L59.9,76.3 C58.7,75.4 57.1,75.4 56.1,76.3 L45.7,85.1 L17,69.6 L17,3 Z M15,49.4 L15,68.5 L2.7,61.8 L15,49.4 Z M2,121.9 L2,63.7 L44,86.5 L2,121.9 Z M3.7,123 L57.4,77.9 C57.7,77.6 58.3,77.6 58.7,77.9 L112.3,123 L3.7,123 Z M114,121.9 L72,86.5 L114,63.7 L114,121.9 Z" id="Shape"></path>
                    </g>
                </g>
                <g id="if_heart_383128" transform="translate(33.000000, 13.000000)" fill="#C4274E" fill-rule="nonzero">
                    <path d="M45.2265088,4.05733696 C39.8059206,-1.35244565 31.0157245,-1.35244565 25.5961167,4.05733696 L24.8363128,4.81451087 L23.8598422,4.05733696 C18.4392539,-1.35244565 9.43337158,-1.35244565 4.01180295,4.05733696 C-1.40878528,9.4661413 -1.30094215,18.23625 4.12062648,23.6460326 L22.5059206,41.88375 C23.1637637,42.540163 23.8784696,43.1144022 24.8353324,43.6113587 C25.5804304,43.1144022 26.2892539,42.540163 26.9480775,41.88375 L45.2255284,23.6460326 C50.6470971,18.23625 50.6470971,9.4661413 45.2265088,4.05733696 Z" id="Shape"></path>
                </g>
                <text id="Love-Letter" font-family="Roboto-Regular, Roboto" font-size="14" font-weight="normal" fill="#555555">
                    <tspan x="19.8793945" y="153">Love Letter</tspan>
                </text>
            </g>
            <g id="breakup-letter" transform="translate(337.000000, 0.000000)">
                <g id="Group-12-Copy" fill="#555555" fill-rule="nonzero">
                    <g id="if_Letter_1872934">
                        <path d="M101,46.6 L101,3 C101,1.4 99.6,0 97.9,0 L18.1,0 C16.4,0 15,1.4 15,3 L15,46.6 L0,61.6 L0,122 C0,123.7 1.3,125 3,125 L113,125 C114.7,125 116,123.7 116,122 L116,61.6 L101,46.6 Z M101,49.4 L113.3,61.8 L101,68.5 L101,49.4 Z M17,3 C17,2.5 17.5,2 18.1,2 L97.9,2 C98.5,2 99,2.5 99,3 L99,69.6 L70.4,85.1 L59.9,76.3 C58.7,75.4 57.1,75.4 56.1,76.3 L45.7,85.1 L17,69.6 L17,3 Z M15,49.4 L15,68.5 L2.7,61.8 L15,49.4 Z M2,121.9 L2,63.7 L44,86.5 L2,121.9 Z M3.7,123 L57.4,77.9 C57.7,77.6 58.3,77.6 58.7,77.9 L112.3,123 L3.7,123 Z M114,121.9 L72,86.5 L114,63.7 L114,121.9 Z" id="Shape"></path>
                    </g>
                </g>
                <g id="if_broken-heart_383175" transform="translate(33.000000, 12.000000)" fill="#8F57A2" fill-rule="nonzero">
                    <path d="M45.8542881,4.24160715 C40.8340798,-0.903952931 32.9935885,-1.36169227 27.452071,2.83454849 C27.9334132,3.64316195 28.4303947,4.44465106 28.89436,5.26216995 C29.8031758,6.80815339 30.6529099,8.38263422 31.4887424,9.96245831 C32.3454273,11.533377 33.1708336,13.1185443 33.9684368,14.7161793 L34.9467605,16.6718127 L32.8823759,17.8615788 C28.9864579,20.1075293 25.0123436,22.1985254 21,24.2075914 C22.1103887,27.9674659 23.1408434,31.7576188 24.0427084,35.5905179 C24.3363793,36.7286324 24.5605423,37.8899011 24.8125084,39.0387021 C25.0609992,40.1910653 25.314703,41.3416475 25.5180136,42.5100405 C25.6744064,43.3364648 25.8151599,44.1700135 25.9576511,45 C26.3886001,44.650907 26.8125983,44.282222 27.210531,43.872572 L45.8542881,24.7632905 C51.381904,19.0976531 51.381904,9.9090257 45.8542881,4.24160715 Z" id="Shape"></path>
                    <path d="M22.8369634,39.8298061 C22.3522736,38.759622 21.8371788,37.7000689 21.393625,36.6157102 C19.5228294,32.3119402 17.8040583,27.9567871 16.2373118,23.5537947 L15.493286,21.459494 L17.5608191,20.38931 C21.6475953,18.2755192 25.7969698,16.2875283 30,14.4040752 C29.6422953,13.4756374 29.2720709,12.552515 28.9322515,11.6134462 C28.3026912,9.93729698 27.6856506,8.25406044 27.1312083,6.54424648 C26.9833571,6.11310168 26.6304218,5.60458707 26.0724024,5.01870263 L25.049367,4.22846737 C19.3582853,-1.40948912 9.9041501,-1.40948912 4.21306837,4.22846737 C-1.47980189,9.86642386 -1.36533639,19.0072842 4.32574535,24.6434688 L23.6274908,43.6534108 C24.1318544,44.1512944 24.7059705,44.5907077 25.3480504,45 C25.011808,44.3426518 24.6719885,43.6853037 24.3464773,43.0244119 C23.8099202,41.9701742 23.3288074,40.8982183 22.8369634,39.8298061 Z" id="Shape"></path>
                </g>
                <text id="Breakup-Letter" font-family="Roboto-Regular, Roboto" font-size="14" font-weight="normal" fill="#555555">
                    <tspan x="12.6298828" y="155">Breakup Letter</tspan>
                </text>
            </g>
        </g>
    </g>
</svg>