<svg width="600" height="475" viewBox="0 0 600 475" fill="none" xmlns="http://www.w3.org/2000/svg">
<rect width="600" height="475" fill="white"/>
<rect y="82" width="80" height="80" rx="3" fill="#333032"/>
<path d="M17.7061 178.854L17.2549 181.179H19.1895V182.061H17.0908L16.5166 185H15.5801L16.1543 182.061H14.083L13.5225 185H12.5928L13.1396 182.061H11.3486V181.179H13.3105L13.7754 178.854H11.8818V177.986H13.9258L14.4863 175.006H15.4365L14.876 177.986H16.9609L17.5352 175.006H18.4512L17.877 177.986H19.6816V178.854H17.7061ZM14.2471 181.179H16.3184L16.7695 178.854H14.6982L14.2471 181.179ZM26.9277 177.357C26.9277 177.995 26.7477 178.517 26.3877 178.923C26.0322 179.328 25.5264 179.6 24.8701 179.736V179.791C25.6722 179.891 26.2669 180.146 26.6543 180.557C27.0417 180.967 27.2354 181.505 27.2354 182.17C27.2354 183.122 26.9049 183.856 26.2441 184.371C25.5833 184.882 24.6445 185.137 23.4277 185.137C22.8991 185.137 22.4137 185.096 21.9717 185.014C21.5342 184.936 21.1081 184.797 20.6934 184.597V183.517C21.1263 183.731 21.5866 183.895 22.0742 184.009C22.5664 184.118 23.0312 184.173 23.4688 184.173C25.196 184.173 26.0596 183.496 26.0596 182.143C26.0596 180.93 25.1071 180.324 23.2021 180.324H22.2178V179.347H23.2158C23.9951 179.347 24.6126 179.176 25.0684 178.834C25.5241 178.488 25.752 178.009 25.752 177.398C25.752 176.911 25.5833 176.528 25.2461 176.25C24.9134 175.972 24.46 175.833 23.8857 175.833C23.4482 175.833 23.0358 175.892 22.6484 176.011C22.2611 176.129 21.819 176.348 21.3223 176.667L20.748 175.901C21.1582 175.578 21.6299 175.325 22.1631 175.143C22.7008 174.956 23.266 174.862 23.8584 174.862C24.8291 174.862 25.5833 175.086 26.1211 175.532C26.6589 175.974 26.9277 176.583 26.9277 177.357ZM34.9395 177.357C34.9395 177.995 34.7594 178.517 34.3994 178.923C34.0439 179.328 33.5381 179.6 32.8818 179.736V179.791C33.6839 179.891 34.2786 180.146 34.666 180.557C35.0534 180.967 35.2471 181.505 35.2471 182.17C35.2471 183.122 34.9167 183.856 34.2559 184.371C33.5951 184.882 32.6562 185.137 31.4395 185.137C30.9108 185.137 30.4255 185.096 29.9834 185.014C29.5459 184.936 29.1198 184.797 28.7051 184.597V183.517C29.138 183.731 29.5983 183.895 30.0859 184.009C30.5781 184.118 31.043 184.173 31.4805 184.173C33.2077 184.173 34.0713 183.496 34.0713 182.143C34.0713 180.93 33.1188 180.324 31.2139 180.324H30.2295V179.347H31.2275C32.0068 179.347 32.6243 179.176 33.0801 178.834C33.5358 178.488 33.7637 178.009 33.7637 177.398C33.7637 176.911 33.5951 176.528 33.2578 176.25C32.9251 175.972 32.4717 175.833 31.8975 175.833C31.46 175.833 31.0475 175.892 30.6602 176.011C30.2728 176.129 29.8307 176.348 29.334 176.667L28.7598 175.901C29.1699 175.578 29.6416 175.325 30.1748 175.143C30.7126 174.956 31.2777 174.862 31.8701 174.862C32.8408 174.862 33.5951 175.086 34.1328 175.532C34.6706 175.974 34.9395 176.583 34.9395 177.357ZM42.9512 177.357C42.9512 177.995 42.7712 178.517 42.4111 178.923C42.0557 179.328 41.5498 179.6 40.8936 179.736V179.791C41.6956 179.891 42.2904 180.146 42.6777 180.557C43.0651 180.967 43.2588 181.505 43.2588 182.17C43.2588 183.122 42.9284 183.856 42.2676 184.371C41.6068 184.882 40.668 185.137 39.4512 185.137C38.9225 185.137 38.4372 185.096 37.9951 185.014C37.5576 184.936 37.1315 184.797 36.7168 184.597V183.517C37.1497 183.731 37.61 183.895 38.0977 184.009C38.5898 184.118 39.0547 184.173 39.4922 184.173C41.2194 184.173 42.083 183.496 42.083 182.143C42.083 180.93 41.1305 180.324 39.2256 180.324H38.2412V179.347H39.2393C40.0186 179.347 40.6361 179.176 41.0918 178.834C41.5475 178.488 41.7754 178.009 41.7754 177.398C41.7754 176.911 41.6068 176.528 41.2695 176.25C40.9368 175.972 40.4834 175.833 39.9092 175.833C39.4717 175.833 39.0592 175.892 38.6719 176.011C38.2845 176.129 37.8424 176.348 37.3457 176.667L36.7715 175.901C37.1816 175.578 37.6533 175.325 38.1865 175.143C38.7243 174.956 39.2894 174.862 39.8818 174.862C40.8525 174.862 41.6068 175.086 42.1445 175.532C42.6823 175.974 42.9512 176.583 42.9512 177.357ZM51.3936 179.989C51.3936 181.716 51.1201 183.006 50.5732 183.858C50.0309 184.711 49.1992 185.137 48.0781 185.137C47.0026 185.137 46.1846 184.701 45.624 183.831C45.0635 182.956 44.7832 181.675 44.7832 179.989C44.7832 178.248 45.0544 176.956 45.5967 176.113C46.139 175.27 46.9661 174.849 48.0781 174.849C49.1628 174.849 49.9854 175.288 50.5459 176.168C51.111 177.048 51.3936 178.321 51.3936 179.989ZM45.9316 179.989C45.9316 181.443 46.1025 182.503 46.4443 183.168C46.7861 183.829 47.3307 184.159 48.0781 184.159C48.8346 184.159 49.3815 183.824 49.7188 183.154C50.0605 182.48 50.2314 181.425 50.2314 179.989C50.2314 178.554 50.0605 177.503 49.7188 176.838C49.3815 176.168 48.8346 175.833 48.0781 175.833C47.3307 175.833 46.7861 176.163 46.4443 176.824C46.1025 177.48 45.9316 178.535 45.9316 179.989ZM58.9746 177.357C58.9746 177.995 58.7946 178.517 58.4346 178.923C58.0791 179.328 57.5732 179.6 56.917 179.736V179.791C57.7191 179.891 58.3138 180.146 58.7012 180.557C59.0885 180.967 59.2822 181.505 59.2822 182.17C59.2822 183.122 58.9518 183.856 58.291 184.371C57.6302 184.882 56.6914 185.137 55.4746 185.137C54.946 185.137 54.4606 185.096 54.0186 185.014C53.5811 184.936 53.1549 184.797 52.7402 184.597V183.517C53.1732 183.731 53.6335 183.895 54.1211 184.009C54.6133 184.118 55.0781 184.173 55.5156 184.173C57.2428 184.173 58.1064 183.496 58.1064 182.143C58.1064 180.93 57.154 180.324 55.249 180.324H54.2646V179.347H55.2627C56.042 179.347 56.6595 179.176 57.1152 178.834C57.571 178.488 57.7988 178.009 57.7988 177.398C57.7988 176.911 57.6302 176.528 57.293 176.25C56.9603 175.972 56.5068 175.833 55.9326 175.833C55.4951 175.833 55.0827 175.892 54.6953 176.011C54.3079 176.129 53.8659 176.348 53.3691 176.667L52.7949 175.901C53.2051 175.578 53.6768 175.325 54.21 175.143C54.7477 174.956 55.3128 174.862 55.9053 174.862C56.876 174.862 57.6302 175.086 58.168 175.532C58.7057 175.974 58.9746 176.583 58.9746 177.357ZM67.3623 185H60.793V184.022L63.4248 181.377C64.2269 180.566 64.7555 179.987 65.0107 179.641C65.266 179.294 65.4574 178.957 65.585 178.629C65.7126 178.301 65.7764 177.948 65.7764 177.569C65.7764 177.036 65.6146 176.615 65.291 176.305C64.9674 175.99 64.5186 175.833 63.9443 175.833C63.5296 175.833 63.1354 175.901 62.7617 176.038C62.3926 176.175 61.9801 176.423 61.5244 176.783L60.9229 176.011C61.8434 175.245 62.846 174.862 63.9307 174.862C64.8695 174.862 65.6055 175.104 66.1387 175.587C66.6719 176.065 66.9385 176.71 66.9385 177.521C66.9385 178.155 66.7607 178.782 66.4053 179.401C66.0498 180.021 65.3844 180.805 64.4092 181.753L62.2217 183.893V183.947H67.3623V185Z" fill="#5F5F5F"/>
<rect x="104" y="82" width="80" height="80" rx="3" fill="#5F5F5F"/>
<path d="M123.206 178.854L122.755 181.179H124.689V182.061H122.591L122.017 185H121.08L121.654 182.061H119.583L119.022 185H118.093L118.64 182.061H116.849V181.179H118.811L119.275 178.854H117.382V177.986H119.426L119.986 175.006H120.937L120.376 177.986H122.461L123.035 175.006H123.951L123.377 177.986H125.182V178.854H123.206ZM119.747 181.179H121.818L122.27 178.854H120.198L119.747 181.179ZM129.358 178.896C130.411 178.896 131.238 179.158 131.84 179.682C132.446 180.201 132.749 180.914 132.749 181.821C132.749 182.856 132.419 183.667 131.758 184.255C131.102 184.843 130.195 185.137 129.037 185.137C127.911 185.137 127.052 184.957 126.46 184.597V183.503C126.779 183.708 127.175 183.87 127.649 183.988C128.123 184.102 128.59 184.159 129.051 184.159C129.853 184.159 130.475 183.97 130.917 183.592C131.364 183.214 131.587 182.667 131.587 181.951C131.587 180.557 130.732 179.859 129.023 179.859C128.59 179.859 128.012 179.925 127.287 180.058L126.699 179.682L127.075 175.006H132.045V176.052H128.046L127.793 179.053C128.317 178.948 128.839 178.896 129.358 178.896ZM136.099 185H134.937V175.006H140.508V176.038H136.099V179.695H140.241V180.728H136.099V185ZM144.603 178.896C145.655 178.896 146.482 179.158 147.084 179.682C147.69 180.201 147.993 180.914 147.993 181.821C147.993 182.856 147.663 183.667 147.002 184.255C146.346 184.843 145.439 185.137 144.281 185.137C143.156 185.137 142.297 184.957 141.704 184.597V183.503C142.023 183.708 142.42 183.87 142.894 183.988C143.368 184.102 143.835 184.159 144.295 184.159C145.097 184.159 145.719 183.97 146.161 183.592C146.608 183.214 146.831 182.667 146.831 181.951C146.831 180.557 145.977 179.859 144.268 179.859C143.835 179.859 143.256 179.925 142.531 180.058L141.943 179.682L142.319 175.006H147.289V176.052H143.29L143.037 179.053C143.561 178.948 144.083 178.896 144.603 178.896ZM151.343 185H150.181V175.006H155.752V176.038H151.343V179.695H155.485V180.728H151.343V185ZM159.847 178.896C160.899 178.896 161.727 179.158 162.328 179.682C162.934 180.201 163.237 180.914 163.237 181.821C163.237 182.856 162.907 183.667 162.246 184.255C161.59 184.843 160.683 185.137 159.525 185.137C158.4 185.137 157.541 184.957 156.948 184.597V183.503C157.267 183.708 157.664 183.87 158.138 183.988C158.612 184.102 159.079 184.159 159.539 184.159C160.341 184.159 160.963 183.97 161.405 183.592C161.852 183.214 162.075 182.667 162.075 181.951C162.075 180.557 161.221 179.859 159.512 179.859C159.079 179.859 158.5 179.925 157.775 180.058L157.188 179.682L157.563 175.006H162.533V176.052H158.534L158.281 179.053C158.805 178.948 159.327 178.896 159.847 178.896ZM166.587 185H165.425V175.006H170.996V176.038H166.587V179.695H170.729V180.728H166.587V185Z" fill="#5F5F5F"/>
<rect x="208" y="82" width="80" height="80" rx="3" fill="#828282"/>
<path d="M225.706 178.854L225.255 181.179H227.189V182.061H225.091L224.517 185H223.58L224.154 182.061H222.083L221.522 185H220.593L221.14 182.061H219.349V181.179H221.311L221.775 178.854H219.882V177.986H221.926L222.486 175.006H223.437L222.876 177.986H224.961L225.535 175.006H226.451L225.877 177.986H227.682V178.854H225.706ZM222.247 181.179H224.318L224.77 178.854H222.698L222.247 181.179ZM232.043 174.862C232.954 174.862 233.677 175.074 234.21 175.498C234.743 175.922 235.01 176.507 235.01 177.255C235.01 177.747 234.857 178.196 234.552 178.602C234.246 179.007 233.759 179.376 233.089 179.709C233.9 180.096 234.477 180.504 234.818 180.933C235.16 181.356 235.331 181.849 235.331 182.409C235.331 183.239 235.042 183.902 234.463 184.398C233.884 184.891 233.091 185.137 232.084 185.137C231.018 185.137 230.197 184.904 229.623 184.439C229.049 183.97 228.762 183.307 228.762 182.45C228.762 181.306 229.459 180.415 230.854 179.777C230.225 179.422 229.773 179.039 229.5 178.629C229.227 178.214 229.09 177.752 229.09 177.241C229.09 176.517 229.356 175.94 229.89 175.512C230.427 175.079 231.145 174.862 232.043 174.862ZM229.883 182.478C229.883 183.024 230.072 183.451 230.45 183.756C230.833 184.061 231.368 184.214 232.057 184.214C232.736 184.214 233.264 184.054 233.643 183.735C234.021 183.416 234.21 182.979 234.21 182.423C234.21 181.981 234.032 181.589 233.677 181.247C233.321 180.901 232.701 180.566 231.817 180.242C231.138 180.534 230.646 180.857 230.341 181.213C230.035 181.564 229.883 181.985 229.883 182.478ZM232.029 175.785C231.46 175.785 231.013 175.922 230.689 176.195C230.366 176.469 230.204 176.833 230.204 177.289C230.204 177.708 230.339 178.068 230.607 178.369C230.876 178.67 231.373 178.971 232.098 179.271C232.749 178.998 233.21 178.704 233.479 178.39C233.752 178.075 233.889 177.708 233.889 177.289C233.889 176.829 233.722 176.464 233.39 176.195C233.062 175.922 232.608 175.785 232.029 175.785ZM243.315 185H236.746V184.022L239.378 181.377C240.18 180.566 240.709 179.987 240.964 179.641C241.219 179.294 241.41 178.957 241.538 178.629C241.666 178.301 241.729 177.948 241.729 177.569C241.729 177.036 241.568 176.615 241.244 176.305C240.921 175.99 240.472 175.833 239.897 175.833C239.483 175.833 239.089 175.901 238.715 176.038C238.346 176.175 237.933 176.423 237.478 176.783L236.876 176.011C237.797 175.245 238.799 174.862 239.884 174.862C240.823 174.862 241.559 175.104 242.092 175.587C242.625 176.065 242.892 176.71 242.892 177.521C242.892 178.155 242.714 178.782 242.358 179.401C242.003 180.021 241.338 180.805 240.362 181.753L238.175 183.893V183.947H243.315V185ZM248.066 174.862C248.978 174.862 249.7 175.074 250.233 175.498C250.767 175.922 251.033 176.507 251.033 177.255C251.033 177.747 250.881 178.196 250.575 178.602C250.27 179.007 249.782 179.376 249.112 179.709C249.924 180.096 250.5 180.504 250.842 180.933C251.184 181.356 251.354 181.849 251.354 182.409C251.354 183.239 251.065 183.902 250.486 184.398C249.908 184.891 249.115 185.137 248.107 185.137C247.041 185.137 246.221 184.904 245.646 184.439C245.072 183.97 244.785 183.307 244.785 182.45C244.785 181.306 245.482 180.415 246.877 179.777C246.248 179.422 245.797 179.039 245.523 178.629C245.25 178.214 245.113 177.752 245.113 177.241C245.113 176.517 245.38 175.94 245.913 175.512C246.451 175.079 247.169 174.862 248.066 174.862ZM245.906 182.478C245.906 183.024 246.095 183.451 246.474 183.756C246.856 184.061 247.392 184.214 248.08 184.214C248.759 184.214 249.288 184.054 249.666 183.735C250.044 183.416 250.233 182.979 250.233 182.423C250.233 181.981 250.056 181.589 249.7 181.247C249.345 180.901 248.725 180.566 247.841 180.242C247.162 180.534 246.67 180.857 246.364 181.213C246.059 181.564 245.906 181.985 245.906 182.478ZM248.053 175.785C247.483 175.785 247.036 175.922 246.713 176.195C246.389 176.469 246.228 176.833 246.228 177.289C246.228 177.708 246.362 178.068 246.631 178.369C246.9 178.67 247.396 178.971 248.121 179.271C248.773 178.998 249.233 178.704 249.502 178.39C249.775 178.075 249.912 177.708 249.912 177.289C249.912 176.829 249.746 176.464 249.413 176.195C249.085 175.922 248.632 175.785 248.053 175.785ZM259.339 185H252.77V184.022L255.401 181.377C256.203 180.566 256.732 179.987 256.987 179.641C257.243 179.294 257.434 178.957 257.562 178.629C257.689 178.301 257.753 177.948 257.753 177.569C257.753 177.036 257.591 176.615 257.268 176.305C256.944 175.99 256.495 175.833 255.921 175.833C255.506 175.833 255.112 175.901 254.738 176.038C254.369 176.175 253.957 176.423 253.501 176.783L252.899 176.011C253.82 175.245 254.823 174.862 255.907 174.862C256.846 174.862 257.582 175.104 258.115 175.587C258.648 176.065 258.915 176.71 258.915 177.521C258.915 178.155 258.737 178.782 258.382 179.401C258.026 180.021 257.361 180.805 256.386 181.753L254.198 183.893V183.947H259.339V185ZM264.09 174.862C265.001 174.862 265.724 175.074 266.257 175.498C266.79 175.922 267.057 176.507 267.057 177.255C267.057 177.747 266.904 178.196 266.599 178.602C266.293 179.007 265.806 179.376 265.136 179.709C265.947 180.096 266.523 180.504 266.865 180.933C267.207 181.356 267.378 181.849 267.378 182.409C267.378 183.239 267.089 183.902 266.51 184.398C265.931 184.891 265.138 185.137 264.131 185.137C263.064 185.137 262.244 184.904 261.67 184.439C261.096 183.97 260.809 183.307 260.809 182.45C260.809 181.306 261.506 180.415 262.9 179.777C262.271 179.422 261.82 179.039 261.547 178.629C261.273 178.214 261.137 177.752 261.137 177.241C261.137 176.517 261.403 175.94 261.937 175.512C262.474 175.079 263.192 174.862 264.09 174.862ZM261.93 182.478C261.93 183.024 262.119 183.451 262.497 183.756C262.88 184.061 263.415 184.214 264.104 184.214C264.783 184.214 265.311 184.054 265.689 183.735C266.068 183.416 266.257 182.979 266.257 182.423C266.257 181.981 266.079 181.589 265.724 181.247C265.368 180.901 264.748 180.566 263.864 180.242C263.185 180.534 262.693 180.857 262.388 181.213C262.082 181.564 261.93 181.985 261.93 182.478ZM264.076 175.785C263.507 175.785 263.06 175.922 262.736 176.195C262.413 176.469 262.251 176.833 262.251 177.289C262.251 177.708 262.385 178.068 262.654 178.369C262.923 178.67 263.42 178.971 264.145 179.271C264.796 178.998 265.257 178.704 265.525 178.39C265.799 178.075 265.936 177.708 265.936 177.289C265.936 176.829 265.769 176.464 265.437 176.195C265.108 175.922 264.655 175.785 264.076 175.785ZM275.362 185H268.793V184.022L271.425 181.377C272.227 180.566 272.756 179.987 273.011 179.641C273.266 179.294 273.457 178.957 273.585 178.629C273.713 178.301 273.776 177.948 273.776 177.569C273.776 177.036 273.615 176.615 273.291 176.305C272.967 175.99 272.519 175.833 271.944 175.833C271.53 175.833 271.135 175.901 270.762 176.038C270.393 176.175 269.98 176.423 269.524 176.783L268.923 176.011C269.843 175.245 270.846 174.862 271.931 174.862C272.869 174.862 273.605 175.104 274.139 175.587C274.672 176.065 274.938 176.71 274.938 177.521C274.938 178.155 274.761 178.782 274.405 179.401C274.05 180.021 273.384 180.805 272.409 181.753L270.222 183.893V183.947H275.362V185Z" fill="#5F5F5F"/>
<rect x="312" y="82" width="80" height="80" rx="3" fill="#BDBDBD"/>
<path d="M325.206 178.854L324.755 181.179H326.689V182.061H324.591L324.017 185H323.08L323.654 182.061H321.583L321.022 185H320.093L320.64 182.061H318.849V181.179H320.811L321.275 178.854H319.382V177.986H321.426L321.986 175.006H322.937L322.376 177.986H324.461L325.035 175.006H325.951L325.377 177.986H327.182V178.854H325.206ZM321.747 181.179H323.818L324.27 178.854H322.198L321.747 181.179ZM328.925 175.006H331.748C333.074 175.006 334.034 175.204 334.626 175.601C335.218 175.997 335.515 176.624 335.515 177.48C335.515 178.073 335.348 178.563 335.016 178.95C334.688 179.333 334.207 179.581 333.573 179.695V179.764C335.091 180.023 335.85 180.821 335.85 182.156C335.85 183.049 335.547 183.747 334.94 184.248C334.339 184.749 333.496 185 332.411 185H328.925V175.006ZM330.087 179.285H332.001C332.821 179.285 333.411 179.158 333.771 178.902C334.132 178.643 334.312 178.207 334.312 177.597C334.312 177.036 334.111 176.633 333.71 176.387C333.309 176.136 332.671 176.011 331.796 176.011H330.087V179.285ZM330.087 180.27V184.009H332.172C332.979 184.009 333.585 183.854 333.99 183.544C334.4 183.229 334.605 182.74 334.605 182.074C334.605 181.454 334.396 180.999 333.977 180.707C333.562 180.415 332.928 180.27 332.076 180.27H330.087ZM345.98 179.907C345.98 181.557 345.532 182.819 344.634 183.694C343.741 184.565 342.453 185 340.771 185H338.003V175.006H341.065C342.619 175.006 343.827 175.437 344.688 176.298C345.55 177.159 345.98 178.362 345.98 179.907ZM344.75 179.948C344.75 178.645 344.422 177.663 343.766 177.002C343.114 176.341 342.143 176.011 340.854 176.011H339.165V183.995H340.58C341.965 183.995 343.007 183.656 343.704 182.977C344.401 182.293 344.75 181.284 344.75 179.948ZM348.216 175.006H351.039C352.365 175.006 353.325 175.204 353.917 175.601C354.509 175.997 354.806 176.624 354.806 177.48C354.806 178.073 354.639 178.563 354.307 178.95C353.979 179.333 353.498 179.581 352.864 179.695V179.764C354.382 180.023 355.141 180.821 355.141 182.156C355.141 183.049 354.838 183.747 354.231 184.248C353.63 184.749 352.787 185 351.702 185H348.216V175.006ZM349.378 179.285H351.292C352.112 179.285 352.702 179.158 353.062 178.902C353.423 178.643 353.603 178.207 353.603 177.597C353.603 177.036 353.402 176.633 353.001 176.387C352.6 176.136 351.962 176.011 351.087 176.011H349.378V179.285ZM349.378 180.27V184.009H351.463C352.27 184.009 352.876 183.854 353.281 183.544C353.691 183.229 353.896 182.74 353.896 182.074C353.896 181.454 353.687 180.999 353.268 180.707C352.853 180.415 352.219 180.27 351.367 180.27H349.378ZM365.271 179.907C365.271 181.557 364.823 182.819 363.925 183.694C363.032 184.565 361.744 185 360.062 185H357.294V175.006H360.356C361.91 175.006 363.118 175.437 363.979 176.298C364.841 177.159 365.271 178.362 365.271 179.907ZM364.041 179.948C364.041 178.645 363.713 177.663 363.057 177.002C362.405 176.341 361.434 176.011 360.145 176.011H358.456V183.995H359.871C361.257 183.995 362.298 183.656 362.995 182.977C363.692 182.293 364.041 181.284 364.041 179.948ZM367.507 175.006H370.33C371.656 175.006 372.616 175.204 373.208 175.601C373.8 175.997 374.097 176.624 374.097 177.48C374.097 178.073 373.93 178.563 373.598 178.95C373.27 179.333 372.789 179.581 372.155 179.695V179.764C373.673 180.023 374.432 180.821 374.432 182.156C374.432 183.049 374.129 183.747 373.522 184.248C372.921 184.749 372.078 185 370.993 185H367.507V175.006ZM368.669 179.285H370.583C371.403 179.285 371.993 179.158 372.354 178.902C372.714 178.643 372.894 178.207 372.894 177.597C372.894 177.036 372.693 176.633 372.292 176.387C371.891 176.136 371.253 176.011 370.378 176.011H368.669V179.285ZM368.669 180.27V184.009H370.754C371.561 184.009 372.167 183.854 372.572 183.544C372.982 183.229 373.188 182.74 373.188 182.074C373.188 181.454 372.978 180.999 372.559 180.707C372.144 180.415 371.51 180.27 370.658 180.27H368.669ZM384.562 179.907C384.562 181.557 384.114 182.819 383.216 183.694C382.323 184.565 381.035 185 379.354 185H376.585V175.006H379.647C381.201 175.006 382.409 175.437 383.271 176.298C384.132 177.159 384.562 178.362 384.562 179.907ZM383.332 179.948C383.332 178.645 383.004 177.663 382.348 177.002C381.696 176.341 380.725 176.011 379.436 176.011H377.747V183.995H379.162C380.548 183.995 381.589 183.656 382.286 182.977C382.983 182.293 383.332 181.284 383.332 179.948Z" fill="#5F5F5F"/>
<rect x="416" y="82" width="80" height="80" rx="3" fill="#E0E0E0"/>
<path d="M434.206 178.854L433.755 181.179H435.689V182.061H433.591L433.017 185H432.08L432.654 182.061H430.583L430.022 185H429.093L429.64 182.061H427.849V181.179H429.811L430.275 178.854H428.382V177.986H430.426L430.986 175.006H431.937L431.376 177.986H433.461L434.035 175.006H434.951L434.377 177.986H436.182V178.854H434.206ZM430.747 181.179H432.818L433.27 178.854H431.198L430.747 181.179ZM443.496 185H437.925V175.006H443.496V176.038H439.087V179.258H443.229V180.283H439.087V183.961H443.496V185ZM451.651 179.989C451.651 181.716 451.378 183.006 450.831 183.858C450.289 184.711 449.457 185.137 448.336 185.137C447.26 185.137 446.442 184.701 445.882 183.831C445.321 182.956 445.041 181.675 445.041 179.989C445.041 178.248 445.312 176.956 445.854 176.113C446.397 175.27 447.224 174.849 448.336 174.849C449.421 174.849 450.243 175.288 450.804 176.168C451.369 177.048 451.651 178.321 451.651 179.989ZM446.189 179.989C446.189 181.443 446.36 182.503 446.702 183.168C447.044 183.829 447.589 184.159 448.336 184.159C449.092 184.159 449.639 183.824 449.977 183.154C450.318 182.48 450.489 181.425 450.489 179.989C450.489 178.554 450.318 177.503 449.977 176.838C449.639 176.168 449.092 175.833 448.336 175.833C447.589 175.833 447.044 176.163 446.702 176.824C446.36 177.48 446.189 178.535 446.189 179.989ZM459.301 185H453.729V175.006H459.301V176.038H454.892V179.258H459.034V180.283H454.892V183.961H459.301V185ZM467.456 179.989C467.456 181.716 467.183 183.006 466.636 183.858C466.093 184.711 465.262 185.137 464.141 185.137C463.065 185.137 462.247 184.701 461.687 183.831C461.126 182.956 460.846 181.675 460.846 179.989C460.846 178.248 461.117 176.956 461.659 176.113C462.201 175.27 463.029 174.849 464.141 174.849C465.225 174.849 466.048 175.288 466.608 176.168C467.174 177.048 467.456 178.321 467.456 179.989ZM461.994 179.989C461.994 181.443 462.165 182.503 462.507 183.168C462.849 183.829 463.393 184.159 464.141 184.159C464.897 184.159 465.444 183.824 465.781 183.154C466.123 182.48 466.294 181.425 466.294 179.989C466.294 178.554 466.123 177.503 465.781 176.838C465.444 176.168 464.897 175.833 464.141 175.833C463.393 175.833 462.849 176.163 462.507 176.824C462.165 177.48 461.994 178.535 461.994 179.989ZM475.105 185H469.534V175.006H475.105V176.038H470.696V179.258H474.839V180.283H470.696V183.961H475.105V185ZM483.261 179.989C483.261 181.716 482.987 183.006 482.44 183.858C481.898 184.711 481.066 185.137 479.945 185.137C478.87 185.137 478.052 184.701 477.491 183.831C476.931 182.956 476.65 181.675 476.65 179.989C476.65 178.248 476.922 176.956 477.464 176.113C478.006 175.27 478.833 174.849 479.945 174.849C481.03 174.849 481.853 175.288 482.413 176.168C482.978 177.048 483.261 178.321 483.261 179.989ZM477.799 179.989C477.799 181.443 477.97 182.503 478.312 183.168C478.653 183.829 479.198 184.159 479.945 184.159C480.702 184.159 481.249 183.824 481.586 183.154C481.928 182.48 482.099 181.425 482.099 179.989C482.099 178.554 481.928 177.503 481.586 176.838C481.249 176.168 480.702 175.833 479.945 175.833C479.198 175.833 478.653 176.163 478.312 176.824C477.97 177.48 477.799 178.535 477.799 179.989Z" fill="#5F5F5F"/>
<rect x="520.5" y="82.5" width="79" height="79" rx="2.5" fill="#F2F2F2" stroke="#E6E6E6"/>
<path d="M539.206 178.854L538.755 181.179H540.689V182.061H538.591L538.017 185H537.08L537.654 182.061H535.583L535.022 185H534.093L534.64 182.061H532.849V181.179H534.811L535.275 178.854H533.382V177.986H535.426L535.986 175.006H536.937L536.376 177.986H538.461L539.035 175.006H539.951L539.377 177.986H541.182V178.854H539.206ZM535.747 181.179H537.818L538.27 178.854H536.198L535.747 181.179ZM544.087 185H542.925V175.006H548.496V176.038H544.087V179.695H548.229V180.728H544.087V185ZM556.036 185H549.467V184.022L552.099 181.377C552.901 180.566 553.429 179.987 553.685 179.641C553.94 179.294 554.131 178.957 554.259 178.629C554.386 178.301 554.45 177.948 554.45 177.569C554.45 177.036 554.288 176.615 553.965 176.305C553.641 175.99 553.192 175.833 552.618 175.833C552.203 175.833 551.809 175.901 551.436 176.038C551.066 176.175 550.654 176.423 550.198 176.783L549.597 176.011C550.517 175.245 551.52 174.862 552.604 174.862C553.543 174.862 554.279 175.104 554.812 175.587C555.346 176.065 555.612 176.71 555.612 177.521C555.612 178.155 555.435 178.782 555.079 179.401C554.724 180.021 554.058 180.805 553.083 181.753L550.896 183.893V183.947H556.036V185ZM559.331 185H558.169V175.006H563.74V176.038H559.331V179.695H563.474V180.728H559.331V185ZM571.28 185H564.711V184.022L567.343 181.377C568.145 180.566 568.674 179.987 568.929 179.641C569.184 179.294 569.375 178.957 569.503 178.629C569.631 178.301 569.694 177.948 569.694 177.569C569.694 177.036 569.533 176.615 569.209 176.305C568.885 175.99 568.437 175.833 567.862 175.833C567.448 175.833 567.053 175.901 566.68 176.038C566.311 176.175 565.898 176.423 565.442 176.783L564.841 176.011C565.761 175.245 566.764 174.862 567.849 174.862C568.787 174.862 569.523 175.104 570.057 175.587C570.59 176.065 570.856 176.71 570.856 177.521C570.856 178.155 570.679 178.782 570.323 179.401C569.968 180.021 569.302 180.805 568.327 181.753L566.14 183.893V183.947H571.28V185ZM574.575 185H573.413V175.006H578.984V176.038H574.575V179.695H578.718V180.728H574.575V185ZM586.524 185H579.955V184.022L582.587 181.377C583.389 180.566 583.918 179.987 584.173 179.641C584.428 179.294 584.619 178.957 584.747 178.629C584.875 178.301 584.938 177.948 584.938 177.569C584.938 177.036 584.777 176.615 584.453 176.305C584.13 175.99 583.681 175.833 583.106 175.833C582.692 175.833 582.298 175.901 581.924 176.038C581.555 176.175 581.142 176.423 580.687 176.783L580.085 176.011C581.006 175.245 582.008 174.862 583.093 174.862C584.032 174.862 584.768 175.104 585.301 175.587C585.834 176.065 586.101 176.71 586.101 177.521C586.101 178.155 585.923 178.782 585.567 179.401C585.212 180.021 584.547 180.805 583.571 181.753L581.384 183.893V183.947H586.524V185Z" fill="#5F5F5F"/>
<rect x="0.5" y="225.5" width="79" height="79" rx="2.5" fill="white" stroke="#E0E0E0"/>
<path d="M20.2061 321.854L19.7549 324.179H21.6895V325.061H19.5908L19.0166 328H18.0801L18.6543 325.061H16.583L16.0225 328H15.0928L15.6396 325.061H13.8486V324.179H15.8105L16.2754 321.854H14.3818V320.986H16.4258L16.9863 318.006H17.9365L17.376 320.986H19.4609L20.0352 318.006H20.9512L20.377 320.986H22.1816V321.854H20.2061ZM16.7471 324.179H18.8184L19.2695 321.854H17.1982L16.7471 324.179ZM25.0869 328H23.9248V318.006H29.4961V319.038H25.0869V322.695H29.2295V323.728H25.0869V328ZM32.3193 328H31.1572V318.006H36.7285V319.038H32.3193V322.695H36.4619V323.728H32.3193V328ZM39.5518 328H38.3896V318.006H43.9609V319.038H39.5518V322.695H43.6943V323.728H39.5518V328ZM46.7842 328H45.6221V318.006H51.1934V319.038H46.7842V322.695H50.9268V323.728H46.7842V328ZM54.0166 328H52.8545V318.006H58.4258V319.038H54.0166V322.695H58.1592V323.728H54.0166V328ZM61.249 328H60.0869V318.006H65.6582V319.038H61.249V322.695H65.3916V323.728H61.249V328Z" fill="#5F5F5F"/>
<rect x="104" y="225" width="80" height="80" rx="3" fill="#EBB947"/>
<path d="M120.706 321.854L120.255 324.179H122.189V325.061H120.091L119.517 328H118.58L119.154 325.061H117.083L116.522 328H115.593L116.14 325.061H114.349V324.179H116.311L116.775 321.854H114.882V320.986H116.926L117.486 318.006H118.437L117.876 320.986H119.961L120.535 318.006H121.451L120.877 320.986H122.682V321.854H120.706ZM117.247 324.179H119.318L119.77 321.854H117.698L117.247 324.179ZM129.996 328H124.425V318.006H129.996V319.038H125.587V322.258H129.729V323.283H125.587V326.961H129.996V328ZM132.218 318.006H135.041C136.367 318.006 137.326 318.204 137.919 318.601C138.511 318.997 138.808 319.624 138.808 320.48C138.808 321.073 138.641 321.563 138.309 321.95C137.98 322.333 137.5 322.581 136.866 322.695V322.764C138.384 323.023 139.143 323.821 139.143 325.156C139.143 326.049 138.84 326.747 138.233 327.248C137.632 327.749 136.789 328 135.704 328H132.218V318.006ZM133.38 322.285H135.294C136.114 322.285 136.704 322.158 137.064 321.902C137.424 321.643 137.604 321.207 137.604 320.597C137.604 320.036 137.404 319.633 137.003 319.387C136.602 319.136 135.964 319.011 135.089 319.011H133.38V322.285ZM133.38 323.27V327.009H135.465C136.271 327.009 136.878 326.854 137.283 326.544C137.693 326.229 137.898 325.74 137.898 325.074C137.898 324.454 137.689 323.999 137.27 323.707C136.855 323.415 136.221 323.27 135.369 323.27H133.38ZM141.296 318.006H144.119C145.445 318.006 146.405 318.204 146.997 318.601C147.59 318.997 147.886 319.624 147.886 320.48C147.886 321.073 147.719 321.563 147.387 321.95C147.059 322.333 146.578 322.581 145.944 322.695V322.764C147.462 323.023 148.221 323.821 148.221 325.156C148.221 326.049 147.918 326.747 147.312 327.248C146.71 327.749 145.867 328 144.782 328H141.296V318.006ZM142.458 322.285H144.372C145.192 322.285 145.783 322.158 146.143 321.902C146.503 321.643 146.683 321.207 146.683 320.597C146.683 320.036 146.482 319.633 146.081 319.387C145.68 319.136 145.042 319.011 144.167 319.011H142.458V322.285ZM142.458 323.27V327.009H144.543C145.35 327.009 145.956 326.854 146.361 326.544C146.771 326.229 146.977 325.74 146.977 325.074C146.977 324.454 146.767 323.999 146.348 323.707C145.933 323.415 145.299 323.27 144.447 323.27H142.458ZM156.253 322.271C156.253 326.182 154.74 328.137 151.714 328.137C151.185 328.137 150.766 328.091 150.456 328V327.022C150.821 327.141 151.235 327.2 151.7 327.2C152.794 327.2 153.619 326.863 154.175 326.188C154.735 325.509 155.041 324.47 155.091 323.071H155.009C154.758 323.45 154.425 323.739 154.011 323.939C153.596 324.135 153.129 324.233 152.609 324.233C151.725 324.233 151.023 323.969 150.504 323.44C149.984 322.912 149.725 322.174 149.725 321.226C149.725 320.187 150.014 319.366 150.593 318.765C151.176 318.163 151.942 317.862 152.89 317.862C153.569 317.862 154.161 318.038 154.667 318.389C155.177 318.735 155.569 319.243 155.843 319.913C156.116 320.578 156.253 321.365 156.253 322.271ZM152.89 318.833C152.238 318.833 151.734 319.043 151.379 319.462C151.023 319.881 150.846 320.465 150.846 321.212C150.846 321.868 151.01 322.385 151.338 322.764C151.666 323.137 152.165 323.324 152.835 323.324C153.25 323.324 153.63 323.24 153.977 323.071C154.327 322.903 154.603 322.673 154.804 322.381C155.004 322.089 155.104 321.784 155.104 321.465C155.104 320.986 155.011 320.544 154.824 320.139C154.637 319.733 154.375 319.414 154.038 319.182C153.705 318.949 153.323 318.833 152.89 318.833ZM164.736 325.703H163.253V328H162.166V325.703H157.306V324.712L162.05 317.951H163.253V324.671H164.736V325.703ZM162.166 324.671V321.349C162.166 320.697 162.189 319.961 162.234 319.141H162.18C161.961 319.578 161.756 319.94 161.564 320.228L158.44 324.671H162.166ZM166.972 328L171.114 319.052H165.666V318.006H172.317V318.915L168.229 328H166.972Z" fill="#5F5F5F"/>
<rect x="208" y="225" width="80" height="80" rx="3" fill="#F8BB86"/>
<path d="M225.206 321.854L224.755 324.179H226.689V325.061H224.591L224.017 328H223.08L223.654 325.061H221.583L221.022 328H220.093L220.64 325.061H218.849V324.179H220.811L221.275 321.854H219.382V320.986H221.426L221.986 318.006H222.937L222.376 320.986H224.461L225.035 318.006H225.951L225.377 320.986H227.182V321.854H225.206ZM221.747 324.179H223.818L224.27 321.854H222.198L221.747 324.179ZM230.087 328H228.925V318.006H234.496V319.038H230.087V322.695H234.229V323.728H230.087V328ZM238.775 317.862C239.687 317.862 240.409 318.074 240.942 318.498C241.476 318.922 241.742 319.507 241.742 320.255C241.742 320.747 241.59 321.196 241.284 321.602C240.979 322.007 240.491 322.376 239.821 322.709C240.632 323.096 241.209 323.504 241.551 323.933C241.893 324.356 242.063 324.849 242.063 325.409C242.063 326.239 241.774 326.902 241.195 327.398C240.617 327.891 239.824 328.137 238.816 328.137C237.75 328.137 236.93 327.904 236.355 327.439C235.781 326.97 235.494 326.307 235.494 325.45C235.494 324.306 236.191 323.415 237.586 322.777C236.957 322.422 236.506 322.039 236.232 321.629C235.959 321.214 235.822 320.752 235.822 320.241C235.822 319.517 236.089 318.94 236.622 318.512C237.16 318.079 237.878 317.862 238.775 317.862ZM236.615 325.478C236.615 326.024 236.804 326.451 237.183 326.756C237.565 327.061 238.101 327.214 238.789 327.214C239.468 327.214 239.997 327.054 240.375 326.735C240.753 326.416 240.942 325.979 240.942 325.423C240.942 324.981 240.765 324.589 240.409 324.247C240.054 323.901 239.434 323.566 238.55 323.242C237.871 323.534 237.379 323.857 237.073 324.213C236.768 324.564 236.615 324.985 236.615 325.478ZM238.762 318.785C238.192 318.785 237.745 318.922 237.422 319.195C237.098 319.469 236.937 319.833 236.937 320.289C236.937 320.708 237.071 321.068 237.34 321.369C237.609 321.67 238.105 321.971 238.83 322.271C239.482 321.998 239.942 321.704 240.211 321.39C240.484 321.075 240.621 320.708 240.621 320.289C240.621 319.829 240.455 319.464 240.122 319.195C239.794 318.922 239.34 318.785 238.762 318.785ZM244.169 318.006H246.992C248.318 318.006 249.278 318.204 249.87 318.601C250.463 318.997 250.759 319.624 250.759 320.48C250.759 321.073 250.592 321.563 250.26 321.95C249.932 322.333 249.451 322.581 248.817 322.695V322.764C250.335 323.023 251.094 323.821 251.094 325.156C251.094 326.049 250.791 326.747 250.185 327.248C249.583 327.749 248.74 328 247.655 328H244.169V318.006ZM245.331 322.285H247.245C248.065 322.285 248.656 322.158 249.016 321.902C249.376 321.643 249.556 321.207 249.556 320.597C249.556 320.036 249.355 319.633 248.954 319.387C248.553 319.136 247.915 319.011 247.04 319.011H245.331V322.285ZM245.331 323.27V327.009H247.416C248.223 327.009 248.829 326.854 249.234 326.544C249.645 326.229 249.85 325.74 249.85 325.074C249.85 324.454 249.64 323.999 249.221 323.707C248.806 323.415 248.173 323.27 247.32 323.27H245.331ZM253.247 318.006H256.07C257.396 318.006 258.356 318.204 258.948 318.601C259.541 318.997 259.837 319.624 259.837 320.48C259.837 321.073 259.671 321.563 259.338 321.95C259.01 322.333 258.529 322.581 257.896 322.695V322.764C259.413 323.023 260.172 323.821 260.172 325.156C260.172 326.049 259.869 326.747 259.263 327.248C258.661 327.749 257.818 328 256.733 328H253.247V318.006ZM254.409 322.285H256.323C257.144 322.285 257.734 322.158 258.094 321.902C258.454 321.643 258.634 321.207 258.634 320.597C258.634 320.036 258.433 319.633 258.032 319.387C257.631 319.136 256.993 319.011 256.118 319.011H254.409V322.285ZM254.409 323.27V327.009H256.494C257.301 327.009 257.907 326.854 258.312 326.544C258.723 326.229 258.928 325.74 258.928 325.074C258.928 324.454 258.718 323.999 258.299 323.707C257.884 323.415 257.251 323.27 256.398 323.27H254.409ZM264.943 317.862C265.855 317.862 266.577 318.074 267.11 318.498C267.644 318.922 267.91 319.507 267.91 320.255C267.91 320.747 267.757 321.196 267.452 321.602C267.147 322.007 266.659 322.376 265.989 322.709C266.8 323.096 267.377 323.504 267.719 323.933C268.061 324.356 268.231 324.849 268.231 325.409C268.231 326.239 267.942 326.902 267.363 327.398C266.785 327.891 265.992 328.137 264.984 328.137C263.918 328.137 263.098 327.904 262.523 327.439C261.949 326.97 261.662 326.307 261.662 325.45C261.662 324.306 262.359 323.415 263.754 322.777C263.125 322.422 262.674 322.039 262.4 321.629C262.127 321.214 261.99 320.752 261.99 320.241C261.99 319.517 262.257 318.94 262.79 318.512C263.328 318.079 264.046 317.862 264.943 317.862ZM262.783 325.478C262.783 326.024 262.972 326.451 263.351 326.756C263.733 327.061 264.269 327.214 264.957 327.214C265.636 327.214 266.165 327.054 266.543 326.735C266.921 326.416 267.11 325.979 267.11 325.423C267.11 324.981 266.933 324.589 266.577 324.247C266.222 323.901 265.602 323.566 264.718 323.242C264.039 323.534 263.547 323.857 263.241 324.213C262.936 324.564 262.783 324.985 262.783 325.478ZM264.93 318.785C264.36 318.785 263.913 318.922 263.59 319.195C263.266 319.469 263.104 319.833 263.104 320.289C263.104 320.708 263.239 321.068 263.508 321.369C263.777 321.67 264.273 321.971 264.998 322.271C265.65 321.998 266.11 321.704 266.379 321.39C266.652 321.075 266.789 320.708 266.789 320.289C266.789 319.829 266.623 319.464 266.29 319.195C265.962 318.922 265.508 318.785 264.93 318.785ZM269.763 323.728C269.763 321.763 270.143 320.296 270.904 319.325C271.67 318.35 272.8 317.862 274.295 317.862C274.81 317.862 275.215 317.906 275.512 317.992V318.97C275.161 318.856 274.76 318.799 274.309 318.799C273.238 318.799 272.42 319.134 271.854 319.804C271.289 320.469 270.979 321.517 270.925 322.948H271.007C271.508 322.164 272.301 321.772 273.386 321.772C274.284 321.772 274.99 322.044 275.505 322.586C276.024 323.128 276.284 323.864 276.284 324.794C276.284 325.833 275.999 326.651 275.43 327.248C274.865 327.84 274.099 328.137 273.133 328.137C272.098 328.137 271.278 327.749 270.672 326.975C270.066 326.195 269.763 325.113 269.763 323.728ZM273.119 327.173C273.766 327.173 274.268 326.97 274.623 326.564C274.983 326.154 275.163 325.564 275.163 324.794C275.163 324.133 274.997 323.614 274.664 323.235C274.331 322.857 273.835 322.668 273.174 322.668C272.764 322.668 272.388 322.752 272.046 322.921C271.704 323.09 271.431 323.322 271.226 323.618C271.025 323.914 270.925 324.222 270.925 324.541C270.925 325.01 271.016 325.448 271.198 325.854C271.381 326.259 271.638 326.58 271.971 326.817C272.308 327.054 272.691 327.173 273.119 327.173Z" fill="#5F5F5F"/>
<rect x="312" y="225" width="80" height="80" rx="3" fill="#3D9568"/>
<path d="M328.706 321.854L328.255 324.179H330.189V325.061H328.091L327.517 328H326.58L327.154 325.061H325.083L324.522 328H323.593L324.14 325.061H322.349V324.179H324.311L324.775 321.854H322.882V320.986H324.926L325.486 318.006H326.437L325.876 320.986H327.961L328.535 318.006H329.451L328.877 320.986H330.682V321.854H328.706ZM325.247 324.179H327.318L327.77 321.854H325.698L325.247 324.179ZM337.928 320.357C337.928 320.995 337.748 321.517 337.388 321.923C337.032 322.328 336.526 322.6 335.87 322.736V322.791C336.672 322.891 337.267 323.146 337.654 323.557C338.042 323.967 338.235 324.505 338.235 325.17C338.235 326.122 337.905 326.856 337.244 327.371C336.583 327.882 335.645 328.137 334.428 328.137C333.899 328.137 333.414 328.096 332.972 328.014C332.534 327.936 332.108 327.797 331.693 327.597V326.517C332.126 326.731 332.587 326.895 333.074 327.009C333.566 327.118 334.031 327.173 334.469 327.173C336.196 327.173 337.06 326.496 337.06 325.143C337.06 323.93 336.107 323.324 334.202 323.324H333.218V322.347H334.216C334.995 322.347 335.613 322.176 336.068 321.834C336.524 321.488 336.752 321.009 336.752 320.398C336.752 319.911 336.583 319.528 336.246 319.25C335.913 318.972 335.46 318.833 334.886 318.833C334.448 318.833 334.036 318.892 333.648 319.011C333.261 319.129 332.819 319.348 332.322 319.667L331.748 318.901C332.158 318.578 332.63 318.325 333.163 318.143C333.701 317.956 334.266 317.862 334.858 317.862C335.829 317.862 336.583 318.086 337.121 318.532C337.659 318.974 337.928 319.583 337.928 320.357ZM348.414 322.907C348.414 324.557 347.965 325.819 347.067 326.694C346.174 327.565 344.887 328 343.205 328H340.437V318.006H343.499C345.053 318.006 346.261 318.437 347.122 319.298C347.983 320.159 348.414 321.362 348.414 322.907ZM347.184 322.948C347.184 321.645 346.855 320.663 346.199 320.002C345.548 319.341 344.577 319.011 343.287 319.011H341.599V326.995H343.014C344.399 326.995 345.44 326.656 346.138 325.977C346.835 325.293 347.184 324.284 347.184 322.948ZM356.528 322.271C356.528 326.182 355.015 328.137 351.989 328.137C351.461 328.137 351.041 328.091 350.731 328V327.022C351.096 327.141 351.511 327.2 351.976 327.2C353.069 327.2 353.894 326.863 354.45 326.188C355.011 325.509 355.316 324.47 355.366 323.071H355.284C355.034 323.45 354.701 323.739 354.286 323.939C353.871 324.135 353.404 324.233 352.885 324.233C352.001 324.233 351.299 323.969 350.779 323.44C350.26 322.912 350 322.174 350 321.226C350 320.187 350.289 319.366 350.868 318.765C351.451 318.163 352.217 317.862 353.165 317.862C353.844 317.862 354.437 318.038 354.942 318.389C355.453 318.735 355.845 319.243 356.118 319.913C356.392 320.578 356.528 321.365 356.528 322.271ZM353.165 318.833C352.513 318.833 352.01 319.043 351.654 319.462C351.299 319.881 351.121 320.465 351.121 321.212C351.121 321.868 351.285 322.385 351.613 322.764C351.941 323.137 352.44 323.324 353.11 323.324C353.525 323.324 353.906 323.24 354.252 323.071C354.603 322.903 354.879 322.673 355.079 322.381C355.28 322.089 355.38 321.784 355.38 321.465C355.38 320.986 355.286 320.544 355.1 320.139C354.913 319.733 354.651 319.414 354.313 319.182C353.981 318.949 353.598 318.833 353.165 318.833ZM361.095 321.896C362.147 321.896 362.975 322.158 363.576 322.682C364.182 323.201 364.485 323.914 364.485 324.821C364.485 325.856 364.155 326.667 363.494 327.255C362.838 327.843 361.931 328.137 360.773 328.137C359.648 328.137 358.789 327.957 358.196 327.597V326.503C358.515 326.708 358.912 326.87 359.386 326.988C359.86 327.102 360.327 327.159 360.787 327.159C361.589 327.159 362.211 326.97 362.653 326.592C363.1 326.214 363.323 325.667 363.323 324.951C363.323 323.557 362.469 322.859 360.76 322.859C360.327 322.859 359.748 322.925 359.023 323.058L358.436 322.682L358.812 318.006H363.781V319.052H359.782L359.529 322.053C360.053 321.948 360.575 321.896 361.095 321.896ZM366.099 323.728C366.099 321.763 366.479 320.296 367.24 319.325C368.006 318.35 369.136 317.862 370.631 317.862C371.146 317.862 371.551 317.906 371.848 317.992V318.97C371.497 318.856 371.096 318.799 370.645 318.799C369.574 318.799 368.756 319.134 368.19 319.804C367.625 320.469 367.315 321.517 367.261 322.948H367.343C367.844 322.164 368.637 321.772 369.722 321.772C370.619 321.772 371.326 322.044 371.841 322.586C372.36 323.128 372.62 323.864 372.62 324.794C372.62 325.833 372.335 326.651 371.766 327.248C371.201 327.84 370.435 328.137 369.469 328.137C368.434 328.137 367.614 327.749 367.008 326.975C366.402 326.195 366.099 325.113 366.099 323.728ZM369.455 327.173C370.102 327.173 370.604 326.97 370.959 326.564C371.319 326.154 371.499 325.564 371.499 324.794C371.499 324.133 371.333 323.614 371 323.235C370.667 322.857 370.171 322.668 369.51 322.668C369.1 322.668 368.724 322.752 368.382 322.921C368.04 323.09 367.767 323.322 367.562 323.618C367.361 323.914 367.261 324.222 367.261 324.541C367.261 325.01 367.352 325.448 367.534 325.854C367.716 326.259 367.974 326.58 368.307 326.817C368.644 327.054 369.027 327.173 369.455 327.173ZM377.303 317.862C378.214 317.862 378.937 318.074 379.47 318.498C380.003 318.922 380.27 319.507 380.27 320.255C380.27 320.747 380.117 321.196 379.812 321.602C379.506 322.007 379.019 322.376 378.349 322.709C379.16 323.096 379.736 323.504 380.078 323.933C380.42 324.356 380.591 324.849 380.591 325.409C380.591 326.239 380.301 326.902 379.723 327.398C379.144 327.891 378.351 328.137 377.344 328.137C376.277 328.137 375.457 327.904 374.883 327.439C374.309 326.97 374.021 326.307 374.021 325.45C374.021 324.306 374.719 323.415 376.113 322.777C375.484 322.422 375.033 322.039 374.76 321.629C374.486 321.214 374.35 320.752 374.35 320.241C374.35 319.517 374.616 318.94 375.149 318.512C375.687 318.079 376.405 317.862 377.303 317.862ZM375.143 325.478C375.143 326.024 375.332 326.451 375.71 326.756C376.093 327.061 376.628 327.214 377.316 327.214C377.995 327.214 378.524 327.054 378.902 326.735C379.281 326.416 379.47 325.979 379.47 325.423C379.47 324.981 379.292 324.589 378.937 324.247C378.581 323.901 377.961 323.566 377.077 323.242C376.398 323.534 375.906 323.857 375.601 324.213C375.295 324.564 375.143 324.985 375.143 325.478ZM377.289 318.785C376.719 318.785 376.273 318.922 375.949 319.195C375.626 319.469 375.464 319.833 375.464 320.289C375.464 320.708 375.598 321.068 375.867 321.369C376.136 321.67 376.633 321.971 377.357 322.271C378.009 321.998 378.469 321.704 378.738 321.39C379.012 321.075 379.148 320.708 379.148 320.289C379.148 319.829 378.982 319.464 378.649 319.195C378.321 318.922 377.868 318.785 377.289 318.785Z" fill="#5F5F5F"/>
<rect x="416" y="225" width="80" height="80" rx="3" fill="#67CB98"/>
<path d="M432.706 321.854L432.255 324.179H434.189V325.061H432.091L431.517 328H430.58L431.154 325.061H429.083L428.522 328H427.593L428.14 325.061H426.349V324.179H428.311L428.775 321.854H426.882V320.986H428.926L429.486 318.006H430.437L429.876 320.986H431.961L432.535 318.006H433.451L432.877 320.986H434.682V321.854H432.706ZM429.247 324.179H431.318L431.77 321.854H429.698L429.247 324.179ZM435.851 323.728C435.851 321.763 436.231 320.296 436.992 319.325C437.758 318.35 438.888 317.862 440.383 317.862C440.898 317.862 441.303 317.906 441.6 317.992V318.97C441.249 318.856 440.848 318.799 440.396 318.799C439.326 318.799 438.507 319.134 437.942 319.804C437.377 320.469 437.067 321.517 437.013 322.948H437.095C437.596 322.164 438.389 321.772 439.474 321.772C440.371 321.772 441.078 322.044 441.593 322.586C442.112 323.128 442.372 323.864 442.372 324.794C442.372 325.833 442.087 326.651 441.518 327.248C440.952 327.84 440.187 328.137 439.221 328.137C438.186 328.137 437.366 327.749 436.76 326.975C436.154 326.195 435.851 325.113 435.851 323.728ZM439.207 327.173C439.854 327.173 440.355 326.97 440.711 326.564C441.071 326.154 441.251 325.564 441.251 324.794C441.251 324.133 441.085 323.614 440.752 323.235C440.419 322.857 439.923 322.668 439.262 322.668C438.852 322.668 438.476 322.752 438.134 322.921C437.792 323.09 437.519 323.322 437.313 323.618C437.113 323.914 437.013 324.222 437.013 324.541C437.013 325.01 437.104 325.448 437.286 325.854C437.468 326.259 437.726 326.58 438.059 326.817C438.396 327.054 438.779 327.173 439.207 327.173ZM445.011 328L449.153 319.052H443.705V318.006H450.356V318.915L446.269 328H445.011ZM456.728 318.901C455.629 318.901 454.761 319.268 454.123 320.002C453.49 320.731 453.173 321.731 453.173 323.003C453.173 324.311 453.478 325.323 454.089 326.038C454.704 326.749 455.579 327.104 456.714 327.104C457.411 327.104 458.206 326.979 459.1 326.729V327.747C458.407 328.007 457.552 328.137 456.536 328.137C455.064 328.137 453.927 327.69 453.125 326.797C452.327 325.904 451.929 324.634 451.929 322.989C451.929 321.959 452.12 321.057 452.503 320.282C452.89 319.507 453.446 318.91 454.171 318.491C454.9 318.072 455.757 317.862 456.741 317.862C457.789 317.862 458.705 318.054 459.489 318.437L458.997 319.435C458.241 319.079 457.484 318.901 456.728 318.901ZM461.28 318.006H464.104C465.43 318.006 466.389 318.204 466.981 318.601C467.574 318.997 467.87 319.624 467.87 320.48C467.87 321.073 467.704 321.563 467.371 321.95C467.043 322.333 466.562 322.581 465.929 322.695V322.764C467.446 323.023 468.205 323.821 468.205 325.156C468.205 326.049 467.902 326.747 467.296 327.248C466.694 327.749 465.851 328 464.767 328H461.28V318.006ZM462.442 322.285H464.356C465.177 322.285 465.767 322.158 466.127 321.902C466.487 321.643 466.667 321.207 466.667 320.597C466.667 320.036 466.466 319.633 466.065 319.387C465.664 319.136 465.026 319.011 464.151 319.011H462.442V322.285ZM462.442 323.27V327.009H464.527C465.334 327.009 465.94 326.854 466.346 326.544C466.756 326.229 466.961 325.74 466.961 325.074C466.961 324.454 466.751 323.999 466.332 323.707C465.917 323.415 465.284 323.27 464.432 323.27H462.442ZM476.237 322.271C476.237 326.182 474.724 328.137 471.698 328.137C471.17 328.137 470.75 328.091 470.44 328V327.022C470.805 327.141 471.22 327.2 471.685 327.2C472.778 327.2 473.603 326.863 474.159 326.188C474.72 325.509 475.025 324.47 475.075 323.071H474.993C474.743 323.45 474.41 323.739 473.995 323.939C473.58 324.135 473.113 324.233 472.594 324.233C471.71 324.233 471.008 323.969 470.488 323.44C469.969 322.912 469.709 322.174 469.709 321.226C469.709 320.187 469.998 319.366 470.577 318.765C471.16 318.163 471.926 317.862 472.874 317.862C473.553 317.862 474.146 318.038 474.651 318.389C475.162 318.735 475.554 319.243 475.827 319.913C476.101 320.578 476.237 321.365 476.237 322.271ZM472.874 318.833C472.222 318.833 471.719 319.043 471.363 319.462C471.008 319.881 470.83 320.465 470.83 321.212C470.83 321.868 470.994 322.385 471.322 322.764C471.65 323.137 472.149 323.324 472.819 323.324C473.234 323.324 473.615 323.24 473.961 323.071C474.312 322.903 474.588 322.673 474.788 322.381C474.989 322.089 475.089 321.784 475.089 321.465C475.089 320.986 474.995 320.544 474.809 320.139C474.622 319.733 474.36 319.414 474.022 319.182C473.69 318.949 473.307 318.833 472.874 318.833ZM480.988 317.862C481.9 317.862 482.622 318.074 483.155 318.498C483.688 318.922 483.955 319.507 483.955 320.255C483.955 320.747 483.802 321.196 483.497 321.602C483.192 322.007 482.704 322.376 482.034 322.709C482.845 323.096 483.422 323.504 483.764 323.933C484.105 324.356 484.276 324.849 484.276 325.409C484.276 326.239 483.987 326.902 483.408 327.398C482.829 327.891 482.036 328.137 481.029 328.137C479.963 328.137 479.143 327.904 478.568 327.439C477.994 326.97 477.707 326.307 477.707 325.45C477.707 324.306 478.404 323.415 479.799 322.777C479.17 322.422 478.719 322.039 478.445 321.629C478.172 321.214 478.035 320.752 478.035 320.241C478.035 319.517 478.302 318.94 478.835 318.512C479.373 318.079 480.09 317.862 480.988 317.862ZM478.828 325.478C478.828 326.024 479.017 326.451 479.396 326.756C479.778 327.061 480.314 327.214 481.002 327.214C481.681 327.214 482.21 327.054 482.588 326.735C482.966 326.416 483.155 325.979 483.155 325.423C483.155 324.981 482.978 324.589 482.622 324.247C482.267 323.901 481.647 323.566 480.763 323.242C480.084 323.534 479.591 323.857 479.286 324.213C478.981 324.564 478.828 324.985 478.828 325.478ZM480.975 318.785C480.405 318.785 479.958 318.922 479.635 319.195C479.311 319.469 479.149 319.833 479.149 320.289C479.149 320.708 479.284 321.068 479.553 321.369C479.822 321.67 480.318 321.971 481.043 322.271C481.695 321.998 482.155 321.704 482.424 321.39C482.697 321.075 482.834 320.708 482.834 320.289C482.834 319.829 482.668 319.464 482.335 319.195C482.007 318.922 481.553 318.785 480.975 318.785Z" fill="#5F5F5F"/>
<rect x="520" y="225" width="80" height="80" rx="3" fill="#DB757D"/>
<path d="M535.206 321.854L534.755 324.179H536.689V325.061H534.591L534.017 328H533.08L533.654 325.061H531.583L531.022 328H530.093L530.64 325.061H528.849V324.179H530.811L531.275 321.854H529.382V320.986H531.426L531.986 318.006H532.937L532.376 320.986H534.461L535.035 318.006H535.951L535.377 320.986H537.182V321.854H535.206ZM531.747 324.179H533.818L534.27 321.854H532.198L531.747 324.179ZM546.902 322.907C546.902 324.557 546.453 325.819 545.556 326.694C544.662 327.565 543.375 328 541.693 328H538.925V318.006H541.987C543.541 318.006 544.749 318.437 545.61 319.298C546.472 320.159 546.902 321.362 546.902 322.907ZM545.672 322.948C545.672 321.645 545.344 320.663 544.688 320.002C544.036 319.341 543.065 319.011 541.775 319.011H540.087V326.995H541.502C542.887 326.995 543.929 326.656 544.626 325.977C545.323 325.293 545.672 324.284 545.672 322.948ZM549.138 318.006H551.961C553.287 318.006 554.246 318.204 554.839 318.601C555.431 318.997 555.728 319.624 555.728 320.48C555.728 321.073 555.561 321.563 555.229 321.95C554.9 322.333 554.42 322.581 553.786 322.695V322.764C555.304 323.023 556.062 323.821 556.062 325.156C556.062 326.049 555.759 326.747 555.153 327.248C554.552 327.749 553.709 328 552.624 328H549.138V318.006ZM550.3 322.285H552.214C553.034 322.285 553.624 322.158 553.984 321.902C554.344 321.643 554.524 321.207 554.524 320.597C554.524 320.036 554.324 319.633 553.923 319.387C553.522 319.136 552.884 319.011 552.009 319.011H550.3V322.285ZM550.3 323.27V327.009H552.385C553.191 327.009 553.798 326.854 554.203 326.544C554.613 326.229 554.818 325.74 554.818 325.074C554.818 324.454 554.609 323.999 554.189 323.707C553.775 323.415 553.141 323.27 552.289 323.27H550.3ZM558.79 328L562.933 319.052H557.484V318.006H564.136V318.915L560.048 328H558.79ZM568.661 321.896C569.714 321.896 570.541 322.158 571.143 322.682C571.749 323.201 572.052 323.914 572.052 324.821C572.052 325.856 571.721 326.667 571.061 327.255C570.404 327.843 569.497 328.137 568.34 328.137C567.214 328.137 566.355 327.957 565.763 327.597V326.503C566.082 326.708 566.478 326.87 566.952 326.988C567.426 327.102 567.893 327.159 568.354 327.159C569.156 327.159 569.778 326.97 570.22 326.592C570.666 326.214 570.89 325.667 570.89 324.951C570.89 323.557 570.035 322.859 568.326 322.859C567.893 322.859 567.314 322.925 566.59 323.058L566.002 322.682L566.378 318.006H571.348V319.052H567.349L567.096 322.053C567.62 321.948 568.142 321.896 568.661 321.896ZM574.813 328L578.956 319.052H573.508V318.006H580.159V318.915L576.071 328H574.813ZM590.229 322.907C590.229 324.557 589.78 325.819 588.882 326.694C587.989 327.565 586.701 328 585.02 328H582.251V318.006H585.313C586.868 318.006 588.075 318.437 588.937 319.298C589.798 320.159 590.229 321.362 590.229 322.907ZM588.998 322.948C588.998 321.645 588.67 320.663 588.014 320.002C587.362 319.341 586.391 319.011 585.102 319.011H583.413V326.995H584.828C586.214 326.995 587.255 326.656 587.952 325.977C588.649 325.293 588.998 324.284 588.998 322.948Z" fill="#5F5F5F"/>
<rect y="368" width="80" height="80" rx="3" fill="#AC2A26"/>
<path d="M16.7061 464.854L16.2549 467.179H18.1895V468.061H16.0908L15.5166 471H14.5801L15.1543 468.061H13.083L12.5225 471H11.5928L12.1396 468.061H10.3486V467.179H12.3105L12.7754 464.854H10.8818V463.986H12.9258L13.4863 461.006H14.4365L13.876 463.986H15.9609L16.5352 461.006H17.4512L16.877 463.986H18.6816V464.854H16.7061ZM13.2471 467.179H15.3184L15.7695 464.854H13.6982L13.2471 467.179ZM26.707 471L25.4629 467.821H21.457L20.2266 471H19.0508L23.002 460.965H23.9795L27.9102 471H26.707ZM25.1006 466.775L23.9385 463.679C23.7881 463.287 23.6331 462.806 23.4736 462.236C23.3734 462.674 23.2298 463.155 23.043 463.679L21.8672 466.775H25.1006ZM33.5635 461.901C32.4652 461.901 31.597 462.268 30.959 463.002C30.3255 463.731 30.0088 464.731 30.0088 466.003C30.0088 467.311 30.3141 468.323 30.9248 469.038C31.54 469.749 32.415 470.104 33.5498 470.104C34.2471 470.104 35.0423 469.979 35.9355 469.729V470.747C35.2428 471.007 34.3883 471.137 33.3721 471.137C31.9001 471.137 30.763 470.69 29.9609 469.797C29.1634 468.904 28.7646 467.634 28.7646 465.989C28.7646 464.959 28.9561 464.057 29.3389 463.282C29.7262 462.507 30.2822 461.91 31.0068 461.491C31.736 461.072 32.5928 460.862 33.5771 460.862C34.6253 460.862 35.5413 461.054 36.3252 461.437L35.833 462.435C35.0765 462.079 34.32 461.901 33.5635 461.901ZM43.9951 471H37.4258V470.022L40.0576 467.377C40.8597 466.566 41.3883 465.987 41.6436 465.641C41.8988 465.294 42.0902 464.957 42.2178 464.629C42.3454 464.301 42.4092 463.948 42.4092 463.569C42.4092 463.036 42.2474 462.615 41.9238 462.305C41.6003 461.99 41.1514 461.833 40.5771 461.833C40.1624 461.833 39.7682 461.901 39.3945 462.038C39.0254 462.175 38.613 462.423 38.1572 462.783L37.5557 462.011C38.4762 461.245 39.4788 460.862 40.5635 460.862C41.5023 460.862 42.2383 461.104 42.7715 461.587C43.3047 462.065 43.5713 462.71 43.5713 463.521C43.5713 464.155 43.3936 464.782 43.0381 465.401C42.6826 466.021 42.0173 466.805 41.042 467.753L38.8545 469.893V469.947H43.9951V471ZM52.4102 471L51.166 467.821H47.1602L45.9297 471H44.7539L48.7051 460.965H49.6826L53.6133 471H52.4102ZM50.8037 466.775L49.6416 463.679C49.4912 463.287 49.3363 462.806 49.1768 462.236C49.0765 462.674 48.9329 463.155 48.7461 463.679L47.5703 466.775H50.8037ZM60.8662 471H54.2969V470.022L56.9287 467.377C57.7308 466.566 58.2594 465.987 58.5146 465.641C58.7699 465.294 58.9613 464.957 59.0889 464.629C59.2165 464.301 59.2803 463.948 59.2803 463.569C59.2803 463.036 59.1185 462.615 58.7949 462.305C58.4714 461.99 58.0225 461.833 57.4482 461.833C57.0335 461.833 56.6393 461.901 56.2656 462.038C55.8965 462.175 55.484 462.423 55.0283 462.783L54.4268 462.011C55.3473 461.245 56.3499 460.862 57.4346 460.862C58.3734 460.862 59.1094 461.104 59.6426 461.587C60.1758 462.065 60.4424 462.71 60.4424 463.521C60.4424 464.155 60.2646 464.782 59.9092 465.401C59.5537 466.021 58.8883 466.805 57.9131 467.753L55.7256 469.893V469.947H60.8662V471ZM62.4248 466.728C62.4248 464.763 62.8053 463.296 63.5664 462.325C64.332 461.35 65.4622 460.862 66.957 460.862C67.472 460.862 67.8776 460.906 68.1738 460.992V461.97C67.8229 461.856 67.4219 461.799 66.9707 461.799C65.8997 461.799 65.0817 462.134 64.5166 462.804C63.9515 463.469 63.6416 464.517 63.5869 465.948H63.6689C64.1702 465.164 64.9632 464.772 66.0479 464.772C66.9456 464.772 67.652 465.044 68.167 465.586C68.6865 466.128 68.9463 466.864 68.9463 467.794C68.9463 468.833 68.6615 469.651 68.0918 470.248C67.5267 470.84 66.7611 471.137 65.7949 471.137C64.7604 471.137 63.9401 470.749 63.334 469.975C62.7279 469.195 62.4248 468.113 62.4248 466.728ZM65.7812 470.173C66.4284 470.173 66.9297 469.97 67.2852 469.564C67.6452 469.154 67.8252 468.564 67.8252 467.794C67.8252 467.133 67.6589 466.614 67.3262 466.235C66.9935 465.857 66.4967 465.668 65.8359 465.668C65.4258 465.668 65.0498 465.752 64.708 465.921C64.3662 466.09 64.0928 466.322 63.8877 466.618C63.6872 466.914 63.5869 467.222 63.5869 467.541C63.5869 468.01 63.6781 468.448 63.8604 468.854C64.0426 469.259 64.3001 469.58 64.6328 469.817C64.9701 470.054 65.3529 470.173 65.7812 470.173Z" fill="#5F5F5F"/>
<rect x="104" y="368" width="80" height="80" rx="3" fill="#165082"/>
<path d="M121.706 464.854L121.255 467.179H123.189V468.061H121.091L120.517 471H119.58L120.154 468.061H118.083L117.522 471H116.593L117.14 468.061H115.349V467.179H117.311L117.775 464.854H115.882V463.986H117.926L118.486 461.006H119.437L118.876 463.986H120.961L121.535 461.006H122.451L121.877 463.986H123.682V464.854H121.706ZM118.247 467.179H120.318L120.77 464.854H118.698L118.247 467.179ZM128.938 471H127.831V463.877C127.831 463.285 127.849 462.724 127.886 462.195C127.79 462.291 127.683 462.391 127.564 462.496C127.446 462.601 126.904 463.045 125.938 463.829L125.336 463.05L127.981 461.006H128.938V471ZM132.862 466.728C132.862 464.763 133.243 463.296 134.004 462.325C134.77 461.35 135.9 460.862 137.395 460.862C137.91 460.862 138.315 460.906 138.611 460.992V461.97C138.26 461.856 137.859 461.799 137.408 461.799C136.337 461.799 135.519 462.134 134.954 462.804C134.389 463.469 134.079 464.517 134.024 465.948H134.106C134.608 465.164 135.401 464.772 136.485 464.772C137.383 464.772 138.09 465.044 138.604 465.586C139.124 466.128 139.384 466.864 139.384 467.794C139.384 468.833 139.099 469.651 138.529 470.248C137.964 470.84 137.199 471.137 136.232 471.137C135.198 471.137 134.378 470.749 133.771 469.975C133.165 469.195 132.862 468.113 132.862 466.728ZM136.219 470.173C136.866 470.173 137.367 469.97 137.723 469.564C138.083 469.154 138.263 468.564 138.263 467.794C138.263 467.133 138.096 466.614 137.764 466.235C137.431 465.857 136.934 465.668 136.273 465.668C135.863 465.668 135.487 465.752 135.146 465.921C134.804 466.09 134.53 466.322 134.325 466.618C134.125 466.914 134.024 467.222 134.024 467.541C134.024 468.01 134.116 468.448 134.298 468.854C134.48 469.259 134.738 469.58 135.07 469.817C135.408 470.054 135.79 470.173 136.219 470.173ZM143.882 464.896C144.935 464.896 145.762 465.158 146.363 465.682C146.969 466.201 147.272 466.914 147.272 467.821C147.272 468.856 146.942 469.667 146.281 470.255C145.625 470.843 144.718 471.137 143.561 471.137C142.435 471.137 141.576 470.957 140.983 470.597V469.503C141.302 469.708 141.699 469.87 142.173 469.988C142.647 470.102 143.114 470.159 143.574 470.159C144.376 470.159 144.998 469.97 145.44 469.592C145.887 469.214 146.11 468.667 146.11 467.951C146.11 466.557 145.256 465.859 143.547 465.859C143.114 465.859 142.535 465.925 141.811 466.058L141.223 465.682L141.599 461.006H146.568V462.052H142.569L142.316 465.053C142.84 464.948 143.362 464.896 143.882 464.896ZM155.394 465.989C155.394 467.716 155.12 469.006 154.573 469.858C154.031 470.711 153.199 471.137 152.078 471.137C151.003 471.137 150.185 470.701 149.624 469.831C149.063 468.956 148.783 467.675 148.783 465.989C148.783 464.248 149.054 462.956 149.597 462.113C150.139 461.27 150.966 460.849 152.078 460.849C153.163 460.849 153.985 461.288 154.546 462.168C155.111 463.048 155.394 464.321 155.394 465.989ZM149.932 465.989C149.932 467.443 150.103 468.503 150.444 469.168C150.786 469.829 151.331 470.159 152.078 470.159C152.835 470.159 153.382 469.824 153.719 469.154C154.061 468.48 154.231 467.425 154.231 465.989C154.231 464.554 154.061 463.503 153.719 462.838C153.382 462.168 152.835 461.833 152.078 461.833C151.331 461.833 150.786 462.163 150.444 462.824C150.103 463.48 149.932 464.535 149.932 465.989ZM160.09 460.862C161.001 460.862 161.724 461.074 162.257 461.498C162.79 461.922 163.057 462.507 163.057 463.255C163.057 463.747 162.904 464.196 162.599 464.602C162.293 465.007 161.806 465.376 161.136 465.709C161.947 466.096 162.523 466.504 162.865 466.933C163.207 467.356 163.378 467.849 163.378 468.409C163.378 469.239 163.089 469.902 162.51 470.398C161.931 470.891 161.138 471.137 160.131 471.137C159.064 471.137 158.244 470.904 157.67 470.439C157.096 469.97 156.809 469.307 156.809 468.45C156.809 467.306 157.506 466.415 158.9 465.777C158.271 465.422 157.82 465.039 157.547 464.629C157.273 464.214 157.137 463.752 157.137 463.241C157.137 462.517 157.403 461.94 157.937 461.512C158.474 461.079 159.192 460.862 160.09 460.862ZM157.93 468.478C157.93 469.024 158.119 469.451 158.497 469.756C158.88 470.061 159.415 470.214 160.104 470.214C160.783 470.214 161.311 470.054 161.689 469.735C162.068 469.416 162.257 468.979 162.257 468.423C162.257 467.981 162.079 467.589 161.724 467.247C161.368 466.901 160.748 466.566 159.864 466.242C159.185 466.534 158.693 466.857 158.388 467.213C158.082 467.564 157.93 467.985 157.93 468.478ZM160.076 461.785C159.507 461.785 159.06 461.922 158.736 462.195C158.413 462.469 158.251 462.833 158.251 463.289C158.251 463.708 158.385 464.068 158.654 464.369C158.923 464.67 159.42 464.971 160.145 465.271C160.796 464.998 161.257 464.704 161.525 464.39C161.799 464.075 161.936 463.708 161.936 463.289C161.936 462.829 161.769 462.464 161.437 462.195C161.108 461.922 160.655 461.785 160.076 461.785ZM171.362 471H164.793V470.022L167.425 467.377C168.227 466.566 168.756 465.987 169.011 465.641C169.266 465.294 169.457 464.957 169.585 464.629C169.713 464.301 169.776 463.948 169.776 463.569C169.776 463.036 169.615 462.615 169.291 462.305C168.967 461.99 168.519 461.833 167.944 461.833C167.53 461.833 167.135 461.901 166.762 462.038C166.393 462.175 165.98 462.423 165.524 462.783L164.923 462.011C165.843 461.245 166.846 460.862 167.931 460.862C168.869 460.862 169.605 461.104 170.139 461.587C170.672 462.065 170.938 462.71 170.938 463.521C170.938 464.155 170.761 464.782 170.405 465.401C170.05 466.021 169.384 466.805 168.409 467.753L166.222 469.893V469.947H171.362V471Z" fill="#5F5F5F"/>
<rect x="208" y="368" width="80" height="80" rx="3" fill="#226299"/>
<path d="M225.706 464.854L225.255 467.179H227.189V468.061H225.091L224.517 471H223.58L224.154 468.061H222.083L221.522 471H220.593L221.14 468.061H219.349V467.179H221.311L221.775 464.854H219.882V463.986H221.926L222.486 461.006H223.437L222.876 463.986H224.961L225.535 461.006H226.451L225.877 463.986H227.682V464.854H225.706ZM222.247 467.179H224.318L224.77 464.854H222.698L222.247 467.179ZM235.304 471H228.734V470.022L231.366 467.377C232.168 466.566 232.697 465.987 232.952 465.641C233.207 465.294 233.399 464.957 233.526 464.629C233.654 464.301 233.718 463.948 233.718 463.569C233.718 463.036 233.556 462.615 233.232 462.305C232.909 461.99 232.46 461.833 231.886 461.833C231.471 461.833 231.077 461.901 230.703 462.038C230.334 462.175 229.922 462.423 229.466 462.783L228.864 462.011C229.785 461.245 230.787 460.862 231.872 460.862C232.811 460.862 233.547 461.104 234.08 461.587C234.613 462.065 234.88 462.71 234.88 463.521C234.88 464.155 234.702 464.782 234.347 465.401C233.991 466.021 233.326 466.805 232.351 467.753L230.163 469.893V469.947H235.304V471ZM243.315 471H236.746V470.022L239.378 467.377C240.18 466.566 240.709 465.987 240.964 465.641C241.219 465.294 241.41 464.957 241.538 464.629C241.666 464.301 241.729 463.948 241.729 463.569C241.729 463.036 241.568 462.615 241.244 462.305C240.921 461.99 240.472 461.833 239.897 461.833C239.483 461.833 239.089 461.901 238.715 462.038C238.346 462.175 237.933 462.423 237.478 462.783L236.876 462.011C237.797 461.245 238.799 460.862 239.884 460.862C240.823 460.862 241.559 461.104 242.092 461.587C242.625 462.065 242.892 462.71 242.892 463.521C242.892 464.155 242.714 464.782 242.358 465.401C242.003 466.021 241.338 466.805 240.362 467.753L238.175 469.893V469.947H243.315V471ZM244.874 466.728C244.874 464.763 245.255 463.296 246.016 462.325C246.781 461.35 247.911 460.862 249.406 460.862C249.921 460.862 250.327 460.906 250.623 460.992V461.97C250.272 461.856 249.871 461.799 249.42 461.799C248.349 461.799 247.531 462.134 246.966 462.804C246.401 463.469 246.091 464.517 246.036 465.948H246.118C246.619 465.164 247.412 464.772 248.497 464.772C249.395 464.772 250.101 465.044 250.616 465.586C251.136 466.128 251.396 466.864 251.396 467.794C251.396 468.833 251.111 469.651 250.541 470.248C249.976 470.84 249.21 471.137 248.244 471.137C247.21 471.137 246.389 470.749 245.783 469.975C245.177 469.195 244.874 468.113 244.874 466.728ZM248.23 470.173C248.878 470.173 249.379 469.97 249.734 469.564C250.094 469.154 250.274 468.564 250.274 467.794C250.274 467.133 250.108 466.614 249.775 466.235C249.443 465.857 248.946 465.668 248.285 465.668C247.875 465.668 247.499 465.752 247.157 465.921C246.815 466.09 246.542 466.322 246.337 466.618C246.136 466.914 246.036 467.222 246.036 467.541C246.036 468.01 246.127 468.448 246.31 468.854C246.492 469.259 246.749 469.58 247.082 469.817C247.419 470.054 247.802 470.173 248.23 470.173ZM259.339 471H252.77V470.022L255.401 467.377C256.203 466.566 256.732 465.987 256.987 465.641C257.243 465.294 257.434 464.957 257.562 464.629C257.689 464.301 257.753 463.948 257.753 463.569C257.753 463.036 257.591 462.615 257.268 462.305C256.944 461.99 256.495 461.833 255.921 461.833C255.506 461.833 255.112 461.901 254.738 462.038C254.369 462.175 253.957 462.423 253.501 462.783L252.899 462.011C253.82 461.245 254.823 460.862 255.907 460.862C256.846 460.862 257.582 461.104 258.115 461.587C258.648 462.065 258.915 462.71 258.915 463.521C258.915 464.155 258.737 464.782 258.382 465.401C258.026 466.021 257.361 466.805 256.386 467.753L254.198 469.893V469.947H259.339V471ZM267.351 465.271C267.351 469.182 265.838 471.137 262.812 471.137C262.283 471.137 261.864 471.091 261.554 471V470.022C261.918 470.141 262.333 470.2 262.798 470.2C263.892 470.2 264.716 469.863 265.272 469.188C265.833 468.509 266.138 467.47 266.188 466.071H266.106C265.856 466.45 265.523 466.739 265.108 466.939C264.694 467.135 264.227 467.233 263.707 467.233C262.823 467.233 262.121 466.969 261.602 466.44C261.082 465.912 260.822 465.174 260.822 464.226C260.822 463.187 261.112 462.366 261.69 461.765C262.274 461.163 263.039 460.862 263.987 460.862C264.666 460.862 265.259 461.038 265.765 461.389C266.275 461.735 266.667 462.243 266.94 462.913C267.214 463.578 267.351 464.365 267.351 465.271ZM263.987 461.833C263.336 461.833 262.832 462.043 262.477 462.462C262.121 462.881 261.943 463.465 261.943 464.212C261.943 464.868 262.107 465.385 262.436 465.764C262.764 466.137 263.263 466.324 263.933 466.324C264.347 466.324 264.728 466.24 265.074 466.071C265.425 465.903 265.701 465.673 265.901 465.381C266.102 465.089 266.202 464.784 266.202 464.465C266.202 463.986 266.109 463.544 265.922 463.139C265.735 462.733 265.473 462.414 265.136 462.182C264.803 461.949 264.42 461.833 263.987 461.833ZM275.362 465.271C275.362 469.182 273.849 471.137 270.823 471.137C270.295 471.137 269.875 471.091 269.565 471V470.022C269.93 470.141 270.345 470.2 270.81 470.2C271.903 470.2 272.728 469.863 273.284 469.188C273.845 468.509 274.15 467.47 274.2 466.071H274.118C273.868 466.45 273.535 466.739 273.12 466.939C272.705 467.135 272.238 467.233 271.719 467.233C270.835 467.233 270.133 466.969 269.613 466.44C269.094 465.912 268.834 465.174 268.834 464.226C268.834 463.187 269.123 462.366 269.702 461.765C270.285 461.163 271.051 460.862 271.999 460.862C272.678 460.862 273.271 461.038 273.776 461.389C274.287 461.735 274.679 462.243 274.952 462.913C275.226 463.578 275.362 464.365 275.362 465.271ZM271.999 461.833C271.347 461.833 270.844 462.043 270.488 462.462C270.133 462.881 269.955 463.465 269.955 464.212C269.955 464.868 270.119 465.385 270.447 465.764C270.775 466.137 271.274 466.324 271.944 466.324C272.359 466.324 272.74 466.24 273.086 466.071C273.437 465.903 273.713 465.673 273.913 465.381C274.114 465.089 274.214 464.784 274.214 464.465C274.214 463.986 274.12 463.544 273.934 463.139C273.747 462.733 273.485 462.414 273.147 462.182C272.815 461.949 272.432 461.833 271.999 461.833Z" fill="#5F5F5F"/>
<rect x="312" y="368" width="80" height="80" rx="3" fill="#5883AA"/>
<path d="M329.206 464.854L328.755 467.179H330.689V468.061H328.591L328.017 471H327.08L327.654 468.061H325.583L325.022 471H324.093L324.64 468.061H322.849V467.179H324.811L325.275 464.854H323.382V463.986H325.426L325.986 461.006H326.937L326.376 463.986H328.461L329.035 461.006H329.951L329.377 463.986H331.182V464.854H329.206ZM325.747 467.179H327.818L328.27 464.854H326.198L325.747 467.179ZM335.358 464.896C336.411 464.896 337.238 465.158 337.84 465.682C338.446 466.201 338.749 466.914 338.749 467.821C338.749 468.856 338.419 469.667 337.758 470.255C337.102 470.843 336.195 471.137 335.037 471.137C333.911 471.137 333.052 470.957 332.46 470.597V469.503C332.779 469.708 333.175 469.87 333.649 469.988C334.123 470.102 334.59 470.159 335.051 470.159C335.853 470.159 336.475 469.97 336.917 469.592C337.364 469.214 337.587 468.667 337.587 467.951C337.587 466.557 336.732 465.859 335.023 465.859C334.59 465.859 334.012 465.925 333.287 466.058L332.699 465.682L333.075 461.006H338.045V462.052H334.046L333.793 465.053C334.317 464.948 334.839 464.896 335.358 464.896ZM343.555 460.862C344.466 460.862 345.188 461.074 345.722 461.498C346.255 461.922 346.521 462.507 346.521 463.255C346.521 463.747 346.369 464.196 346.063 464.602C345.758 465.007 345.271 465.376 344.601 465.709C345.412 466.096 345.988 466.504 346.33 466.933C346.672 467.356 346.843 467.849 346.843 468.409C346.843 469.239 346.553 469.902 345.975 470.398C345.396 470.891 344.603 471.137 343.596 471.137C342.529 471.137 341.709 470.904 341.135 470.439C340.561 469.97 340.273 469.307 340.273 468.45C340.273 467.306 340.971 466.415 342.365 465.777C341.736 465.422 341.285 465.039 341.012 464.629C340.738 464.214 340.602 463.752 340.602 463.241C340.602 462.517 340.868 461.94 341.401 461.512C341.939 461.079 342.657 460.862 343.555 460.862ZM341.395 468.478C341.395 469.024 341.584 469.451 341.962 469.756C342.345 470.061 342.88 470.214 343.568 470.214C344.247 470.214 344.776 470.054 345.154 469.735C345.533 469.416 345.722 468.979 345.722 468.423C345.722 467.981 345.544 467.589 345.188 467.247C344.833 466.901 344.213 466.566 343.329 466.242C342.65 466.534 342.158 466.857 341.853 467.213C341.547 467.564 341.395 467.985 341.395 468.478ZM343.541 461.785C342.971 461.785 342.525 461.922 342.201 462.195C341.878 462.469 341.716 462.833 341.716 463.289C341.716 463.708 341.85 464.068 342.119 464.369C342.388 464.67 342.885 464.971 343.609 465.271C344.261 464.998 344.721 464.704 344.99 464.39C345.264 464.075 345.4 463.708 345.4 463.289C345.4 462.829 345.234 462.464 344.901 462.195C344.573 461.922 344.12 461.785 343.541 461.785ZM351.566 460.862C352.478 460.862 353.2 461.074 353.733 461.498C354.267 461.922 354.533 462.507 354.533 463.255C354.533 463.747 354.381 464.196 354.075 464.602C353.77 465.007 353.282 465.376 352.612 465.709C353.424 466.096 354 466.504 354.342 466.933C354.684 467.356 354.854 467.849 354.854 468.409C354.854 469.239 354.565 469.902 353.986 470.398C353.408 470.891 352.615 471.137 351.607 471.137C350.541 471.137 349.721 470.904 349.146 470.439C348.572 469.97 348.285 469.307 348.285 468.45C348.285 467.306 348.982 466.415 350.377 465.777C349.748 465.422 349.297 465.039 349.023 464.629C348.75 464.214 348.613 463.752 348.613 463.241C348.613 462.517 348.88 461.94 349.413 461.512C349.951 461.079 350.669 460.862 351.566 460.862ZM349.406 468.478C349.406 469.024 349.595 469.451 349.974 469.756C350.356 470.061 350.892 470.214 351.58 470.214C352.259 470.214 352.788 470.054 353.166 469.735C353.544 469.416 353.733 468.979 353.733 468.423C353.733 467.981 353.556 467.589 353.2 467.247C352.845 466.901 352.225 466.566 351.341 466.242C350.662 466.534 350.17 466.857 349.864 467.213C349.559 467.564 349.406 467.985 349.406 468.478ZM351.553 461.785C350.983 461.785 350.536 461.922 350.213 462.195C349.889 462.469 349.728 462.833 349.728 463.289C349.728 463.708 349.862 464.068 350.131 464.369C350.4 464.67 350.896 464.971 351.621 465.271C352.273 464.998 352.733 464.704 353.002 464.39C353.275 464.075 353.412 463.708 353.412 463.289C353.412 462.829 353.246 462.464 352.913 462.195C352.585 461.922 352.132 461.785 351.553 461.785ZM362.463 463.357C362.463 463.995 362.283 464.517 361.923 464.923C361.567 465.328 361.062 465.6 360.405 465.736V465.791C361.207 465.891 361.802 466.146 362.189 466.557C362.577 466.967 362.771 467.505 362.771 468.17C362.771 469.122 362.44 469.856 361.779 470.371C361.118 470.882 360.18 471.137 358.963 471.137C358.434 471.137 357.949 471.096 357.507 471.014C357.069 470.936 356.643 470.797 356.229 470.597V469.517C356.661 469.731 357.122 469.895 357.609 470.009C358.102 470.118 358.566 470.173 359.004 470.173C360.731 470.173 361.595 469.496 361.595 468.143C361.595 466.93 360.642 466.324 358.737 466.324H357.753V465.347H358.751C359.53 465.347 360.148 465.176 360.604 464.834C361.059 464.488 361.287 464.009 361.287 463.398C361.287 462.911 361.118 462.528 360.781 462.25C360.449 461.972 359.995 461.833 359.421 461.833C358.983 461.833 358.571 461.892 358.184 462.011C357.796 462.129 357.354 462.348 356.857 462.667L356.283 461.901C356.693 461.578 357.165 461.325 357.698 461.143C358.236 460.956 358.801 460.862 359.394 460.862C360.364 460.862 361.118 461.086 361.656 461.532C362.194 461.974 362.463 462.583 362.463 463.357ZM371.254 471L370.01 467.821H366.004L364.773 471H363.598L367.549 460.965H368.526L372.457 471H371.254ZM369.647 466.775L368.485 463.679C368.335 463.287 368.18 462.806 368.021 462.236C367.92 462.674 367.777 463.155 367.59 463.679L366.414 466.775H369.647ZM380.113 471L378.869 467.821H374.863L373.633 471H372.457L376.408 460.965H377.386L381.316 471H380.113ZM378.507 466.775L377.345 463.679C377.194 463.287 377.039 462.806 376.88 462.236C376.78 462.674 376.636 463.155 376.449 463.679L375.273 466.775H378.507Z" fill="#5F5F5F"/>
<rect x="416" y="368" width="80" height="80" rx="3" fill="#E0EBFE"/>
<path d="M434.206 464.854L433.755 467.179H435.689V468.061H433.591L433.017 471H432.08L432.654 468.061H430.583L430.022 471H429.093L429.64 468.061H427.849V467.179H429.811L430.275 464.854H428.382V463.986H430.426L430.986 461.006H431.937L431.376 463.986H433.461L434.035 461.006H434.951L434.377 463.986H436.182V464.854H434.206ZM430.747 467.179H432.818L433.27 464.854H431.198L430.747 467.179ZM443.496 471H437.925V461.006H443.496V462.038H439.087V465.258H443.229V466.283H439.087V469.961H443.496V471ZM451.651 465.989C451.651 467.716 451.378 469.006 450.831 469.858C450.289 470.711 449.457 471.137 448.336 471.137C447.26 471.137 446.442 470.701 445.882 469.831C445.321 468.956 445.041 467.675 445.041 465.989C445.041 464.248 445.312 462.956 445.854 462.113C446.397 461.27 447.224 460.849 448.336 460.849C449.421 460.849 450.243 461.288 450.804 462.168C451.369 463.048 451.651 464.321 451.651 465.989ZM446.189 465.989C446.189 467.443 446.36 468.503 446.702 469.168C447.044 469.829 447.589 470.159 448.336 470.159C449.092 470.159 449.639 469.824 449.977 469.154C450.318 468.48 450.489 467.425 450.489 465.989C450.489 464.554 450.318 463.503 449.977 462.838C449.639 462.168 449.092 461.833 448.336 461.833C447.589 461.833 447.044 462.163 446.702 462.824C446.36 463.48 446.189 464.535 446.189 465.989ZM459.301 471H453.729V461.006H459.301V462.038H454.892V465.258H459.034V466.283H454.892V469.961H459.301V471ZM461.522 461.006H464.346C465.672 461.006 466.631 461.204 467.224 461.601C467.816 461.997 468.112 462.624 468.112 463.48C468.112 464.073 467.946 464.563 467.613 464.95C467.285 465.333 466.804 465.581 466.171 465.695V465.764C467.688 466.023 468.447 466.821 468.447 468.156C468.447 469.049 468.144 469.747 467.538 470.248C466.937 470.749 466.093 471 465.009 471H461.522V461.006ZM462.685 465.285H464.599C465.419 465.285 466.009 465.158 466.369 464.902C466.729 464.643 466.909 464.207 466.909 463.597C466.909 463.036 466.709 462.633 466.308 462.387C465.907 462.136 465.269 462.011 464.394 462.011H462.685V465.285ZM462.685 466.27V470.009H464.77C465.576 470.009 466.182 469.854 466.588 469.544C466.998 469.229 467.203 468.74 467.203 468.074C467.203 467.454 466.993 466.999 466.574 466.707C466.16 466.415 465.526 466.27 464.674 466.27H462.685ZM471.763 471H470.601V461.006H476.172V462.038H471.763V465.695H475.905V466.728H471.763V471ZM483.404 471H477.833V461.006H483.404V462.038H478.995V465.258H483.138V466.283H478.995V469.961H483.404V471Z" fill="#5F5F5F"/>
<rect x="520" y="368" width="80" height="80" rx="3" fill="#D3DFEB"/>
<path d="M535.706 464.854L535.255 467.179H537.189V468.061H535.091L534.517 471H533.58L534.154 468.061H532.083L531.522 471H530.593L531.14 468.061H529.349V467.179H531.311L531.775 464.854H529.882V463.986H531.926L532.486 461.006H533.437L532.876 463.986H534.961L535.535 461.006H536.451L535.877 463.986H537.682V464.854H535.706ZM532.247 467.179H534.318L534.77 464.854H532.698L532.247 467.179ZM547.402 465.907C547.402 467.557 546.953 468.819 546.056 469.694C545.162 470.565 543.875 471 542.193 471H539.425V461.006H542.487C544.041 461.006 545.249 461.437 546.11 462.298C546.972 463.159 547.402 464.362 547.402 465.907ZM546.172 465.948C546.172 464.645 545.844 463.663 545.188 463.002C544.536 462.341 543.565 462.011 542.275 462.011H540.587V469.995H542.002C543.387 469.995 544.429 469.656 545.126 468.977C545.823 468.293 546.172 467.284 546.172 465.948ZM555.141 463.357C555.141 463.995 554.961 464.517 554.601 464.923C554.245 465.328 553.739 465.6 553.083 465.736V465.791C553.885 465.891 554.48 466.146 554.867 466.557C555.255 466.967 555.448 467.505 555.448 468.17C555.448 469.122 555.118 469.856 554.457 470.371C553.796 470.882 552.857 471.137 551.641 471.137C551.112 471.137 550.627 471.096 550.185 471.014C549.747 470.936 549.321 470.797 548.906 470.597V469.517C549.339 469.731 549.799 469.895 550.287 470.009C550.779 470.118 551.244 470.173 551.682 470.173C553.409 470.173 554.272 469.496 554.272 468.143C554.272 466.93 553.32 466.324 551.415 466.324H550.431V465.347H551.429C552.208 465.347 552.826 465.176 553.281 464.834C553.737 464.488 553.965 464.009 553.965 463.398C553.965 462.911 553.796 462.528 553.459 462.25C553.126 461.972 552.673 461.833 552.099 461.833C551.661 461.833 551.249 461.892 550.861 462.011C550.474 462.129 550.032 462.348 549.535 462.667L548.961 461.901C549.371 461.578 549.843 461.325 550.376 461.143C550.914 460.956 551.479 460.862 552.071 460.862C553.042 460.862 553.796 461.086 554.334 461.532C554.872 461.974 555.141 462.583 555.141 463.357ZM565.627 465.907C565.627 467.557 565.178 468.819 564.28 469.694C563.387 470.565 562.1 471 560.418 471H557.649V461.006H560.712C562.266 461.006 563.474 461.437 564.335 462.298C565.196 463.159 565.627 464.362 565.627 465.907ZM564.396 465.948C564.396 464.645 564.068 463.663 563.412 463.002C562.76 462.341 561.79 462.011 560.5 462.011H558.812V469.995H560.227C561.612 469.995 562.653 469.656 563.351 468.977C564.048 468.293 564.396 467.284 564.396 465.948ZM569.024 471H567.862V461.006H573.434V462.038H569.024V465.695H573.167V466.728H569.024V471ZM580.666 471H575.095V461.006H580.666V462.038H576.257V465.258H580.399V466.283H576.257V469.961H580.666V471ZM582.888 461.006H585.711C587.037 461.006 587.996 461.204 588.589 461.601C589.181 461.997 589.478 462.624 589.478 463.48C589.478 464.073 589.311 464.563 588.979 464.95C588.65 465.333 588.17 465.581 587.536 465.695V465.764C589.054 466.023 589.812 466.821 589.812 468.156C589.812 469.049 589.509 469.747 588.903 470.248C588.302 470.749 587.459 471 586.374 471H582.888V461.006ZM584.05 465.285H585.964C586.784 465.285 587.374 465.158 587.734 464.902C588.094 464.643 588.274 464.207 588.274 463.597C588.274 463.036 588.074 462.633 587.673 462.387C587.272 462.136 586.634 462.011 585.759 462.011H584.05V465.285ZM584.05 466.27V470.009H586.135C586.941 470.009 587.548 469.854 587.953 469.544C588.363 469.229 588.568 468.74 588.568 468.074C588.568 467.454 588.359 466.999 587.939 466.707C587.525 466.415 586.891 466.27 586.039 466.27H584.05Z" fill="#5F5F5F"/>
</svg>
