<svg width="714" height="714" viewBox="0 0 714 714" fill="none" xmlns="http://www.w3.org/2000/svg">
<g clip-path="url(#clip0)">
<rect width="714" height="714" rx="6" fill="#E9F1D0"/>
<path d="M362.129 399.583C365.028 410.865 306.03 428.259 230.345 438.366C154.659 448.473 90.9606 447.611 88.14 436.329C85.3194 425.047 144.317 407.418 220.002 397.233C295.688 387.047 359.308 387.987 362.129 399.27" fill="#115229"/>
<path d="M620.056 450.823C622.641 462.106 563.409 480.283 487.801 491.33C412.194 502.378 348.653 502.299 345.989 491.33C343.325 480.361 402.635 461.871 478.321 450.823C554.007 439.776 617.392 439.855 620.056 450.823Z" fill="#115229"/>
<path d="M576.025 351.163C576.025 519.38 478.245 655.708 357.743 655.708C237.241 655.708 139.383 519.38 139.383 351.163C139.383 182.946 237.163 47.0098 357.743 47.0098C478.323 47.0098 576.025 183.338 576.025 351.476" fill="#333333"/>
<path d="M357.743 651.399C239.592 651.399 143.535 518.204 143.535 353.67C143.535 274.067 165.708 198.694 206.215 141.578C246.722 84.4607 300.469 52.1807 357.743 52.1807C415.017 52.1807 468.764 83.9123 509.271 141.499C549.778 199.086 571.951 274.223 571.951 353.592C571.951 518.126 475.894 651.32 357.821 651.32L357.743 651.399ZM357.821 57.195C302.193 57.195 249.777 88.5349 210.132 144.477C170.487 200.418 148.863 275.007 148.863 353.592C148.863 514.992 242.882 646.306 358.056 646.306C473.23 646.306 566.858 514.992 566.858 353.592C566.858 275.242 545.077 200.81 505.354 144.555C465.63 88.2998 413.293 57.2734 357.743 57.2734" fill="white"/>
<path d="M381.797 393.158C381.797 400.993 385.479 407.261 389.632 407.261H443.301V379.212H389.945C385.479 379.212 382.11 385.48 382.11 393.158" fill="#231F20"/>
<path d="M386.652 403.265C364.317 398.963 341.269 400.173 319.507 406.791C312.22 408.985 308.616 395.822 315.903 393.628C339.743 386.581 364.941 385.451 389.316 390.338C390.905 391.044 392.214 392.258 393.037 393.79C393.86 395.322 394.149 397.085 393.86 398.799C393.728 399.591 393.428 400.345 392.981 401.012C392.534 401.678 391.95 402.242 391.268 402.664C390.585 403.087 389.821 403.359 389.025 403.463C388.229 403.567 387.42 403.499 386.652 403.265" fill="#231F20"/>
<path d="M267.562 265.919C267.562 265.919 286.21 252.991 289.97 257.065C290.947 258.497 291.502 260.174 291.571 261.906C291.64 263.637 291.221 265.354 290.362 266.859C290.129 267.421 289.716 267.889 289.187 268.191L268.973 279.551L267.562 265.919Z" stroke="#231F20" stroke-width="0.1" stroke-miterlimit="10"/>
<path d="M270.305 293.419C270.305 293.419 289.109 280.178 292.869 284.252C296.63 288.326 293.81 293.106 292.869 294.516L292.321 295.065L271.323 306.739L270.305 293.419Z" fill="#231F20"/>
<path d="M274.926 345.991C274.926 345.991 295.375 336.119 298.431 340.742C301.486 345.365 297.726 351.163 297.726 351.163C297.726 351.163 276.179 354.688 276.101 358.214C276.023 361.74 274.926 345.991 274.926 345.991Z" stroke="#231F20" stroke-width="0.1" stroke-miterlimit="10"/>
<path d="M279.157 402.09C279.157 402.09 299.371 392.375 302.662 396.997C305.952 401.62 301.33 407.418 301.33 407.418C301.33 407.418 278.922 412.197 278.843 415.253C278.765 418.308 278.843 401.698 278.843 401.698" fill="#231F20"/>
<path d="M441.184 266.859C441.184 266.859 411.254 252.207 406.788 255.341C405.263 256.713 404.299 258.6 404.082 260.64C403.865 262.679 404.41 264.727 405.613 266.389C418.761 269.41 431.278 274.714 442.594 282.059L441.184 266.859Z" stroke="#231F20" stroke-width="0.1" stroke-miterlimit="10"/>
<path d="M446.043 321.625C446.043 321.625 415.957 306.817 411.491 309.951C407.025 313.085 409.453 320.372 410.315 320.685C423.469 323.691 435.988 328.996 447.296 336.355L446.043 321.625Z" fill="#231F20"/>
<path d="M450.507 376.078C450.507 376.078 419.167 362.916 415.25 366.206C413.886 367.641 413.069 369.509 412.94 371.485C412.811 373.46 413.379 375.419 414.545 377.019C427.578 379.351 440.097 383.967 451.526 390.651L450.507 376.078Z" fill="#231F20"/>
<path d="M367.065 520.085L371.531 471.273C371.511 470.934 371.362 470.615 371.115 470.382C370.867 470.148 370.54 470.019 370.199 470.02H342.934C342.56 470.02 342.201 470.168 341.936 470.433C341.672 470.697 341.523 471.056 341.523 471.43L343.247 520.242C343.247 520.423 343.284 520.603 343.355 520.77C343.427 520.937 343.532 521.087 343.665 521.212C343.797 521.337 343.953 521.433 344.124 521.496C344.294 521.558 344.476 521.584 344.657 521.574L365.655 521.103C366.023 521.085 366.371 520.93 366.631 520.669C366.892 520.409 367.047 520.061 367.065 519.693" fill="white"/>
<path d="M310.341 463.359C308.774 462.889 272.577 465.397 271.167 404.911C269.756 344.425 258.552 246.723 258.552 246.723C258.552 246.723 250.717 199.008 292.086 177.854C340.349 153.252 408.357 188.509 414.311 191.565C420.266 194.62 437.816 210.76 442.125 246.409C446.435 282.058 456.698 413.686 456.698 413.686C456.698 413.686 456.698 455.525 400.757 462.184C344.815 468.844 324.836 467.277 310.341 463.359V463.359Z" fill="#333333"/>
<path d="M453.408 374.668C441.223 367.922 427.974 363.311 414.234 361.035C413.026 359.431 412.44 357.445 412.584 355.443C412.728 353.441 413.592 351.558 415.017 350.144C419.326 346.932 449.491 358.998 452.155 360.016C452.155 355.864 451.45 351.555 451.058 347.167C438.977 340.518 425.868 335.936 412.275 333.613C410.953 332.062 410.288 330.057 410.419 328.024C410.551 325.991 411.47 324.089 412.98 322.722C417.289 319.51 447.219 331.497 449.804 332.516C449.804 328.363 449.099 324.211 448.786 319.98C436.563 310.343 410.708 304.31 409.611 304.31C408.369 302.706 407.798 300.683 408.017 298.667C408.236 296.65 409.229 294.797 410.786 293.497C415.409 290.52 445.495 304.388 447.297 305.172C446.905 300.941 446.514 296.71 446.122 292.714C433.899 283.077 408.044 277.044 406.947 277.044C405.814 275.386 405.36 273.355 405.681 271.372C406.002 269.389 407.072 267.605 408.671 266.389C413.137 263.49 441.891 276.652 445.103 278.141C444.712 273.597 444.32 269.287 443.928 265.292C431.845 257.901 418.6 252.603 404.753 249.622C403.609 247.976 403.105 245.969 403.336 243.979C403.567 241.988 404.517 240.15 406.007 238.809C410.551 235.911 439.697 249.308 442.283 250.484C442.283 249.073 442.283 247.82 442.283 246.644C438.287 211.074 420.58 195.012 414.547 191.8C408.514 188.587 340.507 153.408 292.243 178.01C250.718 199.008 258.553 246.723 258.553 246.723V249.152C260.512 247.898 278.375 236.459 282.058 240.298C283.08 241.723 283.669 243.413 283.752 245.165C283.835 246.916 283.41 248.655 282.528 250.17C282.238 250.719 281.805 251.179 281.274 251.502L259.885 262.863C259.885 266.624 260.747 270.698 261.217 275.634C263.097 274.38 280.961 262.863 284.722 266.78C285.744 268.205 286.333 269.895 286.416 271.647C286.499 273.398 286.074 275.137 285.192 276.652C284.9 277.18 284.465 277.614 283.938 277.906L262.549 289.345C263.019 293.654 263.411 298.198 263.881 302.978C265.839 301.724 283.703 290.52 287.386 294.438C288.366 295.897 288.889 297.616 288.889 299.374C288.889 301.132 288.366 302.85 287.386 304.31C287.118 304.855 286.677 305.296 286.132 305.563L264.664 316.689C265.134 321.703 265.526 326.796 265.996 332.359C268.973 330.557 285.975 320.45 289.501 324.524C290.495 325.963 291.027 327.671 291.027 329.421C291.027 331.17 290.495 332.878 289.501 334.318C289.238 334.885 288.798 335.353 288.247 335.65L266.623 346.462C266.623 351.163 267.328 355.864 267.641 360.486C269.6 359.311 287.777 348.499 291.146 352.651C292.107 354.118 292.619 355.834 292.619 357.587C292.619 359.341 292.107 361.057 291.146 362.524C290.823 363.054 290.363 363.487 289.814 363.777L269.914 373.728C270.462 384.696 270.932 395.274 271.167 405.067C272.578 465.553 308.697 463.124 310.342 463.516C324.758 467.512 345.521 468.922 400.757 462.341C455.994 455.76 456.621 413.843 456.621 413.843C456.621 413.843 455.289 397.389 453.408 374.668ZM295.926 232.698C321.171 225.582 347.724 224.429 373.492 229.329C375.139 229.999 376.51 231.209 377.379 232.761C378.247 234.313 378.562 236.115 378.271 237.869C378.119 238.716 377.783 239.519 377.286 240.221C376.79 240.923 376.145 241.508 375.398 241.934C374.65 242.36 373.819 242.616 372.961 242.686C372.104 242.755 371.242 242.635 370.436 242.335C346.815 238.018 322.514 239.252 299.451 245.939C292.087 248.133 288.247 235.049 295.926 232.698ZM300.94 261.609C326.198 254.559 352.742 253.433 378.506 258.319C380.154 258.988 381.525 260.199 382.393 261.751C383.262 263.303 383.576 265.104 383.285 266.859C383.121 267.699 382.777 268.493 382.277 269.188C381.778 269.883 381.134 270.462 380.391 270.886C379.647 271.31 378.821 271.569 377.969 271.644C377.116 271.72 376.257 271.611 375.451 271.325C351.829 267.01 327.529 268.244 304.466 274.929C297.023 277.122 293.262 263.881 300.94 261.609V261.609ZM300.94 289.893C326.185 282.763 352.748 281.637 378.506 286.603C380.139 287.269 381.499 288.468 382.366 290.003C383.234 291.539 383.557 293.322 383.285 295.064C383.143 295.918 382.814 296.729 382.322 297.441C381.829 298.153 381.186 298.747 380.438 299.181C379.689 299.615 378.854 299.878 377.992 299.952C377.13 300.026 376.262 299.909 375.451 299.609C351.833 295.304 327.54 296.51 304.466 303.134C297.179 305.563 293.419 292.087 301.097 289.893H300.94ZM303.369 318.883C328.62 311.793 355.174 310.666 380.935 315.592C382.583 316.262 383.953 317.472 384.822 319.024C385.691 320.576 386.005 322.378 385.714 324.132C385.562 324.979 385.226 325.781 384.729 326.484C384.233 327.186 383.588 327.771 382.841 328.197C382.094 328.623 381.262 328.879 380.405 328.949C379.547 329.018 378.685 328.898 377.879 328.598C354.262 324.293 329.969 325.499 306.895 332.124C299.608 334.396 295.847 321.233 303.526 318.883H303.369ZM390.65 352.573C390.495 353.42 390.158 354.223 389.663 354.927C389.168 355.631 388.525 356.22 387.781 356.652C387.036 357.084 386.206 357.349 385.349 357.429C384.492 357.51 383.627 357.403 382.815 357.117C359.188 352.969 334.931 354.174 311.831 360.643C303.996 362.837 300.392 349.596 308.07 347.402C333.315 340.286 359.869 339.133 385.636 344.033C387.327 344.661 388.75 345.854 389.664 347.41C390.577 348.966 390.926 350.79 390.65 352.573Z" fill="white"/>
<path d="M453.092 403.735C453.092 403.735 423.084 390.729 418.383 394.098C417.019 395.533 416.201 397.401 416.073 399.377C415.944 401.352 416.512 403.311 417.678 404.911C430.643 407.178 443.092 411.77 454.423 418.465L453.092 403.735Z" fill="#231F20"/>
<path d="M88.1411 436.251C89.9431 438.053 103.811 448.787 161.633 423.166C224.313 395.509 561.216 309.403 625.698 375.608C619.82 400.778 618.048 426.733 620.448 452.469C620.435 452.749 620.353 453.022 620.21 453.264C620.067 453.506 619.867 453.709 619.627 453.855C619.388 454.002 619.116 454.088 618.836 454.106C618.556 454.124 618.276 454.073 618.019 453.958C596.63 446.123 448.863 401.385 150.664 528.703C150.664 528.703 119.873 514.679 87.9844 436.329" fill="#59BF97"/>
<path d="M180.75 484.592L181.533 483.574C182.939 484.339 184.497 484.785 186.095 484.88C187.693 484.974 189.292 484.716 190.778 484.122C193.274 483.174 195.533 481.696 197.4 479.788C199.267 477.88 200.697 475.59 201.591 473.075C203.181 468.717 204.515 464.269 205.586 459.755C204.333 458.58 202.609 456.151 206.997 453.252C209.222 442.267 215.173 432.386 223.842 425.281V425.281C219.585 426.226 215.397 427.456 211.306 428.964C196.89 434.057 186.391 442.127 189.681 451.529C190.365 453.495 191.703 455.167 193.471 456.265C195.24 457.363 197.331 457.821 199.397 457.562L199.005 458.972C197.561 459.656 196.068 460.232 194.539 460.695C193.057 461.309 191.465 461.614 189.861 461.593C188.257 461.571 186.674 461.224 185.208 460.572C183.742 459.919 182.424 458.976 181.335 457.798C180.245 456.621 179.406 455.234 178.869 453.722C175.422 443.85 183.727 432.96 211.228 423.323C220.342 419.943 229.893 417.885 239.59 417.211C248.444 417.211 253.772 420.11 255.652 425.438C260.118 438.131 248.522 448.238 232.147 453.957C228.657 455.168 225.064 456.06 221.413 456.621C220.295 462.525 218.508 468.281 216.085 473.78C214.458 477.575 212.067 480.994 209.061 483.824C206.055 486.655 202.499 488.836 198.613 490.233C190.778 492.976 183.492 492.349 180.828 484.827L180.75 484.592ZM243.508 429.591C242.872 427.497 241.495 425.706 239.635 424.552C237.775 423.399 235.559 422.962 233.401 423.323C229.405 425.987 225.566 438.209 222.667 451.294C225.076 450.952 227.441 450.348 229.718 449.491C240.53 445.731 245.937 438.052 243.508 429.591" fill="#333333"/>
<path d="M260.9 454.898C260.189 451.988 260.195 448.948 260.918 446.041C261.642 443.134 263.06 440.447 265.053 438.209C268.734 433.468 273.8 429.991 279.547 428.259C288.401 425.595 293.572 428.651 295.217 434.213C296.392 438.941 295.779 443.936 293.494 448.238C291.926 451.382 289.724 454.168 287.027 456.419C284.331 458.671 281.197 460.341 277.824 461.322C269.127 463.986 263.016 461.322 260.979 454.898H260.9ZM283.7 431.393C281.797 432.224 280.105 433.473 278.749 435.046C277.392 436.619 276.407 438.477 275.865 440.481C274.363 444.181 273.982 448.241 274.768 452.156C274.867 452.752 275.098 453.319 275.443 453.816C275.789 454.312 276.241 454.725 276.766 455.025C277.291 455.325 277.876 455.505 278.479 455.551C279.082 455.596 279.688 455.507 280.253 455.29C281.906 454.449 283.361 453.268 284.523 451.822C285.684 450.377 286.526 448.701 286.991 446.906C288.672 442.925 289.135 438.536 288.323 434.292C288.244 433.74 288.041 433.212 287.728 432.75C287.416 432.288 287.003 431.903 286.52 431.623C286.037 431.344 285.497 431.178 284.941 431.138C284.384 431.099 283.826 431.186 283.308 431.393" fill="#333333"/>
<path d="M320.135 448.709C313.006 450.589 307.443 448.709 305.641 441.814C305.105 438.802 305.242 435.709 306.041 432.757C306.84 429.804 308.282 427.064 310.263 424.734C313.702 420.439 318.47 417.407 323.818 416.115C325.541 415.5 327.386 415.306 329.2 415.552C331.013 415.797 332.741 416.474 334.238 417.525C335.719 413.188 337.472 408.949 339.488 404.833C341.461 400.458 343.766 396.241 346.382 392.218L359.153 388.928L360.015 389.946C357.027 394.973 354.409 400.21 352.18 405.616C349.879 410.704 347.916 415.939 346.304 421.286C344.712 425.266 343.99 429.54 344.189 433.822C344.189 435.232 345.756 436.329 348.341 435.624C350.702 434.921 352.749 433.427 354.139 431.393V434.214C351.127 438.593 346.656 441.759 341.525 443.146C336.824 444.399 333.69 443.146 331.574 440.247C328.905 444.436 324.771 447.481 319.979 448.787L320.135 448.709ZM330.634 429.435C331.212 426.348 332.105 423.329 333.298 420.424C332.626 419.913 331.839 419.575 331.006 419.438C330.173 419.302 329.319 419.371 328.519 419.641C326.74 420.042 325.09 420.884 323.722 422.089C322.353 423.293 321.308 424.822 320.684 426.536C318.891 430.204 318.315 434.348 319.038 438.366C319.9 441.735 321.702 442.832 324.836 442.049C327.101 441.397 329.016 439.876 330.164 437.818C329.695 435.043 329.695 432.209 330.164 429.435" fill="#333333"/>
<path d="M392.684 407.418C391.771 406.783 390.732 406.349 389.638 406.147C388.544 405.944 387.419 405.977 386.338 406.243C383.165 406.958 380.371 408.829 378.503 411.492C377.178 413.254 376.223 415.267 375.698 417.408C375.173 419.549 375.088 421.775 375.448 423.95C375.551 424.753 375.835 425.523 376.276 426.203C376.718 426.882 377.306 427.453 377.998 427.874C378.69 428.296 379.468 428.556 380.274 428.636C381.08 428.716 381.894 428.614 382.656 428.338C386.794 427.286 390.496 424.955 393.233 421.678V425.047C389.338 430.039 383.775 433.46 377.563 434.684C369.258 436.486 363.225 434.214 361.893 426.849C361.355 423.948 361.508 420.961 362.338 418.13C363.168 415.299 364.653 412.703 366.672 410.552C370.497 406.034 375.699 402.896 381.48 401.62C386.73 400.445 392.606 401.62 393.86 404.676L392.684 407.418Z" fill="#333333"/>
<path d="M448.469 390.808L449.487 391.905C446.588 397.154 445.57 399.034 444.63 401.15C442.508 405.045 441.227 409.343 440.869 413.764C440.869 415.174 442.201 416.35 444.865 415.879C447.155 415.388 449.189 414.079 450.584 412.197V415.018C447.343 419.121 442.721 421.906 437.578 422.853C432.72 423.636 429.195 422.853 427.863 419.17C424.907 423.014 420.64 425.635 415.875 426.535C408.589 427.867 403.183 425.595 402.007 418.7C401.722 415.639 402.122 412.553 403.179 409.666C404.236 406.779 405.924 404.164 408.119 402.012C411.856 398.038 416.825 395.443 422.222 394.647C424.125 394.123 426.133 394.108 428.044 394.603C429.955 395.098 431.702 396.085 433.112 397.467C433.944 395.931 434.971 394.509 436.168 393.236L448.469 390.808ZM426.609 398.094C424.93 398.463 423.355 399.204 421.999 400.261C420.643 401.319 419.541 402.667 418.774 404.205C416.625 407.757 415.664 411.901 416.032 416.036C416.502 419.484 418.382 420.816 421.516 420.267C423.751 419.793 425.716 418.474 427.001 416.585C426.917 413.801 427.288 411.022 428.098 408.358C429.033 405.353 430.186 402.421 431.545 399.583C430.893 398.974 430.105 398.529 429.247 398.284C428.389 398.038 427.485 398 426.609 398.172" fill="#333333"/>
<path d="M473.463 417.682C470.8 418.286 468.043 418.355 465.353 417.884C462.663 417.413 460.093 416.412 457.793 414.94V410.709C459.152 411.923 460.764 412.819 462.512 413.334C464.26 413.849 466.1 413.969 467.9 413.686C472.444 413.138 474.168 411.336 474.168 409.377C474.168 407.418 471.504 406.086 467.587 404.362C465.936 403.845 464.502 402.796 463.51 401.379C462.518 399.961 462.023 398.256 462.102 396.527C462.102 390.573 468.919 386.734 476.989 385.793C482.025 384.839 487.234 385.497 491.875 387.674V391.905C489.277 390.148 486.139 389.371 483.022 389.711C479.182 390.181 477.38 391.513 477.224 393.707C477.067 395.901 479.574 397.389 482.708 398.8C485.842 400.21 488.819 402.56 488.898 406.164C488.898 411.649 483.1 416.115 473.228 417.29" fill="#333333"/>
<path d="M501.435 406.478C501.695 399.826 503.901 393.397 507.781 387.987C505.979 387.204 505.509 386.107 505.901 385.088C506.293 384.07 507.468 383.521 511.072 382.895C513.429 379.483 516.048 376.261 518.907 373.258L531.286 372.317L531.756 373.258L524.94 383.051L535.909 382.346L533.402 386.264L522.511 387.125C518.401 392.125 515.696 398.128 514.676 404.519C514.698 405.056 514.837 405.582 515.084 406.06C515.331 406.538 515.68 406.955 516.105 407.284C516.531 407.613 517.023 407.844 517.548 407.962C518.073 408.08 518.617 408.081 519.142 407.966C522.096 407.607 524.849 406.285 526.977 404.206L526.35 407.026C524.484 409.121 522.206 410.807 519.658 411.98C517.11 413.153 514.347 413.787 511.542 413.843C506.841 413.843 501.435 412.511 500.965 406.478" fill="#333333"/>
<path d="M303.836 542.572L311.671 545.549L319.976 548.683C323.032 549.78 326.088 550.798 329.143 551.66C331.479 552.371 333.862 552.921 336.273 553.306C337.145 553.382 338.02 553.19 338.78 552.757C339.946 551.801 340.748 550.473 341.052 548.996C341.052 548.291 341.679 547.978 342.306 548.056C342.653 548.077 342.988 548.189 343.277 548.382C343.566 548.574 343.799 548.841 343.951 549.153C344.195 549.971 344.195 550.842 343.951 551.66C343.951 552.444 342.854 553.306 340.896 554.167C338.588 554.995 336.112 555.238 333.688 554.873C332.434 554.873 331.102 554.872 329.692 554.246L325.696 553.384L322.327 552.522L319.82 551.817C319.469 551.777 319.114 551.836 318.795 551.989C318.476 552.141 318.207 552.38 318.018 552.679C318.018 552.679 317.313 553.697 316.137 555.264L311.985 561.141C310.261 563.413 308.381 565.998 306.265 568.975L299.997 576.81C297.96 579.239 296.158 581.355 294.513 583.157L291.3 586.918C290.542 587.797 289.86 588.741 289.263 589.738C288.879 590.343 288.739 591.071 288.872 591.775C289.193 592.545 289.739 593.2 290.439 593.656C291.743 594.414 293.106 595.069 294.513 595.614C296.237 596.241 297.098 596.79 296.942 597.26C296.785 597.73 295.61 597.73 293.494 597.26L290.439 595.458L285.189 593.42L279.391 590.913L274.22 588.72L267.482 585.742C265.602 584.959 264.27 584.332 263.408 583.862C262.546 583.392 260.979 582.373 261.136 581.981C261.293 581.59 261.528 581.981 261.919 581.981C262.834 582.214 263.725 582.529 264.583 582.922C266.012 583.583 267.51 584.082 269.049 584.41C270.209 584.678 271.415 584.678 272.575 584.41C273.737 584.1 274.828 583.568 275.787 582.843L279.783 579.709C280.567 579.083 281.899 577.986 283.622 576.34C285.346 574.695 287.383 572.893 289.42 570.856C291.457 568.819 293.573 566.625 295.688 564.353C297.804 562.081 299.684 559.887 301.408 557.928L305.638 552.835C306.814 551.425 307.44 550.563 307.597 550.328C307.765 549.873 307.765 549.373 307.597 548.918C307.597 548.526 307.597 548.37 307.205 548.291L306.109 547.821L304.15 546.881L301.799 545.784L299.606 544.844C297.02 543.825 294.591 542.885 292.319 542.18C290.52 541.48 288.657 540.955 286.756 540.613C285.204 540.311 283.608 540.311 282.055 540.613C280.638 541.003 279.43 541.931 278.686 543.198C278.429 543.826 278.429 544.53 278.686 545.157C278.814 545.776 279.112 546.346 279.548 546.803C279.961 547.303 280.435 547.751 280.958 548.134L282.447 549.153C282.79 549.412 283.072 549.743 283.275 550.121C283.478 550.5 283.596 550.918 283.622 551.347C283.748 551.835 283.748 552.347 283.622 552.835L282.995 553.462C282.592 553.847 282.111 554.14 281.585 554.324C280.913 554.457 280.221 554.457 279.548 554.324C278.609 554.289 277.693 554.02 276.884 553.541C275.927 553.059 275.096 552.362 274.455 551.503C273.861 550.778 273.457 549.917 273.28 548.996C273.085 548.093 273.085 547.158 273.28 546.254C273.52 545.355 273.918 544.506 274.455 543.747C275.316 542.534 276.376 541.474 277.589 540.613C279.459 539.586 281.506 538.921 283.622 538.654C285.6 538.421 287.599 538.421 289.577 538.654C293.209 538.919 296.791 539.657 300.232 540.848C301.173 541.553 302.661 542.023 303.836 542.572Z" fill="white"/>
<path d="M342.463 575.322C342.954 575.223 343.46 575.223 343.951 575.322L345.205 576.184H345.675C346.23 575.394 346.889 574.682 347.634 574.068C348.104 574.068 348.495 573.52 348.809 573.598C349.537 573.62 350.255 573.78 350.924 574.068C351.592 574.327 352.224 574.669 352.805 575.087C353.017 575.247 353.18 575.464 353.275 575.713C353.373 575.865 353.425 576.042 353.425 576.223C353.425 576.403 353.373 576.58 353.275 576.732L351.551 580.493C350.689 582.295 349.671 584.254 348.495 586.447C347.32 588.641 346.067 590.835 344.735 593.029C343.403 595.223 342.228 597.338 341.131 599.062C341.131 599.062 341.131 599.767 341.131 599.923C341.255 599.975 341.388 600.002 341.522 600.002C341.657 600.002 341.79 599.975 341.914 599.923C343.589 599.949 345.248 599.601 346.772 598.905C348.548 598.083 350.208 597.029 351.708 595.771C351.853 595.695 352.014 595.656 352.178 595.656C352.342 595.656 352.503 595.695 352.648 595.771C352.743 595.894 352.795 596.046 352.795 596.202C352.795 596.358 352.743 596.509 352.648 596.633C352.334 597.253 351.909 597.81 351.394 598.278C350.178 599.485 348.838 600.561 347.399 601.49C345.765 602.522 344.033 603.389 342.228 604.076C340.42 604.831 338.525 605.358 336.586 605.643C334.742 605.914 332.868 605.914 331.024 605.643C330.205 605.556 329.422 605.259 328.751 604.781C328.64 604.605 328.581 604.402 328.581 604.194C328.581 603.985 328.64 603.782 328.751 603.606C329.284 602.246 330.024 600.978 330.945 599.845C332.355 597.886 334.079 595.144 336.195 592.48C336.195 592.48 336.195 592.089 336.195 591.853C336.195 591.618 336.195 591.853 335.646 591.853C330.84 595.772 325.26 598.629 319.271 600.237C315.793 601.415 312.071 601.685 308.459 601.02C307.404 600.805 306.46 600.222 305.795 599.375C305.459 598.935 305.233 598.421 305.138 597.875C305.042 597.33 305.079 596.769 305.246 596.241C305.848 594.508 306.936 592.985 308.38 591.853C310.221 590.191 312.185 588.672 314.257 587.309C316.607 585.742 319.193 584.175 322.092 582.687C324.991 581.198 327.968 579.866 331.259 578.456L334.941 576.967L338.467 575.713L341.209 574.93C341.642 575.007 342.063 575.138 342.463 575.322V575.322ZM338.232 579.004C336.534 578.789 334.81 579.004 333.217 579.631C331.386 580.359 329.65 581.306 328.046 582.451C326.908 583.231 325.809 584.068 324.756 584.959C323.68 585.891 322.66 586.885 321.7 587.936C320.77 589.014 319.932 590.167 319.193 591.383C318.479 592.483 317.974 593.705 317.704 594.987C317.507 595.545 317.507 596.154 317.704 596.711C317.704 597.338 318.253 597.73 319.349 597.886C320.655 598.028 321.975 597.84 323.189 597.338C324.666 596.809 326.105 596.18 327.498 595.458C330.988 593.823 334.169 591.596 336.9 588.876C338.902 586.373 340.76 583.757 342.463 581.041C342.578 580.912 342.642 580.745 342.642 580.571C342.642 580.398 342.578 580.23 342.463 580.101L340.661 579.788C339.918 579.352 339.089 579.084 338.232 579.004V579.004Z" fill="white"/>
<path d="M382.657 545.549C382.657 545.549 383.127 545.549 383.205 546.097C383.276 546.643 383.276 547.196 383.205 547.743C383.205 548.84 382.578 550.72 382.108 553.462C381.638 556.204 381.011 559.26 380.228 562.707C379.444 566.155 378.661 569.916 377.721 573.755C376.78 577.594 375.684 581.59 374.665 584.724C373.646 587.858 372.706 591.305 371.844 594.047C370.983 596.79 370.277 598.67 369.807 599.767C369.713 599.99 369.664 600.23 369.664 600.472C369.664 600.714 369.713 600.954 369.807 601.177C369.807 601.647 370.277 601.804 370.748 601.804C372.023 601.589 373.23 601.079 374.273 600.315C375.971 599.172 377.57 597.887 379.053 596.476C379.732 595.849 380.123 595.849 380.228 596.476C380.228 596.868 380.228 597.416 379.444 598.122C378.48 599.461 377.377 600.695 376.154 601.804C374.831 602.997 373.387 604.048 371.844 604.938C370.259 605.893 368.578 606.681 366.83 607.289C365.109 607.848 363.312 608.138 361.502 608.15C360.992 608.22 360.472 608.171 359.983 608.008C359.494 607.845 359.049 607.572 358.682 607.21C358.309 606.762 358.065 606.22 357.977 605.643C357.993 604.704 358.179 603.775 358.525 602.901C358.943 601.804 359.256 600.864 359.465 600.08C360.014 598.513 360.875 596.32 361.816 593.734C362.756 591.148 363.853 588.25 364.871 585.194C365.89 582.138 366.987 579.004 368.005 575.792C369.024 572.58 369.886 569.524 370.669 566.625C371.453 563.726 372.079 561.219 372.628 558.79C373.176 556.361 373.411 554.951 373.646 554.011C374.005 552.997 374.005 551.891 373.646 550.877C372.981 550.181 372.095 549.738 371.139 549.623C371.139 549.623 370.512 549.623 370.512 549.075C370.512 548.526 370.512 549.075 371.688 548.526L374.038 548.056L376.78 547.429L379.523 546.724L381.638 546.019H382.422L382.657 545.549Z" fill="white"/>
<path d="M415.249 564.979C416.356 564.598 417.527 564.439 418.696 564.509C419.194 564.485 419.687 564.625 420.097 564.908C420.508 565.192 420.814 565.602 420.968 566.076C421.583 567.691 421.583 569.476 420.968 571.091C420.122 573.106 418.899 574.941 417.364 576.497C416.299 577.577 415.174 578.597 413.995 579.553L409.999 582.53C409.946 582.682 409.946 582.848 409.999 583C410.861 584.097 411.801 586.134 412.977 587.858C413.942 589.246 415.016 590.556 416.189 591.775C416.888 592.415 417.68 592.943 418.539 593.342C418.773 593.448 419.027 593.503 419.284 593.503C419.541 593.503 419.794 593.448 420.028 593.342C421.222 592.926 422.297 592.227 423.162 591.305C424.458 589.962 425.541 588.43 426.374 586.761C426.374 586.056 427.08 585.742 427.393 585.742C427.706 585.742 427.785 586.212 427.393 587.152C427.07 588.566 426.514 589.917 425.748 591.148C425.042 592.522 424.145 593.788 423.084 594.909C422.105 596.048 421.001 597.073 419.793 597.965C418.764 598.706 417.628 599.288 416.424 599.688C415.008 600.018 413.524 599.88 412.193 599.297C410.354 598.533 408.718 597.353 407.414 595.849C406.552 594.831 405.69 593.89 404.985 592.95L402.713 590.13C401.224 588.328 400.206 587.387 399.422 587.544C398.639 587.701 398.795 587.936 398.482 588.484C398.148 589.116 397.86 589.77 397.62 590.443C396.837 592.402 396.131 594.517 395.426 596.633C394.721 598.748 393.938 600.707 393.076 602.587C392.786 603.267 392.293 603.842 391.666 604.233C391.286 604.573 390.828 604.815 390.334 604.938C388.957 605.371 387.48 605.371 386.103 604.938C385.163 604.468 384.692 603.998 384.692 603.606C384.66 603.162 384.66 602.717 384.692 602.274C384.759 601.501 384.916 600.738 385.163 600.002C386.103 597.181 386.965 594.047 387.748 590.757C388.532 587.466 389.393 584.175 390.099 580.806C390.804 577.437 391.509 574.225 392.057 571.012C392.606 567.8 393.076 564.901 393.389 562.237C393.703 559.573 394.094 557.145 394.251 555.107C394.408 553.07 394.251 551.582 394.251 550.563C394.316 549.617 394.126 548.67 393.703 547.821C392.995 547.254 392.1 546.974 391.195 547.037C390.412 547.037 389.863 547.037 389.863 547.037V546.567H390.49C391.352 546.567 392.449 545.862 393.546 545.47L396.445 544.217L398.952 543.042L400.597 542.18L402.008 541.475C402.008 541.475 402.008 541.475 402.556 541.945C402.635 542.411 402.635 542.888 402.556 543.355C402.556 544.374 402.556 546.019 402.556 547.899C402.556 549.78 402.556 551.817 402.086 554.089C401.616 556.361 401.616 558.711 401.303 561.219C400.989 563.726 400.676 565.998 400.362 568.27C400.049 570.542 399.657 572.658 399.344 574.538C399.03 576.419 398.795 578.064 398.639 579.239C398.482 580.414 398.639 579.239 398.639 579.788C398.639 580.336 398.639 579.788 399.109 579.788C400.552 577.712 402.15 575.747 403.888 573.911C405.46 572.266 407.135 570.722 408.902 569.289C409.827 568.492 410.824 567.784 411.88 567.173C412.938 566.347 414.065 565.613 415.249 564.979V564.979ZM409.764 571.091C408.936 571.418 408.147 571.839 407.414 572.344C406.361 573.074 405.412 573.944 404.593 574.93C403.476 576.242 402.528 577.69 401.773 579.239C400.801 581.181 399.989 583.199 399.344 585.272C399.275 585.405 399.239 585.553 399.239 585.703C399.239 585.853 399.275 586.001 399.344 586.134C399.344 586.134 400.049 586.134 400.754 586.134C402.288 585.72 403.743 585.059 405.063 584.175C406.681 583.145 408.156 581.907 409.451 580.493C410.665 579.253 411.671 577.824 412.428 576.262C412.77 575.69 412.994 575.057 413.089 574.397C413.183 573.738 413.145 573.067 412.977 572.423C412.873 572.088 412.7 571.78 412.47 571.516C412.24 571.252 411.957 571.04 411.639 570.892C411.322 570.745 410.977 570.665 410.627 570.659C410.277 570.653 409.93 570.72 409.608 570.856L409.764 571.091Z" fill="white"/>
<path d="M442.121 553.149C443.107 552.598 444.161 552.177 445.255 551.896C446.18 551.657 447.151 551.657 448.076 551.896C448.362 551.975 448.629 552.113 448.859 552.302C449.088 552.491 449.275 552.727 449.408 552.993C449.54 553.347 449.54 553.736 449.408 554.09C449.324 554.631 449.166 555.158 448.938 555.657C448.938 556.127 448.468 556.675 448.233 557.067C447.997 557.459 447.684 557.772 447.449 557.85C446.769 558.265 445.957 558.405 445.177 558.242H441.886C440.708 558.05 439.499 558.243 438.439 558.791C437.733 559.13 437.176 559.715 436.872 560.436C436.7 560.776 436.61 561.152 436.61 561.533C436.61 561.914 436.7 562.29 436.872 562.63C437.077 563.056 437.341 563.452 437.655 563.805C438.143 564.218 438.667 564.585 439.222 564.902C440.153 565.42 441.122 565.865 442.121 566.234C443.297 566.704 444.863 567.174 446.666 567.722C448.252 568.163 449.759 568.85 451.132 569.76C452.244 570.412 453.121 571.399 453.639 572.58C454.322 574.263 454.322 576.147 453.639 577.83C452.703 580.135 451.407 582.277 449.8 584.176C448.304 585.995 446.594 587.626 444.707 589.034C443.283 590.069 441.761 590.961 440.163 591.697C438.309 592.576 436.226 592.85 434.208 592.481C433.497 592.394 432.819 592.134 432.231 591.724C431.644 591.315 431.166 590.767 430.839 590.13C430.548 589.305 430.489 588.416 430.668 587.559C430.848 586.702 431.259 585.912 431.857 585.273C432.097 585.101 432.385 585.008 432.68 585.008C432.975 585.008 433.263 585.101 433.503 585.273L435.775 586.135C436.743 586.461 437.74 586.697 438.752 586.84C439.896 586.998 441.056 586.998 442.2 586.84C443.447 586.74 444.667 586.422 445.804 585.9C447.032 585.392 448.072 584.516 448.781 583.392C449.047 582.985 449.189 582.508 449.189 582.021C449.189 581.534 449.047 581.058 448.781 580.65C448.211 579.795 447.462 579.073 446.587 578.535C445.058 577.597 443.429 576.835 441.73 576.263C439.612 575.569 437.587 574.622 435.697 573.442C434.692 572.811 433.879 571.917 433.346 570.856C433.014 569.572 433.014 568.224 433.346 566.939C433.674 564.755 434.476 562.669 435.697 560.828C436.673 559.165 437.829 557.615 439.144 556.205C439.997 555.059 440.998 554.032 442.121 553.149V553.149Z" fill="white"/>
<path d="M306.503 92.1389C312.199 90.527 318.062 89.5805 323.975 89.3183C328.004 89.0968 332.029 89.8212 335.728 91.4337C337.506 92.2145 339.038 93.4666 340.156 95.0547C341.275 96.6427 341.938 98.5063 342.074 100.444C342.298 102.896 341.691 105.352 340.35 107.417C338.993 109.625 337.24 111.564 335.179 113.137C332.989 114.861 330.594 116.308 328.049 117.446C325.539 118.648 322.914 119.593 320.214 120.266L317.629 120.737C316.924 120.737 316.532 120.737 316.454 120.737C316.375 120.737 316.454 120.266 316.454 120.031L318.256 119.248C320.204 118.53 322.009 117.468 323.583 116.114C325.08 114.909 326.353 113.451 327.344 111.805C328.344 110.236 329.085 108.516 329.538 106.712C329.842 104.949 329.842 103.147 329.538 101.384C329.435 99.7888 328.947 98.2423 328.114 96.8775C327.282 95.5128 326.13 94.3706 324.759 93.5492C322.09 91.9784 318.918 91.5011 315.905 92.2172C315.598 92.1258 315.272 92.1258 314.965 92.2172C314.672 92.398 314.45 92.6749 314.338 93.0007C314.338 94.3327 313.711 96.3698 313.32 98.7203C312.928 101.071 312.536 103.813 312.144 106.555C311.753 109.297 311.439 112.51 311.204 115.644C310.969 118.778 310.734 121.833 310.656 124.654C310.577 127.475 310.656 130.138 310.656 132.489V137.895C310.585 139.017 310.585 140.142 310.656 141.264C310.839 141.936 311.221 142.537 311.753 142.988C312.338 143.35 313.025 143.515 313.711 143.458H316.767C317.31 143.346 317.87 143.346 318.412 143.458C318.412 143.458 318.804 143.458 318.804 143.458C318.804 143.458 318.256 144.398 316.767 144.868L314.181 145.573L311.126 146.514L308.148 147.454L305.641 148.394L303.134 149.491L300 150.979L297.728 152.782L295.926 153.643C294.672 154.27 293.81 154.348 293.732 154.035C293.69 153.828 293.69 153.615 293.732 153.408C294.058 153.074 294.427 152.784 294.829 152.546C296.161 151.685 297.258 150.901 298.041 150.274C298.735 149.675 299.319 148.959 299.765 148.159C300.084 147.359 300.27 146.512 300.314 145.652C300.314 144.711 300.314 143.536 300.314 142.204V132.646C300.314 128.728 300.314 124.811 300.314 120.423C300.314 116.036 300.314 112.04 300.94 107.887C301.567 103.735 301.724 100.052 302.037 97.1533C302.128 97.0134 302.177 96.8501 302.177 96.6832C302.177 96.5163 302.128 96.353 302.037 96.2131C301.894 96.1306 301.732 96.0871 301.567 96.0871C301.402 96.0871 301.24 96.1306 301.097 96.2131L298.982 96.7615L297.101 97.31C292.942 98.6324 288.967 100.475 285.27 102.794C282.396 104.656 279.765 106.866 277.435 109.376C275.726 111.214 274.394 113.37 273.518 115.722C273.21 116.447 273.049 117.226 273.044 118.013C273.039 118.801 273.19 119.581 273.489 120.31C273.787 121.039 274.228 121.701 274.784 122.258C275.341 122.816 276.002 123.257 276.73 123.557C278.586 123.988 280.516 123.988 282.371 123.557C282.63 123.502 282.897 123.502 283.155 123.557C283.337 123.619 283.502 123.722 283.638 123.858C283.774 123.993 283.877 124.159 283.938 124.341C284.12 124.761 284.213 125.215 284.213 125.673C284.213 126.131 284.12 126.584 283.938 127.004C283.416 128.304 282.403 129.345 281.118 129.903C280.373 130.252 279.581 130.49 278.767 130.609C277.864 130.803 276.929 130.803 276.025 130.609C275.059 130.351 274.135 129.956 273.283 129.433C272.268 128.724 271.436 127.784 270.854 126.691C269.895 124.833 269.488 122.74 269.679 120.658C270.025 117.818 271.105 115.118 272.813 112.823C275.931 108.45 279.869 104.725 284.409 101.854C291.195 97.4341 298.658 94.1524 306.503 92.1389V92.1389Z" fill="white"/>
<path d="M361.189 106.555C361.481 106.536 361.773 106.583 362.044 106.691C362.315 106.8 362.559 106.967 362.756 107.182C363.103 107.57 363.37 108.022 363.54 108.514C363.694 109.237 363.694 109.985 363.54 110.708C363.249 111.65 362.882 112.567 362.443 113.45C361.738 115.017 360.876 116.662 360.014 118.543L357.507 123.949C356.645 125.751 355.94 127.474 355.157 129.12C354.373 130.765 353.903 132.332 353.355 133.507C352.806 134.683 352.963 134.526 353.355 134.683C353.556 134.761 353.78 134.761 353.981 134.683C354.381 134.623 354.759 134.461 355.078 134.213C355.66 133.931 356.212 133.589 356.724 133.194C357.361 132.773 357.964 132.302 358.526 131.784L360.249 130.373C360.719 129.903 361.033 129.825 361.033 130.373C361.051 130.592 361.019 130.813 360.937 131.017C360.855 131.221 360.727 131.403 360.563 131.549C359.586 132.879 358.455 134.088 357.194 135.153C356.097 136.187 354.918 137.13 353.668 137.973C352.588 138.719 351.432 139.349 350.221 139.854C349.251 140.278 348.219 140.543 347.165 140.637C346.877 140.661 346.587 140.608 346.326 140.484C346.065 140.361 345.841 140.17 345.676 139.932C345.225 139.486 344.924 138.911 344.814 138.287C344.702 137.56 344.702 136.82 344.814 136.093C345.064 134.663 345.404 133.249 345.833 131.862C346.538 129.825 347.635 127.083 348.967 124.027C350.299 120.971 351.788 117.367 353.198 114.155C353.312 113.852 353.312 113.518 353.198 113.215C353.179 113.083 353.113 112.963 353.012 112.877C352.911 112.79 352.782 112.743 352.649 112.745C351.784 112.841 350.953 113.136 350.221 113.607C348.967 114.289 347.808 115.131 346.773 116.114C346.225 116.662 345.755 116.819 345.52 116.584C345.285 116.349 345.52 115.957 345.52 115.409C346.576 114.144 347.757 112.989 349.045 111.961C350.304 110.907 351.669 109.988 353.119 109.219C354.47 108.487 355.887 107.884 357.35 107.417C358.586 106.96 359.877 106.67 361.189 106.555V106.555ZM363.932 91.6687C364.639 91.5995 365.353 91.7063 366.009 91.9797C366.665 92.2531 367.244 92.6846 367.693 93.2357C368.24 93.9533 368.518 94.841 368.476 95.7429C368.408 96.4444 368.165 97.1177 367.771 97.7016C367.359 98.2413 366.821 98.6718 366.204 98.9552C365.616 99.284 364.982 99.5217 364.323 99.6604H362.521C361.407 99.656 360.328 99.2687 359.466 98.5635C359.049 98.261 358.716 97.8582 358.497 97.3925C358.278 96.9268 358.18 96.4133 358.212 95.8996C358.245 95.2616 358.425 94.6399 358.738 94.0827C359.05 93.5256 359.487 93.048 360.014 92.6873C361.164 91.9067 362.548 91.547 363.932 91.6687V91.6687Z" fill="white"/>
<path d="M382.189 108.279C383 108.346 383.782 108.615 384.461 109.062C384.983 109.452 385.434 109.929 385.793 110.473C386.089 110.92 386.277 111.429 386.342 111.961C386.466 112.397 386.466 112.858 386.342 113.293C385.95 113.92 385.166 114.939 384.305 116.349C383.443 117.759 382.189 119.483 380.857 121.52C380.857 121.99 380.387 122.304 380.857 122.382C381.327 122.46 380.857 122.382 381.719 121.912C383.393 120.507 385.145 119.199 386.969 117.994C388.819 116.692 390.786 115.565 392.845 114.625C394.867 113.702 397 113.044 399.191 112.667C401.341 112.35 403.535 112.51 405.616 113.137C406.21 113.266 406.77 113.521 407.257 113.887C407.744 114.252 408.146 114.717 408.436 115.252C408.711 115.691 408.895 116.181 408.976 116.693C409.057 117.204 409.033 117.727 408.906 118.229C408.688 118.885 408.399 119.516 408.045 120.11C407.428 121.087 406.691 121.982 405.851 122.774L402.717 126.299C401.463 127.553 400.366 128.885 399.269 130.138L396.292 133.586C395.674 134.309 395.099 135.068 394.568 135.858C394.177 136.406 393.942 136.72 394.02 136.955C394.077 137.057 394.155 137.145 394.25 137.213C394.345 137.281 394.454 137.326 394.568 137.347C395.77 137.437 396.977 137.25 398.094 136.798C399.936 136.259 401.741 135.605 403.5 134.839C403.97 134.839 404.205 134.839 404.127 134.839C404.026 135.255 403.775 135.618 403.422 135.858C401.549 137.08 399.614 138.205 397.624 139.227C395.835 140.029 394.004 140.735 392.14 141.342C390.6 141.799 389.029 142.14 387.439 142.361C386.295 142.52 385.135 142.52 383.991 142.361C383.814 142.346 383.643 142.289 383.493 142.193C383.342 142.098 383.218 141.967 383.129 141.813C382.895 141.514 382.734 141.166 382.659 140.794C382.62 140.429 382.62 140.062 382.659 139.697C382.57 139.444 382.57 139.167 382.659 138.914C383.014 138.315 383.407 137.739 383.835 137.19C384.636 135.971 385.499 134.795 386.42 133.664C387.439 132.254 388.614 130.765 389.946 129.12C391.278 127.475 392.531 125.908 393.785 124.419L397.232 120.345L399.504 117.681C400.758 115.853 400.601 114.756 399.034 114.39C397.442 114.197 395.828 114.498 394.412 115.252C391.983 116.349 389.716 117.772 387.674 119.483C385.831 121.026 384.078 122.674 382.424 124.419L377.958 129.512L374.198 134.448L370.985 138.757C370.62 139.076 370.194 139.316 369.732 139.462C368.826 139.634 367.895 139.634 366.989 139.462C366.495 139.441 366.024 139.247 365.657 138.914C365.438 138.814 365.259 138.644 365.145 138.432C365.032 138.22 364.992 137.976 365.031 137.738C364.985 137.269 364.985 136.797 365.031 136.328C365.285 135.687 365.573 135.059 365.893 134.448C366.676 132.959 367.538 131.079 368.635 129.12C369.732 127.161 370.829 125.202 372.004 123.244C373.179 121.285 374.276 119.64 375.294 118.151C376.313 116.662 377.018 115.487 377.567 114.704C378.115 113.92 378.193 113.372 377.958 113.058C377.782 112.853 377.566 112.685 377.324 112.564C377.082 112.443 376.818 112.371 376.548 112.353C375.374 112.297 374.208 112.569 373.179 113.137C371.955 113.758 370.843 114.579 369.888 115.565C369.888 115.565 369.34 115.565 369.105 115.565C369.009 115.399 368.958 115.21 368.958 115.017C368.958 114.824 369.009 114.635 369.105 114.469C369.529 113.691 370.027 112.956 370.593 112.275C371.347 111.329 372.247 110.51 373.257 109.846C374.425 109.03 375.723 108.421 377.097 108.044C378.79 107.743 380.53 107.824 382.189 108.279V108.279Z" fill="white"/>
<path d="M439.775 130.374C438.679 129.982 437.425 129.355 436.015 128.728L433.272 127.396C433.168 127.326 433.046 127.288 432.92 127.288C432.794 127.288 432.671 127.326 432.567 127.396L431.705 127.866L428.493 130.609L424.341 134.369C422.852 135.701 421.363 137.19 419.796 138.679C418.229 140.167 416.897 141.734 415.565 143.145C415.335 143.385 415.173 143.683 415.095 144.006C415.091 144.149 415.135 144.288 415.22 144.402C415.306 144.516 415.428 144.598 415.565 144.633C416.524 144.802 417.505 144.802 418.464 144.633C420.386 144.474 422.28 144.08 424.106 143.458C424.654 143.458 424.967 143.458 425.124 143.458V143.928L424.576 144.633L423.87 145.103C422.171 145.884 420.417 146.539 418.621 147.062C416.895 147.573 415.143 147.992 413.372 148.316C411.648 148.316 410.159 148.786 408.827 148.864C407.792 149.057 406.729 149.057 405.693 148.864C405.047 148.623 404.516 148.147 404.205 147.532C404.052 147.214 403.973 146.866 403.973 146.514C403.973 146.161 404.052 145.813 404.205 145.495C404.489 144.711 404.885 143.972 405.38 143.301L406.79 141.421C407.339 140.872 408.122 139.854 409.298 138.522C410.473 137.19 411.726 135.701 413.215 134.056L418.073 129.042L423.087 124.027C423.124 123.94 423.143 123.847 423.143 123.753C423.143 123.659 423.124 123.566 423.087 123.479C423.129 123.352 423.129 123.214 423.087 123.087L418.934 121.442C418.602 121.343 418.32 121.118 418.151 120.815C418.151 120.815 418.151 120.345 418.151 120.266C418.151 120.188 418.151 120.266 419.013 120.266H420.11L421.99 120.737C422.986 121.162 424.007 121.528 425.046 121.833H425.594H426.064C427.156 120.969 428.308 120.184 429.512 119.483C430.445 118.855 431.443 118.33 432.489 117.916C433.679 117.684 434.903 117.684 436.093 117.916C437.65 118.035 439.168 118.461 440.559 119.17C441.107 119.17 441.264 119.875 440.951 120.502C440.715 120.928 440.425 121.323 440.089 121.677C439.149 122.382 438.208 123.479 437.19 124.341L434.839 126.221C434.839 126.221 434.839 126.221 434.839 126.77L437.973 128.336L441.891 130.452L442.439 130.922C442.487 131.005 442.513 131.1 442.513 131.196C442.513 131.293 442.487 131.387 442.439 131.47C442.185 131.554 441.91 131.554 441.656 131.47C440.933 131.303 440.277 130.92 439.775 130.374V130.374Z" fill="white"/>
</g>
<defs>
<clipPath id="clip0">
<rect width="714" height="714" rx="32" fill="white"/>
</clipPath>
</defs>
</svg>
