<svg width="4879" height="2126" viewBox="0 0 4879 2126" fill="none" xmlns="http://www.w3.org/2000/svg">
<g clip-path="url(#clip0)">
<path d="M3.6 1005L23.52 798.84H93.36L113.04 1005H73.92L71.04 971.64H46.08L43.68 1005H3.6ZM49.2 938.76H67.92L58.8 833.88H56.88L49.2 938.76ZM125.304 798.84H181.224C196.264 798.84 207.144 802.52 213.864 809.88C220.744 817.24 224.184 829.24 224.184 845.88V855C224.184 874.68 217.144 886.44 203.064 890.28C211.704 892.52 217.784 897.72 221.304 905.88C224.824 914.04 226.584 924.84 226.584 938.28C226.584 960.2 223.304 976.84 216.744 988.2C210.184 999.4 198.344 1005 181.224 1005H125.304V798.84ZM174.024 876.36C177.544 876.36 179.944 875.08 181.224 872.52C182.504 869.8 183.144 866.04 183.144 861.24V840.6C183.144 833.88 180.184 830.52 174.264 830.52H165.624V876.36H174.024ZM169.704 968.76C180.424 968.76 185.784 963.64 185.784 953.4V927.72C185.784 921.48 184.824 916.76 182.904 913.56C181.144 910.36 177.944 908.76 173.304 908.76H165.624V968.52L169.704 968.76ZM287.848 1006.92C272.808 1006.92 260.728 1002.2 251.608 992.76C242.648 983.32 238.168 970.36 238.168 953.88V858.84C238.168 838.36 242.248 822.92 250.408 812.52C258.568 802.12 271.368 796.92 288.808 796.92C304.008 796.92 316.248 801.08 325.528 809.4C334.808 817.72 339.448 829.72 339.448 845.4V880.92H298.408V850.44C298.408 844.52 297.688 840.44 296.248 838.2C294.808 835.96 292.328 834.84 288.808 834.84C285.128 834.84 282.568 836.12 281.128 838.68C279.848 841.24 279.208 845 279.208 849.96V953.4C279.208 958.84 280.008 962.84 281.608 965.4C283.208 967.8 285.608 969 288.808 969C295.208 969 298.408 963.8 298.408 953.4V916.2H339.928V955.08C339.928 989.64 322.568 1006.92 287.848 1006.92ZM353.22 798.84H410.1C424.82 798.84 435.86 802.92 443.22 811.08C450.58 819.24 454.34 831.32 454.5 847.32L454.98 943.8C455.14 964.12 451.62 979.4 444.42 989.64C437.22 999.88 425.3 1005 408.66 1005H353.22V798.84ZM401.94 968.52C409.46 968.52 413.22 964.84 413.22 957.48V851.16C413.22 846.52 412.82 843.08 412.02 840.84C411.38 838.44 410.1 836.84 408.18 836.04C406.26 835.24 403.3 834.84 399.3 834.84H394.74V968.52H401.94ZM471.279 1005V798.84H553.839V838.68H513.279V878.76H552.159V917.64H513.279V964.92H556.479V1005H471.279ZM569.886 1005V798.84H652.446V838.92H611.406V871.8H650.286V911.4H611.406V1005H569.886ZM707.925 1006.92C693.045 1006.92 681.925 1001.72 674.565 991.32C667.365 980.76 663.765 964.84 663.765 943.56V854.76C663.765 835.72 668.005 821.32 676.485 811.56C684.965 801.8 697.605 796.92 714.405 796.92C728.005 796.92 738.565 799.64 746.085 805.08C753.605 810.52 758.805 818.44 761.685 828.84C764.565 839.24 766.005 852.6 766.005 868.92H725.685V850.44C725.685 845.48 724.965 841.64 723.525 838.92C722.245 836.2 719.845 834.84 716.325 834.84C708.485 834.84 704.565 839.96 704.565 850.2V950.04C704.565 956.28 705.365 961 706.965 964.2C708.565 967.4 711.365 969 715.365 969C719.365 969 722.165 967.4 723.765 964.2C725.365 961 726.165 956.28 726.165 950.04V920.52H715.125V885H765.525V1005H748.965L742.005 987.72C734.645 1000.52 723.285 1006.92 707.925 1006.92ZM781.629 1005V798.84H822.669V872.52H842.109V798.84H883.149V1005H842.109V911.4H822.669V1005H781.629ZM899.175 1005V798.84H939.015V1005H899.175ZM1001.01 1006.92C991.57 1006.92 983.01 1005.08 975.33 1001.4C967.65 997.72 961.57 992.36 957.09 985.32C952.77 978.12 950.61 969.48 950.61 959.4V907.8H991.17V957C991.17 960.68 991.89 963.64 993.33 965.88C994.93 967.96 997.33 969 1000.53 969C1003.57 969 1005.81 968.04 1007.25 966.12C1008.85 964.04 1009.65 961.16 1009.65 957.48V798.84H1051.17V953.4C1051.17 964.12 1049.01 973.56 1044.69 981.72C1040.53 989.72 1034.61 995.96 1026.93 1000.44C1019.41 1004.76 1010.77 1006.92 1001.01 1006.92ZM1066.67 1005V798.84H1107.47V881.4L1126.67 798.84H1168.19L1145.15 893.16L1172.99 1005H1130.27L1107.71 905.16V1005H1066.67ZM1179.57 1005V798.84H1220.85V969.96H1263.33V1005H1179.57ZM1274.66 1005V798.84H1337.54L1354.82 924.6L1372.1 798.84H1435.46V1005H1397.78V856.44L1374.02 1005H1337.06L1311.86 856.44V1005H1274.66ZM1453.42 1005V798.84H1495.9L1514.86 897.48V798.84H1554.7V1005H1514.38L1493.74 901.8V1005H1453.42ZM58.32 1358.92C41.68 1358.92 29.04 1353.88 20.4 1343.8C11.76 1333.56 7.44 1319.24 7.44 1300.84V1202.68C7.44 1184.92 11.76 1171.56 20.4 1162.6C29.04 1153.48 41.68 1148.92 58.32 1148.92C74.96 1148.92 87.6 1153.48 96.24 1162.6C104.88 1171.56 109.2 1184.92 109.2 1202.68V1300.84C109.2 1319.4 104.88 1333.72 96.24 1343.8C87.6 1353.88 74.96 1358.92 58.32 1358.92ZM58.32 1321C62 1321 64.48 1319.4 65.76 1316.2C67.04 1313 67.68 1308.52 67.68 1302.76V1201.96C67.68 1197.48 67.04 1193.88 65.76 1191.16C64.64 1188.28 62.24 1186.84 58.56 1186.84C51.68 1186.84 48.24 1192.04 48.24 1202.44V1303C48.24 1308.92 48.96 1313.4 50.4 1316.44C51.84 1319.48 54.48 1321 58.32 1321ZM125.539 1150.84H180.019C196.499 1150.84 208.259 1156.2 215.299 1166.92C222.339 1177.48 225.859 1193 225.859 1213.48C225.859 1233.96 222.739 1249.4 216.499 1259.8C210.259 1270.2 199.059 1275.4 182.899 1275.4H166.099V1357H125.539V1150.84ZM168.499 1238.2C173.459 1238.2 177.059 1237.32 179.299 1235.56C181.699 1233.64 183.219 1231 183.859 1227.64C184.659 1224.12 185.059 1219.16 185.059 1212.76C185.059 1204.12 184.099 1197.88 182.179 1194.04C180.259 1190.2 176.419 1188.28 170.659 1188.28H166.099V1238.2H168.499ZM296.762 1357.24C290.682 1358.36 287.242 1358.92 286.442 1358.92C269.802 1358.92 257.162 1354.2 248.522 1344.76C239.882 1335.16 235.562 1321.16 235.562 1302.76V1203.16C235.562 1185.4 239.882 1171.96 248.522 1162.84C257.322 1153.56 269.962 1148.92 286.442 1148.92C302.922 1148.92 315.482 1153.56 324.122 1162.84C332.922 1171.96 337.322 1185.4 337.322 1203.16V1302.76C337.322 1319.72 333.482 1333.16 325.802 1343.08L343.562 1354.36L329.642 1378.84L296.762 1357.24ZM286.442 1321C290.442 1321 293.002 1319.08 294.122 1315.24C295.242 1311.4 295.802 1306.44 295.802 1300.36V1203.88C295.802 1198.6 295.082 1194.44 293.642 1191.4C292.362 1188.36 289.882 1186.84 286.202 1186.84C279.642 1186.84 276.362 1192.44 276.362 1203.64V1301.08C276.362 1306.84 277.002 1311.64 278.282 1315.48C279.562 1319.16 282.282 1321 286.442 1321ZM356.736 1150.84H420.096C430.176 1150.84 437.936 1153.16 443.376 1157.8C448.976 1162.28 452.736 1168.68 454.656 1177C456.576 1185.16 457.536 1195.64 457.536 1208.44C457.536 1220.12 456.016 1229.24 452.976 1235.8C449.936 1242.36 444.656 1246.92 437.136 1249.48C443.376 1250.76 447.856 1253.88 450.576 1258.84C453.456 1263.8 454.896 1270.52 454.896 1279L454.416 1357H414.096V1276.36C414.096 1270.6 412.976 1266.92 410.736 1265.32C408.496 1263.72 404.416 1262.92 398.496 1262.92V1357H356.736V1150.84ZM408.576 1227.16C414.336 1227.16 417.216 1220.92 417.216 1208.44C417.216 1203 416.976 1198.92 416.496 1196.2C416.016 1193.48 415.136 1191.64 413.856 1190.68C412.576 1189.56 410.736 1189 408.336 1189H398.736V1227.16H408.576ZM519.771 1358.92C501.051 1358.92 487.531 1354.28 479.211 1345C470.891 1335.72 466.731 1320.76 466.731 1300.12V1279.96H507.291V1305.64C507.291 1315.88 510.571 1321 517.131 1321C520.811 1321 523.371 1319.96 524.811 1317.88C526.251 1315.64 526.971 1311.96 526.971 1306.84C526.971 1300.12 526.171 1294.6 524.571 1290.28C522.971 1285.8 520.891 1282.12 518.331 1279.24C515.931 1276.2 511.531 1271.56 505.131 1265.32L487.371 1247.56C473.611 1234.12 466.731 1219.24 466.731 1202.92C466.731 1185.32 470.731 1171.96 478.731 1162.84C486.891 1153.56 498.731 1148.92 514.251 1148.92C532.811 1148.92 546.171 1153.88 554.331 1163.8C562.491 1173.56 566.571 1188.92 566.571 1209.88H524.571L524.331 1195.72C524.331 1193 523.531 1190.84 521.931 1189.24C520.491 1187.64 518.411 1186.84 515.691 1186.84C512.491 1186.84 510.091 1187.72 508.491 1189.48C506.891 1191.24 506.091 1193.64 506.091 1196.68C506.091 1203.4 509.931 1210.36 517.611 1217.56L541.611 1240.6C547.211 1246.04 551.851 1251.24 555.531 1256.2C559.211 1261 562.171 1266.76 564.411 1273.48C566.651 1280.04 567.771 1287.88 567.771 1297C567.771 1317.32 564.011 1332.76 556.491 1343.32C549.131 1353.72 536.891 1358.92 519.771 1358.92ZM598.896 1357V1190.44H574.416V1150.84H664.656V1190.44H640.176V1357H598.896ZM723.752 1358.92C706.792 1358.92 694.152 1354.12 685.832 1344.52C677.672 1334.92 673.592 1320.68 673.592 1301.8V1150.84H713.672V1300.12C713.672 1306.68 714.312 1311.8 715.592 1315.48C716.872 1319.16 719.592 1321 723.752 1321C727.912 1321 730.632 1319.24 731.912 1315.72C733.192 1312.04 733.832 1306.84 733.832 1300.12V1150.84H773.912V1301.8C773.912 1320.68 769.752 1334.92 761.432 1344.52C753.272 1354.12 740.712 1358.92 723.752 1358.92ZM808.324 1357L782.884 1150.6H822.244L837.364 1291L850.804 1150.6H890.164L864.724 1357H808.324ZM917.644 1357L895.564 1150.84H935.884L947.404 1280.92L958.924 1150.84H997.324L1008.36 1280.92L1019.4 1150.84H1060.2L1037.64 1357H988.204L977.884 1257.64L968.044 1357H917.644ZM1066.12 1357L1088.2 1247.56L1070.68 1150.6H1111L1121.8 1221.64L1131.16 1150.6H1171.72L1153.96 1247.56L1176.04 1357H1134.28L1121.32 1276.36L1108.12 1357H1066.12ZM1213.03 1357V1289.08L1180.15 1150.84H1220.95L1232.47 1220.68L1243.99 1150.84H1284.79L1251.91 1289.08V1357H1213.03ZM1289.6 1357V1319.56L1336.64 1188.76H1294.16V1150.84H1380.32V1186.84L1332.08 1319.08H1378.16V1357H1289.6ZM40.32 1710.92C26.72 1710.92 17.36 1706.44 12.24 1697.48C7.28 1688.36 4.8 1675.4 4.8 1658.6C4.8 1644.84 6.56 1634.28 10.08 1626.92C13.76 1619.56 18.8 1614.2 25.2 1610.84C31.6 1607.32 41.36 1603.48 54.48 1599.32L66 1595.48V1595V1577.48C66 1572.84 65.04 1569.32 63.12 1566.92C61.36 1564.36 59.2 1563.08 56.64 1563.08C54.4 1563.08 52.4 1564.12 50.64 1566.2C49.04 1568.28 48.24 1571.08 48.24 1574.6V1585.16H7.44V1579.4C7.44 1562.12 11.44 1549.8 19.44 1542.44C27.6 1535.08 40.8 1531.4 59.04 1531.4C73.6 1531.4 85.44 1535.24 94.56 1542.92C103.68 1550.44 108.24 1561.16 108.24 1575.08V1709H66.48V1688.12C64.4 1695.32 61.04 1700.92 56.4 1704.92C51.92 1708.92 46.56 1710.92 40.32 1710.92ZM56.88 1678.28C60.08 1678.28 62.32 1677 63.6 1674.44C65.04 1671.72 65.76 1668.44 65.76 1664.6V1615.64C59.52 1618.04 54.88 1621.08 51.84 1624.76C48.96 1628.44 47.52 1633.56 47.52 1640.12V1662.68C47.52 1673.08 50.64 1678.28 56.88 1678.28ZM192.036 1710.92C180.516 1710.92 172.276 1704.04 167.316 1690.28V1709H124.116V1501.64H167.316V1541.72C174.036 1534.84 181.876 1531.4 190.836 1531.4C204.436 1531.4 214.196 1535.48 220.116 1543.64C226.036 1551.64 228.996 1563.24 228.996 1578.44V1663.16C228.996 1677.56 225.956 1689.16 219.876 1697.96C213.796 1706.6 204.516 1710.92 192.036 1710.92ZM177.876 1678.28C180.756 1678.28 182.756 1677.4 183.876 1675.64C185.156 1673.72 185.876 1671.4 186.036 1668.68C186.356 1665.8 186.516 1661.4 186.516 1655.48V1582.28C186.516 1576.04 185.956 1571.4 184.836 1568.36C183.716 1565.32 181.316 1563.8 177.636 1563.8C173.636 1563.8 170.916 1565.32 169.476 1568.36C168.036 1571.4 167.316 1575.88 167.316 1581.8V1655.48C167.316 1663.16 167.956 1668.92 169.236 1672.76C170.516 1676.44 173.396 1678.28 177.876 1678.28ZM296.85 1710.92C277.65 1710.92 263.81 1706.04 255.33 1696.28C246.85 1686.52 242.61 1671.56 242.61 1651.4V1597.16C242.61 1581.96 244.21 1569.64 247.41 1560.2C250.77 1550.6 256.29 1543.4 263.97 1538.6C271.81 1533.8 282.61 1531.4 296.37 1531.4C311.41 1531.4 323.65 1535.32 333.09 1543.16C342.53 1551 347.25 1561.96 347.25 1576.04V1602.92H304.53V1578.2C304.53 1573.56 303.89 1570.04 302.61 1567.64C301.33 1565.08 298.85 1563.8 295.17 1563.8C288.29 1563.8 284.85 1568.68 284.85 1578.44V1663.64C284.85 1667.64 285.65 1671.08 287.25 1673.96C289.01 1676.68 291.57 1678.04 294.93 1678.04C298.29 1678.04 300.77 1676.68 302.37 1673.96C304.13 1671.24 304.93 1667.72 304.77 1663.4L304.53 1633.88H347.25V1664.6C347.25 1679 342.53 1690.36 333.09 1698.68C323.81 1706.84 311.73 1710.92 296.85 1710.92ZM396.201 1710.92C385.961 1710.92 378.201 1708.52 372.921 1703.72C367.801 1698.76 364.361 1692.28 362.601 1684.28C361.001 1676.12 360.201 1665.72 360.201 1653.08L360.681 1573.88C360.681 1561.4 363.801 1551.24 370.041 1543.4C376.441 1535.4 385.401 1531.4 396.921 1531.4C408.281 1531.4 416.761 1535.16 422.361 1542.68V1501.64H464.361V1709H422.361V1690.28C419.961 1697.16 416.681 1702.36 412.521 1705.88C408.521 1709.24 403.081 1710.92 396.201 1710.92ZM412.281 1678.04C416.441 1678.04 419.161 1676.04 420.441 1672.04C421.721 1667.88 422.361 1662.36 422.361 1655.48V1648.04V1582.04C422.361 1576.92 421.641 1572.6 420.201 1569.08C418.761 1565.56 416.201 1563.8 412.521 1563.8C408.361 1563.8 405.561 1565.48 404.121 1568.84C402.841 1572.04 402.201 1576.44 402.201 1582.04V1655.96C402.201 1670.68 405.561 1678.04 412.281 1678.04ZM530.072 1710.92C511.992 1710.92 499.032 1705.96 491.192 1696.04C483.352 1686.12 479.432 1671.32 479.432 1651.64V1581.08C479.432 1564.92 484.072 1552.6 493.352 1544.12C502.632 1535.64 515.592 1531.4 532.232 1531.4C565.992 1531.4 582.872 1547.96 582.872 1581.08V1593.8C582.872 1606.6 582.712 1617 582.392 1625H521.432V1659.08C521.432 1665.16 522.072 1669.96 523.352 1673.48C524.632 1676.84 527.352 1678.52 531.512 1678.52C534.712 1678.52 536.952 1677.56 538.232 1675.64C539.672 1673.72 540.472 1671.56 540.632 1669.16C540.952 1666.6 541.112 1662.92 541.112 1658.12V1641.08H582.872V1651.16C582.872 1671.64 578.872 1686.76 570.872 1696.52C563.032 1706.12 549.432 1710.92 530.072 1710.92ZM541.112 1604.12V1581.56C541.112 1568.92 537.992 1562.6 531.752 1562.6C524.712 1562.6 521.192 1568.92 521.192 1581.56V1604.12H541.112ZM601.599 1572.92H594.159L594.399 1541H601.599V1529C601.599 1510.12 611.039 1500.68 629.919 1500.68C638.879 1500.68 646.079 1501.8 651.519 1504.04V1529.96C649.919 1529.48 648.639 1529.24 647.679 1529.24C645.439 1529.24 643.999 1530.04 643.359 1531.64C642.719 1533.24 642.399 1535.64 642.399 1538.84V1541H651.519V1573.4H643.359V1709H601.599V1572.92ZM712.005 1734.68C699.525 1734.68 689.685 1733.64 682.485 1731.56C675.445 1729.64 668.485 1725.88 661.605 1720.28L676.005 1696.04C686.245 1702.12 696.405 1705.16 706.485 1705.16C713.045 1705.16 718.005 1703.08 721.365 1698.92C724.725 1694.76 726.405 1689.08 726.405 1681.88V1672.28C723.045 1684.28 714.165 1690.28 699.765 1690.28C687.765 1690.28 678.885 1686.2 673.125 1678.04C667.525 1669.88 664.725 1659 664.725 1645.4V1579.4C664.725 1563.88 667.285 1552.04 672.405 1543.88C677.685 1535.56 686.805 1531.4 699.765 1531.4C707.285 1531.4 713.205 1533.32 717.525 1537.16C722.005 1540.84 724.965 1546.12 726.405 1553V1533.32H769.365V1679.24C769.365 1698.92 764.805 1713.08 755.685 1721.72C746.565 1730.36 732.005 1734.68 712.005 1734.68ZM716.565 1658.6C723.125 1658.6 726.405 1652.68 726.405 1640.84V1578.2C726.405 1574.68 725.445 1571.32 723.525 1568.12C721.605 1564.92 719.205 1563.32 716.325 1563.32C712.645 1563.32 710.165 1564.68 708.885 1567.4C707.605 1569.96 706.965 1573.56 706.965 1578.2V1640.84C706.965 1646.12 707.605 1650.44 708.885 1653.8C710.165 1657 712.725 1658.6 716.565 1658.6ZM785.363 1501.64H828.563V1550.6C833.043 1537.8 841.603 1531.4 854.243 1531.4C866.083 1531.4 875.043 1535.16 881.123 1542.68C887.203 1550.2 890.243 1560.52 890.243 1573.64V1709H848.243V1576.28C848.243 1572.44 847.363 1569.32 845.603 1566.92C843.843 1564.52 841.283 1563.32 837.923 1563.32C835.043 1563.32 832.723 1564.6 830.963 1567.16C829.363 1569.56 828.563 1572.52 828.563 1576.04V1709H785.363V1501.64ZM905.994 1521.56V1492.28H947.994V1521.56H905.994ZM905.994 1709V1533.32H947.994V1709H905.994ZM968.854 1521.56V1492.28H1010.85V1521.56H968.854ZM977.734 1729.64C968.614 1729.64 962.694 1728.6 959.974 1726.52V1698.44C960.774 1698.76 962.054 1698.92 963.814 1698.92C965.894 1698.92 967.254 1698.28 967.894 1697C968.534 1695.56 968.854 1693.48 968.854 1690.76V1533.32H1010.85V1689.56C1010.85 1702.52 1008.21 1712.44 1002.93 1719.32C997.654 1726.2 989.254 1729.64 977.734 1729.64ZM1027.04 1709V1501.64H1068.56V1593.8L1088.72 1533.32H1132.16L1105.76 1609.64L1139.36 1709H1094.72L1068.56 1626.2V1709H1027.04ZM1144.63 1709V1501.64H1187.35V1709H1144.63ZM1203.86 1533.32H1244.9V1553.72C1246.82 1546.2 1250.1 1540.6 1254.74 1536.92C1259.38 1533.24 1265.94 1531.4 1274.42 1531.4C1281.3 1531.4 1287.22 1533 1292.18 1536.2C1297.3 1539.24 1300.9 1543.48 1302.98 1548.92C1306.5 1542.84 1310.42 1538.44 1314.74 1535.72C1319.06 1532.84 1325.06 1531.4 1332.74 1531.4C1346.5 1531.4 1356.02 1535.64 1361.3 1544.12C1366.74 1552.44 1369.46 1564.6 1369.46 1580.6L1368.98 1709H1326.74V1579.88C1326.74 1568.52 1323.86 1562.84 1318.1 1562.84C1314.1 1562.84 1311.22 1564.84 1309.46 1568.84C1307.7 1572.68 1306.82 1577.32 1306.82 1582.76V1709H1264.82V1579.88C1264.82 1574.92 1264.26 1570.92 1263.14 1567.88C1262.18 1564.84 1260.02 1563.32 1256.66 1563.32C1252.34 1563.32 1249.3 1565.48 1247.54 1569.8C1245.78 1573.96 1244.9 1579 1244.9 1584.92V1709H1203.86V1533.32ZM1385.44 1533.32H1427.44V1555.64C1429.2 1548.44 1432.24 1542.6 1436.56 1538.12C1440.88 1533.64 1446.64 1531.4 1453.84 1531.4C1465.68 1531.4 1474.4 1535.08 1480 1542.44C1485.76 1549.64 1488.64 1559.96 1488.64 1573.4V1709H1447.36V1577.72C1447.36 1573.88 1446.56 1570.6 1444.96 1567.88C1443.52 1565.16 1441.2 1563.8 1438 1563.8C1433.68 1563.8 1430.8 1565.8 1429.36 1569.8C1428.08 1573.64 1427.44 1578.84 1427.44 1585.4V1709H1385.44V1533.32ZM1556.02 1710.92C1520.98 1710.92 1503.46 1692.76 1503.46 1656.44V1585.88C1503.46 1569.24 1508.1 1556.04 1517.38 1546.28C1526.82 1536.36 1539.7 1531.4 1556.02 1531.4C1572.34 1531.4 1585.14 1536.36 1594.42 1546.28C1603.86 1556.04 1608.58 1569.24 1608.58 1585.88V1656.44C1608.58 1692.76 1591.06 1710.92 1556.02 1710.92ZM1556.02 1678.52C1559.38 1678.52 1561.86 1677.32 1563.46 1674.92C1565.06 1672.52 1565.86 1669.24 1565.86 1665.08V1579.16C1565.86 1568.92 1562.58 1563.8 1556.02 1563.8C1549.46 1563.8 1546.18 1568.92 1546.18 1579.16V1665.08C1546.18 1669.24 1546.98 1672.52 1548.58 1674.92C1550.18 1677.32 1552.66 1678.52 1556.02 1678.52ZM1623.9 1533.32H1666.62V1542.68C1672.7 1535.16 1681.1 1531.4 1691.82 1531.4C1705.42 1531.4 1714.86 1535.96 1720.14 1545.08C1725.58 1554.2 1728.3 1566.84 1728.3 1583V1648.04C1728.3 1661.8 1727.5 1673.08 1725.9 1681.88C1724.3 1690.52 1720.78 1697.56 1715.34 1703C1709.9 1708.28 1701.66 1710.92 1690.62 1710.92C1680.06 1710.92 1672.06 1707.96 1666.62 1702.04V1744.04H1623.9V1533.32ZM1676.7 1678.28C1680.54 1678.28 1683.02 1676.52 1684.14 1673C1685.26 1669.48 1685.82 1664.36 1685.82 1657.64V1583C1685.82 1576.92 1685.26 1572.28 1684.14 1569.08C1683.02 1565.88 1680.46 1564.28 1676.46 1564.28C1669.9 1564.28 1666.62 1570.36 1666.62 1582.52V1659.56C1666.62 1665.48 1667.26 1670.12 1668.54 1673.48C1669.98 1676.68 1672.7 1678.28 1676.7 1678.28ZM1803.84 1698.44C1801.12 1702.12 1797.68 1705.16 1793.52 1707.56C1789.52 1709.8 1784.96 1710.92 1779.84 1710.92C1768.96 1710.92 1760.8 1708.6 1755.36 1703.96C1749.92 1699.16 1746.32 1692.76 1744.56 1684.76C1742.96 1676.6 1742.16 1665.88 1742.16 1652.6V1583C1742.16 1566.84 1744.88 1554.2 1750.32 1545.08C1755.76 1535.96 1765.2 1531.4 1778.64 1531.4C1789.36 1531.4 1797.76 1535.16 1803.84 1542.68V1533.32H1846.56V1744.04H1803.84V1698.44ZM1793.76 1678.28C1797.76 1678.28 1800.4 1676.68 1801.68 1673.48C1803.12 1670.12 1803.84 1665.48 1803.84 1659.56V1582.52C1803.84 1570.36 1800.56 1564.28 1794 1564.28C1790 1564.28 1787.44 1565.96 1786.32 1569.32C1785.2 1572.52 1784.64 1577.08 1784.64 1583V1657.64C1784.64 1664.36 1785.2 1669.48 1786.32 1673C1787.44 1676.52 1789.92 1678.28 1793.76 1678.28ZM1863.3 1533.32H1905.3V1552.76C1907.38 1545.88 1910.98 1540.6 1916.1 1536.92C1921.38 1533.08 1927.86 1531.16 1935.54 1531.16V1566.2C1929.62 1566.2 1923.06 1567.08 1915.86 1568.84C1908.82 1570.44 1905.3 1572.36 1905.3 1574.6V1709H1863.3V1533.32ZM1993.74 1710.92C1959.02 1710.92 1941.66 1693.32 1941.66 1658.12L1941.9 1644.2H1983.9L1984.14 1664.84C1984.14 1669 1984.94 1672.2 1986.54 1674.44C1988.14 1676.52 1990.78 1677.56 1994.46 1677.56C2000.06 1677.56 2002.86 1673 2002.86 1663.88C2002.86 1657.16 2001.5 1651.88 1998.78 1648.04C1996.22 1644.2 1992.06 1640.12 1986.3 1635.8L1963.98 1618.52C1956.3 1612.6 1950.78 1606.52 1947.42 1600.28C1944.06 1593.88 1942.38 1584.92 1942.38 1573.4C1942.38 1564.44 1944.7 1556.84 1949.34 1550.6C1954.14 1544.2 1960.46 1539.4 1968.3 1536.2C1976.14 1533 1984.86 1531.4 1994.46 1531.4C2028.54 1531.4 2045.58 1548.36 2045.58 1582.28V1585.64H2002.14V1578.92C2002.14 1574.76 2001.42 1571.24 1999.98 1568.36C1998.7 1565.32 1996.46 1563.8 1993.26 1563.8C1990.38 1563.8 1988.14 1564.68 1986.54 1566.44C1985.1 1568.04 1984.38 1570.28 1984.38 1573.16C1984.38 1579.56 1986.86 1584.52 1991.82 1588.04L2017.74 1607C2027.02 1613.88 2034.14 1621.4 2039.1 1629.56C2044.06 1637.56 2046.54 1647.72 2046.54 1660.04C2046.54 1676.36 2041.9 1688.92 2032.62 1697.72C2023.34 1706.52 2010.38 1710.92 1993.74 1710.92ZM44.64 2062.92C33.6 2062.92 26 2060.6 21.84 2055.96C17.68 2051.32 15.6 2043.88 15.6 2033.64V1923.96H3.84V1892.04H15.6V1854.84H56.4V1892.04H68.4V1923.96H56.4V2022.6C56.4 2025.64 56.64 2027.88 57.12 2029.32C57.6 2030.76 58.88 2031.48 60.96 2031.48C62.56 2031.48 64.08 2031.4 65.52 2031.24C66.96 2031.08 67.92 2031 68.4 2031V2059.8C66 2060.44 62.48 2061.08 57.84 2061.72C53.36 2062.52 48.96 2062.92 44.64 2062.92ZM115.065 2062.92C101.945 2062.92 92.905 2059 87.945 2051.16C83.145 2043.32 80.745 2031.64 80.745 2016.12V1885.32H122.985V2007.72C122.985 2008.84 122.985 2011.88 122.985 2016.84C122.985 2021.64 123.705 2025.08 125.145 2027.16C126.745 2029.08 129.145 2030.04 132.345 2030.04C136.665 2030.04 139.385 2028.28 140.505 2024.76C141.625 2021.08 142.185 2015.88 142.185 2009.16V2007.72L142.425 1885.32H184.185V2061H142.185V2042.28C139.305 2049.64 135.945 2054.92 132.105 2058.12C128.265 2061.32 122.585 2062.92 115.065 2062.92ZM223.011 2061L194.931 1885.32H236.931L245.571 1974.12L247.011 2002.68L248.691 1973.88L258.291 1885.32H300.291L271.731 2061H223.011ZM329.496 2061L308.136 1885.32H344.136L355.896 1979.64L365.976 1885.32H402.696L414.696 1979.64L424.536 1885.32H464.136L441.576 2061H399.576L387.096 1961.16L376.056 2061H329.496ZM578.625 2061H536.625L518.865 2011.56L502.065 2061H470.385L502.545 1966.68L473.265 1885.08H515.985L531.105 1927.8L545.985 1885.08H577.185L546.945 1971.96L578.625 2061ZM584.321 2063.64H604.481C607.361 2063.64 608.801 2062.44 608.801 2060.04C608.801 2058.92 608.721 2058.04 608.561 2057.4L581.201 1885.32H621.281L629.201 1971L633.041 2014.68L637.601 1971L646.961 1885.32H687.281L654.641 2070.12C653.521 2077 651.201 2082.04 647.681 2085.24C644.321 2088.6 638.961 2090.28 631.601 2090.28H584.321V2063.64ZM692.966 2061V2035.32L736.646 1918.44H694.886V1885.32H780.086V1913.88L738.806 2029.56H780.566V2061H692.966ZM841.164 2062.92C823.724 2062.92 810.284 2058.04 800.844 2048.28C791.404 2038.36 786.684 2024.28 786.684 2006.04V1912.92C786.684 1893.4 791.244 1878.52 800.364 1868.28C809.484 1858.04 823.084 1852.92 841.164 1852.92C859.404 1852.92 873.084 1858.04 882.204 1868.28C891.324 1878.52 895.884 1893.4 895.884 1912.92V2006.04C895.884 2024.44 891.164 2038.52 881.724 2048.28C872.284 2058.04 858.764 2062.92 841.164 2062.92ZM841.164 2025C844.204 2025 846.684 2023.64 848.604 2020.92C850.524 2018.04 851.484 2014.68 851.484 2010.84V1909.08C851.484 1903.16 850.764 1898.68 849.324 1895.64C848.044 1892.44 845.324 1890.84 841.164 1890.84C837.004 1890.84 834.284 1892.44 833.004 1895.64C831.724 1898.68 831.084 1903.16 831.084 1909.08V2010.84C831.084 2014.68 831.964 2018.04 833.724 2020.92C835.644 2023.64 838.124 2025 841.164 2025ZM928.498 1902.12C925.778 1905.48 921.938 1908.2 916.978 1910.28C912.178 1912.36 907.538 1913.4 903.058 1913.4V1880.52C910.098 1879.4 917.058 1876.6 923.938 1872.12C930.978 1867.64 936.018 1861.8 939.058 1854.6H972.178V2061H928.498V1902.12ZM986.531 2051.16C986.531 2041.72 987.971 2033 990.851 2025C993.891 2017 997.571 2009.8 1001.89 2003.4C1006.21 1997 1011.89 1989.48 1018.93 1980.84C1026.13 1971.88 1031.81 1964.28 1035.97 1958.04C1040.29 1951.8 1043.89 1944.68 1046.77 1936.68C1049.81 1928.52 1051.33 1919.72 1051.33 1910.28C1051.33 1904.68 1050.53 1900.36 1048.93 1897.32C1047.33 1894.12 1044.45 1892.52 1040.29 1892.52C1033.41 1892.52 1029.97 1898.68 1029.97 1911V1936.2H986.531L986.051 1923.48C986.051 1907.8 987.651 1894.92 990.851 1884.84C994.051 1874.76 999.651 1867.08 1007.65 1861.8C1015.65 1856.52 1026.69 1853.88 1040.77 1853.88C1058.05 1853.88 1071.41 1858.76 1080.85 1868.52C1090.29 1878.12 1095.01 1891.8 1095.01 1909.56C1095.01 1920.92 1093.41 1931.24 1090.21 1940.52C1087.17 1949.64 1083.33 1957.64 1078.69 1964.52C1074.21 1971.4 1068.21 1979.48 1060.69 1988.76C1055.25 1995.32 1050.69 2001.16 1047.01 2006.28C1043.49 2011.4 1040.29 2016.68 1037.41 2022.12H1093.57V2061H986.531V2051.16ZM1154.27 2063.4C1136.19 2063.4 1122.99 2058.68 1114.67 2049.24C1106.35 2039.64 1102.19 2025.08 1102.19 2005.56V1983.96H1144.43V2005.56C1144.43 2011.8 1145.23 2016.68 1146.83 2020.2C1148.43 2023.56 1151.63 2025.24 1156.43 2025.24C1159.79 2025.24 1162.19 2024.04 1163.63 2021.64C1165.23 2019.24 1166.19 2016.44 1166.51 2013.24C1166.83 2009.88 1166.99 2005.08 1166.99 1998.84V1993.8C1166.99 1976.04 1161.15 1967.16 1149.47 1967.16C1147.39 1967.16 1146.03 1967.24 1145.39 1967.4V1930.44C1152.75 1930.44 1158.27 1928.84 1161.95 1925.64C1165.63 1922.28 1167.47 1917 1167.47 1909.8C1167.47 1898.12 1164.11 1892.28 1157.39 1892.28C1153.23 1892.28 1150.51 1893.32 1149.23 1895.4C1148.11 1897.48 1147.31 1900.12 1146.83 1903.32C1146.51 1906.52 1146.27 1908.84 1146.11 1910.28V1916.52H1103.39L1103.15 1909.32C1103.31 1890.44 1107.79 1876.6 1116.59 1867.8C1125.39 1858.84 1138.91 1854.36 1157.15 1854.36C1192.19 1854.36 1209.71 1872.68 1209.71 1909.32C1209.71 1920.04 1208.27 1928.6 1205.39 1935C1202.51 1941.24 1197.55 1945.64 1190.51 1948.2C1196.27 1951.08 1200.51 1954.68 1203.23 1959C1206.11 1963.16 1207.95 1968.28 1208.75 1974.36C1209.71 1980.44 1210.19 1988.6 1210.19 1998.84C1210.19 2020.12 1205.71 2036.2 1196.75 2047.08C1187.95 2057.96 1173.79 2063.4 1154.27 2063.4ZM1279.28 2061V2028.36H1218.08V1996.2L1256.96 1854.6H1321.28V1994.04H1332.32V2028.36H1321.28V2061H1279.28ZM1254.8 1994.04H1279.28V1890.12L1254.8 1994.04ZM1393.49 2063.88C1377.01 2063.88 1363.89 2059.88 1354.13 2051.88C1344.37 2043.72 1339.49 2031.72 1339.49 2015.88V1985.4H1382.45V2002.92C1382.45 2009.96 1383.17 2015.48 1384.61 2019.48C1386.05 2023.48 1389.01 2025.48 1393.49 2025.48C1397.65 2025.48 1400.45 2024.12 1401.89 2021.4C1403.49 2018.68 1404.29 2014.68 1404.29 2009.4V1968.84C1404.29 1962.28 1403.57 1957.08 1402.13 1953.24C1400.85 1949.24 1398.05 1947.24 1393.73 1947.24C1385.89 1947.24 1381.97 1952.92 1381.97 1964.28H1344.29V1854.6H1442.45V1893.24H1383.41V1922.28C1385.49 1919.56 1388.29 1917.32 1391.81 1915.56C1395.33 1913.8 1399.33 1912.92 1403.81 1912.92C1421.09 1912.92 1432.85 1919 1439.09 1931.16C1445.49 1943.32 1448.69 1960.52 1448.69 1982.76C1448.69 2001.16 1447.33 2016.12 1444.61 2027.64C1442.05 2039 1436.77 2047.88 1428.77 2054.28C1420.77 2060.68 1409.01 2063.88 1393.49 2063.88ZM1514.43 2062.92C1500.35 2062.92 1489.23 2060.52 1481.07 2055.72C1472.91 2050.92 1467.15 2043.72 1463.79 2034.12C1460.43 2024.52 1458.75 2012.04 1458.75 1996.68V1941C1458.75 1919.72 1460.03 1903 1462.59 1890.84C1465.31 1878.52 1470.75 1869.16 1478.91 1862.76C1487.07 1856.2 1499.31 1852.92 1515.63 1852.92C1524.59 1852.92 1532.83 1854.44 1540.35 1857.48C1547.87 1860.52 1553.87 1865.08 1558.35 1871.16C1562.83 1877.24 1565.07 1884.6 1565.07 1893.24V1915.56H1525.23V1911.24C1525.23 1904.2 1524.59 1898.76 1523.31 1894.92C1522.19 1891.08 1519.39 1889.16 1514.91 1889.16C1510.43 1889.16 1507.23 1890.36 1505.31 1892.76C1503.55 1895.16 1502.67 1898.84 1502.67 1903.8V1945.32C1504.59 1941.48 1507.55 1938.52 1511.55 1936.44C1515.55 1934.2 1520.27 1933.08 1525.71 1933.08C1536.91 1933.08 1545.55 1935.32 1551.63 1939.8C1557.87 1944.28 1562.19 1950.92 1564.59 1959.72C1566.99 1968.52 1568.19 1980.04 1568.19 1994.28C1568.19 2016.2 1564.03 2033.16 1555.71 2045.16C1547.39 2057 1533.63 2062.92 1514.43 2062.92ZM1512.99 2025C1517.31 2025 1520.03 2023.32 1521.15 2019.96C1522.43 2016.44 1523.07 2010.76 1523.07 2002.92V1986.36C1523.07 1975.16 1519.87 1969.56 1513.47 1969.56C1506.27 1969.56 1502.67 1974.44 1502.67 1984.2V2009.64C1502.67 2019.88 1506.11 2025 1512.99 2025ZM1587.84 2061C1589.28 2038.92 1592.8 2018.28 1598.4 1999.08C1604.16 1979.88 1612.08 1957.64 1622.16 1932.36C1625.36 1924.36 1627.68 1918.36 1629.12 1914.36L1637.28 1892.76H1578.96V1854.6H1683.12V1885.32C1682.32 1892.84 1680.64 1900.04 1678.08 1906.92C1675.68 1913.64 1672.24 1921.88 1667.76 1931.64C1664.24 1939 1661.52 1945.16 1659.6 1950.12C1652.72 1967.88 1647.12 1985.8 1642.8 2003.88C1638.48 2021.8 1635.68 2040.84 1634.4 2061H1587.84ZM1748.37 2063.16C1729.49 2063.16 1715.73 2057.8 1707.09 2047.08C1698.61 2036.36 1694.37 2020.52 1694.37 1999.56V1985.88C1694.37 1975 1695.65 1966.36 1698.21 1959.96C1700.93 1953.56 1705.57 1948.76 1712.13 1945.56C1705.89 1943 1701.41 1938.76 1698.69 1932.84C1695.97 1926.92 1694.61 1919.32 1694.61 1910.04V1904.52C1694.61 1886.6 1699.09 1873.4 1708.05 1864.92C1717.17 1856.44 1730.61 1852.2 1748.37 1852.2C1766.45 1852.2 1779.89 1856.52 1788.69 1865.16C1797.65 1873.8 1802.13 1887.48 1802.13 1906.2C1802.13 1916.76 1800.85 1925.32 1798.29 1931.88C1795.73 1938.28 1791.17 1942.92 1784.61 1945.8C1791.97 1949.32 1796.77 1954.84 1799.01 1962.36C1801.25 1969.72 1802.37 1980.36 1802.37 1994.28C1802.37 1997 1802.29 1998.76 1802.13 1999.56C1802.13 2020.52 1797.89 2036.36 1789.41 2047.08C1780.93 2057.8 1767.25 2063.16 1748.37 2063.16ZM1748.37 1928.04C1755.57 1928.04 1759.17 1921.48 1759.17 1908.36C1759.17 1903.24 1758.29 1898.92 1756.53 1895.4C1754.93 1891.88 1752.21 1890.12 1748.37 1890.12C1744.53 1890.12 1741.73 1891.88 1739.97 1895.4C1738.37 1898.92 1737.57 1903.24 1737.57 1908.36C1737.57 1921.48 1741.17 1928.04 1748.37 1928.04ZM1748.37 2022.36C1755.89 2022.36 1759.65 2015.56 1759.65 2001.96L1759.41 1991.64C1759.41 1983.8 1758.77 1977.48 1757.49 1972.68C1756.21 1967.88 1753.17 1965.48 1748.37 1965.48C1744.37 1965.48 1741.49 1967.64 1739.73 1971.96C1737.97 1976.12 1737.09 1981.32 1737.09 1987.56C1737.09 1990.28 1737.17 1992.28 1737.33 1993.56V1995.48L1737.09 2001.96C1737.09 2015.56 1740.85 2022.36 1748.37 2022.36ZM1865.95 2062.92C1856.99 2062.92 1848.75 2061.4 1841.23 2058.36C1833.87 2055.16 1827.95 2050.52 1823.47 2044.44C1818.99 2038.36 1816.75 2031 1816.75 2022.36V2000.28H1856.35V2004.36C1856.35 2011.24 1856.99 2016.68 1858.27 2020.68C1859.55 2024.68 1862.35 2026.68 1866.67 2026.68C1871.15 2026.68 1874.27 2025.48 1876.03 2023.08C1877.95 2020.52 1878.91 2016.76 1878.91 2011.8V1970.52C1876.99 1974.2 1874.03 1977.16 1870.03 1979.4C1866.03 1981.64 1861.31 1982.76 1855.87 1982.76C1844.67 1982.76 1835.95 1980.52 1829.71 1976.04C1823.63 1971.56 1819.39 1964.92 1816.99 1956.12C1814.59 1947.32 1813.39 1935.72 1813.39 1921.32C1813.39 1899.4 1817.55 1882.52 1825.87 1870.68C1834.19 1858.84 1847.95 1852.92 1867.15 1852.92C1881.23 1852.92 1892.35 1855.32 1900.51 1860.12C1908.67 1864.92 1914.43 1872.12 1917.79 1881.72C1921.15 1891.32 1922.83 1903.8 1922.83 1919.16V1974.84C1922.83 1996.12 1921.55 2012.92 1918.99 2025.24C1916.43 2037.4 1911.07 2046.76 1902.91 2053.32C1894.75 2059.72 1882.43 2062.92 1865.95 2062.92ZM1868.11 1946.28C1875.31 1946.28 1878.91 1941.4 1878.91 1931.64V1905.96C1878.91 1895.88 1875.47 1890.84 1868.59 1890.84C1864.27 1890.84 1861.47 1892.6 1860.19 1896.12C1859.07 1899.48 1858.51 1905 1858.51 1912.68V1929.48C1858.51 1940.68 1861.71 1946.28 1868.11 1946.28Z" fill="#5F5F5F"/>
<path d="M2647.25 970.836L2625.92 916.344H2557.25L2536.16 970.836H2516L2583.73 798.805H2600.49L2667.88 970.836H2647.25ZM2619.71 898.414L2599.79 845.328C2597.21 838.609 2594.55 830.367 2591.82 820.602C2590.1 828.102 2587.64 836.344 2584.44 845.328L2564.28 898.414H2619.71ZM2691.13 799.508H2739.53C2762.26 799.508 2778.71 802.906 2788.86 809.703C2799.02 816.5 2804.1 827.242 2804.1 841.93C2804.1 852.086 2801.25 860.484 2795.54 867.125C2789.92 873.688 2781.68 877.945 2770.82 879.898V881.07C2796.83 885.523 2809.84 899.195 2809.84 922.086C2809.84 937.398 2804.65 949.352 2794.25 957.945C2783.94 966.539 2769.49 970.836 2750.9 970.836H2691.13V799.508ZM2711.05 872.867H2743.86C2757.93 872.867 2768.04 870.68 2774.22 866.305C2780.39 861.852 2783.47 854.391 2783.47 843.922C2783.47 834.312 2780.04 827.398 2773.16 823.18C2766.29 818.883 2755.35 816.734 2740.35 816.734H2711.05V872.867ZM2711.05 889.742V953.844H2746.79C2760.62 953.844 2771.01 951.188 2777.97 945.875C2785 940.484 2788.51 932.086 2788.51 920.68C2788.51 910.055 2784.92 902.242 2777.73 897.242C2770.62 892.242 2759.76 889.742 2745.15 889.742H2711.05ZM2919.81 814.859C2900.99 814.859 2886.1 821.148 2875.17 833.727C2864.31 846.227 2858.88 863.375 2858.88 885.172C2858.88 907.594 2864.11 924.938 2874.58 937.203C2885.13 949.391 2900.13 955.484 2919.58 955.484C2931.53 955.484 2945.17 953.336 2960.48 949.039V966.5C2948.6 970.953 2933.95 973.18 2916.53 973.18C2891.3 973.18 2871.81 965.523 2858.06 950.211C2844.38 934.898 2837.55 913.141 2837.55 884.938C2837.55 867.281 2840.83 851.812 2847.39 838.531C2854.03 825.25 2863.56 815.016 2875.99 807.828C2888.49 800.641 2903.17 797.047 2920.05 797.047C2938.02 797.047 2953.72 800.328 2967.16 806.891L2958.72 824C2945.75 817.906 2932.78 814.859 2919.81 814.859ZM3134.32 883.531C3134.32 911.812 3126.62 933.453 3111.23 948.453C3095.92 963.375 3073.85 970.836 3045.02 970.836H2997.56V799.508H3050.06C3076.7 799.508 3097.4 806.891 3112.17 821.656C3126.94 836.422 3134.32 857.047 3134.32 883.531ZM3113.23 884.234C3113.23 861.891 3107.6 845.055 3096.35 833.727C3085.18 822.398 3068.54 816.734 3046.43 816.734H3017.48V953.609H3041.74C3065.49 953.609 3083.34 947.789 3095.3 936.148C3107.25 924.43 3113.23 907.125 3113.23 884.234ZM3267.85 970.836H3172.34V799.508H3267.85V817.203H3192.26V872.398H3263.28V889.977H3192.26V953.023H3267.85V970.836ZM3325.55 970.836H3305.63V799.508H3401.14V817.203H3325.55V879.898H3396.57V897.594H3325.55V970.836ZM3504.67 881.07H3562.91V964.391C3553.85 967.281 3544.63 969.469 3535.25 970.953C3525.88 972.438 3515.02 973.18 3502.68 973.18C3476.74 973.18 3456.54 965.484 3442.09 950.094C3427.64 934.625 3420.41 912.984 3420.41 885.172C3420.41 867.359 3423.97 851.773 3431.08 838.414C3438.26 824.977 3448.58 814.742 3462.01 807.711C3475.45 800.602 3491.19 797.047 3509.24 797.047C3527.52 797.047 3544.55 800.406 3560.33 807.125L3552.6 824.703C3537.13 818.141 3522.25 814.859 3507.95 814.859C3487.09 814.859 3470.8 821.07 3459.08 833.492C3447.36 845.914 3441.5 863.141 3441.5 885.172C3441.5 908.297 3447.13 925.836 3458.38 937.789C3469.71 949.742 3486.31 955.719 3508.18 955.719C3520.06 955.719 3531.66 954.352 3542.99 951.617V898.883H3504.67V881.07ZM3733.94 970.836H3714.02V890.211H3623.78V970.836H3603.86V799.508H3623.78V872.398H3714.02V799.508H3733.94V970.836ZM3780.75 970.836V799.508H3800.67V970.836H3780.75ZM3822.52 1015.95C3815.18 1015.95 3809.39 1014.9 3805.18 1012.79V995.797C3810.72 997.359 3816.5 998.141 3822.52 998.141C3830.25 998.141 3836.11 995.797 3840.1 991.109C3844.16 986.422 3846.19 979.664 3846.19 970.836V799.508H3866.11V969.195C3866.11 984.039 3862.36 995.523 3854.86 1003.65C3847.36 1011.85 3836.58 1015.95 3822.52 1015.95ZM4035.15 970.836H4011.71L3949.25 887.75L3931.32 903.688V970.836H3911.4V799.508H3931.32V884.469L4009.02 799.508H4032.57L3963.66 873.922L4035.15 970.836ZM4058.52 970.836V799.508H4078.44V952.789H4154.03V970.836H4058.52ZM4258.73 970.836L4200.6 818.961H4199.67C4200.76 830.992 4201.31 845.289 4201.31 861.852V970.836H4182.91V799.508H4212.91L4267.17 940.836H4268.1L4322.83 799.508H4352.6V970.836H4332.67V860.445C4332.67 847.789 4333.22 834.039 4334.31 819.195H4333.38L4274.78 970.836H4258.73ZM4533.23 970.836H4510.5L4416.87 827.047H4415.93C4417.18 843.922 4417.8 859.391 4417.8 873.453V970.836H4399.4V799.508H4421.9L4515.3 942.711H4516.24C4516.08 940.602 4515.73 933.844 4515.19 922.438C4514.64 910.953 4514.44 902.75 4514.6 897.828V799.508H4533.23V970.836ZM2688.27 1211.94C2688.27 1239.36 2681.31 1260.92 2667.41 1276.62C2653.58 1292.33 2634.32 1300.18 2609.63 1300.18C2584.4 1300.18 2564.91 1292.48 2551.16 1277.09C2537.48 1261.62 2530.65 1239.83 2530.65 1211.7C2530.65 1183.81 2537.52 1162.21 2551.27 1146.9C2565.02 1131.51 2584.55 1123.81 2609.87 1123.81C2634.48 1123.81 2653.7 1131.62 2667.52 1147.25C2681.35 1162.88 2688.27 1184.44 2688.27 1211.94ZM2551.74 1211.94C2551.74 1235.14 2556.66 1252.76 2566.51 1264.79C2576.43 1276.74 2590.8 1282.72 2609.63 1282.72C2628.62 1282.72 2642.95 1276.74 2652.64 1264.79C2662.33 1252.84 2667.17 1235.22 2667.17 1211.94C2667.17 1188.89 2662.33 1171.43 2652.64 1159.55C2643.03 1147.6 2628.77 1141.62 2609.87 1141.62C2590.88 1141.62 2576.43 1147.64 2566.51 1159.67C2556.66 1171.62 2551.74 1189.05 2551.74 1211.94ZM2834.92 1176.43C2834.92 1193.77 2828.98 1207.13 2817.11 1216.51C2805.31 1225.8 2788.4 1230.45 2766.36 1230.45H2746.21V1297.84H2726.29V1126.51H2770.7C2813.51 1126.51 2834.92 1143.15 2834.92 1176.43ZM2746.21 1213.34H2764.14C2781.79 1213.34 2794.57 1210.49 2802.46 1204.79C2810.35 1199.09 2814.29 1189.95 2814.29 1177.37C2814.29 1166.04 2810.58 1157.6 2803.16 1152.05C2795.74 1146.51 2784.18 1143.73 2768.47 1143.73H2746.21V1213.34ZM3019.31 1211.94C3019.31 1233.89 3014.89 1252.13 3006.06 1266.66C2997.24 1281.2 2984.77 1291.04 2968.68 1296.2L3009.46 1338.62H2980.52L2947.12 1299.95L2940.67 1300.18C2915.44 1300.18 2895.95 1292.48 2882.2 1277.09C2868.52 1261.62 2861.69 1239.83 2861.69 1211.7C2861.69 1183.81 2868.56 1162.21 2882.31 1146.9C2896.06 1131.51 2915.6 1123.81 2940.91 1123.81C2965.52 1123.81 2984.74 1131.62 2998.56 1147.25C3012.39 1162.88 3019.31 1184.44 3019.31 1211.94ZM2882.78 1211.94C2882.78 1235.14 2887.7 1252.76 2897.55 1264.79C2907.47 1276.74 2921.85 1282.72 2940.67 1282.72C2959.66 1282.72 2973.99 1276.74 2983.68 1264.79C2993.37 1252.84 2998.21 1235.22 2998.21 1211.94C2998.21 1188.89 2993.37 1171.43 2983.68 1159.55C2974.07 1147.6 2959.81 1141.62 2940.91 1141.62C2921.92 1141.62 2907.47 1147.64 2897.55 1159.67C2887.7 1171.62 2882.78 1189.05 2882.78 1211.94ZM3077.25 1226.59V1297.84H3057.33V1126.51H3104.32C3125.33 1126.51 3140.84 1130.53 3150.84 1138.58C3160.92 1146.62 3165.96 1158.73 3165.96 1174.91C3165.96 1197.56 3154.47 1212.88 3131.51 1220.84L3178.03 1297.84H3154.47L3112.99 1226.59H3077.25ZM3077.25 1209.48H3104.55C3118.62 1209.48 3128.93 1206.7 3135.49 1201.16C3142.05 1195.53 3145.33 1187.13 3145.33 1175.96C3145.33 1164.63 3141.97 1156.47 3135.26 1151.47C3128.62 1146.47 3117.91 1143.97 3103.15 1143.97H3077.25V1209.48ZM3302.07 1252.25C3302.07 1267.33 3296.6 1279.09 3285.66 1287.52C3274.72 1295.96 3259.88 1300.18 3241.13 1300.18C3220.82 1300.18 3205.19 1297.56 3194.25 1292.33V1273.11C3201.28 1276.08 3208.94 1278.42 3217.22 1280.14C3225.5 1281.86 3233.71 1282.72 3241.83 1282.72C3255.11 1282.72 3265.11 1280.22 3271.83 1275.22C3278.55 1270.14 3281.91 1263.11 3281.91 1254.12C3281.91 1248.19 3280.7 1243.34 3278.28 1239.59C3275.93 1235.77 3271.95 1232.25 3266.32 1229.05C3260.78 1225.84 3252.3 1222.21 3240.89 1218.15C3224.96 1212.45 3213.55 1205.69 3206.67 1197.88C3199.88 1190.06 3196.48 1179.87 3196.48 1167.29C3196.48 1154.09 3201.44 1143.58 3211.36 1135.77C3221.28 1127.95 3234.41 1124.05 3250.74 1124.05C3267.77 1124.05 3283.43 1127.17 3297.73 1133.42L3291.52 1150.77C3277.38 1144.83 3263.63 1141.86 3250.27 1141.86C3239.72 1141.86 3231.48 1144.12 3225.54 1148.66C3219.6 1153.19 3216.64 1159.48 3216.64 1167.52C3216.64 1173.46 3217.73 1178.34 3219.92 1182.17C3222.1 1185.92 3225.78 1189.4 3230.93 1192.6C3236.17 1195.73 3244.14 1199.2 3254.84 1203.03C3272.81 1209.44 3285.15 1216.31 3291.87 1223.66C3298.67 1231 3302.07 1240.53 3302.07 1252.25ZM3389.54 1297.84H3369.62V1144.2H3315.36V1126.51H3443.8V1144.2H3389.54V1297.84ZM3598.77 1126.51V1237.37C3598.77 1256.9 3592.87 1272.25 3581.08 1283.42C3569.28 1294.59 3553.07 1300.18 3532.44 1300.18C3511.82 1300.18 3495.84 1294.55 3484.51 1283.3C3473.26 1272.05 3467.64 1256.59 3467.64 1236.9V1126.51H3487.56V1238.3C3487.56 1252.6 3491.47 1263.58 3499.28 1271.23C3507.09 1278.89 3518.58 1282.72 3533.73 1282.72C3548.18 1282.72 3559.32 1278.89 3567.13 1271.23C3574.94 1263.5 3578.85 1252.45 3578.85 1238.07V1126.51H3598.77ZM3741.79 1126.51H3763.24L3701.48 1297.84H3681.79L3620.38 1126.51H3641.48L3680.85 1237.37C3685.38 1250.1 3688.98 1262.48 3691.63 1274.52C3694.45 1261.86 3698.12 1249.24 3702.65 1236.66L3741.79 1126.51ZM3936.14 1297.84H3916.45L3881.88 1183.11C3880.24 1178.03 3878.4 1171.62 3876.37 1163.89C3874.34 1156.16 3873.29 1151.51 3873.21 1149.95C3871.49 1160.26 3868.76 1171.55 3865.01 1183.81L3831.49 1297.84H3811.8L3766.22 1126.51H3787.31L3814.38 1232.33C3818.13 1247.17 3820.87 1260.61 3822.58 1272.64C3824.69 1258.34 3827.82 1244.36 3831.96 1230.69L3862.66 1126.51H3883.76L3915.98 1231.62C3919.73 1243.73 3922.9 1257.41 3925.47 1272.64C3926.96 1261.55 3929.77 1248.03 3933.91 1232.09L3960.87 1126.51H3981.96L3936.14 1297.84ZM4122.52 1297.84H4099.9L4053.85 1222.48L4006.97 1297.84H3985.88L4042.83 1208.3L3989.75 1126.51H4011.78L4054.32 1194.36L4097.21 1126.51H4118.42L4065.33 1207.6L4122.52 1297.84ZM4190.3 1212.17L4236.01 1126.51H4257.57L4200.38 1231.39V1297.84H4180.23V1232.33L4123.16 1126.51H4144.95L4190.3 1212.17ZM4384.77 1297.84H4267V1282.25L4357.93 1144.44H4269.81V1126.51H4382.19V1142.09L4291.25 1279.79H4384.77V1297.84ZM2615.61 1624.84L2611.74 1606.55H2610.8C2604.4 1614.6 2597.99 1620.07 2591.59 1622.96C2585.26 1625.77 2577.33 1627.18 2567.8 1627.18C2555.06 1627.18 2545.06 1623.9 2537.8 1617.34C2530.61 1610.77 2527.02 1601.44 2527.02 1589.33C2527.02 1563.39 2547.76 1549.8 2589.24 1548.55L2611.04 1547.84V1539.88C2611.04 1529.8 2608.85 1522.38 2604.48 1517.61C2600.18 1512.77 2593.27 1510.34 2583.73 1510.34C2573.03 1510.34 2560.92 1513.62 2547.41 1520.19L2541.43 1505.3C2547.76 1501.87 2554.67 1499.17 2562.17 1497.22C2569.75 1495.27 2577.33 1494.29 2584.91 1494.29C2600.22 1494.29 2611.55 1497.69 2618.89 1504.48C2626.31 1511.28 2630.02 1522.18 2630.02 1537.18V1624.84H2615.61ZM2571.66 1611.12C2583.77 1611.12 2593.27 1607.8 2600.14 1601.16C2607.09 1594.52 2610.57 1585.23 2610.57 1573.27V1561.67L2591.12 1562.49C2575.65 1563.04 2564.48 1565.46 2557.6 1569.76C2550.8 1573.98 2547.41 1580.58 2547.41 1589.56C2547.41 1596.59 2549.52 1601.95 2553.73 1605.62C2558.03 1609.29 2564.01 1611.12 2571.66 1611.12ZM2729.68 1494.29C2746.56 1494.29 2759.65 1500.07 2768.94 1511.63C2778.32 1523.12 2783 1539.41 2783 1560.5C2783 1581.59 2778.28 1598 2768.82 1609.72C2759.45 1621.36 2746.4 1627.18 2729.68 1627.18C2721.32 1627.18 2713.67 1625.66 2706.72 1622.61C2699.84 1619.48 2694.06 1614.72 2689.37 1608.31H2687.97L2683.86 1624.84H2669.92V1442.49H2689.37V1486.79C2689.37 1496.71 2689.06 1505.62 2688.43 1513.51H2689.37C2698.43 1500.7 2711.87 1494.29 2729.68 1494.29ZM2726.87 1510.58C2713.59 1510.58 2704.02 1514.41 2698.16 1522.06C2692.3 1529.64 2689.37 1542.45 2689.37 1560.5C2689.37 1578.55 2692.38 1591.48 2698.4 1599.29C2704.41 1607.02 2714.06 1610.89 2727.34 1610.89C2739.29 1610.89 2748.2 1606.55 2754.06 1597.88C2759.92 1589.13 2762.85 1576.59 2762.85 1560.27C2762.85 1543.55 2759.92 1531.09 2754.06 1522.88C2748.2 1514.68 2739.14 1510.58 2726.87 1510.58ZM2868.13 1627.18C2849.54 1627.18 2835.13 1621.48 2824.89 1610.07C2814.74 1598.59 2809.66 1582.38 2809.66 1561.44C2809.66 1539.95 2814.81 1523.35 2825.13 1511.63C2835.52 1499.91 2850.28 1494.05 2869.42 1494.05C2875.6 1494.05 2881.77 1494.72 2887.94 1496.05C2894.11 1497.38 2898.95 1498.94 2902.47 1500.73L2896.49 1517.26C2892.2 1515.54 2887.51 1514.13 2882.43 1513.04C2877.35 1511.87 2872.86 1511.28 2868.95 1511.28C2842.86 1511.28 2829.81 1527.92 2829.81 1561.2C2829.81 1576.98 2832.98 1589.09 2839.31 1597.53C2845.71 1605.97 2855.17 1610.19 2867.67 1610.19C2878.37 1610.19 2889.35 1607.88 2900.6 1603.27V1620.5C2892 1624.95 2881.18 1627.18 2868.13 1627.18ZM3018.3 1607.61H3017.25C3008.26 1620.66 2994.83 1627.18 2976.94 1627.18C2960.14 1627.18 2947.05 1621.44 2937.68 1609.95C2928.38 1598.47 2923.73 1582.14 2923.73 1560.97C2923.73 1539.8 2928.42 1523.35 2937.8 1511.63C2947.17 1499.91 2960.22 1494.05 2976.94 1494.05C2994.36 1494.05 3007.72 1500.38 3017.01 1513.04H3018.54L3017.72 1503.78L3017.25 1494.76V1442.49H3036.7V1624.84H3020.88L3018.3 1607.61ZM2979.4 1610.89C2992.68 1610.89 3002.29 1607.3 3008.23 1600.11C3014.24 1592.84 3017.25 1581.16 3017.25 1565.07V1560.97C3017.25 1542.77 3014.2 1529.8 3008.11 1522.06C3002.09 1514.25 2992.44 1510.34 2979.16 1510.34C2967.76 1510.34 2959.01 1514.8 2952.91 1523.7C2946.9 1532.53 2943.89 1545.03 2943.89 1561.2C2943.89 1577.61 2946.9 1589.99 2952.91 1598.35C2958.93 1606.71 2967.76 1610.89 2979.4 1610.89ZM3132.03 1627.18C3113.04 1627.18 3098.04 1621.4 3087.03 1609.84C3076.09 1598.27 3070.62 1582.22 3070.62 1561.67C3070.62 1540.97 3075.7 1524.52 3085.85 1512.34C3096.09 1500.15 3109.8 1494.05 3126.99 1494.05C3143.08 1494.05 3155.82 1499.37 3165.19 1509.99C3174.57 1520.54 3179.25 1534.48 3179.25 1551.83V1564.13H3090.78C3091.17 1579.21 3094.96 1590.66 3102.14 1598.47C3109.41 1606.28 3119.6 1610.19 3132.73 1610.19C3146.56 1610.19 3160.23 1607.3 3173.75 1601.52V1618.86C3166.87 1621.83 3160.35 1623.94 3154.17 1625.19C3148.08 1626.52 3140.7 1627.18 3132.03 1627.18ZM3126.75 1510.34C3116.44 1510.34 3108.2 1513.7 3102.03 1520.42C3095.93 1527.14 3092.34 1536.44 3091.25 1548.31H3158.39C3158.39 1536.05 3155.66 1526.67 3150.19 1520.19C3144.72 1513.62 3136.91 1510.34 3126.75 1510.34ZM3270.12 1511.52H3237.43V1624.84H3217.98V1511.52H3195.01V1502.73L3217.98 1495.7V1488.55C3217.98 1456.98 3231.77 1441.2 3259.34 1441.2C3266.14 1441.2 3274.11 1442.57 3283.25 1445.3L3278.21 1460.89C3270.71 1458.47 3264.3 1457.26 3258.99 1457.26C3251.65 1457.26 3246.22 1459.72 3242.7 1464.64C3239.19 1469.48 3237.43 1477.3 3237.43 1488.08V1496.4H3270.12V1511.52ZM3398.38 1496.4V1508.7L3374.59 1511.52C3376.78 1514.25 3378.73 1517.84 3380.45 1522.3C3382.17 1526.67 3383.03 1531.63 3383.03 1537.18C3383.03 1549.76 3378.73 1559.8 3370.14 1567.3C3361.54 1574.8 3349.75 1578.55 3334.75 1578.55C3330.92 1578.55 3327.33 1578.23 3323.97 1577.61C3315.68 1581.98 3311.54 1587.49 3311.54 1594.13C3311.54 1597.65 3312.99 1600.27 3315.88 1601.98C3318.77 1603.62 3323.73 1604.45 3330.76 1604.45H3353.5C3367.4 1604.45 3378.07 1607.38 3385.49 1613.23C3392.99 1619.09 3396.74 1627.61 3396.74 1638.78C3396.74 1653 3391.04 1663.82 3379.63 1671.24C3368.22 1678.74 3351.58 1682.49 3329.71 1682.49C3312.91 1682.49 3299.94 1679.37 3290.8 1673.12C3281.74 1666.87 3277.21 1658.04 3277.21 1646.63C3277.21 1638.82 3279.71 1632.06 3284.71 1626.36C3289.71 1620.66 3296.74 1616.79 3305.8 1614.76C3302.52 1613.27 3299.75 1610.97 3297.48 1607.84C3295.29 1604.72 3294.2 1601.09 3294.2 1596.95C3294.2 1592.26 3295.45 1588.16 3297.95 1584.64C3300.45 1581.12 3304.4 1577.73 3309.79 1574.45C3303.15 1571.71 3297.72 1567.06 3293.5 1560.5C3289.36 1553.94 3287.29 1546.44 3287.29 1538C3287.29 1523.94 3291.5 1513.12 3299.94 1505.54C3308.38 1497.88 3320.33 1494.05 3335.8 1494.05C3342.52 1494.05 3348.58 1494.84 3353.97 1496.4H3398.38ZM3295.96 1646.4C3295.96 1653.35 3298.89 1658.62 3304.75 1662.22C3310.61 1665.81 3319 1667.61 3329.94 1667.61C3346.27 1667.61 3358.34 1665.15 3366.15 1660.23C3374.04 1655.38 3377.99 1648.78 3377.99 1640.42C3377.99 1633.47 3375.84 1628.62 3371.54 1625.89C3367.25 1623.23 3359.16 1621.91 3347.29 1621.91H3323.97C3315.14 1621.91 3308.26 1624.02 3303.34 1628.23C3298.42 1632.45 3295.96 1638.51 3295.96 1646.4ZM3306.5 1537.53C3306.5 1546.52 3309.04 1553.31 3314.12 1557.92C3319.2 1562.53 3326.27 1564.84 3335.33 1564.84C3354.32 1564.84 3363.81 1555.62 3363.81 1537.18C3363.81 1517.88 3354.2 1508.23 3334.98 1508.23C3325.84 1508.23 3318.81 1510.7 3313.89 1515.62C3308.97 1520.54 3306.5 1527.84 3306.5 1537.53ZM3512.34 1624.84V1541.75C3512.34 1531.28 3509.95 1523.47 3505.19 1518.31C3500.42 1513.16 3492.96 1510.58 3482.81 1510.58C3469.29 1510.58 3459.41 1514.25 3453.16 1521.59C3446.99 1528.94 3443.9 1540.97 3443.9 1557.69V1624.84H3424.45V1442.49H3443.9V1497.69C3443.9 1504.33 3443.59 1509.84 3442.96 1514.21H3444.13C3447.96 1508.04 3453.39 1503.2 3460.42 1499.68C3467.53 1496.09 3475.62 1494.29 3484.68 1494.29C3500.38 1494.29 3512.14 1498.04 3519.95 1505.54C3527.85 1512.96 3531.79 1524.8 3531.79 1541.05V1624.84H3512.34ZM3591.02 1624.84H3571.57V1496.4H3591.02V1624.84ZM3569.93 1461.59C3569.93 1457.14 3571.02 1453.9 3573.21 1451.87C3575.4 1449.76 3578.13 1448.7 3581.41 1448.7C3584.54 1448.7 3587.23 1449.76 3589.5 1451.87C3591.76 1453.98 3592.9 1457.22 3592.9 1461.59C3592.9 1465.97 3591.76 1469.25 3589.5 1471.44C3587.23 1473.55 3584.54 1474.6 3581.41 1474.6C3578.13 1474.6 3575.4 1473.55 3573.21 1471.44C3571.02 1469.25 3569.93 1465.97 3569.93 1461.59ZM3616.39 1682.49C3608.96 1682.49 3602.95 1681.52 3598.34 1679.56V1663.74C3603.73 1665.3 3609.04 1666.09 3614.28 1666.09C3620.37 1666.09 3624.82 1664.41 3627.64 1661.05C3630.53 1657.77 3631.97 1652.73 3631.97 1645.93V1496.4H3651.43V1644.52C3651.43 1669.84 3639.75 1682.49 3616.39 1682.49ZM3630.33 1461.59C3630.33 1457.14 3631.43 1453.9 3633.61 1451.87C3635.8 1449.76 3638.53 1448.7 3641.82 1448.7C3644.94 1448.7 3647.64 1449.76 3649.9 1451.87C3652.17 1453.98 3653.3 1457.22 3653.3 1461.59C3653.3 1465.97 3652.17 1469.25 3649.9 1471.44C3647.64 1473.55 3644.94 1474.6 3641.82 1474.6C3638.53 1474.6 3635.8 1473.55 3633.61 1471.44C3631.43 1469.25 3630.33 1465.97 3630.33 1461.59ZM3711.59 1559.09C3714.95 1554.33 3720.07 1548.08 3726.95 1540.34L3768.43 1496.4H3791.52L3739.48 1551.12L3795.15 1624.84H3771.59L3726.24 1564.13L3711.59 1576.79V1624.84H3692.38V1442.49H3711.59V1539.17C3711.59 1543.47 3711.28 1550.11 3710.66 1559.09H3711.59ZM3837.62 1624.84H3818.17V1442.49H3837.62V1624.84ZM4042.28 1624.84V1541.28C4042.28 1531.05 4040.1 1523.39 4035.72 1518.31C4031.35 1513.16 4024.55 1510.58 4015.33 1510.58C4003.22 1510.58 3994.28 1514.05 3988.49 1521.01C3982.71 1527.96 3979.82 1538.66 3979.82 1553.12V1624.84H3960.37V1541.28C3960.37 1531.05 3958.18 1523.39 3953.81 1518.31C3949.43 1513.16 3942.6 1510.58 3933.3 1510.58C3921.11 1510.58 3912.17 1514.25 3906.46 1521.59C3900.84 1528.86 3898.03 1540.81 3898.03 1557.45V1624.84H3878.57V1496.4H3894.39L3897.56 1513.98H3898.49C3902.17 1507.73 3907.32 1502.84 3913.96 1499.33C3920.68 1495.81 3928.18 1494.05 3936.46 1494.05C3956.54 1494.05 3969.67 1501.32 3975.84 1515.85H3976.78C3980.6 1509.13 3986.15 1503.82 3993.42 1499.91C4000.68 1496.01 4008.96 1494.05 4018.26 1494.05C4032.79 1494.05 4043.65 1497.8 4050.84 1505.3C4058.1 1512.73 4061.74 1524.64 4061.74 1541.05V1624.84H4042.28ZM4189.52 1624.84V1541.75C4189.52 1531.28 4187.14 1523.47 4182.37 1518.31C4177.61 1513.16 4170.15 1510.58 4159.99 1510.58C4146.55 1510.58 4136.71 1514.21 4130.46 1521.48C4124.21 1528.74 4121.08 1540.73 4121.08 1557.45V1624.84H4101.63V1496.4H4117.45L4120.62 1513.98H4121.55C4125.54 1507.65 4131.12 1502.77 4138.31 1499.33C4145.5 1495.81 4153.51 1494.05 4162.33 1494.05C4177.8 1494.05 4189.44 1497.8 4197.26 1505.3C4205.07 1512.73 4208.97 1524.64 4208.97 1541.05V1624.84H4189.52ZM4359.61 1560.5C4359.61 1581.44 4354.34 1597.8 4343.79 1609.6C4333.25 1621.32 4318.68 1627.18 4300.08 1627.18C4288.6 1627.18 4278.4 1624.48 4269.5 1619.09C4260.59 1613.7 4253.71 1605.97 4248.87 1595.89C4244.03 1585.81 4241.6 1574.02 4241.6 1560.5C4241.6 1539.56 4246.84 1523.27 4257.31 1511.63C4267.78 1499.91 4282.31 1494.05 4300.9 1494.05C4318.87 1494.05 4333.13 1500.03 4343.68 1511.98C4354.3 1523.94 4359.61 1540.11 4359.61 1560.5ZM4261.76 1560.5C4261.76 1576.91 4265.04 1589.41 4271.6 1598C4278.17 1606.59 4287.82 1610.89 4300.55 1610.89C4313.28 1610.89 4322.93 1606.63 4329.5 1598.12C4336.14 1589.52 4339.46 1576.98 4339.46 1560.5C4339.46 1544.17 4336.14 1531.79 4329.5 1523.35C4322.93 1514.84 4313.21 1510.58 4300.32 1510.58C4287.58 1510.58 4277.97 1514.76 4271.49 1523.12C4265 1531.48 4261.76 1543.94 4261.76 1560.5ZM4453.3 1627.18C4444.94 1627.18 4437.28 1625.66 4430.33 1622.61C4423.45 1619.48 4417.67 1614.72 4412.98 1608.31H4411.58C4412.52 1615.81 4412.98 1622.92 4412.98 1629.64V1682.49H4393.53V1496.4H4409.35L4412.05 1513.98H4412.98C4417.98 1506.95 4423.8 1501.87 4430.45 1498.74C4437.09 1495.62 4444.7 1494.05 4453.3 1494.05C4470.33 1494.05 4483.45 1499.88 4492.67 1511.52C4501.97 1523.16 4506.62 1539.48 4506.62 1560.5C4506.62 1581.59 4501.89 1598 4492.44 1609.72C4483.06 1621.36 4470.02 1627.18 4453.3 1627.18ZM4450.48 1510.58C4437.36 1510.58 4427.87 1514.21 4422.01 1521.48C4416.15 1528.74 4413.14 1540.3 4412.98 1556.16V1560.5C4412.98 1578.55 4415.99 1591.48 4422.01 1599.29C4428.02 1607.02 4437.67 1610.89 4450.95 1610.89C4462.05 1610.89 4470.72 1606.4 4476.97 1597.41C4483.3 1588.43 4486.46 1576.05 4486.46 1560.27C4486.46 1544.25 4483.3 1531.98 4476.97 1523.47C4470.72 1514.88 4461.89 1510.58 4450.48 1510.58ZM4588.93 1610.89C4601.9 1610.89 4611.36 1607.41 4617.29 1600.46C4623.23 1593.51 4626.4 1581.79 4626.79 1565.3V1560.97C4626.79 1543 4623.74 1530.07 4617.65 1522.18C4611.55 1514.29 4601.9 1510.34 4588.7 1510.34C4577.29 1510.34 4568.54 1514.8 4562.45 1523.7C4556.43 1532.53 4553.43 1545.03 4553.43 1561.2C4553.43 1577.38 4556.4 1589.72 4562.33 1598.23C4568.35 1606.67 4577.22 1610.89 4588.93 1610.89ZM4586 1627.18C4569.44 1627.18 4556.51 1621.36 4547.22 1609.72C4537.92 1598.08 4533.27 1581.83 4533.27 1560.97C4533.27 1539.95 4537.96 1523.55 4547.33 1511.75C4556.71 1499.95 4569.75 1494.05 4586.47 1494.05C4604.05 1494.05 4617.57 1500.7 4627.02 1513.98H4628.07L4630.89 1496.4H4646.24V1682.49H4626.79V1627.53C4626.79 1619.72 4627.22 1613.08 4628.07 1607.61H4626.55C4617.57 1620.66 4604.05 1627.18 4586 1627.18ZM4745.9 1494.05C4751.6 1494.05 4756.72 1494.52 4761.25 1495.46L4758.56 1513.51C4753.24 1512.34 4748.56 1511.75 4744.49 1511.75C4734.1 1511.75 4725.2 1515.97 4717.77 1524.41C4710.43 1532.84 4706.76 1543.35 4706.76 1555.93V1624.84H4687.31V1496.4H4703.36L4705.59 1520.19H4706.52C4711.29 1511.83 4717.03 1505.38 4723.75 1500.85C4730.47 1496.32 4737.85 1494.05 4745.9 1494.05ZM4867.83 1589.8C4867.83 1601.75 4863.37 1610.97 4854.47 1617.45C4845.56 1623.94 4833.06 1627.18 4816.97 1627.18C4799.94 1627.18 4786.65 1624.48 4777.12 1619.09V1601.05C4783.3 1604.17 4789.9 1606.63 4796.93 1608.43C4804.04 1610.23 4810.87 1611.12 4817.44 1611.12C4827.59 1611.12 4835.4 1609.52 4840.87 1606.32C4846.34 1603.04 4849.08 1598.08 4849.08 1591.44C4849.08 1586.44 4846.89 1582.18 4842.51 1578.66C4838.22 1575.07 4829.78 1570.85 4817.2 1566.01C4805.25 1561.55 4796.73 1557.69 4791.65 1554.41C4786.65 1551.05 4782.9 1547.26 4780.4 1543.04C4777.98 1538.82 4776.77 1533.78 4776.77 1527.92C4776.77 1517.45 4781.03 1509.21 4789.55 1503.2C4798.06 1497.1 4809.74 1494.05 4824.58 1494.05C4838.41 1494.05 4851.93 1496.87 4865.13 1502.49L4858.22 1518.31C4845.33 1513 4833.65 1510.34 4823.18 1510.34C4813.96 1510.34 4807.01 1511.79 4802.32 1514.68C4797.63 1517.57 4795.29 1521.55 4795.29 1526.63C4795.29 1530.07 4796.15 1533 4797.87 1535.42C4799.66 1537.84 4802.51 1540.15 4806.42 1542.34C4810.33 1544.52 4817.83 1547.69 4828.92 1551.83C4844.15 1557.38 4854.43 1562.96 4859.74 1568.59C4865.13 1574.21 4867.83 1581.28 4867.83 1589.8ZM2578.11 1938.12C2581.55 1938.12 2584.87 1937.89 2588.07 1937.42C2591.27 1936.88 2593.81 1936.33 2595.69 1935.78V1950.66C2593.58 1951.68 2590.45 1952.5 2586.31 1953.12C2582.25 1953.83 2578.58 1954.18 2575.3 1954.18C2550.45 1954.18 2538.03 1941.09 2538.03 1914.92V1838.52H2519.63V1829.14L2538.03 1821.05L2546.23 1793.63H2557.48V1823.4H2594.75V1838.52H2557.48V1914.1C2557.48 1921.84 2559.32 1927.77 2562.99 1931.91C2566.66 1936.05 2571.7 1938.12 2578.11 1938.12ZM2639.45 1823.4V1906.72C2639.45 1917.19 2641.83 1925 2646.6 1930.16C2651.36 1935.31 2658.82 1937.89 2668.98 1937.89C2682.42 1937.89 2692.22 1934.22 2698.4 1926.88C2704.65 1919.53 2707.77 1907.54 2707.77 1890.9V1823.4H2727.22V1951.84H2711.17L2708.36 1934.61H2707.3C2703.32 1940.94 2697.77 1945.78 2690.66 1949.14C2683.63 1952.5 2675.58 1954.18 2666.52 1954.18C2650.9 1954.18 2639.18 1950.47 2631.36 1943.05C2623.63 1935.62 2619.76 1923.75 2619.76 1907.42V1823.4H2639.45ZM2796.42 1951.84L2747.67 1823.4H2768.52L2796.18 1899.57C2802.43 1917.38 2806.1 1928.95 2807.2 1934.26H2808.13C2808.99 1930.12 2811.69 1921.56 2816.22 1908.59C2820.83 1895.55 2831.1 1867.15 2847.04 1823.4H2867.9L2819.15 1951.84H2796.42ZM2993.11 1951.84L2969.55 1876.48C2968.07 1871.88 2965.3 1861.41 2961.23 1845.08H2960.3C2957.17 1858.75 2954.44 1869.3 2952.09 1876.72L2927.83 1951.84H2905.33L2870.3 1823.4H2890.69C2898.97 1855.66 2905.26 1880.23 2909.55 1897.11C2913.93 1913.98 2916.43 1925.35 2917.05 1931.21H2917.99C2918.85 1926.76 2920.22 1921.02 2922.09 1913.98C2924.05 1906.88 2925.73 1901.25 2927.13 1897.11L2950.69 1823.4H2971.78L2994.75 1897.11C2999.12 1910.55 3002.09 1921.84 3003.65 1930.98H3004.59C3004.9 1928.16 3005.73 1923.83 3007.05 1917.97C3008.46 1912.11 3016.62 1880.59 3031.55 1823.4H3051.7L3016.19 1951.84H2993.11ZM3105.66 1886.09L3061.01 1823.4H3083.16L3117.03 1872.62L3150.78 1823.4H3172.69L3128.04 1886.09L3175.03 1951.84H3153L3117.03 1899.8L3080.7 1951.84H3058.67L3105.66 1886.09ZM3179.89 1823.4H3200.75L3228.88 1896.64C3235.05 1913.36 3238.88 1925.43 3240.36 1932.85H3241.3C3242.31 1928.87 3244.42 1922.07 3247.62 1912.46C3250.91 1902.77 3261.53 1873.09 3279.5 1823.4H3300.36L3245.16 1969.65C3239.7 1984.1 3233.29 1994.34 3225.95 2000.35C3218.68 2006.45 3209.73 2009.49 3199.11 2009.49C3193.17 2009.49 3187.31 2008.83 3181.53 2007.5V1991.91C3185.83 1992.85 3190.63 1993.32 3195.95 1993.32C3209.3 1993.32 3218.84 1985.82 3224.54 1970.82L3231.69 1952.54L3179.89 1823.4ZM3403.07 1951.84H3309.9V1938.59L3379.98 1838.52H3314.24V1823.4H3401.31V1838.52L3332.17 1936.72H3403.07V1951.84ZM3537.53 1865.94C3537.53 1895.55 3532.85 1917.66 3523.47 1932.27C3514.17 1946.88 3499.92 1954.18 3480.7 1954.18C3462.26 1954.18 3448.24 1946.72 3438.63 1931.8C3429.02 1916.8 3424.21 1894.84 3424.21 1865.94C3424.21 1836.09 3428.86 1813.95 3438.16 1799.49C3447.45 1785.04 3461.63 1777.81 3480.7 1777.81C3499.29 1777.81 3513.39 1785.35 3523 1800.43C3532.69 1815.51 3537.53 1837.34 3537.53 1865.94ZM3443.9 1865.94C3443.9 1890.86 3446.83 1909.02 3452.69 1920.43C3458.55 1931.76 3467.88 1937.42 3480.7 1937.42C3493.67 1937.42 3503.04 1931.68 3508.82 1920.2C3514.68 1908.63 3517.61 1890.55 3517.61 1865.94C3517.61 1841.33 3514.68 1823.32 3508.82 1811.91C3503.04 1800.43 3493.67 1794.69 3480.7 1794.69C3467.88 1794.69 3458.55 1800.35 3452.69 1811.68C3446.83 1822.93 3443.9 1841.02 3443.9 1865.94ZM3633.09 1951.84H3614.11V1829.73C3614.11 1819.57 3614.42 1809.96 3615.05 1800.9C3613.4 1802.54 3611.57 1804.26 3609.54 1806.05C3607.51 1807.85 3598.21 1815.47 3581.65 1828.91L3571.33 1815.55L3616.69 1780.51H3633.09V1951.84ZM3810.68 1951.84H3698.07V1935.08L3743.18 1889.73C3756.93 1875.82 3766 1865.9 3770.37 1859.96C3774.75 1854.02 3778.03 1848.24 3780.21 1842.62C3782.4 1836.99 3783.5 1830.94 3783.5 1824.45C3783.5 1815.31 3780.72 1808.09 3775.18 1802.77C3769.63 1797.38 3761.93 1794.69 3752.09 1794.69C3744.98 1794.69 3738.22 1795.86 3731.82 1798.2C3725.49 1800.55 3718.42 1804.8 3710.6 1810.98L3700.29 1797.73C3716.07 1784.61 3733.26 1778.05 3751.85 1778.05C3767.95 1778.05 3780.57 1782.19 3789.71 1790.47C3798.85 1798.67 3803.42 1809.73 3803.42 1823.63C3803.42 1834.49 3800.37 1845.23 3794.28 1855.86C3788.18 1866.48 3776.78 1879.92 3760.06 1896.17L3722.56 1932.85V1933.79H3810.68V1951.84ZM3941.28 1820.82C3941.28 1831.76 3938.2 1840.7 3932.02 1847.66C3925.93 1854.61 3917.26 1859.26 3906.01 1861.6V1862.54C3919.76 1864.26 3929.95 1868.63 3936.59 1875.66C3943.23 1882.7 3946.55 1891.91 3946.55 1903.32C3946.55 1919.65 3940.89 1932.23 3929.56 1941.05C3918.23 1949.8 3902.14 1954.18 3881.28 1954.18C3872.22 1954.18 3863.9 1953.48 3856.32 1952.07C3848.82 1950.74 3841.52 1948.36 3834.41 1944.92V1926.41C3841.83 1930.08 3849.72 1932.89 3858.08 1934.84C3866.52 1936.72 3874.48 1937.66 3881.98 1937.66C3911.59 1937.66 3926.4 1926.05 3926.4 1902.85C3926.4 1882.07 3910.07 1871.68 3877.41 1871.68H3860.54V1854.92H3877.65C3891.01 1854.92 3901.59 1851.99 3909.41 1846.13C3917.22 1840.2 3921.12 1831.99 3921.12 1821.52C3921.12 1813.16 3918.23 1806.6 3912.45 1801.84C3906.75 1797.07 3898.98 1794.69 3889.13 1794.69C3881.63 1794.69 3874.56 1795.7 3867.92 1797.73C3861.28 1799.77 3853.7 1803.52 3845.19 1808.98L3835.34 1795.86C3842.38 1790.31 3850.46 1785.98 3859.6 1782.85C3868.82 1779.65 3878.51 1778.05 3888.66 1778.05C3905.3 1778.05 3918.23 1781.88 3927.45 1789.53C3936.67 1797.11 3941.28 1807.54 3941.28 1820.82ZM4092.86 1912.46H4067.43V1951.84H4048.79V1912.46H3965.47V1895.47L4046.8 1779.57H4067.43V1894.77H4092.86V1912.46ZM4048.79 1894.77V1837.81C4048.79 1826.64 4049.18 1814.02 4049.97 1799.96H4049.03C4045.28 1807.46 4041.76 1813.67 4038.48 1818.59L3984.93 1894.77H4048.79ZM4162.75 1847.19C4180.8 1847.19 4194.98 1851.68 4205.29 1860.66C4215.68 1869.57 4220.88 1881.8 4220.88 1897.34C4220.88 1915.08 4215.21 1928.98 4203.88 1939.06C4192.63 1949.14 4177.09 1954.18 4157.24 1954.18C4137.95 1954.18 4123.22 1951.09 4113.06 1944.92V1926.17C4118.53 1929.69 4125.33 1932.46 4133.45 1934.49C4141.58 1936.45 4149.59 1937.42 4157.48 1937.42C4171.23 1937.42 4181.89 1934.18 4189.47 1927.7C4197.13 1921.21 4200.95 1911.84 4200.95 1899.57C4200.95 1875.66 4186.31 1863.71 4157.01 1863.71C4149.59 1863.71 4139.67 1864.84 4127.24 1867.11L4117.17 1860.66L4123.61 1780.51H4208.81V1798.44H4140.25L4135.92 1849.88C4144.9 1848.09 4153.85 1847.19 4162.75 1847.19ZM4248.23 1878.59C4248.23 1844.92 4254.76 1819.77 4267.8 1803.12C4280.93 1786.41 4300.3 1778.05 4325.93 1778.05C4334.76 1778.05 4341.71 1778.79 4346.79 1780.27V1797.03C4340.77 1795.08 4333.9 1794.1 4326.16 1794.1C4307.8 1794.1 4293.78 1799.84 4284.09 1811.33C4274.4 1822.73 4269.09 1840.7 4268.15 1865.23H4269.56C4278.15 1851.8 4291.75 1845.08 4310.34 1845.08C4325.73 1845.08 4337.84 1849.73 4346.67 1859.02C4355.58 1868.32 4360.03 1880.94 4360.03 1896.88C4360.03 1914.69 4355.15 1928.71 4345.38 1938.95C4335.69 1949.1 4322.57 1954.18 4306.01 1954.18C4288.27 1954.18 4274.21 1947.54 4263.82 1934.26C4253.43 1920.9 4248.23 1902.34 4248.23 1878.59ZM4305.77 1937.66C4316.87 1937.66 4325.46 1934.18 4331.55 1927.23C4337.72 1920.2 4340.81 1910.08 4340.81 1896.88C4340.81 1885.55 4337.96 1876.64 4332.26 1870.16C4326.55 1863.67 4318.04 1860.43 4306.71 1860.43C4299.68 1860.43 4293.23 1861.88 4287.37 1864.77C4281.51 1867.66 4276.83 1871.64 4273.31 1876.72C4269.87 1881.8 4268.15 1887.07 4268.15 1892.54C4268.15 1900.59 4269.72 1908.09 4272.84 1915.04C4275.97 1921.99 4280.38 1927.5 4286.08 1931.56C4291.87 1935.62 4298.43 1937.66 4305.77 1937.66ZM4404.96 1951.84L4475.98 1798.44H4382.58V1780.51H4496.6V1796.09L4426.53 1951.84H4404.96ZM4577.05 1778.05C4592.67 1778.05 4605.05 1781.68 4614.2 1788.95C4623.34 1796.21 4627.91 1806.25 4627.91 1819.06C4627.91 1827.5 4625.29 1835.2 4620.05 1842.15C4614.82 1849.1 4606.46 1855.43 4594.98 1861.13C4608.88 1867.77 4618.77 1874.77 4624.62 1882.11C4630.48 1889.38 4633.41 1897.81 4633.41 1907.42C4633.41 1921.64 4628.45 1933.01 4618.53 1941.52C4608.61 1949.96 4595.02 1954.18 4577.75 1954.18C4559.47 1954.18 4545.41 1950.2 4535.56 1942.23C4525.72 1934.18 4520.8 1922.81 4520.8 1908.12C4520.8 1888.52 4532.75 1873.24 4556.66 1862.3C4545.88 1856.21 4538.14 1849.65 4533.45 1842.62C4528.77 1835.51 4526.42 1827.58 4526.42 1818.83C4526.42 1806.41 4530.99 1796.52 4540.13 1789.18C4549.35 1781.76 4561.66 1778.05 4577.05 1778.05ZM4540.02 1908.59C4540.02 1917.97 4543.26 1925.27 4549.74 1930.51C4556.3 1935.74 4565.48 1938.36 4577.28 1938.36C4588.92 1938.36 4597.98 1935.62 4604.47 1930.16C4610.95 1924.69 4614.2 1917.19 4614.2 1907.66C4614.2 1900.08 4611.15 1893.36 4605.05 1887.5C4598.96 1881.56 4588.34 1875.82 4573.18 1870.27C4561.54 1875.27 4553.1 1880.82 4547.87 1886.91C4542.63 1892.93 4540.02 1900.16 4540.02 1908.59ZM4576.81 1793.87C4567.05 1793.87 4559.39 1796.21 4553.84 1800.9C4548.3 1805.59 4545.52 1811.84 4545.52 1819.65C4545.52 1826.84 4547.83 1833.01 4552.44 1838.16C4557.05 1843.32 4565.56 1848.48 4577.98 1853.63C4589.16 1848.95 4597.05 1843.91 4601.66 1838.52C4606.34 1833.12 4608.69 1826.84 4608.69 1819.65C4608.69 1811.76 4605.84 1805.51 4600.13 1800.9C4594.51 1796.21 4586.73 1793.87 4576.81 1793.87ZM4769.99 1853.63C4769.99 1920.66 4744.05 1954.18 4692.18 1954.18C4683.11 1954.18 4675.93 1953.4 4670.61 1951.84V1935.08C4676.86 1937.11 4683.97 1938.12 4691.94 1938.12C4710.69 1938.12 4724.83 1932.34 4734.36 1920.78C4743.97 1909.14 4749.21 1891.33 4750.07 1867.34H4748.66C4744.36 1873.83 4738.66 1878.79 4731.55 1882.23C4724.44 1885.59 4716.43 1887.27 4707.53 1887.27C4692.37 1887.27 4680.34 1882.73 4671.43 1873.67C4662.53 1864.61 4658.07 1851.95 4658.07 1835.7C4658.07 1817.89 4663.04 1803.83 4672.96 1793.52C4682.96 1783.2 4696.08 1778.05 4712.33 1778.05C4723.97 1778.05 4734.13 1781.05 4742.8 1787.07C4751.55 1793.01 4758.27 1801.72 4762.96 1813.2C4767.65 1824.61 4769.99 1838.09 4769.99 1853.63ZM4712.33 1794.69C4701.16 1794.69 4692.53 1798.28 4686.43 1805.47C4680.34 1812.66 4677.29 1822.66 4677.29 1835.47C4677.29 1846.72 4680.11 1855.59 4685.73 1862.07C4691.36 1868.48 4699.91 1871.68 4711.4 1871.68C4718.5 1871.68 4725.03 1870.23 4730.97 1867.34C4736.98 1864.45 4741.71 1860.51 4745.15 1855.51C4748.58 1850.51 4750.3 1845.27 4750.3 1839.8C4750.3 1831.6 4748.7 1824.02 4745.5 1817.07C4742.29 1810.12 4737.8 1804.65 4732.02 1800.66C4726.32 1796.68 4719.75 1794.69 4712.33 1794.69Z" fill="#5F5F5F"/>
<path d="M4.2 443L27.44 202.48H108.92L131.88 443H86.24L82.88 404.08H53.76L50.96 443H4.2ZM57.4 365.72H79.24L68.6 243.36H66.36L57.4 365.72ZM145.398 238.04H194.398V264.08C196.452 255.68 199.998 248.867 205.038 243.64C210.078 238.413 216.798 235.8 225.198 235.8C239.012 235.8 249.185 240.093 255.718 248.68C262.438 257.08 265.798 269.12 265.798 284.8V443H217.638V289.84C217.638 285.36 216.705 281.533 214.838 278.36C213.158 275.187 210.452 273.6 206.718 273.6C201.678 273.6 198.318 275.933 196.638 280.6C195.145 285.08 194.398 291.147 194.398 298.8V443H145.398V238.04ZM327.105 445.24C314.225 445.24 305.358 442.533 300.505 437.12C295.652 431.707 293.225 423.027 293.225 411.08V283.12H279.505V245.88H293.225V202.48H340.825V245.88H354.825V283.12H340.825V398.2C340.825 401.747 341.105 404.36 341.665 406.04C342.225 407.72 343.718 408.56 346.145 408.56C348.012 408.56 349.785 408.467 351.465 408.28C353.145 408.093 354.265 408 354.825 408V441.6C352.025 442.347 347.918 443.093 342.505 443.84C337.278 444.773 332.145 445.24 327.105 445.24ZM429.478 445.24C388.598 445.24 368.158 424.053 368.158 381.68V299.36C368.158 279.947 373.571 264.547 384.398 253.16C395.411 241.587 410.438 235.8 429.478 235.8C448.518 235.8 463.451 241.587 474.278 253.16C485.291 264.547 490.798 279.947 490.798 299.36V381.68C490.798 424.053 470.358 445.24 429.478 445.24ZM429.478 407.44C433.398 407.44 436.291 406.04 438.158 403.24C440.024 400.44 440.958 396.613 440.958 391.76V291.52C440.958 279.573 437.131 273.6 429.478 273.6C421.824 273.6 417.998 279.573 417.998 291.52V391.76C417.998 396.613 418.931 400.44 420.798 403.24C422.664 406.04 425.558 407.44 429.478 407.44ZM508.717 238.04H557.717V264.08C559.771 255.68 563.317 248.867 568.357 243.64C573.397 238.413 580.117 235.8 588.517 235.8C602.331 235.8 612.504 240.093 619.037 248.68C625.757 257.08 629.117 269.12 629.117 284.8V443H580.957V289.84C580.957 285.36 580.024 281.533 578.157 278.36C576.477 275.187 573.771 273.6 570.037 273.6C564.997 273.6 561.637 275.933 559.957 280.6C558.464 285.08 557.717 291.147 557.717 298.8V443H508.717V238.04Z" fill="#5F5F5F"/>
<path d="M2716.98 322.785C2716.98 354.777 2708.86 379.934 2692.64 398.254C2676.51 416.574 2654.04 425.734 2625.24 425.734C2595.8 425.734 2573.06 416.757 2557.02 398.801C2541.07 380.754 2533.09 355.324 2533.09 322.512C2533.09 289.973 2541.11 264.771 2557.15 246.906C2573.19 228.951 2595.98 219.973 2625.51 219.973C2654.22 219.973 2676.64 229.087 2692.78 247.316C2708.91 265.546 2716.98 290.702 2716.98 322.785ZM2557.7 322.785C2557.7 349.855 2563.44 370.409 2574.93 384.445C2586.5 398.391 2603.27 405.363 2625.24 405.363C2647.39 405.363 2664.11 398.391 2675.41 384.445C2686.72 370.5 2692.37 349.947 2692.37 322.785C2692.37 295.897 2686.72 275.526 2675.41 261.672C2664.2 247.727 2647.57 240.754 2625.51 240.754C2603.36 240.754 2586.5 247.772 2574.93 261.809C2563.44 275.754 2557.7 296.079 2557.7 322.785ZM2827.69 425.734C2817.94 425.734 2809.01 423.957 2800.9 420.402C2792.87 416.757 2786.13 411.197 2780.66 403.723H2779.02C2780.11 412.473 2780.66 420.767 2780.66 428.605V490.266H2757.97V273.156H2776.42L2779.57 293.664H2780.66C2786.49 285.461 2793.28 279.536 2801.03 275.891C2808.78 272.245 2817.67 270.422 2827.69 270.422C2847.56 270.422 2862.87 277.212 2873.63 290.793C2884.48 304.374 2889.9 323.423 2889.9 347.941C2889.9 372.551 2884.38 391.691 2873.36 405.363C2862.42 418.944 2847.2 425.734 2827.69 425.734ZM2824.41 289.699C2809.1 289.699 2798.02 293.938 2791.19 302.414C2784.35 310.891 2780.84 324.38 2780.66 342.883V347.941C2780.66 368.996 2784.17 384.081 2791.19 393.195C2798.21 402.219 2809.46 406.73 2824.96 406.73C2837.9 406.73 2848.02 401.49 2855.31 391.008C2862.69 380.526 2866.38 366.079 2866.38 347.668C2866.38 328.983 2862.69 314.673 2855.31 304.738C2848.02 294.712 2837.72 289.699 2824.41 289.699ZM2992.69 425.734C2970.54 425.734 2953.04 418.99 2940.19 405.5C2927.42 392.01 2921.04 373.28 2921.04 349.309C2921.04 325.155 2926.97 305.969 2938.82 291.75C2950.76 277.531 2966.75 270.422 2986.81 270.422C3005.58 270.422 3020.44 276.62 3031.38 289.016C3042.31 301.32 3047.78 317.59 3047.78 337.824V352.18H2944.56C2945.02 369.771 2949.44 383.124 2957.82 392.238C2966.3 401.353 2978.19 405.91 2993.51 405.91C3009.64 405.91 3025.59 402.538 3041.36 395.793V416.027C3033.34 419.491 3025.73 421.952 3018.52 423.41C3011.42 424.96 3002.8 425.734 2992.69 425.734ZM2986.53 289.426C2974.5 289.426 2964.89 293.345 2957.69 301.184C2950.58 309.022 2946.38 319.868 2945.11 333.723H3023.45C3023.45 319.413 3020.26 308.475 3013.88 300.91C3007.5 293.254 2998.38 289.426 2986.53 289.426ZM3188.85 423V326.066C3188.85 313.853 3186.07 304.738 3180.51 298.723C3174.95 292.707 3166.25 289.699 3154.4 289.699C3138.72 289.699 3127.24 293.938 3119.94 302.414C3112.65 310.891 3109.01 324.882 3109.01 344.387V423H3086.31V273.156H3104.77L3108.46 293.664H3109.55C3114.2 286.281 3120.72 280.585 3129.1 276.574C3137.49 272.473 3146.83 270.422 3157.13 270.422C3175.18 270.422 3188.76 274.797 3197.87 283.547C3206.99 292.206 3211.55 306.105 3211.55 325.246V423H3188.85ZM3446.65 369.816C3446.65 387.408 3440.27 401.125 3427.51 410.969C3414.75 420.812 3397.43 425.734 3375.55 425.734C3351.86 425.734 3333.63 422.681 3320.87 416.574V394.152C3329.07 397.616 3338 400.35 3347.66 402.355C3357.33 404.361 3366.9 405.363 3376.38 405.363C3391.87 405.363 3403.54 402.447 3411.38 396.613C3419.21 390.689 3423.13 382.486 3423.13 372.004C3423.13 365.077 3421.72 359.426 3418.89 355.051C3416.16 350.585 3411.51 346.483 3404.95 342.746C3398.48 339.009 3388.59 334.771 3375.28 330.031C3356.69 323.378 3343.38 315.493 3335.36 306.379C3327.43 297.264 3323.46 285.37 3323.46 270.695C3323.46 255.292 3329.25 243.033 3340.83 233.918C3352.4 224.803 3367.72 220.246 3386.77 220.246C3406.64 220.246 3424.91 223.892 3441.59 231.184L3434.34 251.418C3417.85 244.491 3401.8 241.027 3386.22 241.027C3373.91 241.027 3364.3 243.671 3357.37 248.957C3350.44 254.243 3346.98 261.581 3346.98 270.969C3346.98 277.896 3348.26 283.592 3350.81 288.059C3353.36 292.434 3357.64 296.49 3363.66 300.227C3369.77 303.872 3379.06 307.928 3391.55 312.395C3412.51 319.868 3426.92 327.889 3434.75 336.457C3442.68 345.025 3446.65 356.145 3446.65 369.816ZM3575.96 423L3571.45 401.672H3570.35C3562.88 411.06 3555.4 417.44 3547.93 420.812C3540.55 424.094 3531.3 425.734 3520.18 425.734C3505.32 425.734 3493.65 421.906 3485.18 414.25C3476.79 406.594 3472.6 395.702 3472.6 381.574C3472.6 351.314 3496.8 335.454 3545.2 333.996L3570.63 333.176V323.879C3570.63 312.121 3568.07 303.462 3562.97 297.902C3557.96 292.251 3549.89 289.426 3538.77 289.426C3526.28 289.426 3512.16 293.254 3496.39 300.91L3489.41 283.547C3496.8 279.536 3504.86 276.392 3513.61 274.113C3522.46 271.835 3531.3 270.695 3540.14 270.695C3558 270.695 3571.22 274.66 3579.79 282.59C3588.44 290.52 3592.77 303.234 3592.77 320.734V423H3575.96ZM3524.69 407.004C3538.82 407.004 3549.89 403.13 3557.91 395.383C3566.02 387.635 3570.08 376.789 3570.08 362.844V349.309L3547.38 350.266C3529.34 350.904 3516.3 353.729 3508.28 358.742C3500.35 363.664 3496.39 371.366 3496.39 381.848C3496.39 390.051 3498.85 396.294 3503.77 400.578C3508.78 404.862 3515.76 407.004 3524.69 407.004ZM3741.91 423V326.066C3741.91 313.853 3739.13 304.738 3733.57 298.723C3728.01 292.707 3719.3 289.699 3707.45 289.699C3691.78 289.699 3680.29 293.938 3673 302.414C3665.71 310.891 3662.06 324.882 3662.06 344.387V423H3639.37V273.156H3657.83L3661.52 293.664H3662.61C3667.26 286.281 3673.78 280.585 3682.16 276.574C3690.55 272.473 3699.89 270.422 3710.19 270.422C3728.24 270.422 3741.82 274.797 3750.93 283.547C3760.05 292.206 3764.6 306.105 3764.6 325.246V423H3741.91ZM3907.72 382.121C3907.72 396.066 3902.53 406.822 3892.14 414.387C3881.74 421.952 3867.16 425.734 3848.39 425.734C3828.52 425.734 3813.02 422.59 3801.9 416.301V395.246C3809.1 398.892 3816.8 401.763 3825.01 403.859C3833.3 405.956 3841.28 407.004 3848.93 407.004C3860.78 407.004 3869.9 405.135 3876.28 401.398C3882.66 397.57 3885.85 391.783 3885.85 384.035C3885.85 378.202 3883.29 373.234 3878.19 369.133C3873.18 364.94 3863.33 360.018 3848.66 354.367C3834.71 349.172 3824.78 344.66 3818.85 340.832C3813.02 336.913 3808.65 332.492 3805.73 327.57C3802.9 322.648 3801.49 316.77 3801.49 309.934C3801.49 297.72 3806.46 288.104 3816.39 281.086C3826.33 273.977 3839.95 270.422 3857.27 270.422C3873.4 270.422 3889.17 273.703 3904.58 280.266L3896.51 298.723C3881.47 292.525 3867.84 289.426 3855.63 289.426C3844.88 289.426 3836.76 291.112 3831.3 294.484C3825.83 297.857 3823.09 302.505 3823.09 308.43C3823.09 312.44 3824.09 315.858 3826.1 318.684C3828.2 321.509 3831.52 324.198 3836.08 326.75C3840.64 329.302 3849.39 332.993 3862.33 337.824C3880.1 344.296 3892.09 350.812 3898.29 357.375C3904.58 363.938 3907.72 372.186 3907.72 382.121Z" fill="#5F5F5F"/>
</g>
<defs>
<clipPath id="clip0">
<rect width="4879" height="2126" fill="white"/>
</clipPath>
</defs>
</svg>
