<?xml version="1.0" encoding="UTF-8"?>
<svg width="526px" height="110px" viewBox="0 0 526 110" version="1.1" xmlns="http://www.w3.org/2000/svg" xmlns:xlink="http://www.w3.org/1999/xlink">
    <!-- Generator: Sketch 47 (45396) - http://www.bohemiancoding.com/sketch -->
    <title>competitive-analysis</title>
    <desc>Created with Sketch.</desc>
    <defs></defs>
    <g id="Page-1" stroke="none" stroke-width="1" fill="none" fill-rule="evenodd">
        <g id="competitive-analysis">
            <g id="Group-6" transform="translate(0.000000, 17.000000)">
                <text id="Screen-Recorders" font-family="Roboto-Regular, Roboto" font-size="14" font-weight="normal" fill="#555555">
                    <tspan x="12.6000977" y="74">Screen </tspan>
                    <tspan x="2.38720703" y="90">Recorders</tspan>
                </text>
                <g id="if_video-alt_383195" fill-rule="nonzero" fill="#6598D9">
                    <path d="M65.1851852,39.2739394 L64.5827343,1.91030303 L50.7948781,16.0593939 L50.7948781,6.06060606 C50.7948781,2.71272727 48.1511819,0 44.8884969,0 L5.90638117,0 C2.64369621,0 0,2.71272727 0,6.06060606 L0,33.9393939 C0,37.2872727 2.64369621,40 5.90638117,40 L44.8884969,40 C48.1511819,40 50.7948781,37.2872727 50.7948781,33.9393939 L50.7948781,24.5078788 L65.1851852,39.2739394 Z" id="Shape"></path>
                </g>
            </g>
            <g id="Group-5" transform="translate(216.000000, 0.000000)">
                <text id="Transcription-Servic" font-family="Roboto-Regular, Roboto" font-size="14" font-weight="normal" fill="#555555">
                    <tspan x="1.06982422" y="91">Transcription </tspan>
                    <tspan x="15.637207" y="107">Services</tspan>
                </text>
                <g id="if_icon-55-document-text_314895" transform="translate(22.000000, 0.000000)" fill-rule="nonzero" fill="#48A0AB">
                    <path d="M26.3157895,0 L27.3684211,0 L40,14.691358 L40,15.7407407 L40,52.4884547 C40,54.7815295 38.1173133,56.6666667 35.7949013,56.6666667 L4.20509876,56.6666667 C1.8756324,56.6666667 0,54.7804806 0,52.4537521 L0,4.21291469 C0,1.88540141 1.88771842,0 4.21633712,0 L26.3157895,0 Z M27.3684211,3.14814815 L27.3684211,12.5741554 C27.3684211,13.7434541 28.3171602,14.691358 29.4668185,14.691358 L37.2630552,14.691358 L27.3684211,3.14814815 L27.3684211,3.14814815 Z M6.31578947,14.691358 L6.31578947,16.7901235 L21.0526316,16.7901235 L21.0526316,14.691358 L6.31578947,14.691358 L6.31578947,14.691358 Z M6.31578947,8.39506173 L6.31578947,10.4938272 L21.0526316,10.4938272 L21.0526316,8.39506173 L6.31578947,8.39506173 L6.31578947,8.39506173 Z M6.31578947,20.9876543 L6.31578947,23.0864198 L33.6842105,23.0864198 L33.6842105,20.9876543 L6.31578947,20.9876543 L6.31578947,20.9876543 Z M6.31578947,27.2839506 L6.31578947,29.382716 L33.6842105,29.382716 L33.6842105,27.2839506 L6.31578947,27.2839506 L6.31578947,27.2839506 Z M6.31578947,33.5802469 L6.31578947,35.6790123 L33.6842105,35.6790123 L33.6842105,33.5802469 L6.31578947,33.5802469 L6.31578947,33.5802469 Z M6.31578947,39.8765432 L6.31578947,41.9753086 L33.6842105,41.9753086 L33.6842105,39.8765432 L6.31578947,39.8765432 L6.31578947,39.8765432 Z M6.31578947,46.1728395 L6.31578947,48.2716049 L33.6842105,48.2716049 L33.6842105,46.1728395 L6.31578947,46.1728395 L6.31578947,46.1728395 Z" id="document-text"></path>
                </g>
            </g>
            <g id="Group-4" transform="translate(450.000000, 17.000000)">
                <text id="Players-with-Transcr" font-family="Roboto-Regular, Roboto" font-size="14" font-weight="normal" fill="#555555">
                    <tspan x="0.840820312" y="74">Players with </tspan>
                    <tspan x="3.51367188" y="90">Transcripts</tspan>
                </text>
                <g id="if_video_383197" transform="translate(18.000000, 0.000000)" fill-rule="nonzero" fill="#4CB57C">
                    <path d="M36.2264151,0 L3.77358491,0 C1.68981132,0 0,1.6890566 0,3.77358491 L0,36.2264151 C0,38.3109434 1.68981132,40 3.77358491,40 L36.2264151,40 C38.3109434,40 40,38.3109434 40,36.2264151 L40,3.77358491 C40,1.6890566 38.3109434,0 36.2264151,0 Z M16.2962963,29.6296296 L16.2962963,11.8518519 L28.1481481,20.7407407 L16.2962963,29.6296296 Z" id="Shape"></path>
                </g>
            </g>
        </g>
    </g>
</svg>