<?xml version="1.0" encoding="UTF-8"?>
<svg width="900px" height="419px" viewBox="0 0 900 419" version="1.1" xmlns="http://www.w3.org/2000/svg" xmlns:xlink="http://www.w3.org/1999/xlink" style="background: #FFFFFF;">
    <!-- Generator: Sketch 46.2 (44496) - http://www.bohemiancoding.com/sketch -->
    <title>screencast</title>
    <desc>Created with Sketch.</desc>
    <defs>
        <linearGradient x1="49.9995703%" y1="12.381326%" x2="49.9995703%" y2="97.3932496%" id="linearGradient-1">
            <stop stop-color="#02602C" offset="0%"></stop>
            <stop stop-color="#136B2F" offset="7.27%"></stop>
            <stop stop-color="#3E8635" offset="28.21%"></stop>
            <stop stop-color="#609B3A" offset="48.49%"></stop>
            <stop stop-color="#78AB3E" offset="67.68%"></stop>
            <stop stop-color="#87B440" offset="85.34%"></stop>
            <stop stop-color="#8CB741" offset="100%"></stop>
        </linearGradient>
        <linearGradient x1="16.8579217%" y1="49.7711308%" x2="66.1937371%" y2="0.204825774%" id="linearGradient-2">
            <stop stop-color="#097778" offset="0%"></stop>
            <stop stop-color="#1F9E98" offset="27.71%"></stop>
            <stop stop-color="#31BFB3" offset="53.57%"></stop>
        </linearGradient>
        <linearGradient x1="25.7497475%" y1="6.43607075%" x2="77.0038161%" y2="99.1506133%" id="linearGradient-3">
            <stop stop-color="#02A8E2" offset="0%"></stop>
            <stop stop-color="#1A57A7" offset="94.39%"></stop>
        </linearGradient>
    </defs>
    <g id="Page-1" stroke="none" stroke-width="1" fill="none" fill-rule="evenodd">
        <g id="screencast" fill-rule="nonzero">
            <g id="autodesk" transform="translate(158.000000, 226.000000)">
                <g id="Group" transform="translate(306.674536, 15.757167)" fill="#000000">
                    <path d="M72.9177313,58.1847224 C72.9177313,39.4286993 72.9177313,20.5882862 72.9177313,0.999806312 C86.0975445,1.77791022 99.476244,-1.51329768 111.691892,6.06606376 C121.764468,12.3166411 126.560796,23.7321693 124.164074,36.3148533 C122.1608,46.8278381 111.984456,57.066198 101.07454,58.0188032 C91.8104783,58.8269442 82.41815,58.1847224 72.9177313,58.1847224 Z M83.3794332,10.1410969 C83.3794332,23.6749558 83.3794332,36.4664691 83.3794332,49.3623972 C88.5591215,49.3623972 93.5500119,49.9674302 98.333369,49.2365274 C108.132117,47.7418241 114.738597,39.3972318 114.558447,29.7567532 C114.369649,19.7057676 108.07591,12.4081828 97.8145354,10.9220615 C93.2704183,10.2655363 88.6110048,10.3985578 83.3794332,10.1410969 Z" id="Shape"></path>
                    <path d="M0.613953029,29.4778373 C1.2423181,12.9216741 15.2119113,-0.483454268 31.2222498,0.107275355 C47.8436589,0.720890388 61.6201308,14.698154 60.7438786,30.5134021 C59.7364768,48.7688069 46.19348,59.989809 30.1571999,59.7709673 C13.3340221,59.5406829 0.0144120429,45.3245528 0.613953029,29.4778373 Z M10.8205618,29.3476765 C10.468908,40.7574833 18.9532777,50.1633865 29.9986674,50.6010699 C40.9085839,51.0373231 50.0515839,42.1220259 50.4911512,30.6278291 C50.9220713,19.3496134 42.2301682,9.73917193 31.2971924,9.40161214 C20.2806268,9.05976134 11.1693333,17.9350091 10.8205618,29.3476765 Z" id="Shape"></path>
                    <path d="M176.847297,49.3123353 C176.847297,52.8052209 176.847297,55.5042689 176.847297,58.4607776 C163.070825,58.4607776 149.537916,58.4607776 135.608677,58.4607776 C135.608677,39.3972318 135.608677,20.3508501 135.608677,1.01554003 C149.311647,1.01554003 162.959852,1.01554003 176.842973,1.01554003 C176.842973,3.94630274 176.842973,6.64964169 176.842973,9.84358661 C166.748778,9.84358661 156.632965,9.84358661 146.100644,9.84358661 C146.100644,14.9484632 146.100644,19.5813282 146.100644,24.8177959 C152.518327,24.8177959 158.914391,24.8177959 165.592932,24.8177959 C165.592932,28.071815 165.592932,30.7351045 165.592932,33.8889999 C159.077248,33.8889999 152.668212,33.8889999 145.975259,33.8889999 C145.975259,39.1926935 145.975259,44.0115024 145.975259,49.3123353 C156.251046,49.3123353 166.366859,49.3123353 176.847297,49.3123353 Z" id="Shape"></path>
                </g>
                <path d="M568.545322,43.8986279 C576.469603,35.2480444 585.779087,25.0962751 594.336275,15.7571669 L581.045232,15.7571669 L555.861294,42.010598 C555.861294,33.1969049 555.861294,24.61272 555.861294,15.79614 C552.403321,15.79614 549.375438,15.79614 545.986509,15.79614 C545.986509,35.3721809 545.986509,54.6061246 545.986509,73.8314077 C549.408521,73.8314077 552.429213,73.8314077 556.05692,73.8314077 C556.05692,64.2743389 556.05692,54.9770908 556.05692,44.7257235 C556.05692,44.7257235 574.16237,63.2610384 583.571106,73.8617201 L597.197302,73.8617201 C587.94104,64.1732975 576.460973,52.2027838 568.545322,43.8986279 Z" id="Shape" fill="#000000"></path>
                <path d="M166.801569,15.7571669 L157.006675,15.8604282 L131.376054,73.8617201 L142.554554,73.8617201 L148.299622,59.9831161 L175.38743,59.9831161 L181.350355,73.8617201 L192.435076,73.8617201 L166.801569,15.7571669 Z M152.072438,50.8688733 L161.591765,27.8745923 L171.470339,50.8688733 L152.072438,50.8688733 Z" id="Shape" fill="#000000"></path>
                <polygon id="Shape" fill="#000000" points="258.418212 24.6952218 276.922891 24.6952218 276.922891 73.8617201 286.48832 73.8617201 286.48832 24.8002907 301.768535 24.8002907 305.689713 15.7571669 258.418212 15.7571669"></polygon>
                <path d="M515.27014,40.2276997 C501.588589,36.4300568 503.169692,30.6878723 503.886787,29.0719453 C504.603883,27.4560183 506.912263,24.6099293 515.670143,24.6099293 C524.428023,24.6099293 530.557521,28.1489666 530.557521,28.1489666 L534.378639,20.5336783 C534.138637,20.1479133 527.134951,15.9945093 515.510142,15.7630503 C503.886787,15.53302 493.61617,22.0724524 493.61617,31.1507904 C493.61617,40.2291284 499.222027,44.5382672 510.254832,47.6901107 C522.749466,51.2605807 526.576402,54.3838491 526.576402,58.9215893 C526.576402,63.4593296 524.013475,66.7683366 514.937047,66.7683366 C507.182811,66.7683366 497.808199,60.7661179 495.488183,59.0373188 L491.821248,66.7154725 C494.82636,68.667158 505.870801,74.846543 515.590143,74.846543 C526.577857,74.846543 535.811376,69.5372726 536.129924,58.537253 C536.447017,47.5372334 527.708046,43.6810114 515.27014,40.2276997 Z" id="Shape" fill="#000000"></path>
                <path d="M235.905007,50.3972589 C235.905007,58.4215284 229.449448,64.9269131 221.486637,64.9269131 C213.523826,64.9269131 207.068267,58.4215284 207.068267,50.3972589 L207.068267,15.7571669 L196.374368,15.7571669 L196.374368,49.5404521 C196.374368,63.516211 207.617919,74.846543 221.486637,74.846543 C235.355354,74.846543 246.600337,63.5176535 246.600337,49.5404521 L246.600337,15.7571669 L235.905007,15.7571669 L235.905007,50.3972589 L235.905007,50.3972589 Z" id="Shape" fill="#000000"></path>
                <path d="M610,69.4103977 C610,71.3533693 608.293781,72.8768971 606.071306,72.8768971 C603.874568,72.8768971 602.121417,71.3520162 602.121417,69.4103977 C602.121417,67.5093705 603.874568,65.9831366 606.071306,65.9831366 C608.293781,65.9831366 610,67.5093705 610,69.4103977 Z M603.103969,69.4103977 C603.103969,70.9352786 604.366601,72.1462532 606.097043,72.1462532 C607.780553,72.1462532 609.020476,70.9339256 609.020476,69.4306934 C609.020476,67.9044595 607.782067,66.6718361 606.074334,66.6718361 C604.366601,66.6731892 603.103969,67.9058125 603.103969,69.4103977 Z M605.465727,71.2072405 L604.575526,71.2072405 L604.575526,67.7799794 C604.926761,67.7177393 605.418794,67.675795 606.050111,67.675795 C606.775292,67.675795 607.10079,67.7799794 607.382385,67.9274612 C607.592823,68.07359 607.75633,68.3455519 607.75633,68.6797538 C607.75633,69.0559001 607.429317,69.3481577 606.963021,69.4739908 L606.963021,69.5159352 C607.335452,69.6417683 607.547405,69.8920815 607.663979,70.3507635 C607.780553,70.8730386 607.850194,71.0814074 607.945573,71.2085936 L606.987244,71.2085936 C606.869156,71.0814074 606.799515,70.7702072 606.682941,70.3724122 C606.611785,69.9962659 606.378637,69.8298414 605.888118,69.8298414 L605.468755,69.8298414 L605.468755,71.2072405 L605.465727,71.2072405 Z M605.48995,69.2642689 L605.909313,69.2642689 C606.399833,69.2642689 606.798001,69.1181402 606.798001,68.7636426 C606.798001,68.4497363 606.54063,68.2400144 605.980469,68.2400144 C605.745807,68.2400144 605.580787,68.2616631 605.48995,68.2819588 L605.48995,69.2642689 L605.48995,69.2642689 Z" id="Shape" fill="#000000"></path>
                <g id="Group">
                    <path d="M31.572398,0.549615611 C29.0606948,0.695988437 28.0285868,2.11953592 27.8972277,2.31900477 C27.8856796,2.3362251 27.8799056,2.34483527 27.8813491,2.34340024 L27.8813491,2.34340024 L0.883426644,66.1404269 C0.867548061,66.2021331 0.841564924,66.2810596 0.802590219,66.3829466 C0.200647555,67.9873075 0.317571669,69.3376686 0.81991231,70.4282897 L1.1216054,70.9836454 C2.28795953,72.829091 4.58313659,73.7776443 5.9544688,73.7805144 C7.00822934,73.7805144 15.3228331,73.7805144 25.4937875,73.7805144 L45.9901518,25.8290636 C40.800742,13.6126728 36.896054,4.47872146 36.3345295,3.30056372 C35.2273592,0.990169116 32.9855919,0.466384004 31.572398,0.549615611 Z" id="Shape" fill="url(#linearGradient-1)"></path>
                    <path d="M5.9544688,73.7805144 C4.58313659,73.7776443 2.28795953,72.829091 1.1216054,70.9836454 L8.74188196,85.0038661 L14.9157639,96.3621103 C16.2798786,98.7930473 19.7053221,99.0657025 19.7053221,99.0657025 C23.2534637,99.3039171 29.8185363,96.0291839 31.1119191,95.2872746 C32.3605531,94.5711958 62.2570388,76.2329767 66.2569983,73.7819494 C62.0448432,73.7819494 41.47486,73.7819494 25.4937875,73.7819494 C15.3228331,73.7805144 7.00967285,73.7805144 5.9544688,73.7805144 Z" id="Shape" fill="url(#linearGradient-2)"></path>
                    <path d="M1.1216054,70.9836454 L0.81991231,70.4282897 C0.909409781,70.6220184 1.01045531,70.807137 1.1216054,70.9836454 Z" id="Shape" fill="#000000"></path>
                    <polygon id="Shape" fill="#000000" points="27.8799056 2.34483527 27.8799056 2.34340024 27.8799056 2.34340024"></polygon>
                    <path d="M27.8972277,2.31900477 C27.8914536,2.32617991 27.8856796,2.3362251 27.8813491,2.34340024 L27.8813491,2.34340024 C27.8799056,2.34483527 27.8856796,2.33479007 27.8972277,2.31900477 Z" id="Shape" fill="#000000"></path>
                    <path d="M64.1234941,2.71076733 C64.1234941,2.71076733 63.3699831,0.239649627 59.9705228,0.253999904 C59.9705228,0.253999904 55.2516965,0.238214599 49.653774,0.22529935 C41.7606745,0.209514045 32.1122698,0.199468851 31.4626914,0.255434931 C29.7680135,0.400372729 28.3880202,1.5283045 27.8972277,2.31756974 C28.0285868,2.11810089 29.0606948,0.694553409 31.572398,0.548180583 C32.9855919,0.464948976 35.2273592,0.990169116 36.3345295,3.29912869 C36.896054,4.47585141 40.800742,13.6112378 45.9901518,25.8276286 C57.3144688,52.4803982 74.7664755,93.8020209 77.031339,99.1661545 L105.064256,99.1661545 L64.1234941,2.71076733 Z" id="Shape" fill="url(#linearGradient-3)"></path>
                </g>
            </g>
        </g>
    </g>
</svg>