<?xml version="1.0" encoding="UTF-8"?>
<svg width="180px" height="180px" viewBox="0 0 180 180" version="1.1" xmlns="http://www.w3.org/2000/svg" xmlns:xlink="http://www.w3.org/1999/xlink">
    <!-- Generator: Sketch 54.1 (76490) - https://sketchapp.com -->
    <title>iconfinder_sync-reload-refreshh-synchronization-loop_3209227</title>
    <desc>Created with Sketch.</desc>
    <g id="Page-1" stroke="none" stroke-width="1" fill="none" fill-rule="evenodd">
        <g id="iteration" transform="translate(-1.000000, -1.000000)" fill="#555555" fill-rule="nonzero">
            <g id="iconfinder_sync-reload-refreshh-synchronization-loop_3209227" transform="translate(91.000000, 91.000000) scale(-1, 1) translate(-91.000000, -91.000000) translate(1.000000, 1.000000)">
                <path d="M150.170061,22.4967562 L172.657246,22.4967562 L172.657246,15 L135.943475,15 L135.943475,52.4837811 L143.286229,52.4837811 L143.286229,26.4025662 C161.778955,42.0108126 172.657246,65.2470085 172.657246,89.9675621 C172.657246,121.405209 154.737254,150.560094 127,164.249171 L130.197769,171 C160.453588,156.066462 180,124.257725 180,89.9675621 C180,63.9838051 169.011568,39.476909 150.170061,22.4967562 Z" id="Path"></path>
                <path d="M106.290276,180 C110.232163,179.239821 114.166571,178.17557 118,176.831901 L115.729862,169 C112.221807,170.232723 108.609033,171.206575 105,171.901009 L106.290276,180 Z" id="Path"></path>
                <path d="M82,179.610951 C84.4319489,179.870317 86.8990415,180 89.3309904,180 C90.5610224,180 91.7805112,179.969741 93,179.904899 L92.6907348,171.268012 C89.3696486,171.445245 85.9607029,171.35879 82.6044728,171 L82,179.610951 Z" id="Path"></path>
                <path d="M58,174.368703 C61.7168911,175.854234 65.5578002,177.076456 69.4242424,178 L71,170.324759 C67.4618406,169.479814 63.9419192,168.363701 60.5387205,167 L58,174.368703 Z" id="Path"></path>
                <path d="M0,90.0324379 C0,116.016195 10.9884317,140.523091 29.829939,157.503244 L7.34275423,157.503244 L7.34275423,165 L44.0565254,165 L44.0565254,127.516219 L36.7137711,127.516219 L36.7137711,153.597434 C18.2210446,137.992936 7.34275423,114.752991 7.34275423,90.0324379 C7.34275423,58.5947907 25.2627459,29.4399058 53,15.750829 L49.8022305,9 C19.5464117,23.9335384 0,55.742275 0,90.0324379 Z" id="Path"></path>
                <path d="M73.7097238,0 C69.7678366,0.760179305 65.8334292,1.82443033 62,3.16809862 L64.2701381,11 C67.7781933,9.7672768 71.3909666,8.79342548 75,8.09899141 L73.7097238,0 Z" id="Path"></path>
                <path d="M97.3955272,9 L98,0.390274822 C94.3380192,0.00560336578 90.6303514,-0.102450414 87,0.100690692 L87.3092652,8.73634878 C90.6338658,8.55914058 94.0392971,8.6455836 97.3955272,9 Z" id="Path"></path>
                <path d="M122,5.63129689 C118.283109,4.14576635 114.4422,2.92354412 110.575758,2 L109,9.67524116 C112.538159,10.5201858 116.058081,11.6362987 119.461279,13 L122,5.63129689 Z" id="Path"></path>
            </g>
        </g>
    </g>
</svg>