<?xml version="1.0" encoding="UTF-8"?>
<svg width="769px" height="454px" viewBox="0 0 769 454" version="1.1" xmlns="http://www.w3.org/2000/svg" xmlns:xlink="http://www.w3.org/1999/xlink">
    <!-- Generator: Sketch 54.1 (76490) - https://sketchapp.com -->
    <title>personas</title>
    <desc>Created with Sketch.</desc>
    <defs>
        <ellipse id="path-1" cx="50.9090909" cy="51" rx="50.9090909" ry="51"></ellipse>
        <path d="M5.09090909,68 L-3.19744231e-14,68 L-3.19744231e-14,-1.42108547e-14 L112,-1.42108547e-14 L112,68 L106.909091,68 C106.909091,96.1665222 84.1163145,119 56,119 C27.8836855,119 5.09090909,96.1665222 5.09090909,68 Z" id="path-3"></path>
        <path d="M32.2424242,61.4637367 C24.9184525,57.9844972 19.6570403,50.8682852 18.7921387,42.449052 C16.3229392,42.0979921 14.4242424,39.9752737 14.4242424,37.4090909 L14.4242424,31.4409091 C14.4242424,28.9183668 16.2589099,26.824334 18.6666667,26.420389 L18.6666667,23.7575758 C18.6666667,10.636629 29.3032956,2.41027882e-15 42.4242424,0 C55.5451892,-2.41027882e-15 66.1818182,10.636629 66.1818182,23.7575758 L66.1818182,26.420389 C68.589575,26.824334 70.4242424,28.9183668 70.4242424,31.4409091 L70.4242424,37.4090909 C70.4242424,39.9752737 68.5255456,42.0979921 66.0563461,42.449052 C65.1914446,50.8682852 59.9300323,57.9844972 52.6060606,61.4637367 L52.6060606,69.3430697 C70.6015669,70.4689474 84.8484848,85.4207007 84.8484848,103.7 L0,103.7 C-2.23856854e-15,85.4207007 14.2469179,70.4689474 32.2424242,69.3430697 L32.2424242,61.4637367 Z" id="path-5"></path>
        <path d="M70.3629806,13.0277324 C86.3448734,16.0793037 98.4242424,30.1290079 98.4242424,47 L13.5757576,47 C13.5757576,29.9758138 25.8754918,15.8243845 42.073341,12.9473312 C42.0248436,13.2560787 42,13.5693459 42,13.8863636 C42,18.9598522 48.3629834,23.0727273 56.2121212,23.0727273 C64.061259,23.0727273 70.4242424,18.9598522 70.4242424,13.8863636 C70.4242424,13.5968294 70.4035197,13.3104237 70.3629806,13.0277324 Z" id="path-7"></path>
        <rect id="path-9" x="0" y="0" width="112" height="119"></rect>
        <path d="M9.02184801,65.8976375 C8.95470104,64.403254 8.92105263,62.9066251 8.92105263,61.4088698 L8.92105263,38.2255897 C8.92105263,36.5772516 9.0632207,34.9621186 9.33596384,33.3917838 C7.7229514,20.9128475 13.8782431,10.9892487 21.2406015,5.525 C29.6963338,-0.747837279 43.9433801,-2.55777007 48.8733788,4.89689447 C52.5485441,3.26444004 57.9949345,4.75239736 62.0225564,8.5 C66.325364,12.737155 69.7085174,22.391474 67.0037361,29.8210124 C67.3075366,31.3487703 67.4667248,32.9276077 67.4667248,34.5423 C67.4667248,49.7039509 71.0643688,64.6492197 77.96402,78.1499779 L81.5247158,85.1173 C84.6359991,91.205243 84.1297965,98.189973 80.7991519,103.620625 C77.0198193,89.637196 64.6508524,79.1818649 49.7030075,78.2653884 L49.7030075,70.385667 C57.1530973,66.8465154 62.4718435,59.5491022 63.209219,50.9434545 C65.663252,50.5757127 67.5451128,48.4587502 67.5451128,45.9022556 L67.5451128,40.3727444 C67.5451128,37.8468152 65.707982,35.7499709 63.2969925,35.3454835 L63.2969925,35.275 C60.7327636,26.1222887 53.1990049,21.92152 48.6111063,17.755273 C41.4341928,25.7861348 19.041197,25.8144179 11.4699248,41.65 L11.4699248,45.9022556 C11.4699248,48.4587502 13.3517856,50.5757127 15.8058186,50.9434545 C16.5431941,59.5491022 21.8619403,66.8465154 29.3120301,70.385667 L29.3120301,70.55 C30.556887,89.1884227 26.4906248,112.538909 0,105.4 C5.93795799,101.923494 9.00486436,79.1497337 8.92105263,65.875 L9.02186752,65.8976419 Z M38.8395924,112.625 L64.6909495,112.625 L38.8395924,112.625 Z" id="path-11"></path>
        <ellipse id="path-13" cx="51.3636364" cy="51" rx="51.3636364" ry="51"></ellipse>
        <path d="M5.13636364,68 L-3.19744231e-14,68 L-3.19744231e-14,-1.42108547e-14 L113,-1.42108547e-14 L113,68 L107.863636,68 C107.863636,96.1665222 84.8673531,119 56.5,119 C28.1326469,119 5.13636364,96.1665222 5.13636364,68 Z" id="path-15"></path>
        <path d="M32.530303,61.4433236 C25.1968569,57.9595833 19.91301,50.8617237 18.9804972,42.4514794 C16.4792332,42.1061818 14.5530303,39.9598535 14.5530303,37.3636364 L14.5530303,31.4863636 C14.5530303,28.9412986 16.4040787,26.8285692 18.8333333,26.4210175 L18.8333333,23.969697 C18.8333333,10.7315989 29.5649322,2.43179917e-15 42.8030303,0 C56.0411284,-2.43179917e-15 66.7727273,10.7315989 66.7727273,23.969697 L66.7727273,26.4210175 C69.2019819,26.8285692 71.0530303,28.9412986 71.0530303,31.4863636 L71.0530303,37.3636364 C71.0530303,39.9598535 69.1268274,42.1061818 66.6255634,42.4514794 C65.6930506,50.8617237 60.4092037,57.9595833 53.0757576,61.4433236 L53.0757576,69.326257 C71.2069649,70.3097596 85.6060606,85.3233353 85.6060606,103.7 L0,103.7 C-2.25049236e-15,85.3233353 14.3990957,70.3097596 32.530303,69.326257 L32.530303,61.4433236 Z" id="path-17"></path>
        <path d="M46.2272727,5.58483294 L46.2272727,13.6545455 C46.2272727,19.3280161 50.8265294,23.9272727 56.5,23.9272727 C62.1734706,23.9272727 66.7727273,19.3280161 66.7727273,13.6545455 L66.7727273,5.58483294 C74.5203485,6.45023572 80.469697,8.8289035 80.469697,14.9874126 C80.469697,15.3819845 80.4452756,15.7696682 80.3975245,16.1502785 C91.6186847,21.8737231 99.3030303,33.539474 99.3030303,47 L13.6969697,47 C13.6969697,33.539474 21.3813153,21.8737231 32.6024755,16.1502785 C32.5547244,15.7696682 32.530303,15.3819845 32.530303,14.9874126 C32.530303,8.8289035 38.4796515,6.45023572 46.2272727,5.58483294 Z" id="path-19"></path>
        <rect id="path-21" x="0" y="0" width="113" height="119"></rect>
        <path d="M43.4693154,41.9799801 C42.3920731,42.9609891 41.2445228,43.4021716 39.794119,43.0936584 C39.5445333,43.0406193 38.5270025,41.1529417 35.999929,41.1529417 C33.4728556,41.1529417 32.455468,43.0406193 32.2057391,43.0936584 C30.7553352,43.4021716 29.607785,42.9609891 28.5305426,41.9799801 C26.5055045,40.1356202 24.8214094,37.5923163 25.8333557,34.8174131 C26.3607362,33.3710609 27.2184634,31.7831758 28.7788396,31.3222646 C30.4450356,30.8303304 32.7843827,31.3214068 34.4634661,30.9854448 C35.007457,30.8765073 35.6017088,30.682936 35.999929,30.3618421 C36.3981493,30.682936 36.9925442,30.8765073 37.5362488,30.9854448 C39.2154753,31.3214068 41.5548225,30.8303304 43.2210185,31.3222646 C44.7813947,31.7831758 45.6391219,33.3710609 46.1666456,34.8174131 C47.1785919,37.5923163 45.4944967,40.1356202 43.4693154,41.9799801 M60.0347283,11.1184211 C58.5731543,14.7106346 59.1376173,19.1827122 58.8671424,22.9534981 C58.6474447,26.0184712 58.0016228,30.6123284 55.2740822,32.5917402 C53.8792974,33.6039796 51.34044,35.3052198 49.5179444,34.8306752 C48.2633737,34.5040461 48.1295067,30.9135279 46.4808362,29.5694323 C44.6107369,28.0450691 42.2755652,27.3752816 39.9210635,27.4786954 C38.9050877,27.5233384 36.8503443,27.5127428 35.9999713,28.2923013 C35.1495984,27.5127428 33.0949992,27.5233384 32.0790235,27.4786954 C29.7243775,27.3752816 27.3892057,28.0450691 25.5191064,29.5694323 C23.8704359,30.9135279 23.7367132,34.5040461 22.4821426,34.8306752 C20.6596469,35.3052198 18.1207895,33.6039796 16.7258605,32.5917402 C13.9981756,30.6123284 13.3526422,26.0184712 13.132656,22.9534981 C12.8623254,19.1827122 13.4267884,14.7106346 11.9652144,11.1184211 C11.25419,11.1184211 11.7231574,18.0156349 11.7231574,18.0156349 L11.7231574,26.7206107 C11.7367172,33.2582783 15.8293264,43.043447 24.9034335,46.7799029 C27.1226257,47.6936732 32.1494191,49.1776316 35.9999713,49.1776316 C39.8505236,49.1776316 44.877317,47.8349487 47.0965091,46.9211784 C56.1706162,43.1847226 60.2632255,33.2582783 60.2769295,26.7206107 L60.2769295,18.0156349 C60.2769295,18.0156349 60.7457526,11.1184211 60.0347283,11.1184211" id="path-23"></path>
        <path d="M79.6421467,31.4197192 C80.3952292,31.8398808 80.9915169,36.0518684 81.020372,37.6625037 C81.0384213,38.6563899 81.0545821,42.4464543 79.9945924,42.11883 C79.6718626,42.0190798 79.1792924,40.0125806 79.1092327,38.838241 C79.039173,37.6639014 78.3664581,33.6685014 77.3343242,31.8302586 C77.0984961,31.4101931 76.4231918,30.6726294 76.7149489,30.3172928 C77.0768845,29.8766754 77.4283705,30.1323257 77.8702216,30.3087455 C78.3481713,30.499763 79.5576001,31.3726611 79.6421467,31.4197192 Z M79.9871754,30.1565497 C79.667427,30.5654907 77.4839268,29.4175195 76.5733602,28.9186882 C68.9252489,24.7282237 67.4406693,23.3956903 55.3910174,23.5695842 C43.3413654,23.7434782 35.086062,29.3420096 34.6217065,29.9146623 C34.2986393,30.3130753 33.8861903,31.3768668 33.5470323,34.3402296 C33.2078743,37.3035923 33.6408026,42.6180605 32.4130654,42.6116127 C31.3677897,42.6061232 31.1403819,32.50274 31.591599,28.4947168 C31.6608753,27.8793562 31.9278709,26.7785682 31.7346096,26.2249991 C31.5656994,25.7415056 30.7394472,25.7424906 30.8713379,24.9369027 C31.0212456,24.0198692 31.9536297,24.4753606 32.3597179,24.0368956 C33.1288222,23.2062605 31.9423691,23.009683 31.7455887,22.2830357 C31.4530926,21.2029146 32.2983472,20.9243008 33.0598505,20.5832099 C33.9025715,20.2060962 33.7930614,20.5373371 34.4770068,19.7985884 C33.5634843,19.1345587 33.2329834,18.2299081 34.4839039,17.7445853 C35.0151264,17.5384393 36.3972338,17.8112838 36.8134566,17.5015722 C36.9219814,17.4208023 36.9649127,16.9578531 37.031773,16.8631525 C37.6964345,15.9202277 37.5324508,15.2376238 37.4650275,14.179032 C37.4095687,13.3127963 37.4170289,12.5176212 38.4628643,12.431082 C39.1607448,12.3733893 39.7282829,12.9387783 40.3535321,13.105243 C41.0471898,13.2900006 40.7866459,13.4248047 41.3301143,13.0538824 C42.2841752,12.4022356 41.6348564,11.1325728 42.3914332,10.375109 C43.4296676,9.33565431 44.1102348,10.8593061 44.9438064,10.9742694 C46.7533973,11.2243183 46.1726279,9.40178991 47.2439406,8.73396102 C48.5244204,7.93639378 48.6482878,9.69053515 49.4480774,9.75301219 C50.1411721,9.80690567 51.3889959,8.48067573 51.9931313,8.23358185 C53.7856904,7.5000395 54.6738763,9.56417393 56.3802912,9.30089794 C57.6185434,9.10980825 57.9528448,8.95375637 59.0703263,9.65240164 C60.155011,10.3305027 60.4127398,9.84574275 61.6409982,9.83603348 C62.5087741,9.82956063 63.0402781,10.5486094 63.7661695,10.62361 C64.1282003,10.6611807 64.4747477,10.2871627 64.863241,10.310662 C66.2506972,10.3941054 66.3383898,12.1732939 67.4406693,12.6631195 C68.4477962,13.1107309 69.6318564,12.4818798 70.6313823,12.3655093 C73.0701635,12.081689 71.4000643,14.3405717 71.4688952,15.688753 C72.4261935,15.910237 73.3978492,15.0241606 74.350784,15.1872482 C75.8514101,15.444192 75.284998,16.986418 74.9371838,18.0261542 C75.9769666,18.0075799 78.6912121,16.8630118 79.3648822,18.3268601 C79.7122741,19.0816503 78.9029129,20.0893036 78.9161442,20.8566173 C78.9347243,21.9367384 79.7350769,22.8304133 80.018283,23.8527009 C80.4004422,25.2326836 80.9450717,28.9314516 79.9871754,30.1565497 Z" id="path-25"></path>
    </defs>
    <g id="personas" stroke="none" stroke-width="1" fill="none" fill-rule="evenodd">
        <rect fill="#FFFFFF" x="0" y="0" width="769" height="454"></rect>
        <text id="Jill-(Developer)" font-family="OpenSans-SemiBold, Open Sans" font-size="18" font-weight="500" fill="#555555">
            <tspan x="49.4482422" y="176">Jill (Developer)</tspan>
        </text>
        <text id="Marcus-(System-Admin" font-family="OpenSans-SemiBold, Open Sans" font-size="18" font-weight="500" fill="#555555">
            <tspan x="439.476562" y="176">Marcus (System Admin)</tspan>
        </text>
        <g id="Avataaar/Circle" transform="translate(49.000000, 26.000000)">
            <g id="Circle" stroke-width="1" fill-rule="evenodd" transform="translate(5.090909, 17.000000)">
                <mask id="mask-2" fill="white">
                    <use xlink:href="#path-1"></use>
                </mask>
                <use id="Circle-Background" fill="#E6E6E6" xlink:href="#path-1"></use>
                <g id="Color/Palette/Blue-01" mask="url(#mask-2)" fill="#65C9FF">
                    <rect id="ðŸ–Color" x="0" y="0" width="102" height="102"></rect>
                </g>
            </g>
            <mask id="mask-4" fill="white">
                <use xlink:href="#path-3"></use>
            </mask>
            <g id="Mask"></g>
            <g id="Avataaar" stroke-width="1" fill-rule="evenodd" mask="url(#mask-4)">
                <g id="Body" transform="translate(13.575758, 15.300000)">
                    <mask id="mask-6" fill="white">
                        <use xlink:href="#path-5"></use>
                    </mask>
                    <use fill="#D0C6AC" xlink:href="#path-5"></use>
                    <g id="Skin/ðŸ‘¶ðŸ»-05-Pale" mask="url(#mask-6)" fill="#FFDBB4">
                        <g transform="translate(-13.575758, 0.000000)" id="Color">
                            <rect x="0" y="0" width="112" height="104"></rect>
                        </g>
                    </g>
                    <path d="M66.1818182,39.9924242 L66.1818182,43.3924242 C66.1818182,56.513371 55.5451892,67.15 42.4242424,67.15 C29.3032956,67.15 18.6666667,56.513371 18.6666667,43.3924242 L18.6666667,33.575 L18.6666667,39.9924242 C18.6666667,53.113371 29.3032956,63.75 42.4242424,63.75 C55.5451892,63.75 66.1818182,53.113371 66.1818182,39.9924242 Z" id="Neck-Shadow" fill-opacity="0.100000001" fill="#000000" mask="url(#mask-6)"></path>
                </g>
                <g id="Clothing/Graphic-Shirt" transform="translate(0.000000, 72.250000)">
                    <mask id="mask-8" fill="white">
                        <use xlink:href="#path-7"></use>
                    </mask>
                    <use id="Clothes" fill="#E6E6E6" fill-rule="evenodd" xlink:href="#path-7"></use>
                    <g id="Color/Palette/Red" mask="url(#mask-8)" fill="#FF5C5C" fill-rule="evenodd">
                        <rect id="ðŸ–Color" x="0" y="0" width="112" height="47"></rect>
                    </g>
                </g>
                <g id="Face" transform="translate(32.242424, 34.850000)" fill="#000000">
                    <g id="Mouth/Default" transform="translate(0.848485, 22.100000)" fill-opacity="0.699999988">
                        <path d="M17.037037,6.47727273 C17.037037,9.81608508 19.7067465,12.5227273 23,12.5227273 L23,12.5227273 C26.2932535,12.5227273 28.962963,9.81608508 28.962963,6.47727273" id="Mouth"></path>
                    </g>
                    <g id="Nose/Default" transform="translate(11.878788, 17.000000)" fill-opacity="0.16">
                        <path d="M6.85714286,3.33333333 C6.85714286,5.1742825 9.15967843,6.66666667 12,6.66666667 L12,6.66666667 C14.8403216,6.66666667 17.1428571,5.1742825 17.1428571,3.33333333" id="Nose"></path>
                    </g>
                    <g id="Eyes/Default-ðŸ˜€" transform="translate(0.000000, 3.400000)" fill-opacity="0.599999964">
                        <ellipse id="Eye" cx="12.8571429" cy="9.5" rx="2.57142857" ry="2.59090909"></ellipse>
                        <ellipse id="Eye" cx="35.1428571" cy="9.5" rx="2.57142857" ry="2.59090909"></ellipse>
                    </g>
                    <g id="Eyebrow/Outline/Default" fill-opacity="0.599999964">
                        <g id="I-Browse" transform="translate(5.142857, 2.500000)">
                            <path d="M1.55581944,4.64940698 C3.23363786,2.35411114 7.83339416,1.0670155 11.7955829,2.01299186 C12.2553106,2.12275229 12.7195142,1.84940005 12.8324107,1.40244255 C12.9453071,0.955485043 12.6641448,0.504175983 12.2044171,0.39441555 C7.60301284,-0.704174121 2.27661412,0.7862493 0.158466274,3.68392636 C-0.115761268,4.05907621 -0.0252584536,4.57932546 0.360609968,4.84593557 C0.74647839,5.11254568 1.2815919,5.02455683 1.55581944,4.64940698 Z" id="Eyebrow" fill-rule="nonzero"></path>
                            <path d="M26.4129623,4.64940698 C28.0907807,2.35411114 32.690537,1.0670155 36.6527258,2.01299186 C37.1124535,2.12275229 37.5766571,1.84940005 37.6895535,1.40244255 C37.80245,0.955485043 37.5212877,0.504175983 37.06156,0.39441555 C32.4601557,-0.704174121 27.133757,0.7862493 25.0156091,3.68392636 C24.7413816,4.05907621 24.8318844,4.57932546 25.2177528,4.84593557 C25.6036212,5.11254568 26.1387348,5.02455683 26.4129623,4.64940698 Z" id="Eyebrow" fill-rule="nonzero" transform="translate(31.285780, 2.516333) scale(-1, 1) translate(-31.285780, -2.516333) "></path>
                        </g>
                    </g>
                </g>
                <g id="Top">
                    <mask id="mask-10" fill="white">
                        <use xlink:href="#path-9"></use>
                    </mask>
                    <g id="Mask"></g>
                    <g id="Top/Long-Hair/Straight" mask="url(#mask-10)">
                        <g transform="translate(-0.424242, 0.000000)">
                            <g id="Hair" stroke-width="1" fill="none" fill-rule="evenodd" transform="translate(16.992481, 6.375000)">
                                <mask id="mask-12" fill="white">
                                    <use xlink:href="#path-11"></use>
                                </mask>
                                <use fill="#272C2E" xlink:href="#path-11"></use>
                                <g id="Color/Hair/Brown-Dark" mask="url(#mask-12)" fill="#4A312C">
                                    <g transform="translate(-16.567669, -6.375000)" id="Color">
                                        <rect x="0" y="0" width="112" height="119"></rect>
                                    </g>
                                </g>
                            </g>
                            <path d="M28.462406,48.025 C36.0336782,32.1894179 58.426674,32.1611348 65.6035875,24.130273 C70.1821531,28.2880448 77.6946057,32.4801979 80.2737631,41.5942044 C77.6946057,33.6882845 70.1821531,30.8967739 65.6035875,27.288555 C58.426674,34.2579388 36.0336782,34.2824836 28.462406,48.025 Z" id="Shadow" fill-opacity="0.16" fill="#000000" fill-rule="evenodd"></path>
                            <g id="Facial-Hair/-Blank" fill="none" transform="translate(20.815789, 30.600000)"></g>
                            <g id="Top/_Resources/Blank" fill="none" transform="translate(26.338346, 36.125000)"></g>
                        </g>
                    </g>
                </g>
            </g>
        </g>
        <g id="Avataaar/Circle" transform="translate(439.000000, 26.000000)">
            <g id="Circle" stroke-width="1" fill-rule="evenodd" transform="translate(5.136364, 17.000000)">
                <mask id="mask-14" fill="white">
                    <use xlink:href="#path-13"></use>
                </mask>
                <use id="Circle-Background" fill="#E6E6E6" xlink:href="#path-13"></use>
                <g id="Color/Palette/Gray-01" mask="url(#mask-14)" fill="#E6E6E6">
                    <rect id="ðŸ–Color" x="0" y="0" width="103" height="102"></rect>
                </g>
            </g>
            <mask id="mask-16" fill="white">
                <use xlink:href="#path-15"></use>
            </mask>
            <g id="Mask"></g>
            <g id="Avataaar" stroke-width="1" fill-rule="evenodd" mask="url(#mask-16)">
                <g id="Body" transform="translate(13.696970, 15.300000)">
                    <mask id="mask-18" fill="white">
                        <use xlink:href="#path-17"></use>
                    </mask>
                    <use fill="#D0C6AC" xlink:href="#path-17"></use>
                    <g id="Skin/ðŸ‘¶ðŸ¾-02-Dark-Brown" mask="url(#mask-18)" fill="#AE5D29">
                        <g transform="translate(-13.696970, 0.000000)" id="Color">
                            <rect x="0" y="0" width="113" height="104"></rect>
                        </g>
                    </g>
                    <path d="M66.7727273,39.780303 L66.7727273,43.180303 C66.7727273,56.4184011 56.0411284,67.15 42.8030303,67.15 C29.5649322,67.15 18.8333333,56.4184011 18.8333333,43.180303 L18.8333333,33.575 L18.8333333,39.780303 C18.8333333,53.0184011 29.5649322,63.75 42.8030303,63.75 C56.0411284,63.75 66.7727273,53.0184011 66.7727273,39.780303 Z" id="Neck-Shadow" fill-opacity="0.100000001" fill="#000000" mask="url(#mask-18)"></path>
                </g>
                <g id="Clothing/Hoodie" transform="translate(0.000000, 72.250000)">
                    <mask id="mask-20" fill="white">
                        <use xlink:href="#path-19"></use>
                    </mask>
                    <use id="Hoodie" fill="#B7C1DB" fill-rule="evenodd" xlink:href="#path-19"></use>
                    <g id="Color/Palette/Heather" mask="url(#mask-20)" fill="#3C4F5C" fill-rule="evenodd">
                        <rect id="ðŸ–Color" x="0" y="0" width="113" height="47"></rect>
                    </g>
                    <path d="M43.6590909,26.3794136 L43.6590909,47 L40.6628788,47 L40.6628788,24.8460213 C41.6061524,25.405661 42.6090339,25.9187002 43.6590909,26.3794136 Z M72.3371212,24.8460213 L72.3371212,42.0837121 C72.3371212,42.9110933 71.6663963,43.5818182 70.8390152,43.5818182 C70.011634,43.5818182 69.3409091,42.9110933 69.3409091,42.0837121 L69.3409091,26.3794136 C70.3909661,25.9187002 71.3938476,25.405661 72.3371212,24.8460213 Z" id="Straps" fill="#F4F4F4" fill-rule="evenodd" mask="url(#mask-20)"></path>
                    <path d="M56.4942706,29.0545451 C42.1733424,29.0527246 28.0359848,22.2256083 28.0359848,13.8041958 C28.0359848,9.0765053 32.4914848,6.65313977 38.9336933,5.43676931 C35.0450151,6.86817827 32.530303,9.27440514 32.530303,13.2783217 C32.530303,21.9899099 44.4348509,29.0523086 56.4942706,29.0545449 Z M74.0663067,5.43676931 C80.5085152,6.65313977 84.9640152,9.0765053 84.9640152,13.8041958 C84.9640152,22.2256083 70.8266576,29.0527246 56.5057294,29.0545451 C68.5651491,29.0523086 80.469697,21.9899099 80.469697,13.2783217 C80.469697,9.27440514 77.9549849,6.86817827 74.0663067,5.43676931 Z" id="Shadow" fill-opacity="0.16" fill="#000000" fill-rule="evenodd" mask="url(#mask-20)"></path>
                </g>
                <g id="Face" transform="translate(32.530303, 34.850000)" fill="#000000">
                    <g id="Mouth/Default" transform="translate(0.856061, 22.100000)" fill-opacity="0.699999988">
                        <path d="M17.037037,6.47727273 C17.037037,9.81608508 19.7067465,12.5227273 23,12.5227273 L23,12.5227273 C26.2932535,12.5227273 28.962963,9.81608508 28.962963,6.47727273" id="Mouth"></path>
                    </g>
                    <g id="Nose/Default" transform="translate(11.984848, 17.000000)" fill-opacity="0.16">
                        <path d="M6.85714286,3.33333333 C6.85714286,5.1742825 9.15967843,6.66666667 12,6.66666667 L12,6.66666667 C14.8403216,6.66666667 17.1428571,5.1742825 17.1428571,3.33333333" id="Nose"></path>
                    </g>
                    <g id="Eyes/Default-ðŸ˜€" transform="translate(0.000000, 3.400000)" fill-opacity="0.599999964">
                        <ellipse id="Eye" cx="12.8571429" cy="9.5" rx="2.57142857" ry="2.59090909"></ellipse>
                        <ellipse id="Eye" cx="35.1428571" cy="9.5" rx="2.57142857" ry="2.59090909"></ellipse>
                    </g>
                    <g id="Eyebrow/Outline/Default" fill-opacity="0.599999964">
                        <g id="I-Browse" transform="translate(5.142857, 2.500000)">
                            <path d="M1.55581944,4.64940698 C3.23363786,2.35411114 7.83339416,1.0670155 11.7955829,2.01299186 C12.2553106,2.12275229 12.7195142,1.84940005 12.8324107,1.40244255 C12.9453071,0.955485043 12.6641448,0.504175983 12.2044171,0.39441555 C7.60301284,-0.704174121 2.27661412,0.7862493 0.158466274,3.68392636 C-0.115761268,4.05907621 -0.0252584536,4.57932546 0.360609968,4.84593557 C0.74647839,5.11254568 1.2815919,5.02455683 1.55581944,4.64940698 Z" id="Eyebrow" fill-rule="nonzero"></path>
                            <path d="M26.4129623,4.64940698 C28.0907807,2.35411114 32.690537,1.0670155 36.6527258,2.01299186 C37.1124535,2.12275229 37.5766571,1.84940005 37.6895535,1.40244255 C37.80245,0.955485043 37.5212877,0.504175983 37.06156,0.39441555 C32.4601557,-0.704174121 27.133757,0.7862493 25.0156091,3.68392636 C24.7413816,4.05907621 24.8318844,4.57932546 25.2177528,4.84593557 C25.6036212,5.11254568 26.1387348,5.02455683 26.4129623,4.64940698 Z" id="Eyebrow" fill-rule="nonzero" transform="translate(31.285780, 2.516333) scale(-1, 1) translate(-31.285780, -2.516333) "></path>
                        </g>
                    </g>
                </g>
                <g id="Top">
                    <mask id="mask-22" fill="white">
                        <use xlink:href="#path-21"></use>
                    </mask>
                    <g id="Mask"></g>
                    <g id="Top/Short-Hair/Dreads-01" mask="url(#mask-22)">
                        <g transform="translate(-0.428030, 0.000000)">
                            <g id="Facial-Hair/Beard-Light" transform="translate(21.000000, 30.600000)">
                                <mask id="mask-24" fill="white">
                                    <use xlink:href="#path-23"></use>
                                </mask>
                                <use id="Lite-Beard" fill="#331B0C" fill-rule="evenodd" xlink:href="#path-23"></use>
                                <g id="Color/Hair/Black" mask="url(#mask-24)" fill="#2C1B18" fill-rule="evenodd">
                                    <rect id="Color" x="0" y="0" width="72" height="65"></rect>
                                </g>
                            </g>
                            <g id="Hair" stroke-width="1" fill-rule="evenodd" transform="translate(0.428571, 0.000000)">
                                <mask id="mask-26" fill="white">
                                    <use xlink:href="#path-25"></use>
                                </mask>
                                <use id="Dreads-With-Cut" fill="#2E3257" xlink:href="#path-25"></use>
                                <g id="Color/Hair/Black" mask="url(#mask-26)" fill="#2C1B18">
                                    <rect id="Color" x="0" y="0" width="113" height="119"></rect>
                                </g>
                            </g>
                            <g id="Top/_Resources/Blank" transform="translate(26.571429, 36.125000)"></g>
                        </g>
                    </g>
                </g>
            </g>
        </g>
        <text id="Goals" font-family="OpenSans-SemiBold, Open Sans" font-size="14" font-weight="500" fill="#555555">
            <tspan x="49" y="208">Goals</tspan>
        </text>
        <text id="Goals-Copy" font-family="OpenSans-SemiBold, Open Sans" font-size="14" font-weight="500" fill="#555555">
            <tspan x="439" y="208">Goals</tspan>
        </text>
        <text id="Needs" font-family="OpenSans-SemiBold, Open Sans" font-size="14" font-weight="500" fill="#555555">
            <tspan x="49" y="320">Needs</tspan>
        </text>
        <text id="Needs-Copy" font-family="OpenSans-SemiBold, Open Sans" font-size="14" font-weight="500" fill="#555555">
            <tspan x="439" y="339">Needs</tspan>
        </text>
        <text id="--Modernize-legacy-a" font-family="OpenSans-Regular, Open Sans" font-size="14" font-weight="normal" fill="#555555">
            <tspan x="65" y="232">- Modernize legacy apps.</tspan>
            <tspan x="65" y="251">- Create cloud-native applications.</tspan>
            <tspan x="65" y="270">- Deploy and update applications into cloud </tspan>
            <tspan x="65" y="289">environments.</tspan>
        </text>
        <text id="--Find-cloud-scalabl" font-family="OpenSans-Regular, Open Sans" font-size="14" font-weight="normal" fill="#555555">
            <tspan x="455" y="232">- Find cloud scalable and secure enterprise </tspan>
            <tspan x="455" y="251">cloud solutions </tspan>
            <tspan x="455" y="270">- Set up and maintain code and container </tspan>
            <tspan x="455" y="289">repositories </tspan>
            <tspan x="455" y="308">- Manage critical applications</tspan>
        </text>
        <text id="--Develop-and-test-c" font-family="OpenSans-Regular, Open Sans" font-size="14" font-weight="normal" fill="#555555">
            <tspan x="65" y="344">- Develop and test code before handling over </tspan>
            <tspan x="65" y="363">to operations team.</tspan>
            <tspan x="65" y="382">- Communicate with other developers on the </tspan>
            <tspan x="65" y="401">team</tspan>
        </text>
        <text id="--Security-of-cluste" font-family="OpenSans-Regular, Open Sans" font-size="14" font-weight="normal" fill="#555555">
            <tspan x="455" y="363">- Security of clusters and appliactions</tspan>
            <tspan x="455" y="382">- Follow regulatory standards</tspan>
            <tspan x="455" y="401">- Consistent and scalable infrastructure</tspan>
            <tspan x="455" y="420">- Effective monitoring and logging tools </tspan>
        </text>
    </g>
</svg>