<svg width="496" height="283" viewBox="0 0 496 283" fill="none" xmlns="http://www.w3.org/2000/svg">
<rect width="496" height="283" fill="white"/>
<rect y="31" width="80" height="80" rx="8" fill="#3F1043"/>
<path d="M18.2061 127.854L17.7549 130.179H19.6895V131.061H17.5908L17.0166 134H16.0801L16.6543 131.061H14.583L14.0225 134H13.0928L13.6396 131.061H11.8486V130.179H13.8105L14.2754 127.854H12.3818V126.986H14.4258L14.9863 124.006H15.9365L15.376 126.986H17.4609L18.0352 124.006H18.9512L18.377 126.986H20.1816V127.854H18.2061ZM14.7471 130.179H16.8184L17.2695 127.854H15.1982L14.7471 130.179ZM27.4277 126.357C27.4277 126.995 27.2477 127.517 26.8877 127.923C26.5322 128.328 26.0264 128.6 25.3701 128.736V128.791C26.1722 128.891 26.7669 129.146 27.1543 129.557C27.5417 129.967 27.7354 130.505 27.7354 131.17C27.7354 132.122 27.4049 132.856 26.7441 133.371C26.0833 133.882 25.1445 134.137 23.9277 134.137C23.3991 134.137 22.9137 134.096 22.4717 134.014C22.0342 133.936 21.6081 133.797 21.1934 133.597V132.517C21.6263 132.731 22.0866 132.895 22.5742 133.009C23.0664 133.118 23.5312 133.173 23.9688 133.173C25.696 133.173 26.5596 132.496 26.5596 131.143C26.5596 129.93 25.6071 129.324 23.7021 129.324H22.7178V128.347H23.7158C24.4951 128.347 25.1126 128.176 25.5684 127.834C26.0241 127.488 26.252 127.009 26.252 126.398C26.252 125.911 26.0833 125.528 25.7461 125.25C25.4134 124.972 24.96 124.833 24.3857 124.833C23.9482 124.833 23.5358 124.892 23.1484 125.011C22.7611 125.129 22.319 125.348 21.8223 125.667L21.248 124.901C21.6582 124.578 22.1299 124.325 22.6631 124.143C23.2008 123.956 23.766 123.862 24.3584 123.862C25.3291 123.862 26.0833 124.086 26.6211 124.532C27.1589 124.974 27.4277 125.583 27.4277 126.357ZM31.0986 134H29.9365V124.006H35.5078V125.038H31.0986V128.695H35.2412V129.728H31.0986V134ZM40.6826 134H39.5752V126.877C39.5752 126.285 39.5934 125.724 39.6299 125.195C39.5342 125.291 39.4271 125.391 39.3086 125.496C39.1901 125.601 38.6478 126.045 37.6816 126.829L37.0801 126.05L39.7256 124.006H40.6826V134ZM51.1143 128.989C51.1143 130.716 50.8408 132.006 50.2939 132.858C49.7516 133.711 48.9199 134.137 47.7988 134.137C46.7233 134.137 45.9053 133.701 45.3447 132.831C44.7842 131.956 44.5039 130.675 44.5039 128.989C44.5039 127.248 44.7751 125.956 45.3174 125.113C45.8597 124.27 46.6868 123.849 47.7988 123.849C48.8835 123.849 49.7061 124.288 50.2666 125.168C50.8317 126.048 51.1143 127.321 51.1143 128.989ZM45.6523 128.989C45.6523 130.443 45.8232 131.503 46.165 132.168C46.5068 132.829 47.0514 133.159 47.7988 133.159C48.5553 133.159 49.1022 132.824 49.4395 132.154C49.7812 131.48 49.9521 130.425 49.9521 128.989C49.9521 127.554 49.7812 126.503 49.4395 125.838C49.1022 125.168 48.5553 124.833 47.7988 124.833C47.0514 124.833 46.5068 125.163 46.165 125.824C45.8232 126.48 45.6523 127.535 45.6523 128.989ZM59.543 131.703H58.0596V134H56.9727V131.703H52.1123V130.712L56.8564 123.951H58.0596V130.671H59.543V131.703ZM56.9727 130.671V127.349C56.9727 126.697 56.9954 125.961 57.041 125.141H56.9863C56.7676 125.578 56.5625 125.94 56.3711 126.228L53.2471 130.671H56.9727ZM66.707 126.357C66.707 126.995 66.527 127.517 66.167 127.923C65.8115 128.328 65.3057 128.6 64.6494 128.736V128.791C65.4515 128.891 66.0462 129.146 66.4336 129.557C66.821 129.967 67.0146 130.505 67.0146 131.17C67.0146 132.122 66.6842 132.856 66.0234 133.371C65.3626 133.882 64.4238 134.137 63.207 134.137C62.6784 134.137 62.193 134.096 61.751 134.014C61.3135 133.936 60.8874 133.797 60.4727 133.597V132.517C60.9056 132.731 61.3659 132.895 61.8535 133.009C62.3457 133.118 62.8105 133.173 63.248 133.173C64.9753 133.173 65.8389 132.496 65.8389 131.143C65.8389 129.93 64.8864 129.324 62.9814 129.324H61.9971V128.347H62.9951C63.7744 128.347 64.3919 128.176 64.8477 127.834C65.3034 127.488 65.5312 127.009 65.5312 126.398C65.5312 125.911 65.3626 125.528 65.0254 125.25C64.6927 124.972 64.2393 124.833 63.665 124.833C63.2275 124.833 62.8151 124.892 62.4277 125.011C62.0404 125.129 61.5983 125.348 61.1016 125.667L60.5273 124.901C60.9375 124.578 61.4092 124.325 61.9424 124.143C62.4801 123.956 63.0452 123.862 63.6377 123.862C64.6084 123.862 65.3626 124.086 65.9004 124.532C66.4382 124.974 66.707 125.583 66.707 126.357Z" fill="#5F5F5F"/>
<rect x="104" y="31" width="80" height="80" rx="8" fill="#6C4163"/>
<path d="M121.706 127.854L121.255 130.179H123.189V131.061H121.091L120.517 134H119.58L120.154 131.061H118.083L117.522 134H116.593L117.14 131.061H115.349V130.179H117.311L117.775 127.854H115.882V126.986H117.926L118.486 124.006H119.437L118.876 126.986H120.961L121.535 124.006H122.451L121.877 126.986H123.682V127.854H121.706ZM118.247 130.179H120.318L120.77 127.854H118.698L118.247 130.179ZM124.851 129.728C124.851 127.763 125.231 126.296 125.992 125.325C126.758 124.35 127.888 123.862 129.383 123.862C129.898 123.862 130.303 123.906 130.6 123.992V124.97C130.249 124.856 129.848 124.799 129.396 124.799C128.326 124.799 127.507 125.134 126.942 125.804C126.377 126.469 126.067 127.517 126.013 128.948H126.095C126.596 128.164 127.389 127.772 128.474 127.772C129.371 127.772 130.078 128.044 130.593 128.586C131.112 129.128 131.372 129.864 131.372 130.794C131.372 131.833 131.087 132.651 130.518 133.248C129.952 133.84 129.187 134.137 128.221 134.137C127.186 134.137 126.366 133.749 125.76 132.975C125.154 132.195 124.851 131.113 124.851 129.728ZM128.207 133.173C128.854 133.173 129.355 132.97 129.711 132.564C130.071 132.154 130.251 131.564 130.251 130.794C130.251 130.133 130.085 129.614 129.752 129.235C129.419 128.857 128.923 128.668 128.262 128.668C127.852 128.668 127.476 128.752 127.134 128.921C126.792 129.09 126.519 129.322 126.313 129.618C126.113 129.914 126.013 130.222 126.013 130.541C126.013 131.01 126.104 131.448 126.286 131.854C126.468 132.259 126.726 132.58 127.059 132.817C127.396 133.054 127.779 133.173 128.207 133.173ZM137.716 124.901C136.618 124.901 135.749 125.268 135.111 126.002C134.478 126.731 134.161 127.731 134.161 129.003C134.161 130.311 134.466 131.323 135.077 132.038C135.692 132.749 136.567 133.104 137.702 133.104C138.399 133.104 139.195 132.979 140.088 132.729V133.747C139.395 134.007 138.541 134.137 137.524 134.137C136.052 134.137 134.915 133.69 134.113 132.797C133.316 131.904 132.917 130.634 132.917 128.989C132.917 127.959 133.108 127.057 133.491 126.282C133.879 125.507 134.435 124.91 135.159 124.491C135.888 124.072 136.745 123.862 137.729 123.862C138.778 123.862 139.694 124.054 140.478 124.437L139.985 125.435C139.229 125.079 138.472 124.901 137.716 124.901ZM148.619 131.703H147.136V134H146.049V131.703H141.188V130.712L145.933 123.951H147.136V130.671H148.619V131.703ZM146.049 130.671V127.349C146.049 126.697 146.072 125.961 146.117 125.141H146.062C145.844 125.578 145.639 125.94 145.447 126.228L142.323 130.671H146.049ZM153.794 134H152.687V126.877C152.687 126.285 152.705 125.724 152.741 125.195C152.646 125.291 152.538 125.391 152.42 125.496C152.301 125.601 151.759 126.045 150.793 126.829L150.191 126.05L152.837 124.006H153.794V134ZM157.718 129.728C157.718 127.763 158.098 126.296 158.859 125.325C159.625 124.35 160.755 123.862 162.25 123.862C162.765 123.862 163.171 123.906 163.467 123.992V124.97C163.116 124.856 162.715 124.799 162.264 124.799C161.193 124.799 160.375 125.134 159.81 125.804C159.244 126.469 158.935 127.517 158.88 128.948H158.962C159.463 128.164 160.256 127.772 161.341 127.772C162.239 127.772 162.945 128.044 163.46 128.586C163.979 129.128 164.239 129.864 164.239 130.794C164.239 131.833 163.954 132.651 163.385 133.248C162.82 133.84 162.054 134.137 161.088 134.137C160.053 134.137 159.233 133.749 158.627 132.975C158.021 132.195 157.718 131.113 157.718 129.728ZM161.074 133.173C161.721 133.173 162.223 132.97 162.578 132.564C162.938 132.154 163.118 131.564 163.118 130.794C163.118 130.133 162.952 129.614 162.619 129.235C162.286 128.857 161.79 128.668 161.129 128.668C160.719 128.668 160.343 128.752 160.001 128.921C159.659 129.09 159.386 129.322 159.181 129.618C158.98 129.914 158.88 130.222 158.88 130.541C158.88 131.01 158.971 131.448 159.153 131.854C159.336 132.259 159.593 132.58 159.926 132.817C160.263 133.054 160.646 133.173 161.074 133.173ZM171.807 126.357C171.807 126.995 171.627 127.517 171.267 127.923C170.911 128.328 170.405 128.6 169.749 128.736V128.791C170.551 128.891 171.146 129.146 171.533 129.557C171.921 129.967 172.114 130.505 172.114 131.17C172.114 132.122 171.784 132.856 171.123 133.371C170.462 133.882 169.523 134.137 168.307 134.137C167.778 134.137 167.293 134.096 166.851 134.014C166.413 133.936 165.987 133.797 165.572 133.597V132.517C166.005 132.731 166.465 132.895 166.953 133.009C167.445 133.118 167.91 133.173 168.348 133.173C170.075 133.173 170.938 132.496 170.938 131.143C170.938 129.93 169.986 129.324 168.081 129.324H167.097V128.347H168.095C168.874 128.347 169.492 128.176 169.947 127.834C170.403 127.488 170.631 127.009 170.631 126.398C170.631 125.911 170.462 125.528 170.125 125.25C169.792 124.972 169.339 124.833 168.765 124.833C168.327 124.833 167.915 124.892 167.527 125.011C167.14 125.129 166.698 125.348 166.201 125.667L165.627 124.901C166.037 124.578 166.509 124.325 167.042 124.143C167.58 123.956 168.145 123.862 168.737 123.862C169.708 123.862 170.462 124.086 171 124.532C171.538 124.974 171.807 125.583 171.807 126.357Z" fill="#5F5F5F"/>
<rect x="208" y="31" width="80" height="80" rx="8" fill="#A24890"/>
<path d="M225.706 127.854L225.255 130.179H227.189V131.061H225.091L224.517 134H223.58L224.154 131.061H222.083L221.522 134H220.593L221.14 131.061H219.349V130.179H221.311L221.775 127.854H219.882V126.986H221.926L222.486 124.006H223.437L222.876 126.986H224.961L225.535 124.006H226.451L225.877 126.986H227.682V127.854H225.706ZM222.247 130.179H224.318L224.77 127.854H222.698L222.247 130.179ZM235.707 134L234.463 130.821H230.457L229.227 134H228.051L232.002 123.965H232.979L236.91 134H235.707ZM234.101 129.775L232.938 126.679C232.788 126.287 232.633 125.806 232.474 125.236C232.373 125.674 232.23 126.155 232.043 126.679L230.867 129.775H234.101ZM244.163 134H237.594V133.022L240.226 130.377C241.028 129.566 241.556 128.987 241.812 128.641C242.067 128.294 242.258 127.957 242.386 127.629C242.513 127.301 242.577 126.948 242.577 126.569C242.577 126.036 242.415 125.615 242.092 125.305C241.768 124.99 241.319 124.833 240.745 124.833C240.33 124.833 239.936 124.901 239.562 125.038C239.193 125.175 238.781 125.423 238.325 125.783L237.724 125.011C238.644 124.245 239.647 123.862 240.731 123.862C241.67 123.862 242.406 124.104 242.939 124.587C243.473 125.065 243.739 125.71 243.739 126.521C243.739 127.155 243.562 127.782 243.206 128.401C242.851 129.021 242.185 129.805 241.21 130.753L239.022 132.893V132.947H244.163V134ZM252.646 131.703H251.163V134H250.076V131.703H245.216V130.712L249.96 123.951H251.163V130.671H252.646V131.703ZM250.076 130.671V127.349C250.076 126.697 250.099 125.961 250.145 125.141H250.09C249.871 125.578 249.666 125.94 249.475 126.228L246.351 130.671H250.076ZM256.926 123.862C257.837 123.862 258.56 124.074 259.093 124.498C259.626 124.922 259.893 125.507 259.893 126.255C259.893 126.747 259.74 127.196 259.435 127.602C259.129 128.007 258.642 128.376 257.972 128.709C258.783 129.096 259.359 129.504 259.701 129.933C260.043 130.356 260.214 130.849 260.214 131.409C260.214 132.239 259.924 132.902 259.346 133.398C258.767 133.891 257.974 134.137 256.967 134.137C255.9 134.137 255.08 133.904 254.506 133.439C253.932 132.97 253.645 132.307 253.645 131.45C253.645 130.306 254.342 129.415 255.736 128.777C255.107 128.422 254.656 128.039 254.383 127.629C254.109 127.214 253.973 126.752 253.973 126.241C253.973 125.517 254.239 124.94 254.772 124.512C255.31 124.079 256.028 123.862 256.926 123.862ZM254.766 131.478C254.766 132.024 254.955 132.451 255.333 132.756C255.716 133.061 256.251 133.214 256.939 133.214C257.618 133.214 258.147 133.054 258.525 132.735C258.904 132.416 259.093 131.979 259.093 131.423C259.093 130.981 258.915 130.589 258.56 130.247C258.204 129.901 257.584 129.566 256.7 129.242C256.021 129.534 255.529 129.857 255.224 130.213C254.918 130.564 254.766 130.985 254.766 131.478ZM256.912 124.785C256.342 124.785 255.896 124.922 255.572 125.195C255.249 125.469 255.087 125.833 255.087 126.289C255.087 126.708 255.221 127.068 255.49 127.369C255.759 127.67 256.256 127.971 256.98 128.271C257.632 127.998 258.092 127.704 258.361 127.39C258.635 127.075 258.771 126.708 258.771 126.289C258.771 125.829 258.605 125.464 258.272 125.195C257.944 124.922 257.491 124.785 256.912 124.785ZM268.198 128.271C268.198 132.182 266.685 134.137 263.659 134.137C263.131 134.137 262.711 134.091 262.401 134V133.022C262.766 133.141 263.181 133.2 263.646 133.2C264.739 133.2 265.564 132.863 266.12 132.188C266.681 131.509 266.986 130.47 267.036 129.071H266.954C266.703 129.45 266.371 129.739 265.956 129.939C265.541 130.135 265.074 130.233 264.555 130.233C263.671 130.233 262.969 129.969 262.449 129.44C261.93 128.912 261.67 128.174 261.67 127.226C261.67 126.187 261.959 125.366 262.538 124.765C263.121 124.163 263.887 123.862 264.835 123.862C265.514 123.862 266.106 124.038 266.612 124.389C267.123 124.735 267.515 125.243 267.788 125.913C268.062 126.578 268.198 127.365 268.198 128.271ZM264.835 124.833C264.183 124.833 263.68 125.043 263.324 125.462C262.969 125.881 262.791 126.465 262.791 127.212C262.791 127.868 262.955 128.385 263.283 128.764C263.611 129.137 264.11 129.324 264.78 129.324C265.195 129.324 265.576 129.24 265.922 129.071C266.273 128.903 266.549 128.673 266.749 128.381C266.95 128.089 267.05 127.784 267.05 127.465C267.05 126.986 266.956 126.544 266.77 126.139C266.583 125.733 266.321 125.414 265.983 125.182C265.651 124.949 265.268 124.833 264.835 124.833ZM276.265 128.989C276.265 130.716 275.991 132.006 275.444 132.858C274.902 133.711 274.07 134.137 272.949 134.137C271.874 134.137 271.056 133.701 270.495 132.831C269.935 131.956 269.654 130.675 269.654 128.989C269.654 127.248 269.925 125.956 270.468 125.113C271.01 124.27 271.837 123.849 272.949 123.849C274.034 123.849 274.856 124.288 275.417 125.168C275.982 126.048 276.265 127.321 276.265 128.989ZM270.803 128.989C270.803 130.443 270.974 131.503 271.315 132.168C271.657 132.829 272.202 133.159 272.949 133.159C273.706 133.159 274.253 132.824 274.59 132.154C274.932 131.48 275.103 130.425 275.103 128.989C275.103 127.554 274.932 126.503 274.59 125.838C274.253 125.168 273.706 124.833 272.949 124.833C272.202 124.833 271.657 125.163 271.315 125.824C270.974 126.48 270.803 127.535 270.803 128.989Z" fill="#5F5F5F"/>
<rect x="312" y="31" width="80" height="80" rx="8" fill="#A18EA3"/>
<path d="M329.206 127.854L328.755 130.179H330.689V131.061H328.591L328.017 134H327.08L327.654 131.061H325.583L325.022 134H324.093L324.64 131.061H322.849V130.179H324.811L325.275 127.854H323.382V126.986H325.426L325.986 124.006H326.937L326.376 126.986H328.461L329.035 124.006H329.951L329.377 126.986H331.182V127.854H329.206ZM325.747 130.179H327.818L328.27 127.854H326.198L325.747 130.179ZM339.207 134L337.963 130.821H333.957L332.727 134H331.551L335.502 123.965H336.479L340.41 134H339.207ZM337.601 129.775L336.438 126.679C336.288 126.287 336.133 125.806 335.974 125.236C335.873 125.674 335.73 126.155 335.543 126.679L334.367 129.775H337.601ZM345.298 134H344.19V126.877C344.19 126.285 344.209 125.724 344.245 125.195C344.149 125.291 344.042 125.391 343.924 125.496C343.805 125.601 343.263 126.045 342.297 126.829L341.695 126.05L344.341 124.006H345.298V134ZM352.414 123.862C353.326 123.862 354.048 124.074 354.581 124.498C355.114 124.922 355.381 125.507 355.381 126.255C355.381 126.747 355.228 127.196 354.923 127.602C354.618 128.007 354.13 128.376 353.46 128.709C354.271 129.096 354.848 129.504 355.189 129.933C355.531 130.356 355.702 130.849 355.702 131.409C355.702 132.239 355.413 132.902 354.834 133.398C354.255 133.891 353.462 134.137 352.455 134.137C351.389 134.137 350.568 133.904 349.994 133.439C349.42 132.97 349.133 132.307 349.133 131.45C349.133 130.306 349.83 129.415 351.225 128.777C350.596 128.422 350.145 128.039 349.871 127.629C349.598 127.214 349.461 126.752 349.461 126.241C349.461 125.517 349.728 124.94 350.261 124.512C350.799 124.079 351.516 123.862 352.414 123.862ZM350.254 131.478C350.254 132.024 350.443 132.451 350.821 132.756C351.204 133.061 351.74 133.214 352.428 133.214C353.107 133.214 353.635 133.054 354.014 132.735C354.392 132.416 354.581 131.979 354.581 131.423C354.581 130.981 354.403 130.589 354.048 130.247C353.692 129.901 353.073 129.566 352.188 129.242C351.509 129.534 351.017 129.857 350.712 130.213C350.407 130.564 350.254 130.985 350.254 131.478ZM352.4 124.785C351.831 124.785 351.384 124.922 351.061 125.195C350.737 125.469 350.575 125.833 350.575 126.289C350.575 126.708 350.71 127.068 350.979 127.369C351.247 127.67 351.744 127.971 352.469 128.271C353.12 127.998 353.581 127.704 353.85 127.39C354.123 127.075 354.26 126.708 354.26 126.289C354.26 125.829 354.093 125.464 353.761 125.195C353.433 124.922 352.979 124.785 352.4 124.785ZM363.379 134H357.808V124.006H363.379V125.038H358.97V128.258H363.112V129.283H358.97V132.961H363.379V134ZM371.883 134L370.639 130.821H366.633L365.402 134H364.227L368.178 123.965H369.155L373.086 134H371.883ZM370.276 129.775L369.114 126.679C368.964 126.287 368.809 125.806 368.649 125.236C368.549 125.674 368.406 126.155 368.219 126.679L367.043 129.775H370.276ZM379.963 126.357C379.963 126.995 379.783 127.517 379.423 127.923C379.067 128.328 378.562 128.6 377.905 128.736V128.791C378.707 128.891 379.302 129.146 379.689 129.557C380.077 129.967 380.271 130.505 380.271 131.17C380.271 132.122 379.94 132.856 379.279 133.371C378.618 133.882 377.68 134.137 376.463 134.137C375.934 134.137 375.449 134.096 375.007 134.014C374.569 133.936 374.143 133.797 373.729 133.597V132.517C374.161 132.731 374.622 132.895 375.109 133.009C375.602 133.118 376.066 133.173 376.504 133.173C378.231 133.173 379.095 132.496 379.095 131.143C379.095 129.93 378.142 129.324 376.237 129.324H375.253V128.347H376.251C377.03 128.347 377.648 128.176 378.104 127.834C378.559 127.488 378.787 127.009 378.787 126.398C378.787 125.911 378.618 125.528 378.281 125.25C377.949 124.972 377.495 124.833 376.921 124.833C376.483 124.833 376.071 124.892 375.684 125.011C375.296 125.129 374.854 125.348 374.357 125.667L373.783 124.901C374.193 124.578 374.665 124.325 375.198 124.143C375.736 123.956 376.301 123.862 376.894 123.862C377.864 123.862 378.618 124.086 379.156 124.532C379.694 124.974 379.963 125.583 379.963 126.357Z" fill="#5F5F5F"/>
<rect x="416" y="31" width="80" height="80" rx="8" fill="#CFC3D0"/>
<path d="M432.206 127.854L431.755 130.179H433.689V131.061H431.591L431.017 134H430.08L430.654 131.061H428.583L428.022 134H427.093L427.64 131.061H425.849V130.179H427.811L428.275 127.854H426.382V126.986H428.426L428.986 124.006H429.937L429.376 126.986H431.461L432.035 124.006H432.951L432.377 126.986H434.182V127.854H432.206ZM428.747 130.179H430.818L431.27 127.854H429.198L428.747 130.179ZM440.204 124.901C439.106 124.901 438.238 125.268 437.6 126.002C436.966 126.731 436.649 127.731 436.649 129.003C436.649 130.311 436.955 131.323 437.565 132.038C438.181 132.749 439.056 133.104 440.19 133.104C440.888 133.104 441.683 132.979 442.576 132.729V133.747C441.883 134.007 441.029 134.137 440.013 134.137C438.541 134.137 437.404 133.69 436.602 132.797C435.804 131.904 435.405 130.634 435.405 128.989C435.405 127.959 435.597 127.057 435.979 126.282C436.367 125.507 436.923 124.91 437.647 124.491C438.377 124.072 439.233 123.862 440.218 123.862C441.266 123.862 442.182 124.054 442.966 124.437L442.474 125.435C441.717 125.079 440.961 124.901 440.204 124.901ZM445.919 134H444.757V124.006H450.328V125.038H445.919V128.695H450.062V129.728H445.919V134ZM456.269 124.901C455.17 124.901 454.302 125.268 453.664 126.002C453.031 126.731 452.714 127.731 452.714 129.003C452.714 130.311 453.019 131.323 453.63 132.038C454.245 132.749 455.12 133.104 456.255 133.104C456.952 133.104 457.747 132.979 458.641 132.729V133.747C457.948 134.007 457.093 134.137 456.077 134.137C454.605 134.137 453.468 133.69 452.666 132.797C451.868 131.904 451.47 130.634 451.47 128.989C451.47 127.959 451.661 127.057 452.044 126.282C452.431 125.507 452.987 124.91 453.712 124.491C454.441 124.072 455.298 123.862 456.282 123.862C457.33 123.862 458.246 124.054 459.03 124.437L458.538 125.435C457.782 125.079 457.025 124.901 456.269 124.901ZM466.324 126.357C466.324 126.995 466.144 127.517 465.784 127.923C465.429 128.328 464.923 128.6 464.267 128.736V128.791C465.069 128.891 465.663 129.146 466.051 129.557C466.438 129.967 466.632 130.505 466.632 131.17C466.632 132.122 466.301 132.856 465.641 133.371C464.98 133.882 464.041 134.137 462.824 134.137C462.296 134.137 461.81 134.096 461.368 134.014C460.931 133.936 460.505 133.797 460.09 133.597V132.517C460.523 132.731 460.983 132.895 461.471 133.009C461.963 133.118 462.428 133.173 462.865 133.173C464.592 133.173 465.456 132.496 465.456 131.143C465.456 129.93 464.504 129.324 462.599 129.324H461.614V128.347H462.612C463.392 128.347 464.009 128.176 464.465 127.834C464.921 127.488 465.148 127.009 465.148 126.398C465.148 125.911 464.98 125.528 464.643 125.25C464.31 124.972 463.856 124.833 463.282 124.833C462.845 124.833 462.432 124.892 462.045 125.011C461.658 125.129 461.215 125.348 460.719 125.667L460.145 124.901C460.555 124.578 461.026 124.325 461.56 124.143C462.097 123.956 462.662 123.862 463.255 123.862C464.226 123.862 464.98 124.086 465.518 124.532C466.055 124.974 466.324 125.583 466.324 126.357ZM476.811 128.907C476.811 130.557 476.362 131.819 475.464 132.694C474.571 133.565 473.283 134 471.602 134H468.833V124.006H471.896C473.45 124.006 474.657 124.437 475.519 125.298C476.38 126.159 476.811 127.362 476.811 128.907ZM475.58 128.948C475.58 127.645 475.252 126.663 474.596 126.002C473.944 125.341 472.973 125.011 471.684 125.011H469.995V132.995H471.41C472.796 132.995 473.837 132.656 474.534 131.977C475.231 131.293 475.58 130.284 475.58 128.948ZM484.979 128.989C484.979 130.716 484.706 132.006 484.159 132.858C483.617 133.711 482.785 134.137 481.664 134.137C480.589 134.137 479.771 133.701 479.21 132.831C478.649 131.956 478.369 130.675 478.369 128.989C478.369 127.248 478.64 125.956 479.183 125.113C479.725 124.27 480.552 123.849 481.664 123.849C482.749 123.849 483.571 124.288 484.132 125.168C484.697 126.048 484.979 127.321 484.979 128.989ZM479.518 128.989C479.518 130.443 479.688 131.503 480.03 132.168C480.372 132.829 480.917 133.159 481.664 133.159C482.421 133.159 482.967 132.824 483.305 132.154C483.646 131.48 483.817 130.425 483.817 128.989C483.817 127.554 483.646 126.503 483.305 125.838C482.967 125.168 482.421 124.833 481.664 124.833C480.917 124.833 480.372 125.163 480.03 125.824C479.688 126.48 479.518 127.535 479.518 128.989Z" fill="#5F5F5F"/>
<rect y="174" width="80" height="80" rx="8" fill="#D71E24"/>
<path d="M16.7061 270.854L16.2549 273.179H18.1895V274.061H16.0908L15.5166 277H14.5801L15.1543 274.061H13.083L12.5225 277H11.5928L12.1396 274.061H10.3486V273.179H12.3105L12.7754 270.854H10.8818V269.986H12.9258L13.4863 267.006H14.4365L13.876 269.986H15.9609L16.5352 267.006H17.4512L16.877 269.986H18.6816V270.854H16.7061ZM13.2471 273.179H15.3184L15.7695 270.854H13.6982L13.2471 273.179ZM28.4023 271.907C28.4023 273.557 27.9535 274.819 27.0557 275.694C26.1624 276.565 24.875 277 23.1934 277H20.4248V267.006H23.4873C25.0413 267.006 26.249 267.437 27.1104 268.298C27.9717 269.159 28.4023 270.362 28.4023 271.907ZM27.1719 271.948C27.1719 270.645 26.8438 269.663 26.1875 269.002C25.5358 268.341 24.5651 268.011 23.2754 268.011H21.5869V275.995H23.002C24.3874 275.995 25.4287 275.656 26.126 274.977C26.8232 274.293 27.1719 273.284 27.1719 271.948ZM31.2119 277L35.3545 268.052H29.9062V267.006H36.5576V267.915L32.4697 277H31.2119ZM42.1631 277H41.0557V269.877C41.0557 269.285 41.0739 268.724 41.1104 268.195C41.0146 268.291 40.9076 268.391 40.7891 268.496C40.6706 268.601 40.1283 269.045 39.1621 269.829L38.5605 269.05L41.2061 267.006H42.1631V277ZM52.2324 277H46.6611V267.006H52.2324V268.038H47.8232V271.258H51.9658V272.283H47.8232V275.961H52.2324V277ZM60.333 277H53.7637V276.022L56.3955 273.377C57.1976 272.566 57.7262 271.987 57.9814 271.641C58.2367 271.294 58.4281 270.957 58.5557 270.629C58.6833 270.301 58.7471 269.948 58.7471 269.569C58.7471 269.036 58.5853 268.615 58.2617 268.305C57.9382 267.99 57.4893 267.833 56.915 267.833C56.5003 267.833 56.1061 267.901 55.7324 268.038C55.3633 268.175 54.9508 268.423 54.4951 268.783L53.8936 268.011C54.8141 267.245 55.8167 266.862 56.9014 266.862C57.8402 266.862 58.5762 267.104 59.1094 267.587C59.6426 268.065 59.9092 268.71 59.9092 269.521C59.9092 270.155 59.7314 270.782 59.376 271.401C59.0205 272.021 58.3551 272.805 57.3799 273.753L55.1924 275.893V275.947H60.333V277ZM68.8164 274.703H67.333V277H66.2461V274.703H61.3857V273.712L66.1299 266.951H67.333V273.671H68.8164V274.703ZM66.2461 273.671V270.349C66.2461 269.697 66.2689 268.961 66.3145 268.141H66.2598C66.041 268.578 65.8359 268.94 65.6445 269.228L62.5205 273.671H66.2461Z" fill="#5F5F5F"/>
<rect x="104" y="174" width="80" height="80" rx="8" fill="#DC4B33"/>
<path d="M119.706 270.854L119.255 273.179H121.189V274.061H119.091L118.517 277H117.58L118.154 274.061H116.083L115.522 277H114.593L115.14 274.061H113.349V273.179H115.311L115.775 270.854H113.882V269.986H115.926L116.486 267.006H117.437L116.876 269.986H118.961L119.535 267.006H120.451L119.877 269.986H121.682V270.854H119.706ZM116.247 273.179H118.318L118.77 270.854H116.698L116.247 273.179ZM131.402 271.907C131.402 273.557 130.953 274.819 130.056 275.694C129.162 276.565 127.875 277 126.193 277H123.425V267.006H126.487C128.041 267.006 129.249 267.437 130.11 268.298C130.972 269.159 131.402 270.362 131.402 271.907ZM130.172 271.948C130.172 270.645 129.844 269.663 129.188 269.002C128.536 268.341 127.565 268.011 126.275 268.011H124.587V275.995H126.002C127.387 275.995 128.429 275.656 129.126 274.977C129.823 274.293 130.172 273.284 130.172 271.948ZM137.917 267.901C136.819 267.901 135.951 268.268 135.312 269.002C134.679 269.731 134.362 270.731 134.362 272.003C134.362 273.311 134.668 274.323 135.278 275.038C135.894 275.749 136.769 276.104 137.903 276.104C138.601 276.104 139.396 275.979 140.289 275.729V276.747C139.596 277.007 138.742 277.137 137.726 277.137C136.254 277.137 135.117 276.69 134.314 275.797C133.517 274.904 133.118 273.634 133.118 271.989C133.118 270.959 133.31 270.057 133.692 269.282C134.08 268.507 134.636 267.91 135.36 267.491C136.09 267.072 136.946 266.862 137.931 266.862C138.979 266.862 139.895 267.054 140.679 267.437L140.187 268.435C139.43 268.079 138.674 267.901 137.917 267.901ZM148.82 274.703H147.337V277H146.25V274.703H141.39V273.712L146.134 266.951H147.337V273.671H148.82V274.703ZM146.25 273.671V270.349C146.25 269.697 146.273 268.961 146.318 268.141H146.264C146.045 268.578 145.84 268.94 145.648 269.228L142.524 273.671H146.25ZM150.481 267.006H153.305C154.631 267.006 155.59 267.204 156.183 267.601C156.775 267.997 157.071 268.624 157.071 269.48C157.071 270.073 156.905 270.563 156.572 270.95C156.244 271.333 155.763 271.581 155.13 271.695V271.764C156.647 272.023 157.406 272.821 157.406 274.156C157.406 275.049 157.103 275.747 156.497 276.248C155.896 276.749 155.052 277 153.968 277H150.481V267.006ZM151.644 271.285H153.558C154.378 271.285 154.968 271.158 155.328 270.902C155.688 270.643 155.868 270.207 155.868 269.597C155.868 269.036 155.668 268.633 155.267 268.387C154.866 268.136 154.228 268.011 153.353 268.011H151.644V271.285ZM151.644 272.27V276.009H153.729C154.535 276.009 155.141 275.854 155.547 275.544C155.957 275.229 156.162 274.74 156.162 274.074C156.162 273.454 155.952 272.999 155.533 272.707C155.118 272.415 154.485 272.27 153.633 272.27H151.644ZM165.062 269.357C165.062 269.995 164.882 270.517 164.522 270.923C164.167 271.328 163.661 271.6 163.005 271.736V271.791C163.807 271.891 164.402 272.146 164.789 272.557C165.176 272.967 165.37 273.505 165.37 274.17C165.37 275.122 165.04 275.856 164.379 276.371C163.718 276.882 162.779 277.137 161.562 277.137C161.034 277.137 160.549 277.096 160.106 277.014C159.669 276.936 159.243 276.797 158.828 276.597V275.517C159.261 275.731 159.721 275.895 160.209 276.009C160.701 276.118 161.166 276.173 161.604 276.173C163.331 276.173 164.194 275.496 164.194 274.143C164.194 272.93 163.242 272.324 161.337 272.324H160.353V271.347H161.351C162.13 271.347 162.747 271.176 163.203 270.834C163.659 270.488 163.887 270.009 163.887 269.398C163.887 268.911 163.718 268.528 163.381 268.25C163.048 267.972 162.595 267.833 162.021 267.833C161.583 267.833 161.171 267.892 160.783 268.011C160.396 268.129 159.954 268.348 159.457 268.667L158.883 267.901C159.293 267.578 159.765 267.325 160.298 267.143C160.836 266.956 161.401 266.862 161.993 266.862C162.964 266.862 163.718 267.086 164.256 267.532C164.794 267.974 165.062 268.583 165.062 269.357ZM173.074 269.357C173.074 269.995 172.894 270.517 172.534 270.923C172.179 271.328 171.673 271.6 171.017 271.736V271.791C171.819 271.891 172.413 272.146 172.801 272.557C173.188 272.967 173.382 273.505 173.382 274.17C173.382 275.122 173.051 275.856 172.391 276.371C171.73 276.882 170.791 277.137 169.574 277.137C169.046 277.137 168.56 277.096 168.118 277.014C167.681 276.936 167.255 276.797 166.84 276.597V275.517C167.273 275.731 167.733 275.895 168.221 276.009C168.713 276.118 169.178 276.173 169.615 276.173C171.342 276.173 172.206 275.496 172.206 274.143C172.206 272.93 171.254 272.324 169.349 272.324H168.364V271.347H169.362C170.142 271.347 170.759 271.176 171.215 270.834C171.671 270.488 171.898 270.009 171.898 269.398C171.898 268.911 171.73 268.528 171.393 268.25C171.06 267.972 170.606 267.833 170.032 267.833C169.595 267.833 169.182 267.892 168.795 268.011C168.408 268.129 167.965 268.348 167.469 268.667L166.895 267.901C167.305 267.578 167.776 267.325 168.31 267.143C168.847 266.956 169.412 266.862 170.005 266.862C170.976 266.862 171.73 267.086 172.268 267.532C172.805 267.974 173.074 268.583 173.074 269.357Z" fill="#5F5F5F"/>
<rect x="208" y="174" width="80" height="80" rx="8" fill="#222222"/>
<path d="M225.706 270.854L225.255 273.179H227.189V274.061H225.091L224.517 277H223.58L224.154 274.061H222.083L221.522 277H220.593L221.14 274.061H219.349V273.179H221.311L221.775 270.854H219.882V269.986H221.926L222.486 267.006H223.437L222.876 269.986H224.961L225.535 267.006H226.451L225.877 269.986H227.682V270.854H225.706ZM222.247 273.179H224.318L224.77 270.854H222.698L222.247 273.179ZM235.304 277H228.734V276.022L231.366 273.377C232.168 272.566 232.697 271.987 232.952 271.641C233.207 271.294 233.399 270.957 233.526 270.629C233.654 270.301 233.718 269.948 233.718 269.569C233.718 269.036 233.556 268.615 233.232 268.305C232.909 267.99 232.46 267.833 231.886 267.833C231.471 267.833 231.077 267.901 230.703 268.038C230.334 268.175 229.922 268.423 229.466 268.783L228.864 268.011C229.785 267.245 230.787 266.862 231.872 266.862C232.811 266.862 233.547 267.104 234.08 267.587C234.613 268.065 234.88 268.71 234.88 269.521C234.88 270.155 234.702 270.782 234.347 271.401C233.991 272.021 233.326 272.805 232.351 273.753L230.163 275.893V275.947H235.304V277ZM243.315 277H236.746V276.022L239.378 273.377C240.18 272.566 240.709 271.987 240.964 271.641C241.219 271.294 241.41 270.957 241.538 270.629C241.666 270.301 241.729 269.948 241.729 269.569C241.729 269.036 241.568 268.615 241.244 268.305C240.921 267.99 240.472 267.833 239.897 267.833C239.483 267.833 239.089 267.901 238.715 268.038C238.346 268.175 237.933 268.423 237.478 268.783L236.876 268.011C237.797 267.245 238.799 266.862 239.884 266.862C240.823 266.862 241.559 267.104 242.092 267.587C242.625 268.065 242.892 268.71 242.892 269.521C242.892 270.155 242.714 270.782 242.358 271.401C242.003 272.021 241.338 272.805 240.362 273.753L238.175 275.893V275.947H243.315V277ZM251.327 277H244.758V276.022L247.39 273.377C248.192 272.566 248.72 271.987 248.976 271.641C249.231 271.294 249.422 270.957 249.55 270.629C249.677 270.301 249.741 269.948 249.741 269.569C249.741 269.036 249.579 268.615 249.256 268.305C248.932 267.99 248.483 267.833 247.909 267.833C247.494 267.833 247.1 267.901 246.727 268.038C246.357 268.175 245.945 268.423 245.489 268.783L244.888 268.011C245.808 267.245 246.811 266.862 247.896 266.862C248.834 266.862 249.57 267.104 250.104 267.587C250.637 268.065 250.903 268.71 250.903 269.521C250.903 270.155 250.726 270.782 250.37 271.401C250.015 272.021 249.349 272.805 248.374 273.753L246.187 275.893V275.947H251.327V277ZM259.339 277H252.77V276.022L255.401 273.377C256.203 272.566 256.732 271.987 256.987 271.641C257.243 271.294 257.434 270.957 257.562 270.629C257.689 270.301 257.753 269.948 257.753 269.569C257.753 269.036 257.591 268.615 257.268 268.305C256.944 267.99 256.495 267.833 255.921 267.833C255.506 267.833 255.112 267.901 254.738 268.038C254.369 268.175 253.957 268.423 253.501 268.783L252.899 268.011C253.82 267.245 254.823 266.862 255.907 266.862C256.846 266.862 257.582 267.104 258.115 267.587C258.648 268.065 258.915 268.71 258.915 269.521C258.915 270.155 258.737 270.782 258.382 271.401C258.026 272.021 257.361 272.805 256.386 273.753L254.198 275.893V275.947H259.339V277ZM267.351 277H260.781V276.022L263.413 273.377C264.215 272.566 264.744 271.987 264.999 271.641C265.254 271.294 265.446 270.957 265.573 270.629C265.701 270.301 265.765 269.948 265.765 269.569C265.765 269.036 265.603 268.615 265.279 268.305C264.956 267.99 264.507 267.833 263.933 267.833C263.518 267.833 263.124 267.901 262.75 268.038C262.381 268.175 261.968 268.423 261.513 268.783L260.911 268.011C261.832 267.245 262.834 266.862 263.919 266.862C264.858 266.862 265.594 267.104 266.127 267.587C266.66 268.065 266.927 268.71 266.927 269.521C266.927 270.155 266.749 270.782 266.394 271.401C266.038 272.021 265.373 272.805 264.397 273.753L262.21 275.893V275.947H267.351V277ZM275.362 277H268.793V276.022L271.425 273.377C272.227 272.566 272.756 271.987 273.011 271.641C273.266 271.294 273.457 270.957 273.585 270.629C273.713 270.301 273.776 269.948 273.776 269.569C273.776 269.036 273.615 268.615 273.291 268.305C272.967 267.99 272.519 267.833 271.944 267.833C271.53 267.833 271.135 267.901 270.762 268.038C270.393 268.175 269.98 268.423 269.524 268.783L268.923 268.011C269.843 267.245 270.846 266.862 271.931 266.862C272.869 266.862 273.605 267.104 274.139 267.587C274.672 268.065 274.938 268.71 274.938 269.521C274.938 270.155 274.761 270.782 274.405 271.401C274.05 272.021 273.384 272.805 272.409 273.753L270.222 275.893V275.947H275.362V277Z" fill="#5F5F5F"/>
<rect x="312" y="174" width="80" height="80" rx="8" fill="#4F4F4F"/>
<path d="M331.206 270.854L330.755 273.179H332.689V274.061H330.591L330.017 277H329.08L329.654 274.061H327.583L327.022 277H326.093L326.64 274.061H324.849V273.179H326.811L327.275 270.854H325.382V269.986H327.426L327.986 267.006H328.937L328.376 269.986H330.461L331.035 267.006H331.951L331.377 269.986H333.182V270.854H331.206ZM327.747 273.179H329.818L330.27 270.854H328.198L327.747 273.179ZM341.275 274.703H339.792V277H338.705V274.703H333.845V273.712L338.589 266.951H339.792V273.671H341.275V274.703ZM338.705 273.671V270.349C338.705 269.697 338.728 268.961 338.773 268.141H338.719C338.5 268.578 338.295 268.94 338.104 269.228L334.979 273.671H338.705ZM344.099 277H342.937V267.006H348.508V268.038H344.099V271.695H348.241V272.728H344.099V277ZM356.52 274.703H355.036V277H353.949V274.703H349.089V273.712L353.833 266.951H355.036V273.671H356.52V274.703ZM353.949 273.671V270.349C353.949 269.697 353.972 268.961 354.018 268.141H353.963C353.744 268.578 353.539 268.94 353.348 269.228L350.224 273.671H353.949ZM359.343 277H358.181V267.006H363.752V268.038H359.343V271.695H363.485V272.728H359.343V277ZM371.764 274.703H370.28V277H369.193V274.703H364.333V273.712L369.077 266.951H370.28V273.671H371.764V274.703ZM369.193 273.671V270.349C369.193 269.697 369.216 268.961 369.262 268.141H369.207C368.988 268.578 368.783 268.94 368.592 269.228L365.468 273.671H369.193ZM374.587 277H373.425V267.006H378.996V268.038H374.587V271.695H378.729V272.728H374.587V277Z" fill="#5F5F5F"/>
<rect x="416" y="174" width="80" height="80" rx="8" fill="#828282"/>
<path d="M433.706 270.854L433.255 273.179H435.189V274.061H433.091L432.517 277H431.58L432.154 274.061H430.083L429.522 277H428.593L429.14 274.061H427.349V273.179H429.311L429.775 270.854H427.882V269.986H429.926L430.486 267.006H431.437L430.876 269.986H432.961L433.535 267.006H434.451L433.877 269.986H435.682V270.854H433.706ZM430.247 273.179H432.318L432.77 270.854H430.698L430.247 273.179ZM440.043 266.862C440.954 266.862 441.677 267.074 442.21 267.498C442.743 267.922 443.01 268.507 443.01 269.255C443.01 269.747 442.857 270.196 442.552 270.602C442.246 271.007 441.759 271.376 441.089 271.709C441.9 272.096 442.477 272.504 442.818 272.933C443.16 273.356 443.331 273.849 443.331 274.409C443.331 275.239 443.042 275.902 442.463 276.398C441.884 276.891 441.091 277.137 440.084 277.137C439.018 277.137 438.197 276.904 437.623 276.439C437.049 275.97 436.762 275.307 436.762 274.45C436.762 273.306 437.459 272.415 438.854 271.777C438.225 271.422 437.773 271.039 437.5 270.629C437.227 270.214 437.09 269.752 437.09 269.241C437.09 268.517 437.356 267.94 437.89 267.512C438.427 267.079 439.145 266.862 440.043 266.862ZM437.883 274.478C437.883 275.024 438.072 275.451 438.45 275.756C438.833 276.061 439.368 276.214 440.057 276.214C440.736 276.214 441.264 276.054 441.643 275.735C442.021 275.416 442.21 274.979 442.21 274.423C442.21 273.981 442.032 273.589 441.677 273.247C441.321 272.901 440.701 272.566 439.817 272.242C439.138 272.534 438.646 272.857 438.341 273.213C438.035 273.564 437.883 273.985 437.883 274.478ZM440.029 267.785C439.46 267.785 439.013 267.922 438.689 268.195C438.366 268.469 438.204 268.833 438.204 269.289C438.204 269.708 438.339 270.068 438.607 270.369C438.876 270.67 439.373 270.971 440.098 271.271C440.749 270.998 441.21 270.704 441.479 270.39C441.752 270.075 441.889 269.708 441.889 269.289C441.889 268.829 441.722 268.464 441.39 268.195C441.062 267.922 440.608 267.785 440.029 267.785ZM451.315 277H444.746V276.022L447.378 273.377C448.18 272.566 448.709 271.987 448.964 271.641C449.219 271.294 449.41 270.957 449.538 270.629C449.666 270.301 449.729 269.948 449.729 269.569C449.729 269.036 449.568 268.615 449.244 268.305C448.921 267.99 448.472 267.833 447.897 267.833C447.483 267.833 447.089 267.901 446.715 268.038C446.346 268.175 445.933 268.423 445.478 268.783L444.876 268.011C445.797 267.245 446.799 266.862 447.884 266.862C448.823 266.862 449.559 267.104 450.092 267.587C450.625 268.065 450.892 268.71 450.892 269.521C450.892 270.155 450.714 270.782 450.358 271.401C450.003 272.021 449.338 272.805 448.362 273.753L446.175 275.893V275.947H451.315V277ZM456.066 266.862C456.978 266.862 457.7 267.074 458.233 267.498C458.767 267.922 459.033 268.507 459.033 269.255C459.033 269.747 458.881 270.196 458.575 270.602C458.27 271.007 457.782 271.376 457.112 271.709C457.924 272.096 458.5 272.504 458.842 272.933C459.184 273.356 459.354 273.849 459.354 274.409C459.354 275.239 459.065 275.902 458.486 276.398C457.908 276.891 457.115 277.137 456.107 277.137C455.041 277.137 454.221 276.904 453.646 276.439C453.072 275.97 452.785 275.307 452.785 274.45C452.785 273.306 453.482 272.415 454.877 271.777C454.248 271.422 453.797 271.039 453.523 270.629C453.25 270.214 453.113 269.752 453.113 269.241C453.113 268.517 453.38 267.94 453.913 267.512C454.451 267.079 455.169 266.862 456.066 266.862ZM453.906 274.478C453.906 275.024 454.095 275.451 454.474 275.756C454.856 276.061 455.392 276.214 456.08 276.214C456.759 276.214 457.288 276.054 457.666 275.735C458.044 275.416 458.233 274.979 458.233 274.423C458.233 273.981 458.056 273.589 457.7 273.247C457.345 272.901 456.725 272.566 455.841 272.242C455.162 272.534 454.67 272.857 454.364 273.213C454.059 273.564 453.906 273.985 453.906 274.478ZM456.053 267.785C455.483 267.785 455.036 267.922 454.713 268.195C454.389 268.469 454.228 268.833 454.228 269.289C454.228 269.708 454.362 270.068 454.631 270.369C454.9 270.67 455.396 270.971 456.121 271.271C456.773 270.998 457.233 270.704 457.502 270.39C457.775 270.075 457.912 269.708 457.912 269.289C457.912 268.829 457.746 268.464 457.413 268.195C457.085 267.922 456.632 267.785 456.053 267.785ZM467.339 277H460.77V276.022L463.401 273.377C464.203 272.566 464.732 271.987 464.987 271.641C465.243 271.294 465.434 270.957 465.562 270.629C465.689 270.301 465.753 269.948 465.753 269.569C465.753 269.036 465.591 268.615 465.268 268.305C464.944 267.99 464.495 267.833 463.921 267.833C463.506 267.833 463.112 267.901 462.738 268.038C462.369 268.175 461.957 268.423 461.501 268.783L460.899 268.011C461.82 267.245 462.823 266.862 463.907 266.862C464.846 266.862 465.582 267.104 466.115 267.587C466.648 268.065 466.915 268.71 466.915 269.521C466.915 270.155 466.737 270.782 466.382 271.401C466.026 272.021 465.361 272.805 464.386 273.753L462.198 275.893V275.947H467.339V277ZM472.09 266.862C473.001 266.862 473.724 267.074 474.257 267.498C474.79 267.922 475.057 268.507 475.057 269.255C475.057 269.747 474.904 270.196 474.599 270.602C474.293 271.007 473.806 271.376 473.136 271.709C473.947 272.096 474.523 272.504 474.865 272.933C475.207 273.356 475.378 273.849 475.378 274.409C475.378 275.239 475.089 275.902 474.51 276.398C473.931 276.891 473.138 277.137 472.131 277.137C471.064 277.137 470.244 276.904 469.67 276.439C469.096 275.97 468.809 275.307 468.809 274.45C468.809 273.306 469.506 272.415 470.9 271.777C470.271 271.422 469.82 271.039 469.547 270.629C469.273 270.214 469.137 269.752 469.137 269.241C469.137 268.517 469.403 267.94 469.937 267.512C470.474 267.079 471.192 266.862 472.09 266.862ZM469.93 274.478C469.93 275.024 470.119 275.451 470.497 275.756C470.88 276.061 471.415 276.214 472.104 276.214C472.783 276.214 473.311 276.054 473.689 275.735C474.068 275.416 474.257 274.979 474.257 274.423C474.257 273.981 474.079 273.589 473.724 273.247C473.368 272.901 472.748 272.566 471.864 272.242C471.185 272.534 470.693 272.857 470.388 273.213C470.082 273.564 469.93 273.985 469.93 274.478ZM472.076 267.785C471.507 267.785 471.06 267.922 470.736 268.195C470.413 268.469 470.251 268.833 470.251 269.289C470.251 269.708 470.385 270.068 470.654 270.369C470.923 270.67 471.42 270.971 472.145 271.271C472.796 270.998 473.257 270.704 473.525 270.39C473.799 270.075 473.936 269.708 473.936 269.289C473.936 268.829 473.769 268.464 473.437 268.195C473.108 267.922 472.655 267.785 472.076 267.785ZM483.362 277H476.793V276.022L479.425 273.377C480.227 272.566 480.756 271.987 481.011 271.641C481.266 271.294 481.457 270.957 481.585 270.629C481.713 270.301 481.776 269.948 481.776 269.569C481.776 269.036 481.615 268.615 481.291 268.305C480.967 267.99 480.519 267.833 479.944 267.833C479.53 267.833 479.135 267.901 478.762 268.038C478.393 268.175 477.98 268.423 477.524 268.783L476.923 268.011C477.843 267.245 478.846 266.862 479.931 266.862C480.869 266.862 481.605 267.104 482.139 267.587C482.672 268.065 482.938 268.71 482.938 269.521C482.938 270.155 482.761 270.782 482.405 271.401C482.05 272.021 481.384 272.805 480.409 273.753L478.222 275.893V275.947H483.362V277Z" fill="#5F5F5F"/>
</svg>
