<?xml version="1.0" encoding="UTF-8"?>
<svg width="900px" height="419px" viewBox="0 0 900 419" version="1.1" xmlns="http://www.w3.org/2000/svg" xmlns:xlink="http://www.w3.org/1999/xlink">
    <!-- Generator: Sketch 54.1 (76490) - https://sketchapp.com -->
    <title>project-icon</title>
    <desc>Created with Sketch.</desc>
    <defs>
        <linearGradient x1="22.0030872%" y1="-6.82491051%" x2="86.9357154%" y2="59.6467686%" id="linearGradient-1">
            <stop stop-color="#8BFAF8" offset="0%"></stop>
            <stop stop-color="#4AC8C4" offset="100%"></stop>
        </linearGradient>
        <linearGradient x1="50%" y1="0%" x2="50%" y2="100%" id="linearGradient-2">
            <stop stop-color="#BBFBFA" offset="0%"></stop>
            <stop stop-color="#5CD6D2" offset="100%"></stop>
        </linearGradient>
        <linearGradient x1="50%" y1="0%" x2="50%" y2="100%" id="linearGradient-3">
            <stop stop-color="#BBFBFA" offset="0%"></stop>
            <stop stop-color="#5CD6D2" offset="100%"></stop>
        </linearGradient>
        <linearGradient x1="50%" y1="0%" x2="50%" y2="100%" id="linearGradient-4">
            <stop stop-color="#BBFBFA" offset="0%"></stop>
            <stop stop-color="#5CD6D2" offset="100%"></stop>
        </linearGradient>
    </defs>
    <g id="project-icon" stroke="none" stroke-width="1" fill="none" fill-rule="evenodd">
        <rect id="Rectangle-2" x="814" y="311" width="900" height="419"></rect>
        <g id="project-icon-graphic" transform="translate(284.000000, 81.000000)">
            <path d="M177.88435,260.966315 C177.88435,260.966315 174.610379,199.83282 165.552392,199.83282 C156.494405,199.83282 85.8311924,215.579326 89.5962593,176.349276 L89.5962593,172.535244 C89.5962593,172.535244 79.3378162,168.121863 86.3222881,163.272593 C89.1214188,160.827691 93.0309828,160.097027 96.5261651,161.365577 C96.5261651,161.365577 80.5382723,152.974705 82.8300521,151.122175 C84.8771927,149.510381 86.0717949,147.050766 86.0717949,144.447618 C86.0717949,141.844469 84.8771927,139.384854 82.8300521,137.77306 C76.664073,132.651359 68.8571329,124.499182 74.2085946,122.135527 C75.556558,121.540153 83.5376728,116.885073 86.3222881,110.256677 C92.910931,94.5733138 97.9358446,66.6109582 115.269213,46.3749014 C149.679926,6.20168471 202.136671,-17.1168966 250.675643,16.8137396 C333.998211,75.0594666 248.165599,180.272281 246.201216,182.124811 C244.236833,183.977342 267.100066,223.043933 270.374037,227.021424 C273.648008,230.998915 214.66196,262.165011 177.88435,260.966315 Z" id="Path" fill="url(#linearGradient-1)" fill-rule="nonzero"></path>
            <path d="M62.3893284,44 C62.3893284,44 26.3907227,76.9521355 68.2710976,117 C112.512349,117.807896 145.588649,117.807896 167.5,117 C193.538381,116.039936 232.386677,113.387997 284.044889,109.044183 C285.508166,102.841459 286.455308,96.5310498 286.876851,90.1759941 C287.186089,83.9467051 286.912626,77.7025399 286.059939,71.5228277 C239.05259,67.1781735 203.603235,63.5359219 179.711874,60.596073 C153.898655,57.419738 114.79114,51.8877136 62.3893284,44 Z" id="Path" fill="#666666" fill-rule="nonzero"></path>
            <path d="M60.1617606,46.9587325 C58.51153,49.548782 57.073563,52.265132 55.8616154,55.0817981 C55.0451321,56.7494473 54.3919455,58.6860722 53.6843267,60.4613117 C53.0235873,62.5645193 52.4784685,64.7015161 52.0513601,66.8629329 C51.5934331,70.5902966 51.3644696,72.92763 51.3644696,73.8749331 C51.1635279,76.2557168 51.251664,78.6302702 51.4526057,81.0110538 C51.779199,83.3780398 52.2146568,85.7988209 52.758979,88.1120118 C53.3033011,90.4252027 54.1197844,92.6845984 55.0451321,94.7826087 C55.9704798,96.880619 56.9502598,98.9248342 57.8211752,100.861459 L60.9238117,106.240973 C61.7410877,107.775171 62.668823,109.249365 63.6998548,110.652174 L66.0404402,113.987472 C67.2923812,115.870302 68,117 68,117 C68,117 66.9657879,116.193073 65.2783891,114.686809 L62.1757527,111.943257 L60.270625,110.221813 L58.4743619,108.070007 C57.2224208,106.563744 55.8071832,104.896094 54.4463777,103.06706 C53.0855723,101.238025 51.9969279,99.0324245 50.7994191,96.8268239 C49.6959922,94.4750438 48.7149321,92.0690549 47.8600793,89.6182756 C47.1605756,87.0127017 46.5973629,84.3732418 46.1726806,81.7103906 C45.9424398,79.0074826 45.9424398,76.2902329 46.1726806,73.587325 C46.3404406,70.9816447 46.7967689,68.4019969 47.533486,65.8946205 C48.1851338,63.5659804 49.0411522,61.2979819 50.0918003,59.1164333 C51.0206117,57.244247 52.0943029,55.4457306 53.3033011,53.7369197 C55.0860128,51.0747952 57.1676675,48.6204834 59.508574,46.4207811 C60.3050219,45.5387745 61.1793936,44.7286453 62.1213205,44 C62.1213205,44 61.3592694,45.0221076 60.1617606,46.9587325 Z" id="Path" fill="url(#linearGradient-2)" fill-rule="nonzero"></path>
            <path d="M44.3114917,35.0530582 C42.0611772,38.6010712 40.1003132,42.3220986 38.4476574,46.1805453 C37.3342711,48.4649963 36.4435621,51.1179071 35.4786273,53.5497421 C34.5776191,56.4308484 33.8342752,59.3582412 33.2518547,62.3190862 C32.6274088,67.4250638 32.3151859,70.6268904 32.3151859,71.9245659 C32.0411743,75.1859134 32.1613599,78.4387263 32.4353715,81.7000737 C32.880726,84.9425203 33.474532,88.2586588 34.2167895,91.4274134 C34.959047,94.596168 36.0724333,97.6912307 37.3342711,100.565217 C38.5961089,103.439204 39.9321724,106.239499 41.1197844,108.89241 L45.3506523,116.261606 C46.4651196,118.363248 47.7302131,120.382692 49.1361656,122.304348 L52.3278729,126.87325 C54.0350652,129.452469 55,131 55,131 C55,131 53.5897107,129.89462 51.2887124,127.831245 L47.0578446,124.072955 L44.4599432,121.714812 L42.0104934,118.767133 C40.3033011,116.703758 38.3734316,114.419307 36.5177878,111.91378 C34.662144,109.408254 33.177629,106.386883 31.5446624,103.365512 C30.0399894,100.143896 28.7021802,96.8480204 27.5364718,93.4907885 C26.5826031,89.9215091 25.8145857,86.3058106 25.2354735,82.6580693 C24.9215088,78.9554556 24.9215088,75.2331958 25.2354735,71.5305822 C25.4642372,67.9611571 26.0865031,64.4273931 27.0911173,60.9926308 C27.9797279,57.8027129 29.1470257,54.6958656 30.5797277,51.7074429 C31.8462887,49.1428041 33.3104131,46.6790831 34.959047,44.3382461 C37.3900175,40.6915002 40.2286375,37.3294293 43.4207827,34.3161385 C44.5068481,33.1079103 45.699173,31.9981442 46.9836188,31 C46.9836188,31 45.9444583,32.4001474 44.3114917,35.0530582 Z" id="Path-Copy" fill="url(#linearGradient-3)" fill-rule="nonzero"></path>
            <path d="M27.0360884,16.6742815 C23.8856481,21.6414996 21.1404385,26.8509381 18.8267203,32.2527634 C17.2679795,35.4509948 16.0209869,39.16507 14.6700782,42.5696389 C13.4086667,46.6031878 12.3679853,50.7015377 11.5525966,54.8467207 C10.6783723,61.9950893 10.2412602,66.4776465 10.2412602,68.2943923 C9.85764409,72.8602787 10.0259039,77.4142168 10.40952,81.9801032 C11.0330164,86.5195284 11.8643448,91.1621223 12.9035053,95.5983788 C13.9426658,100.034635 15.5014066,104.367723 17.2679795,108.391304 C19.0345524,112.414886 20.9050413,116.335298 22.5676982,120.049374 L28.4909132,130.366249 C30.0511674,133.308547 31.8222984,136.135769 33.7906319,138.826087 L38.2590221,145.22255 C40.6490913,148.833456 42,151 42,151 C42,151 40.025595,149.452469 36.8041974,146.563744 L30.8809824,141.302137 L27.2439205,138.000737 L23.8146908,133.873987 C21.4246216,130.985262 18.7228042,127.78703 16.1249029,124.279293 C13.5270016,120.771555 11.4486806,116.541636 9.16252741,112.311717 C7.0559852,107.801454 5.18305227,103.187228 3.55106057,98.4871039 C2.21564429,93.4901128 1.14042003,88.4281349 0.329662944,83.321297 C-0.109887648,78.1376379 -0.109887648,72.9264741 0.329662944,67.742815 C0.64993214,62.74562 1.52110434,57.7983503 2.92756426,52.9896831 C4.17161905,48.523798 5.80583597,44.1742119 7.81161872,39.99042 C9.58480414,36.3999257 11.6345784,32.9507163 13.9426658,29.6735446 C17.3460244,24.5681003 21.3200925,19.861201 25.7890958,15.642594 C27.3095873,13.9510744 28.9788422,12.3974019 30.7770663,11 C30.7770663,11 29.3222416,12.9602063 27.0360884,16.6742815 Z" id="Path-Copy-2" fill="url(#linearGradient-4)" fill-rule="nonzero"></path>
            <path d="M287,91 C252.200997,91.1412895 219.429662,90.3651806 188.685994,88.6716735 C157.942327,86.9781664 112.046996,83.4209419 51,78" id="Path" stroke="#53F4EF" stroke-width="1.2"></path>
        </g>
    </g>
</svg>