<?xml version="1.0" encoding="utf-8"?>
<!-- Generator: Adobe Illustrator 16.0.1, SVG Export Plug-In . SVG Version: 6.00 Build 0)  -->
<!DOCTYPE svg PUBLIC "-//W3C//DTD SVG 1.1//EN" "http://www.w3.org/Graphics/SVG/1.1/DTD/svg11.dtd">
<svg version="1.1" id="Layer_1" xmlns="http://www.w3.org/2000/svg" xmlns:xlink="http://www.w3.org/1999/xlink" x="0px" y="0px"
	 width="719.527px" height="61.148px" viewBox="0 0 719.527 61.148" enable-background="new 0 0 719.527 61.148"
	 xml:space="preserve">
<g>
	<g>
		<path fill="#FFFFFF" d="M104.716,60.703H73.994V58.45h1.646c2.035,0,3.234-0.974,3.234-3.447V6.318
			c0-2.473-1.199-3.438-3.234-3.438h-1.646V0.6h30.722v20.659h-2.033v-0.228c0-12.235-3.715-17.786-10.511-17.786h-5.04V28.18h1.29
			c3.828,0,5.621-3.672,5.621-11.414v-0.235h2.042v26.007h-2.042v-0.157c0-7.587-1.715-11.509-5.621-11.509h-1.29v27.206h4.734
			c6.721,0,10.816-6.547,10.816-17.709v-0.235h2.033V60.703z"/>
		<path fill="#FFFFFF" d="M72.036,60.703H54.008V58.45h1.58c2.023,0,3.304-0.974,3.304-3.447V31.4H45.744v23.603
			c0,2.488,1.278,3.447,3.309,3.447h1.587v2.253H32.606V58.45h1.573c2.038,0,3.31-0.974,3.31-3.447V6.318
			c0-2.473-1.272-3.438-3.31-3.438h-1.573V0.6H50.64v2.28h-1.587c-2.031,0-3.309,0.965-3.309,3.438V28.18h13.148V6.318
			c0-2.473-1.281-3.438-3.304-3.438h-1.58V0.6h18.028v2.28h-1.573c-2.031,0-3.3,0.965-3.3,3.438v48.685
			c0,2.488,1.269,3.447,3.3,3.447h1.573V60.703z"/>
		<path fill="#FFFFFF" d="M31.62,21.407h-2.024v-0.221c0-9.677-3.668-17.941-7.959-17.941H19.83v51.757
			c0,2.488,1.284,3.447,3.308,3.447h1.876v2.253H6.469V58.45h1.796c2.025,0,3.298-0.974,3.298-3.447V3.246H9.985
			c-4.285,0-7.952,7.74-7.952,17.941v0.221H0V0.6h31.62V21.407z"/>
	</g>
	<g>
		<path fill="#FFFFFF" d="M258.925,60.703h-29.824V58.45h1.652c2.033,0,3.302-0.898,3.302-3.377V6.242
			c0-2.468-1.269-3.362-3.302-3.362h-1.652V0.6h18.03v2.28h-1.585c-2.023,0-3.301,0.894-3.301,3.362v51.836h4.444
			c8.084,0,10.201-9.241,10.201-17.79v-0.226h2.035V60.703z"/>
		<path fill="#FFFFFF" d="M173.66,2.88h-0.602c-2.897,0-4.378,0.521-5.406,5.466L156.69,61.148h-3.39l-6.841-34.543h-0.073
			l-6.981,34.543h-3.389L125.278,6.994c-0.686-3.444-1.677-4.114-4.729-4.114h-0.227V0.6h16.224v2.28h-0.3
			c-2.337,0-2.924,0.67-2.924,2.245c0,0.354,0.064,1.064,0.15,1.498l6.834,36.668h0.145l4.435-24.132l-2.319-12.165
			c-0.579-3.004-1.263-4.114-3.688-4.114h-0.374V0.6h16.07v2.28h-0.296c-2.858,0-3.603,1.009-3.609,3.063
			c0,0.565,0.091,1.194,0.223,1.881l6.844,35.015h0.147l6.459-35.095c0.097-0.511,0.157-1.214,0.157-1.652
			c0-2.175-0.801-3.212-3.991-3.212h-0.448V0.6h13.6V2.88z"/>
		<path fill="#FFFFFF" d="M227.976,60.703h-45.835V58.45h0.384c3.106,0,4.064-0.829,4.064-2.548c0-0.482-0.105-1.127-0.225-1.818
			l-1.441-7.95h-10.21l-1.426,7.95c-0.132,0.746-0.228,1.292-0.228,1.818c0,1.864,0.733,2.548,3.827,2.548h0.301v2.253h-12.843
			V58.45h0.679c2.631,0,4.132-0.608,4.807-4.151L180.267,0h3.839l10.739,54.084c0.643,3.267,2.327,4.366,3.756,4.366h1.202
			c2.036,0,3.309-0.898,3.309-3.377V6.242c0-2.468-1.273-3.362-3.309-3.362h-1.575V0.6h18.029v2.28h-1.662
			c-2.021,0-3.302,0.894-3.302,3.362v51.836h4.435c8.102,0,10.209-9.174,10.209-17.859V39.99h2.038V60.703z M184.327,43.36
			l-4.512-26.594h-0.148L175.16,43.36H184.327z"/>
	</g>
	<g>
		<path fill="#FFFFFF" d="M472.057,21.407h-2.034v-0.226c0-9.672-3.66-17.931-7.967-17.931h-1.794v51.752
			c0,2.483,1.265,3.453,3.3,3.453h1.661v2.241H446.96v-2.241h1.729c2.033,0,3.304-0.979,3.304-3.453V3.25h-1.57
			c-4.3,0-7.962,7.743-7.962,17.931v0.226h-2.035V0.6h31.631V21.407z"/>
		<path fill="#FFFFFF" d="M437.801,60.697h-30.728v-2.241h1.658c2.025,0,3.229-0.979,3.229-3.453V6.326
			c0-2.481-1.204-3.454-3.229-3.454h-1.658V0.6h30.728v20.659h-2.025v-0.221c0-12.242-3.723-17.788-10.518-17.788h-5.036v24.93
			h1.273c3.835,0,5.643-3.701,5.643-11.42v-0.222h2.023v26.006h-2.023v-0.15c0-7.6-1.729-11.515-5.643-11.515h-1.273v27.19h4.73
			c6.715,0,10.823-6.531,10.823-17.708v-0.218h2.025V60.697z"/>
		<path fill="#FFFFFF" d="M405.049,60.697h-30.728v-2.241h1.654c2.029,0,3.232-0.979,3.232-3.453V6.326
			c0-2.481-1.203-3.454-3.232-3.454h-1.654V0.6h30.728v20.659h-2.036v-0.221c0-12.242-3.711-17.788-10.518-17.788h-5.034v24.93
			h1.278c3.831,0,5.643-3.701,5.643-11.42v-0.222h2.029v26.006h-2.029v-0.15c0-7.6-1.735-11.515-5.643-11.515h-1.278v27.19h4.735
			c6.719,0,10.816-6.531,10.816-17.708v-0.218h2.036V60.697z"/>
		<path fill="#FFFFFF" d="M335.859,21.407h-2.02v-0.226c0-9.672-3.673-17.931-7.972-17.931h-1.787v51.752
			c0,2.483,1.258,3.453,3.29,3.453h1.578v2.241h-18.177v-2.241h1.728c2.032,0,3.305-0.979,3.305-3.453V3.25h-1.57
			c-4.303,0-7.962,7.743-7.962,17.931v0.226h-2.028V0.6h31.615V21.407z"/>
		<path fill="#FFFFFF" d="M304.165,46.141c0,10.629-6.445,15.008-13.976,15.008c-5.463,0-7.962-1.799-10.586-3.597l-1.422,3.146
			h-1.574V40.062h2.024v0.606c0,14.482,7.292,17.787,10.963,17.787c5.333,0,8.032-3.927,8.032-9.552
			c0-6.892-4.333-11.939-10.59-16.657c-5.666-4.301-10.886-9.57-10.886-18.328c0-9.057,5.568-13.769,12.244-13.769
			c5.549,0,8.125,2.278,9.61,3.55l1.507-2.943h1.495v20.729h-2.022v-0.596c0-11.241-3.383-18.018-10.064-18.018
			c-4.059,0-6.47,2.974-6.47,7.743c0,5.64,3.343,8.842,9.553,13.649C298.873,29.598,304.165,35.223,304.165,46.141z"/>
		<path fill="#FFFFFF" d="M373.871,52.505c0,5.047-1.914,8.644-6.829,8.644c-4.938,0-7.019-3.647-7.366-11.116l-0.52-11.184
			c-0.285-5.898-2.55-7.525-5.936-7.525h-2.187v23.68c0,2.474,0.979,3.453,3.006,3.453h1.95v2.241h-18.172v-2.241h1.724
			c2.029,0,3.302-0.979,3.302-3.453V6.326c0-2.481-1.273-3.454-3.302-3.454h-1.724V0.6h16.447c9.942,0,16.143,5.109,16.143,14.588
			c0,9.925-6.887,13.665-12.99,14.862v0.15c4.998,0.521,9.559,4.267,9.846,9.943l0.68,13.108c0.128,2.635,0.444,3.402,1.724,3.402
			c1.496,0,1.863-1.131,1.863-5.047v-2.174h2.341V52.505z M361.772,15.345c0-9.402-3.711-12.095-8.779-12.095h-1.959v25.304h2.258
			C358.584,28.554,361.772,24.958,361.772,15.345z"/>
	</g>
	<g>
		<path fill="#FFFFFF" d="M719.527,57.021c0,2.265-1.669,4.128-3.453,4.128c-1.772,0-3.447-1.863-3.447-4.128
			c0-2.245,1.675-4.062,3.447-4.062C717.858,52.959,719.527,54.775,719.527,57.021z"/>
		<path fill="#FFFFFF" d="M648.555,2.873h-1.609c-1.872,0-3.378,1.418-3.378,4.35v53.701h-2.937l-18.766-47.311h-0.152v40.465
			c0,2.947,1.498,4.378,3.379,4.378h1.602v2.241h-12.646v-2.241h1.588c1.872,0,3.378-1.431,3.378-4.378V6.623
			c0-2.104-0.819-3.75-2.939-3.75h-2.026V0.6h11.421l15.247,38.697h0.131V7.223c0-2.958-1.491-4.35-3.357-4.35h-1.574V0.6h12.64
			V2.873z"/>
		<path fill="#FFFFFF" d="M511.738,2.873h-1.648c-2.042,0-3.307,0.966-3.307,3.454v41.915c0,9.402-5.901,12.907-13.45,12.907
			c-5.389,0-10.816-4.409-10.816-12.907c0-4.565,2.834-6.525,5.116-6.525c2.354,0,4.047,1.664,4.047,4.493
			c0,3.623-2.117,5.149-4.875,5.544c0,3.103,2.383,6.703,6.453,6.703c3.913,0,5.268-2.176,5.268-8.642V6.326
			c0-2.481-1.203-3.454-3.238-3.454h-1.879V0.6h18.33V2.873z"/>
		<path fill="#FFFFFF" d="M709.115,60.697h-45.943v-2.241h0.451c3.103,0,4.058-0.825,4.058-2.554c0-0.482-0.111-1.127-0.227-1.824
			l-1.428-7.938h-10.197l-1.423,7.938c-0.131,0.757-0.23,1.298-0.23,1.824c0,1.859,0.734,2.554,3.831,2.554h0.3v2.241h-12.855
			v-2.241h0.675c2.658,0,4.161-0.614,4.827-4.146L661.379,0h3.817l10.756,54.078c0.649,3.283,2.338,4.378,3.786,4.378h1.205
			c2.021,0,3.287-0.904,3.287-3.375V6.25c0-2.476-1.267-3.377-3.287-3.377h-1.647V0.6h18.129v2.272h-1.72
			c-2.03,0-3.303,0.901-3.303,3.377v51.819h4.424c8.107,0,10.216-9.165,10.216-17.781v-0.226h2.073V60.697z M665.429,43.36
			l-4.513-26.6h-0.142l-4.497,26.6H665.429z"/>
		<path fill="#FFFFFF" d="M613.748,52.505c0,5.047-1.91,8.644-6.831,8.644c-4.92,0-7.004-3.647-7.363-11.116l-0.528-11.184
			c-0.28-5.924-2.532-7.525-5.92-7.525h-2.19v23.68c0,2.474,0.979,3.453,3.02,3.453h1.861v2.241h-18.094v-2.241h1.728
			c2.037,0,3.293-0.979,3.293-3.453V6.326c0-2.456-1.23-3.454-3.212-3.454h-3.167c-1.874,0-3.005,1.567-3.005,4.35v40.036
			c0,7.982-2.652,13.89-11.259,13.89c-9.165,0-14.499-5.609-14.499-13.89V6.326c0-2.488-1.2-3.454-3.232-3.454h-1.668V0.6h18.12
			v2.272h-1.654c-2.044,0-3.232,0.966-3.232,3.454v41.462c0,6.756,2.664,10.362,7.219,10.362c4.603,0,7.429-2.989,7.429-10.362
			V7.223c0-2.783-1.058-4.35-2.932-4.35h-1.879V0.6h28.401c9.941,0,16.148,5.109,16.148,14.588c0,9.925-6.906,13.665-13.009,14.862
			v0.15c5.005,0.521,9.562,4.24,9.861,9.943l0.674,13.108c0.13,2.635,0.451,3.402,1.724,3.402c1.503,0,1.875-1.131,1.875-5.047
			v-2.174h2.322V52.505z M601.667,15.345c0-9.402-3.716-12.095-8.787-12.095h-1.965v25.304h2.261
			C598.475,28.554,601.667,24.958,601.667,15.345z"/>
		<path fill="#FFFFFF" d="M542.843,30.507c0,17.078-5.599,30.642-15.856,30.642c-9.996,0-15.621-13.563-15.621-30.642
			c0-17.068,5.382-30.357,15.621-30.357C537.118,0.15,542.843,13.438,542.843,30.507z M533.528,44.791V16.39
			c0-10.388-2.311-13.518-6.542-13.518c-4.232,0-6.379,2.974-6.379,13.666v28.168c0,10.016,1.91,13.75,6.379,13.75
			C531.374,58.456,533.528,54.475,533.528,44.791z"/>
	</g>
</g>
</svg>
