<?xml version="1.0" encoding="UTF-8"?>
<svg width="900px" height="419px" viewBox="0 0 900 419" version="1.1" xmlns="http://www.w3.org/2000/svg" xmlns:xlink="http://www.w3.org/1999/xlink">
    <!-- Generator: Sketch 55.1 (78136) - https://sketchapp.com -->
    <title>project-icon</title>
    <desc>Created with Sketch.</desc>
    <defs>
        <linearGradient x1="22.0030872%" y1="-6.82491051%" x2="86.9357154%" y2="59.6467686%" id="linearGradient-1">
            <stop stop-color="#8BFAF8" offset="0%"></stop>
            <stop stop-color="#4AC8C4" offset="100%"></stop>
        </linearGradient>
        <linearGradient x1="50%" y1="0%" x2="50%" y2="100%" id="linearGradient-2">
            <stop stop-color="#BBFBFA" offset="0%"></stop>
            <stop stop-color="#5CD6D2" offset="100%"></stop>
        </linearGradient>
        <linearGradient x1="50%" y1="0%" x2="50%" y2="100%" id="linearGradient-3">
            <stop stop-color="#BBFBFA" offset="0%"></stop>
            <stop stop-color="#5CD6D2" offset="100%"></stop>
        </linearGradient>
        <linearGradient x1="50%" y1="0%" x2="50%" y2="100%" id="linearGradient-4">
            <stop stop-color="#BBFBFA" offset="0%"></stop>
            <stop stop-color="#5CD6D2" offset="100%"></stop>
        </linearGradient>
        <linearGradient x1="8.72703198%" y1="10.8961844%" x2="104.450525%" y2="56.638382%" id="linearGradient-5">
            <stop stop-color="#8BFAF8" offset="0%"></stop>
            <stop stop-color="#4AC8C4" offset="100%"></stop>
        </linearGradient>
        <linearGradient x1="8.72703198%" y1="6.04297458%" x2="104.450525%" y2="57.4622776%" id="linearGradient-6">
            <stop stop-color="#8BFAF8" offset="0%"></stop>
            <stop stop-color="#4AC8C4" offset="100%"></stop>
        </linearGradient>
    </defs>
    <g id="project-icon" stroke="none" stroke-width="1" fill="none" fill-rule="evenodd">
        <rect id="Rectangle-2" x="814" y="311" width="900" height="419"></rect>
        <g id="Group" transform="translate(230.000000, 76.000000)">
            <g id="project-icon-graphic" transform="translate(148.000000, 31.000000)">
                <path d="M181.88435,260.966315 C181.88435,260.966315 178.610379,199.83282 169.552392,199.83282 C160.494405,199.83282 89.8311924,215.579326 93.5962593,176.349276 L93.5962593,172.535244 C93.5962593,172.535244 83.3378162,168.121863 90.3222881,163.272593 C93.1214188,160.827691 97.0309828,160.097027 100.526165,161.365577 C100.526165,161.365577 84.5382723,152.974705 86.8300521,151.122175 C88.8771927,149.510381 90.0717949,147.050766 90.0717949,144.447618 C90.0717949,141.844469 88.8771927,139.384854 86.8300521,137.77306 C80.664073,132.651359 72.8571329,124.499182 78.2085946,122.135527 C79.556558,121.540153 87.5376728,116.885073 90.3222881,110.256677 C96.910931,94.5733138 101.935845,66.6109582 119.269213,46.3749014 C153.679926,6.20168471 206.136671,-17.1168966 254.675643,16.8137396 C337.998211,75.0594666 252.165599,180.272281 250.201216,182.124811 C248.236833,183.977342 271.100066,223.043933 274.374037,227.021424 C277.648008,230.998915 218.66196,262.165011 181.88435,260.966315 Z" id="Path" fill="url(#linearGradient-1)" fill-rule="nonzero"></path>
                <path d="M66.3893284,44 C66.3893284,44 30.3907227,76.9521355 72.2710976,117 C116.512349,117.807896 149.588649,117.807896 171.5,117 C197.538381,116.039936 236.386677,113.387997 288.044889,109.044183 C289.508166,102.841459 290.455308,96.5310498 290.876851,90.1759941 C291.186089,83.9467051 290.912626,77.7025399 290.059939,71.5228277 C243.05259,67.1781735 207.603235,63.5359219 183.711874,60.596073 C157.898655,57.419738 118.79114,51.8877136 66.3893284,44 Z" id="Path" fill="#666666" fill-rule="nonzero"></path>
                <path d="M64.1617606,46.9587325 C62.51153,49.548782 61.073563,52.265132 59.8616154,55.0817981 C59.0451321,56.7494473 58.3919455,58.6860722 57.6843267,60.4613117 C57.0235873,62.5645193 56.4784685,64.7015161 56.0513601,66.8629329 C55.5934331,70.5902966 55.3644696,72.92763 55.3644696,73.8749331 C55.1635279,76.2557168 55.251664,78.6302702 55.4526057,81.0110538 C55.779199,83.3780398 56.2146568,85.7988209 56.758979,88.1120118 C57.3033011,90.4252027 58.1197844,92.6845984 59.0451321,94.7826087 C59.9704798,96.880619 60.9502598,98.9248342 61.8211752,100.861459 L64.9238117,106.240973 C65.7410877,107.775171 66.668823,109.249365 67.6998548,110.652174 L70.0404402,113.987472 C71.2923812,115.870302 72,117 72,117 C72,117 70.9657879,116.193073 69.2783891,114.686809 L66.1757527,111.943257 L64.270625,110.221813 L62.4743619,108.070007 C61.2224208,106.563744 59.8071832,104.896094 58.4463777,103.06706 C57.0855723,101.238025 55.9969279,99.0324245 54.7994191,96.8268239 C53.6959922,94.4750438 52.7149321,92.0690549 51.8600793,89.6182756 C51.1605756,87.0127017 50.5973629,84.3732418 50.1726806,81.7103906 C49.9424398,79.0074826 49.9424398,76.2902329 50.1726806,73.587325 C50.3404406,70.9816447 50.7967689,68.4019969 51.533486,65.8946205 C52.1851338,63.5659804 53.0411522,61.2979819 54.0918003,59.1164333 C55.0206117,57.244247 56.0943029,55.4457306 57.3033011,53.7369197 C59.0860128,51.0747952 61.1676675,48.6204834 63.508574,46.4207811 C64.3050219,45.5387745 65.1793936,44.7286453 66.1213205,44 C66.1213205,44 65.3592694,45.0221076 64.1617606,46.9587325 Z" id="Path" fill="url(#linearGradient-2)" fill-rule="nonzero"></path>
                <path d="M50.3324824,31.6169577 C48.0821679,35.1649706 46.1213039,38.8859981 44.468648,42.7444448 C43.3552617,45.0288958 42.4645527,47.6818066 41.4996179,50.1136415 C40.5986097,52.9947479 39.8552659,55.9221407 39.2728454,58.8829857 C38.6483995,63.9889633 38.3361765,67.1907899 38.3361765,68.4884654 C38.062165,71.7498128 38.1823506,75.0026257 38.4563621,78.2639732 C38.9017166,81.5064197 39.4955226,84.8225583 40.2377802,87.9913129 C40.9800377,91.1600675 42.0934239,94.2551301 43.3552617,97.1291169 C44.6170995,100.003104 45.953163,102.803398 47.1407751,105.456309 L51.3716429,112.825506 C52.4861102,114.927147 53.7512038,116.946592 55.1571563,118.868247 L58.3488636,123.437149 C60.0560559,126.016368 61.0209907,127.563899 61.0209907,127.563899 C61.0209907,127.563899 59.6107014,126.45852 57.3097031,124.395145 L53.0788352,120.636855 L50.4809339,118.278712 L48.0314841,115.331033 C46.3242918,113.267658 44.3944223,110.983207 42.5387785,108.47768 C40.6831347,105.972153 39.1986196,102.950782 37.5656531,99.9294116 C36.0609801,96.7077951 34.7231708,93.4119198 33.5574625,90.054688 C32.6035937,86.4854086 31.8355764,82.8697101 31.2564642,79.2219687 C30.9424995,75.5193551 30.9424995,71.7970953 31.2564642,68.0944816 C31.4852279,64.5250566 32.1074938,60.9912925 33.112108,57.5565303 C34.0007185,54.3666123 35.1680163,51.2597651 36.6007183,48.2713424 C37.8672793,45.7067035 39.3314038,43.2429825 40.9800377,40.9021456 C43.4110081,37.2553997 46.2496282,33.8933288 49.4417734,30.880038 C50.5278387,29.6718098 51.7201637,28.5620437 53.0046095,27.5638995 C53.0046095,27.5638995 51.9654489,28.9640468 50.3324824,31.6169577 Z" id="Path-Copy" fill="url(#linearGradient-3)" fill-rule="nonzero" transform="translate(46.020991, 77.563899) rotate(5.000000) translate(-46.020991, -77.563899) "></path>
                <path d="M33.0570791,13.238181 C29.9066388,18.2053991 27.1614292,23.4148376 24.8477109,28.8166629 C23.2889702,32.0148943 22.0419775,35.7289695 20.6910688,39.1335384 C19.4296573,43.1670872 18.388976,47.2654372 17.5735873,51.4106202 C16.699363,58.5589888 16.2622509,63.041546 16.2622509,64.8582918 C15.8786347,69.4241782 16.0468946,73.9781163 16.4305107,78.5440026 C17.054007,83.0834278 17.8853354,87.7260218 18.924496,92.1622782 C19.9636565,96.5985347 21.5223973,100.931622 23.2889702,104.955204 C25.055543,108.978785 26.926032,112.899198 28.5886888,116.613273 L34.5119038,126.930149 C36.0721581,129.872447 37.843289,132.699669 39.8116225,135.389986 L44.2800128,141.786449 C46.670082,145.397356 48.0209907,147.563899 48.0209907,147.563899 C48.0209907,147.563899 46.0465857,146.016368 42.825188,143.127643 L36.901973,137.866037 L33.2649112,134.564636 L29.8356815,130.437886 C27.4456123,127.549161 24.7437949,124.35093 22.1458936,120.843192 C19.5479923,117.335454 17.4696712,113.105535 15.1835181,108.875616 C13.0769759,104.365353 11.2040429,99.751128 9.57205122,95.0510034 C8.23663494,90.0540122 7.16141068,84.9920343 6.3506536,79.8851964 C5.911103,74.7015373 5.911103,69.4903736 6.3506536,64.3067145 C6.67092279,59.3095194 7.54209499,54.3622498 8.94855491,49.5535826 C10.1926097,45.0876975 11.8268266,40.7381113 13.8326094,36.5543195 C15.6057948,32.9638251 17.655569,29.5146157 19.9636565,26.237444 C23.3670151,21.1319998 27.3410832,16.4251005 31.8100865,12.2064934 C33.330578,10.5149739 34.9998329,8.96130133 36.798057,7.56389946 C36.798057,7.56389946 35.3432322,9.5241058 33.0570791,13.238181 Z" id="Path-Copy-2" fill="url(#linearGradient-4)" fill-rule="nonzero" transform="translate(27.020991, 77.563899) rotate(5.000000) translate(-27.020991, -77.563899) "></path>
                <path d="M291,91 C256.200997,91.1412895 223.429662,90.3651806 192.685994,88.6716735 C161.942327,86.9781664 116.046996,83.4209419 55,78" id="Path" stroke="#53F4EF" stroke-width="1.2"></path>
            </g>
            <g id="file-document-box" transform="translate(40.000000, 0.000000)" fill="url(#linearGradient-5)" fill-rule="nonzero">
                <path d="M53.7777778,56.7777778 L19.5555556,56.7777778 L19.5555556,48.6666667 L53.7777778,48.6666667 L53.7777778,56.7777778 Z M68.4444444,40.5555556 L19.5555556,40.5555556 L19.5555556,32.4444444 L68.4444444,32.4444444 L68.4444444,40.5555556 Z M68.4444444,24.3333333 L19.5555556,24.3333333 L19.5555556,16.2222222 L68.4444444,16.2222222 L68.4444444,24.3333333 Z M78.2222222,0 L9.77777778,0 C4.35111111,0 0,3.60944444 0,8.11111111 L0,64.8888889 C0,69.3685319 4.37766022,73 9.77777778,73 L78.2222222,73 C83.6223398,73 88,69.3685319 88,64.8888889 L88,8.11111111 C88,3.60944444 83.6,0 78.2222222,0 Z" id="Shape"></path>
            </g>
            <g id="newspaper" transform="translate(0.000000, 108.000000)" fill="url(#linearGradient-6)" fill-rule="nonzero">
                <path d="M74.7,32.4444444 L8.3,32.4444444 L8.3,20.2777778 L74.7,20.2777778 L74.7,32.4444444 Z M74.7,48.6666667 L45.65,48.6666667 L45.65,40.5555556 L74.7,40.5555556 L74.7,48.6666667 Z M74.7,64.8888889 L45.65,64.8888889 L45.65,56.7777778 L74.7,56.7777778 L74.7,64.8888889 Z M37.35,64.8888889 L8.3,64.8888889 L8.3,40.5555556 L37.35,40.5555556 L37.35,64.8888889 Z M75.9892228,4.54747351e-13 L69.1805,4.54747351e-13 L62.0823843,4.54747351e-13 L55.3195,4.54747351e-13 L47.520374,4.54747351e-13 L41.5,4.54747351e-13 L34.0431953,4.54747351e-13 L27.6805,4.54747351e-13 L20.1271253,4.54747351e-13 L13.8195,4.54747351e-13 L6.83352125,4.54747351e-13 C3.05947168,4.55440633e-13 -1.35036619e-15,3.05947168 0,6.83352125 L0,64.8888889 C0,69.3685319 3.71603658,73 8.3,73 L74.7,73 C79.2839634,73 83,69.3685319 83,64.8888889 L83,7.01077721 C83,3.13883187 79.8611681,4.60914043e-13 75.9892228,4.54747351e-13 L75.9892228,4.54747351e-13 Z" id="Shape"></path>
            </g>
        </g>
    </g>
</svg>